<svg width="151" height="38" fill="none" xmlns="http://www.w3.org/2000/svg"><path d="M53.721 8.636h3.66v14.319c-.007 1.312-.286 2.442-.836 3.39a5.58 5.58 0 01-2.307 2.178c-.98.503-2.124.755-3.43.755-1.193 0-2.267-.212-3.222-.636a5.249 5.249 0 01-2.257-1.909c-.556-.842-.835-1.89-.835-3.142h3.67c.006.55.125 1.024.357 1.422a2.4 2.4 0 00.984.915c.418.212.899.318 1.442.318.59 0 1.09-.123 1.502-.368.41-.252.722-.623.934-1.114.219-.49.332-1.093.338-1.81V8.636zm11.897 20.672c-.968 0-1.84-.172-2.615-.517a4.268 4.268 0 01-1.83-1.55c-.443-.684-.666-1.526-.666-2.526 0-.862.16-1.575.478-2.138a3.694 3.694 0 011.302-1.353 6.574 6.574 0 011.86-.765 15.125 15.125 0 012.157-.388 84.59 84.59 0 002.178-.249c.557-.08.961-.198 1.213-.357.259-.166.388-.421.388-.766v-.06c0-.749-.222-1.329-.666-1.74-.445-.41-1.084-.616-1.92-.616-.881 0-1.58.192-2.097.576-.51.385-.856.839-1.035 1.363l-3.36-.478c.265-.928.702-1.703 1.312-2.326a5.71 5.71 0 012.237-1.412c.882-.319 1.856-.478 2.924-.478.736 0 1.468.087 2.197.259a6.17 6.17 0 011.999.855 4.294 4.294 0 011.451 1.6c.372.677.557 1.522.557 2.536V29h-3.46v-2.098h-.12a4.394 4.394 0 01-.924 1.193c-.391.365-.885.66-1.481.885-.59.219-1.283.328-2.079.328zm.935-2.645c.722 0 1.349-.142 1.88-.427.53-.292.937-.676 1.222-1.154.292-.477.438-.997.438-1.56v-1.8c-.113.092-.305.179-.577.258-.265.08-.563.15-.895.209-.331.06-.66.113-.984.159l-.845.12a6.285 6.285 0 00-1.442.357c-.424.166-.76.398-1.004.696-.246.292-.368.67-.368 1.134 0 .663.242 1.163.726 1.501.484.338 1.1.507 1.849.507zm14.03-2.456l-.01-4.345h.577l5.488-6.135h4.206l-6.751 7.517h-.746l-2.764 2.963zM77.302 29V8.636H80.9V29h-3.6zm9.585 0l-4.972-6.95 2.426-2.536L91.192 29h-4.305z" fill="#1E1E1E"/><path d="M105.314 17.764l-3.281.358a2.64 2.64 0 00-.487-.934 2.429 2.429 0 00-.915-.706c-.385-.18-.855-.269-1.412-.269-.75 0-1.379.162-1.89.487-.503.325-.752.746-.745 1.263-.007.444.156.805.487 1.084.338.278.895.507 1.67.686l2.606.557c1.445.311 2.519.805 3.221 1.481.71.676 1.068 1.561 1.074 2.655-.006.961-.288 1.81-.845 2.546-.55.729-1.316 1.299-2.297 1.71-.981.41-2.108.616-3.38.616-1.87 0-3.375-.39-4.515-1.173-1.14-.789-1.82-1.886-2.038-3.291l3.51-.338c.159.69.497 1.21 1.014 1.56.517.352 1.19.528 2.019.528.855 0 1.541-.176 2.058-.527.523-.351.785-.786.785-1.303 0-.437-.169-.799-.507-1.084-.331-.285-.848-.503-1.551-.656l-2.605-.547c-1.465-.305-2.549-.818-3.252-1.54-.702-.73-1.05-1.651-1.044-2.765-.006-.941.249-1.757.766-2.446.524-.696 1.25-1.233 2.178-1.61.934-.385 2.011-.578 3.231-.578 1.79 0 3.199.382 4.226 1.144 1.034.762 1.674 1.793 1.919 3.092zm7.691 11.544c-.968 0-1.839-.172-2.615-.517a4.27 4.27 0 01-1.83-1.55c-.444-.684-.666-1.526-.666-2.526 0-.862.159-1.575.478-2.138a3.693 3.693 0 011.302-1.353 6.574 6.574 0 011.859-.765 15.14 15.14 0 012.158-.388 84.704 84.704 0 002.178-.249c.557-.08.961-.198 1.213-.357.258-.166.388-.421.388-.766v-.06c0-.749-.223-1.329-.667-1.74-.444-.41-1.083-.616-1.919-.616-.881 0-1.581.192-2.098.576-.51.385-.855.839-1.034 1.363l-3.361-.478c.266-.928.703-1.703 1.313-2.326.61-.63 1.356-1.1 2.237-1.412.882-.319 1.856-.478 2.923-.478.736 0 1.469.087 2.198.259a6.18 6.18 0 011.998.855 4.285 4.285 0 011.452 1.6c.371.677.557 1.522.557 2.536V29h-3.46v-2.098h-.12a4.391 4.391 0 01-.924 1.193c-.391.365-.885.66-1.482.885-.59.219-1.282.328-2.078.328zm.935-2.645c.722 0 1.349-.142 1.879-.427.53-.292.938-.676 1.223-1.154.292-.477.437-.997.437-1.56v-1.8c-.112.092-.304.179-.576.258-.265.08-.564.15-.895.209a26.4 26.4 0 01-.984.159l-.846.12a6.274 6.274 0 00-1.441.357c-.425.166-.759.398-1.005.696-.245.292-.368.67-.368 1.134 0 .663.242 1.163.726 1.501.484.338 1.101.507 1.85.507zM124.688 29V13.727h3.49v2.546h.159c.279-.882.756-1.561 1.432-2.039.683-.483 1.462-.726 2.337-.726.199 0 .421.01.666.03.252.014.461.037.627.07v3.311a3.808 3.808 0 00-.726-.14 6.686 6.686 0 00-.945-.069c-.656 0-1.246.143-1.77.428a3.127 3.127 0 00-1.223 1.163c-.298.497-.447 1.07-.447 1.72V29h-3.6zm15.223.308c-.967 0-1.839-.172-2.615-.517a4.262 4.262 0 01-1.829-1.55c-.444-.684-.666-1.526-.666-2.526 0-.862.159-1.575.477-2.138a3.693 3.693 0 011.302-1.353 6.58 6.58 0 011.86-.765 15.127 15.127 0 012.157-.388 84.704 84.704 0 002.178-.249c.557-.08.961-.198 1.213-.357.259-.166.388-.421.388-.766v-.06c0-.749-.222-1.329-.666-1.74-.445-.41-1.084-.616-1.919-.616-.882 0-1.581.192-2.098.576-.511.385-.856.839-1.035 1.363l-3.36-.478c.265-.928.702-1.703 1.312-2.326.61-.63 1.356-1.1 2.237-1.412.882-.319 1.856-.478 2.924-.478.735 0 1.468.087 2.197.259a6.195 6.195 0 011.999.855 4.29 4.29 0 011.451 1.6c.372.677.557 1.522.557 2.536V29h-3.46v-2.098h-.119a4.396 4.396 0 01-.925 1.193c-.391.365-.885.66-1.482.885-.59.219-1.282.328-2.078.328zm.935-2.645c.723 0 1.349-.142 1.879-.427a3.156 3.156 0 001.223-1.154c.292-.477.438-.997.438-1.56v-1.8c-.113.092-.305.179-.577.258a8.1 8.1 0 01-.895.209c-.331.06-.659.113-.984.159l-.845.12a6.283 6.283 0 00-1.442.357c-.424.166-.759.398-1.004.696-.246.292-.368.67-.368 1.134 0 .663.242 1.163.726 1.501.483.338 1.1.507 1.849.507zM4.12 16.279c1.369-1.027 2.193-.269 2.816.684.8 1.225 1.916 2.065 3.292 2.561l-.942 3.806-1.662-.533c-.895-.145-5.867-4.747-3.504-6.518zm34.522.299c-1.324-1.084-2.18-.361-2.842.564-.851 1.19-2.003 1.98-3.399 2.418l.779 3.843 1.682-.462c.901-.106 6.065-4.491 3.78-6.363z" fill="#F5CF1E"/><path d="M33.148 11.152c-.05-2.013-1.112-3.02-3.187-3.02H12.157c-2.064 0-3.12 1.007-3.171 3.02v16.895c.05 2.023 1.107 3.035 3.171 3.035h17.806c2.074 0 3.136-1.012 3.186-3.035V11.152z" fill="#F5CF1E"/><path d="M14.392 13.583c-.594.593-.891 1.303-.891 2.128 0 .836.297 1.545.891 2.13.584.593 1.294.89 2.13.89.835 0 1.545-.297 2.129-.89a2.873 2.873 0 00.89-2.13c0-.825-.296-1.535-.89-2.128a2.874 2.874 0 00-2.13-.891c-.835 0-1.545.297-2.129.89z" fill="#fff"/><path d="M17.453 16.769a1.27 1.27 0 00.384-.932c0-.358-.128-.665-.384-.921a1.251 1.251 0 00-.931-.395 1.24 1.24 0 00-.922.395 1.239 1.239 0 00-.394.92c0 .366.131.677.394.933.256.255.563.383.921.383.366 0 .677-.128.932-.383z" fill="#1E1E1E"/><path d="M23.453 13.583c-.594.593-.89 1.303-.89 2.128 0 .836.296 1.545.89 2.13.584.593 1.294.89 2.13.89a2.88 2.88 0 002.13-.89 2.873 2.873 0 00.89-2.13c0-.825-.297-1.535-.89-2.128a2.874 2.874 0 00-2.13-.891c-.836 0-1.546.297-2.13.89z" fill="#fff"/><path d="M26.564 16.754c.266-.266.398-.588.398-.968 0-.372-.132-.69-.398-.956a1.3 1.3 0 00-.968-.41c-.372 0-.691.136-.957.41-.273.265-.41.584-.41.956 0 .38.137.702.41.968.266.265.585.398.957.398.38 0 .702-.133.968-.398zm-3.035 3.925v-.015c.12-.091.236-.182.347-.272a.584.584 0 00.197-.408.572.572 0 00-.151-.438.564.564 0 00-.408-.211.572.572 0 00-.438.15 4.76 4.76 0 01-.257.212h-.015c-.483.363-1.067.544-1.752.544-.705 0-1.304-.181-1.797-.544-.06-.05-.116-.1-.166-.15a.563.563 0 00-.408-.212.572.572 0 00-.438.15.576.576 0 00-.211.424.6.6 0 00.15.437c.091.101.202.202.333.302.01 0 .015.005.015.015.695.524 1.535.786 2.522.786.967 0 1.792-.257 2.477-.77z" fill="#1E1E1E"/><path d="M29.962 8.133c2.074 0 3.136 1.006 3.186 3.02v-1.058c0-2.113-1.062-3.17-3.187-3.17H12.157c-2.114 0-3.171 1.057-3.171 3.17v1.057c.05-2.013 1.107-3.02 3.171-3.02h17.806z" fill="#F5CF1E"/><ellipse cx="13.501" cy="21.006" rx="1.822" ry="1.585" transform="rotate(-2.81 13.501 21.006)" fill="#F5CF1E"/><ellipse cx="27.528" cy="21.148" rx="1.822" ry="1.585" transform="rotate(-2.81 27.528 21.148)" fill="#F5CF1E"/><path d="M27.342 8.148c-.886 1.66-2.445 2.216-3.113 2.286l.65-2.286h2.463z" fill="#E8C730"/><path d="M23.349 37.499l-.63-4.816-3.016.23v4.675h-5.804c-2.37-.64-.53-1.748.686-2.221v-2.454c-4.25-.33-5.505-2.955-5.6-4.445 8.43 4.157 19.622 1.732 24.163 0-1.01 3.021-3.768 3.723-5.02 3.696 0 0-.178 3.079 1.152 3.523 1.726 1.035.968 1.64.374 1.812H23.35z" fill="#EFC400"/><path d="M21.371 8.777c3.735-5.666 6.126-.663 2.828 2.166-4.332 1.853-6.257-.772-6.679-2.317 1.264-4.813 3.851-2.226 3.851.15z" fill="#F5CF1E"/><path d="M4.335 12.201c1.331-.665 1.387-2.92 1.248-3.965l-.124-.573-.782.45c.136.738.177 2.42-.745 3.246-3.58.144-1.176 1.598-3.851 1.598-.773.764 4.254 2.117 4.254-.756z" fill="#FFB600"/><path d="M8.983 10.432L7.098 7.315l5.893-3.768 2.024 3.518-.538.232a28.141 28.141 0 00-5.494 3.135z" fill="#1E1E1E"/><rect x="3.294" y="6.886" width="13.543" height="2.199" rx="1.1" transform="rotate(-28.557 3.294 6.886)" fill="#1E1E1E"/></svg>