<svg width="152" height="38" fill="none" xmlns="http://www.w3.org/2000/svg"><path d="M54.099 8.71h3.659v14.317c-.007 1.313-.285 2.443-.836 3.39a5.581 5.581 0 01-2.306 2.178c-.981.504-2.125.756-3.43.756-1.194 0-2.268-.212-3.222-.636a5.25 5.25 0 01-2.258-1.91c-.556-.841-.835-1.889-.835-3.141h3.67c.006.55.125 1.024.357 1.421.239.398.567.703.985.915.417.212.898.319 1.441.319.59 0 1.09-.123 1.502-.368.41-.252.722-.623.934-1.114.22-.49.332-1.094.339-1.81V8.71zm11.897 20.67c-.968 0-1.84-.172-2.615-.517a4.267 4.267 0 01-1.83-1.551c-.444-.683-.666-1.525-.666-2.526 0-.861.159-1.574.477-2.137a3.694 3.694 0 011.303-1.353 6.568 6.568 0 011.859-.765 15.115 15.115 0 012.158-.388 85.71 85.71 0 002.177-.249c.557-.08.961-.199 1.213-.358.259-.165.388-.42.388-.765v-.06c0-.75-.222-1.33-.666-1.74-.444-.411-1.084-.617-1.92-.617-.88 0-1.58.193-2.097.577-.51.385-.855.839-1.034 1.362l-3.361-.477c.265-.928.703-1.704 1.312-2.327a5.71 5.71 0 012.238-1.412c.881-.318 1.856-.477 2.923-.477a9.52 9.52 0 012.197.259c.73.172 1.396.457 1.999.855a4.293 4.293 0 011.452 1.6c.37.677.556 1.522.556 2.536v10.222H70.6v-2.098h-.12a4.393 4.393 0 01-.924 1.193c-.39.364-.885.66-1.481.885-.59.219-1.283.328-2.078.328zm.934-2.645c.723 0 1.35-.142 1.88-.428a3.16 3.16 0 001.222-1.153c.292-.477.438-.998.438-1.56v-1.8c-.113.092-.305.178-.577.258-.265.08-.563.149-.895.209-.331.06-.66.112-.984.159l-.845.12a6.285 6.285 0 00-1.442.357c-.424.166-.759.398-1.004.696-.245.292-.368.67-.368 1.134 0 .662.242 1.163.726 1.501.484.338 1.1.507 1.85.507zm14.03-2.456l-.01-4.345h.577l5.488-6.135h4.206l-6.751 7.517h-.746L80.96 24.28zm-3.281 4.793V8.709h3.6v20.364h-3.6zm9.585 0l-4.972-6.95 2.427-2.536 6.85 9.486h-4.305zm18.427-11.236l-3.281.358a2.639 2.639 0 00-.487-.935 2.429 2.429 0 00-.915-.706c-.385-.179-.855-.268-1.412-.268-.749 0-1.379.162-1.89.487-.503.325-.752.746-.745 1.263-.007.444.156.805.487 1.084.338.278.895.507 1.67.686l2.606.556c1.445.312 2.519.806 3.221 1.482.71.676 1.068 1.561 1.074 2.655-.006.961-.288 1.81-.845 2.545-.55.73-1.316 1.3-2.297 1.71-.981.412-2.108.617-3.38.617-1.87 0-3.374-.391-4.515-1.173-1.14-.79-1.82-1.886-2.038-3.291l3.51-.338c.16.689.497 1.21 1.014 1.56.517.352 1.19.528 2.019.528.855 0 1.541-.176 2.058-.527.524-.352.785-.786.785-1.303 0-.438-.169-.799-.507-1.084-.331-.285-.848-.504-1.551-.656l-2.605-.547c-1.465-.305-2.549-.819-3.251-1.541-.703-.73-1.051-1.65-1.044-2.764-.007-.942.248-1.757.765-2.446.524-.696 1.25-1.233 2.178-1.611.934-.385 2.012-.577 3.231-.577 1.79 0 3.199.381 4.226 1.144 1.034.762 1.674 1.793 1.919 3.092zm7.691 11.544c-.968 0-1.839-.172-2.615-.517a4.261 4.261 0 01-1.829-1.551c-.444-.683-.667-1.525-.667-2.526 0-.861.16-1.574.478-2.137a3.692 3.692 0 011.302-1.353 6.562 6.562 0 011.86-.765 15.113 15.113 0 012.157-.388 85.158 85.158 0 002.178-.249c.557-.08.961-.199 1.213-.358.258-.165.388-.42.388-.765v-.06c0-.75-.222-1.33-.666-1.74-.445-.411-1.084-.617-1.919-.617-.882 0-1.581.193-2.098.577-.511.385-.856.839-1.035 1.362l-3.36-.477c.265-.928.702-1.704 1.312-2.327.61-.63 1.356-1.1 2.237-1.412.882-.318 1.856-.477 2.924-.477a9.52 9.52 0 012.197.259 6.193 6.193 0 011.999.855 4.29 4.29 0 011.451 1.6c.372.677.557 1.522.557 2.536v10.222h-3.46v-2.098h-.119a4.394 4.394 0 01-.925 1.193c-.391.364-.885.66-1.482.885-.59.219-1.282.328-2.078.328zm.935-2.645c.722 0 1.349-.142 1.879-.428a3.16 3.16 0 001.223-1.153c.292-.477.438-.998.438-1.56v-1.8c-.113.092-.305.178-.577.258-.265.08-.563.149-.895.209-.331.06-.659.112-.984.159l-.845.12a6.284 6.284 0 00-1.442.357c-.424.166-.759.398-1.004.696-.246.292-.368.67-.368 1.134 0 .662.242 1.163.725 1.501.484.338 1.101.507 1.85.507zm10.748 2.337V13.8h3.491v2.546h.159c.278-.882.755-1.562 1.431-2.039.683-.484 1.462-.726 2.337-.726.199 0 .421.01.666.03.252.013.461.037.627.07v3.31a3.808 3.808 0 00-.726-.138 6.686 6.686 0 00-.945-.07c-.656 0-1.246.142-1.77.427a3.134 3.134 0 00-1.223 1.164c-.298.497-.447 1.07-.447 1.72v8.979h-3.6zm15.224.308c-.968 0-1.84-.172-2.616-.517a4.273 4.273 0 01-1.829-1.551c-.444-.683-.666-1.525-.666-2.526 0-.861.159-1.574.477-2.137a3.687 3.687 0 011.303-1.353 6.568 6.568 0 011.859-.765 15.101 15.101 0 012.158-.388 85.71 85.71 0 002.177-.249c.557-.08.961-.199 1.213-.358.259-.165.388-.42.388-.765v-.06c0-.75-.222-1.33-.666-1.74-.444-.411-1.084-.617-1.919-.617-.882 0-1.581.193-2.098.577-.511.385-.855.839-1.034 1.362l-3.361-.477c.265-.928.703-1.704 1.312-2.327a5.71 5.71 0 012.238-1.412c.881-.318 1.856-.477 2.923-.477.736 0 1.468.086 2.197.259a6.184 6.184 0 011.999.855 4.3 4.3 0 011.452 1.6c.371.677.556 1.522.556 2.536v10.222h-3.46v-2.098h-.119a4.394 4.394 0 01-.925 1.193c-.391.364-.885.66-1.481.885-.59.219-1.283.328-2.078.328zm.934-2.645c.723 0 1.349-.142 1.879-.428a3.155 3.155 0 001.223-1.153c.292-.477.438-.998.438-1.56v-1.8c-.113.092-.305.178-.577.258-.265.08-.563.149-.895.209-.331.06-.659.112-.984.159l-.845.12a6.284 6.284 0 00-1.442.357c-.424.166-.759.398-1.004.696-.245.292-.368.67-.368 1.134 0 .662.242 1.163.726 1.501.484.338 1.1.507 1.849.507z" fill="#fff"/><path d="M4.497 16.351c1.369-1.026 2.194-.268 2.816.685.8 1.224 1.916 2.065 3.292 2.561l-.942 3.806-1.661-.533c-.896-.145-5.868-4.747-3.505-6.519zm34.523.3c-1.324-1.084-2.18-.362-2.843.564-.851 1.19-2.003 1.98-3.399 2.418l.78 3.843 1.681-.462c.902-.106 6.065-4.491 3.78-6.363z" fill="#F5CF1E"/><path d="M33.525 11.225c-.05-2.013-1.112-3.02-3.186-3.02H12.533c-2.064 0-3.12 1.007-3.171 3.02V28.12c.05 2.023 1.107 3.035 3.171 3.035H30.34c2.074 0 3.136-1.012 3.186-3.035V11.225z" fill="#F5CF1E"/><path d="M14.77 13.655c-.595.594-.892 1.303-.892 2.129 0 .835.297 1.545.891 2.129.584.593 1.294.89 2.13.89.835 0 1.545-.297 2.129-.89a2.873 2.873 0 00.891-2.13c0-.825-.297-1.534-.891-2.128a2.875 2.875 0 00-2.13-.89c-.835 0-1.545.296-2.129.89z" fill="#fff"/><path d="M17.83 16.841c.257-.256.385-.566.385-.932 0-.358-.128-.665-.384-.92a1.251 1.251 0 00-.932-.395 1.24 1.24 0 00-.921.394 1.239 1.239 0 00-.395.921c0 .366.131.676.395.932.255.256.563.384.92.384.366 0 .677-.128.933-.384z" fill="#2C2C2C"/><path d="M23.83 13.655c-.593.594-.89 1.303-.89 2.129 0 .835.296 1.545.89 2.129.584.593 1.294.89 2.13.89a2.88 2.88 0 002.13-.89 2.873 2.873 0 00.89-2.13c0-.825-.297-1.534-.89-2.128a2.875 2.875 0 00-2.13-.89c-.836 0-1.546.296-2.13.89z" fill="#fff"/><path d="M26.941 16.826c.266-.265.399-.588.399-.968 0-.372-.133-.69-.399-.956a1.3 1.3 0 00-.968-.41c-.372 0-.69.137-.957.41a1.29 1.29 0 00-.41.957c0 .379.137.702.41.967.266.266.585.399.957.399.38 0 .702-.133.968-.399z" fill="#2C2C2C"/><path d="M23.906 20.75v-.014c.12-.09.237-.181.347-.272a.584.584 0 00.197-.408.572.572 0 00-.151-.438.564.564 0 00-.408-.211.573.573 0 00-.438.151c-.08.07-.166.14-.257.211h-.015c-.483.363-1.067.544-1.752.544-.704 0-1.303-.181-1.797-.544a2.5 2.5 0 01-.166-.15.564.564 0 00-.408-.212.572.572 0 00-.438.151.576.576 0 00-.211.423.6.6 0 00.15.438c.091.1.202.2.333.302.01 0 .015.005.015.015.695.523 1.536.785 2.522.785.967 0 1.792-.257 2.477-.77z" fill="#fff"/><path d="M30.339 8.205c2.074 0 3.136 1.007 3.186 3.02v-1.057c0-2.114-1.062-3.17-3.186-3.17H12.533c-2.114 0-3.171 1.056-3.171 3.17v1.057c.05-2.013 1.107-3.02 3.171-3.02H30.34z" fill="#F5CF1E"/><ellipse cx="13.878" cy="21.079" rx="1.822" ry="1.585" transform="rotate(-2.81 13.878 21.079)" fill="#F5CF1E"/><ellipse cx="27.905" cy="21.221" rx="1.822" ry="1.585" transform="rotate(-2.81 27.905 21.22)" fill="#F5CF1E"/><path d="M27.719 8.22c-.886 1.66-2.444 2.216-3.113 2.287l.651-2.286h2.462z" fill="#E8C730"/><path d="M23.726 37.572l-.63-4.816-3.016.23v4.675h-5.803c-2.37-.64-.531-1.748.685-2.221v-2.454c-4.25-.33-5.505-2.955-5.6-4.445 8.431 4.157 19.622 1.732 24.163 0-1.01 3.021-3.768 3.723-5.02 3.696 0 0-.178 3.079 1.152 3.523 1.726 1.035.969 1.64.374 1.812h-6.305z" fill="#EFC400"/><path d="M21.748 8.85c3.735-5.667 6.126-.663 2.828 2.166-4.332 1.853-6.257-.773-6.678-2.317 1.263-4.813 3.85-2.226 3.85.15z" fill="#F5CF1E"/><path d="M4.712 12.274c1.332-.666 1.387-2.921 1.248-3.966l-.124-.573-.781.451c.135.737.176 2.419-.746 3.246-3.58.144-1.175 1.598-3.851 1.598-.773.763 4.254 2.116 4.254-.756z" fill="#757575"/><path d="M9.36 10.505L7.475 7.388l5.893-3.768 2.024 3.518-.537.231a28.142 28.142 0 00-5.495 3.136z" fill="#FFB600"/><rect x="3.672" y="6.958" width="13.543" height="2.199" rx="1.1" transform="rotate(-28.557 3.672 6.958)" fill="#FFB600"/></svg>