<svg viewBox="0 0 406 173" fill="none" xmlns="http://www.w3.org/2000/svg"><g filter="url(#filter0_d_604_773)"><rect x="3.5" y="3.5" width="119" height="158" rx="15.5" fill="#fff" stroke="#FFD1B2" stroke-width="5"/><path d="M46.008 78c-2.02-.241-3.619-.905-4.795-1.99-1.145-1.086-1.718-2.684-1.718-4.795V60.45c0-4.765 2.412-7.147 7.237-7.147 4.764 0 7.147 2.307 7.147 6.92v11.852c0 1.9.89 2.85 2.668 2.85h3.71c1.779 0 2.668-.95 2.668-2.85V60.45c0-2.322.543-4.086 1.629-5.293 1.115-1.236 2.864-1.854 5.246-1.854 1.237 0 2.353.256 3.348.769a5.627 5.627 0 012.352 2.08c1.146-1.9 2.925-2.85 5.337-2.85 4.644 0 6.966 2.308 6.966 6.922V78h-3.935V60.178c0-2.291-1.086-3.437-3.257-3.437-2.201 0-3.302 1.19-3.302 3.573V78h-3.935V60.178c0-1.055-.287-1.884-.86-2.487-.572-.634-1.372-.95-2.397-.95-2.171 0-3.257 1.19-3.257 3.573v11.67c0 4.01-2.126 6.016-6.377 6.016H56.32c-4.222 0-6.332-2.005-6.332-6.016V60.178c0-2.291-1.086-3.437-3.257-3.437-2.202 0-3.302 1.19-3.302 3.573v10.72c0 2.232 1.13 3.528 3.392 3.89L46.008 78z" fill="#FFA96A"/><path d="M49.098 127v-17.88h2.832v7.872h8.28v-7.872h2.808V127H60.21v-7.488h-8.28V127h-2.832zm21.249.288c-.88 0-1.656-.152-2.328-.456-.656-.32-1.168-.752-1.536-1.296-.368-.56-.552-1.216-.552-1.968 0-.704.152-1.336.456-1.896.32-.56.808-1.032 1.464-1.416.656-.384 1.48-.656 2.472-.816l4.512-.744v2.136l-3.984.696c-.72.128-1.248.36-1.584.696-.336.32-.504.736-.504 1.248 0 .496.184.904.552 1.224.384.304.872.456 1.464.456.736 0 1.376-.16 1.92-.48.56-.32.992-.744 1.296-1.272a3.627 3.627 0 00.456-1.8v-3.336c0-.64-.24-1.16-.72-1.56-.464-.416-1.088-.624-1.872-.624-.72 0-1.352.192-1.896.576-.528.368-.92.848-1.176 1.44l-2.256-1.128c.24-.64.632-1.2 1.176-1.68a5.853 5.853 0 011.896-1.152 6.661 6.661 0 012.328-.408c1.024 0 1.928.192 2.712.576.8.384 1.416.92 1.848 1.608.448.672.672 1.456.672 2.352V127h-2.592v-2.352l.552.072a4.814 4.814 0 01-1.176 1.368c-.464.384-1 .68-1.608.888-.592.208-1.256.312-1.992.312z" fill="#000"/></g><g filter="url(#filter1_d_604_773)"><rect x="139.5" y="3.5" width="119" height="158" rx="15.5" fill="#fff" stroke="#FFD1B2" stroke-width="5"/><path d="M186.668 78c-2.02-.241-3.618-.905-4.794-1.99-1.146-1.086-1.719-2.684-1.719-4.795V60.45c0-4.765 2.412-7.147 7.237-7.147 4.764 0 7.147 2.307 7.147 6.92v6.152h4.478V63.48c0-3.317.844-5.835 2.533-7.554 1.689-1.749 4.206-2.623 7.554-2.623 6.694 0 10.041 3.257 10.041 9.77V78h-3.89V63.028c0-4.192-2.05-6.287-6.151-6.287s-6.152 2.14-6.152 6.423v3.211c2.051.03 3.694.618 4.93 1.764 1.267 1.146 1.9 2.654 1.9 4.523 0 1.177-.226 2.172-.678 2.986a4.092 4.092 0 01-1.81 1.764c-.784.392-1.718.588-2.804.588-1.749 0-3.106-.422-4.071-1.266-.935-.875-1.402-2.187-1.402-3.936v-3.03h-4.478V78h-3.89V60.178c0-2.291-1.086-3.437-3.257-3.437-2.201 0-3.302 1.19-3.302 3.573v10.72c0 2.232 1.131 3.528 3.392 3.89L186.668 78zm18.003-3.212c.663 0 1.101-.18 1.312-.542.241-.392.361-.905.361-1.538 0-.965-.316-1.689-.949-2.171-.603-.513-1.418-.77-2.443-.77v2.986c0 1.357.573 2.035 1.719 2.035z" fill="#FFA96A"/><path d="M185.039 127v-17.88h2.28l10.032 13.848-1.08.168V109.12h2.808V127h-2.28l-9.96-13.944 1.032-.192V127h-2.832zm21.367.288c-.88 0-1.656-.152-2.328-.456-.656-.32-1.168-.752-1.536-1.296-.368-.56-.552-1.216-.552-1.968 0-.704.152-1.336.456-1.896.32-.56.808-1.032 1.464-1.416.656-.384 1.48-.656 2.472-.816l4.512-.744v2.136l-3.984.696c-.72.128-1.248.36-1.584.696-.336.32-.504.736-.504 1.248 0 .496.184.904.552 1.224.384.304.872.456 1.464.456.736 0 1.376-.16 1.92-.48.56-.32.992-.744 1.296-1.272a3.627 3.627 0 00.456-1.8v-3.336c0-.64-.24-1.16-.72-1.56-.464-.416-1.088-.624-1.872-.624-.72 0-1.352.192-1.896.576-.528.368-.92.848-1.176 1.44l-2.256-1.128c.24-.64.632-1.2 1.176-1.68a5.853 5.853 0 011.896-1.152 6.661 6.661 0 012.328-.408c1.024 0 1.928.192 2.712.576.8.384 1.416.92 1.848 1.608.448.672.672 1.456.672 2.352V127h-2.592v-2.352l.552.072a4.814 4.814 0 01-1.176 1.368c-.464.384-1 .68-1.608.888-.592.208-1.256.312-1.992.312z" fill="#000"/></g><g filter="url(#filter2_d_604_773)"><rect x="275.5" y="3.5" width="119" height="158" rx="15.5" fill="#fff" stroke="#FFD1B2" stroke-width="5"/><path d="M323.004 78c-2.021-.241-3.619-.905-4.795-1.99-1.146-1.086-1.719-2.684-1.719-4.795v-9.001c0-5.94 3.212-8.911 9.635-8.911s9.634 3.046 9.634 9.137v5.609l6.423 4.93c.754.573 1.493.86 2.217.86.784 0 1.176-.603 1.176-1.81v-7.825c0-4.976-2.141-7.6-6.423-7.87v-3.031h11.534c4.825 0 7.237 2.382 7.237 7.147V78h-3.935V60.314c0-2.382-1.101-3.573-3.302-3.573h-4.93c2.503.723 3.754 2.97 3.754 6.74v8.91c0 3.74-1.357 5.609-4.071 5.609-.965 0-1.93-.211-2.895-.633-.935-.422-1.93-1.04-2.985-1.855l-3.8-2.985c0 1.689-.497 3.03-1.492 4.026-.965.965-2.292 1.447-3.981 1.447-1.659 0-2.955-.467-3.89-1.402-.935-.965-1.402-2.277-1.402-3.936 0-1.628.467-2.925 1.402-3.89.935-.965 2.231-1.447 3.89-1.447.483 0 .995.045 1.538.136v-5.157c0-3.709-1.9-5.563-5.699-5.563-3.8 0-5.7 1.809-5.7 5.428v8.865c0 2.232 1.131 3.528 3.393 3.89L323.004 78zm7.101-2.985c1.146 0 1.719-.754 1.719-2.262v-2.08a4.482 4.482 0 00-.679-.136 2.149 2.149 0 00-.588-.09c-1.417 0-2.126.753-2.126 2.26v.227c0 1.387.558 2.08 1.674 2.08z" fill="#FFA96A"/><path d="M330.578 127.288c-1.264 0-2.44-.232-3.528-.696a8.768 8.768 0 01-2.808-1.92 9.207 9.207 0 01-1.848-2.928c-.448-1.12-.672-2.352-.672-3.696 0-1.328.216-2.552.648-3.672.448-1.136 1.072-2.112 1.872-2.928a8.286 8.286 0 012.808-1.92c1.072-.464 2.248-.696 3.528-.696 1.264 0 2.392.216 3.384.648 1.008.432 1.856 1 2.544 1.704.688.688 1.184 1.44 1.488 2.256l-2.544 1.2c-.384-.96-1-1.736-1.848-2.328-.832-.608-1.84-.912-3.024-.912s-2.232.28-3.144.84c-.912.56-1.624 1.336-2.136 2.328-.496.992-.744 2.152-.744 3.48 0 1.328.248 2.496.744 3.504.512.992 1.224 1.768 2.136 2.328.912.544 1.96.816 3.144.816 1.184 0 2.192-.296 3.024-.888a5.084 5.084 0 001.848-2.328l2.544 1.2c-.304.8-.8 1.552-1.488 2.256-.688.704-1.536 1.272-2.544 1.704-.992.432-2.12.648-3.384.648zm13.717 0c-.88 0-1.656-.152-2.328-.456-.656-.32-1.168-.752-1.536-1.296-.368-.56-.552-1.216-.552-1.968 0-.704.152-1.336.456-1.896.32-.56.808-1.032 1.464-1.416.656-.384 1.48-.656 2.472-.816l4.512-.744v2.136l-3.984.696c-.72.128-1.248.36-1.584.696-.336.32-.504.736-.504 1.248 0 .496.184.904.552 1.224.384.304.872.456 1.464.456.736 0 1.376-.16 1.92-.48.56-.32.992-.744 1.296-1.272a3.627 3.627 0 00.456-1.8v-3.336c0-.64-.24-1.16-.72-1.56-.464-.416-1.088-.624-1.872-.624-.72 0-1.352.192-1.896.576-.528.368-.92.848-1.176 1.44l-2.256-1.128c.24-.64.632-1.2 1.176-1.68a5.853 5.853 0 011.896-1.152 6.661 6.661 0 012.328-.408c1.024 0 1.928.192 2.712.576.8.384 1.416.92 1.848 1.608.448.672.672 1.456.672 2.352V127h-2.592v-2.352l.552.072a4.814 4.814 0 01-1.176 1.368c-.464.384-1 .68-1.608.888-.592.208-1.256.312-1.992.312z" fill="#000"/></g><defs><filter id="filter0_d_604_773" x="0" y="0" width="134" height="173" filterUnits="userSpaceOnUse" color-interpolation-filters="sRGB"><feFlood flood-opacity="0" result="BackgroundImageFix"/><feColorMatrix in="SourceAlpha" values="0 0 0 0 0 0 0 0 0 0 0 0 0 0 0 0 0 0 127 0" result="hardAlpha"/><feOffset dx="4" dy="4"/><feGaussianBlur stdDeviation="2.5"/><feComposite in2="hardAlpha" operator="out"/><feColorMatrix values="0 0 0 0 0.63329 0 0 0 0 0.63329 0 0 0 0 0.63329 0 0 0 0.25 0"/><feBlend in2="BackgroundImageFix" result="effect1_dropShadow_604_773"/><feBlend in="SourceGraphic" in2="effect1_dropShadow_604_773" result="shape"/></filter><filter id="filter1_d_604_773" x="136" y="0" width="134" height="173" filterUnits="userSpaceOnUse" color-interpolation-filters="sRGB"><feFlood flood-opacity="0" result="BackgroundImageFix"/><feColorMatrix in="SourceAlpha" values="0 0 0 0 0 0 0 0 0 0 0 0 0 0 0 0 0 0 127 0" result="hardAlpha"/><feOffset dx="4" dy="4"/><feGaussianBlur stdDeviation="2.5"/><feComposite in2="hardAlpha" operator="out"/><feColorMatrix values="0 0 0 0 0.63329 0 0 0 0 0.63329 0 0 0 0 0.63329 0 0 0 0.25 0"/><feBlend in2="BackgroundImageFix" result="effect1_dropShadow_604_773"/><feBlend in="SourceGraphic" in2="effect1_dropShadow_604_773" result="shape"/></filter><filter id="filter2_d_604_773" x="272" y="0" width="134" height="173" filterUnits="userSpaceOnUse" color-interpolation-filters="sRGB"><feFlood flood-opacity="0" result="BackgroundImageFix"/><feColorMatrix in="SourceAlpha" values="0 0 0 0 0 0 0 0 0 0 0 0 0 0 0 0 0 0 127 0" result="hardAlpha"/><feOffset dx="4" dy="4"/><feGaussianBlur stdDeviation="2.5"/><feComposite in2="hardAlpha" operator="out"/><feColorMatrix values="0 0 0 0 0.63329 0 0 0 0 0.63329 0 0 0 0 0.63329 0 0 0 0.25 0"/><feBlend in2="BackgroundImageFix" result="effect1_dropShadow_604_773"/><feBlend in="SourceGraphic" in2="effect1_dropShadow_604_773" result="shape"/></filter></defs></svg>