<svg viewBox="0 0 567 164" fill="none" xmlns="http://www.w3.org/2000/svg"><rect y=".901" width="129.621" height="163" rx="18" fill="#fff"/><path d="M40.839 108.901c-2.85-.34-5.105-1.276-6.765-2.808-1.616-1.531-2.425-3.786-2.425-6.764V84.14c0-6.722 3.404-10.082 10.21-10.082 6.722 0 10.083 3.254 10.083 9.763v16.719c0 2.68 1.255 4.021 3.765 4.021h5.233c2.51 0 3.765-1.341 3.765-4.021v-16.4c0-3.276.766-5.764 2.297-7.466 1.574-1.744 4.042-2.616 7.403-2.616 1.744 0 3.318.361 4.722 1.085 1.404.68 2.51 1.659 3.318 2.935 1.617-2.68 4.127-4.02 7.53-4.02 6.552 0 9.827 3.254 9.827 9.763V108.9H94.25V83.758c0-3.233-1.531-4.85-4.594-4.85-3.106 0-4.658 1.68-4.658 5.042v24.95h-5.552V83.758c0-1.489-.404-2.659-1.213-3.51-.808-.893-1.935-1.34-3.382-1.34-3.063 0-4.594 1.68-4.594 5.042v16.464c0 5.658-3 8.487-8.998 8.487h-5.87c-5.957 0-8.935-2.829-8.935-8.487V83.758c0-3.233-1.531-4.85-4.594-4.85-3.106 0-4.659 1.68-4.659 5.042v15.124c0 3.148 1.596 4.977 4.786 5.488l-1.148 4.339z" fill="#F9B700"/><rect x="291.242" y=".901" width="129.621" height="163" rx="18" fill="#fff"/><path d="M332.081 108.901c-2.85-.34-5.105-1.276-6.764-2.808-1.617-1.531-2.425-3.786-2.425-6.764V84.14c0-6.722 3.403-10.082 10.21-10.082 6.722 0 10.083 3.254 10.083 9.763v16.719c0 2.68 1.255 4.021 3.765 4.021h5.232c2.51 0 3.765-1.341 3.765-4.021v-16.4c0-3.276.766-5.764 2.298-7.466 1.574-1.744 4.041-2.616 7.402-2.616 1.744 0 3.318.361 4.722 1.085 1.404.68 2.51 1.659 3.318 2.935 1.617-2.68 4.127-4.02 7.53-4.02 6.552 0 9.828 3.254 9.828 9.763V108.9h-5.552V83.758c0-3.233-1.532-4.85-4.595-4.85-3.105 0-4.658 1.68-4.658 5.042v24.95h-5.552V83.758c0-1.489-.404-2.659-1.212-3.51-.809-.893-1.936-1.34-3.382-1.34-3.063 0-4.595 1.68-4.595 5.042v16.464c0 5.658-2.999 8.487-8.998 8.487h-5.87c-5.956 0-8.934-2.829-8.934-8.487V83.758c0-3.233-1.532-4.85-4.595-4.85-3.106 0-4.658 1.68-4.658 5.042v15.124c0 3.148 1.595 4.977 4.786 5.488l-1.149 4.339z" fill="#F9B700"/><rect x="145.621" y=".901" width="129.621" height="163" rx="18" fill="#fff"/><path d="M188.144 110.401c-3.312-.396-5.932-1.483-7.86-3.263-1.878-1.779-2.818-4.399-2.818-7.86V81.631c0-7.81 3.955-11.716 11.865-11.716 7.81 0 11.715 3.781 11.715 11.345v10.084h7.341V86.6c0-5.438 1.384-9.566 4.153-12.383 2.768-2.868 6.896-4.301 12.383-4.301 10.974 0 16.461 5.339 16.461 16.016v24.47h-6.377V85.857c0-6.871-3.361-10.307-10.084-10.307-6.723 0-10.085 3.51-10.085 10.53v5.264c3.362.05 6.056 1.014 8.083 2.892 2.076 1.879 3.114 4.35 3.114 7.415 0 1.928-.371 3.559-1.112 4.894a6.711 6.711 0 01-2.966 2.892c-1.286.643-2.818.964-4.598.964-2.867 0-5.091-.692-6.673-2.076-1.533-1.434-2.299-3.584-2.299-6.451v-4.968h-7.341V110.4h-6.377V81.186c0-3.757-1.779-5.636-5.338-5.636-3.609 0-5.413 1.953-5.413 5.858v17.574c0 3.658 1.853 5.783 5.561 6.377l-1.335 5.042zm29.512-5.265c1.087 0 1.804-.296 2.15-.89.396-.642.593-1.483.593-2.521 0-1.582-.519-2.768-1.557-3.559-.988-.84-2.323-1.26-4.004-1.26v4.893c0 2.225.939 3.337 2.818 3.337z" fill="#F9B700"/><rect x="436.864" y=".901" width="129.621" height="163" rx="18" fill="#fff"/><path d="M479.387 110.401c-3.312-.396-5.932-1.483-7.86-3.263-1.879-1.779-2.818-4.399-2.818-7.86V81.631c0-7.81 3.955-11.716 11.864-11.716 7.81 0 11.716 3.781 11.716 11.345v10.084h7.341V86.6c0-5.438 1.384-9.566 4.152-12.383 2.768-2.868 6.896-4.301 12.383-4.301 10.974 0 16.461 5.339 16.461 16.016v24.47h-6.376V85.857c0-6.871-3.362-10.307-10.085-10.307-6.723 0-10.084 3.51-10.084 10.53v5.264c3.361.05 6.055 1.014 8.082 2.892 2.076 1.879 3.114 4.35 3.114 7.415 0 1.928-.37 3.559-1.112 4.894a6.711 6.711 0 01-2.966 2.892c-1.285.643-2.818.964-4.597.964-2.867 0-5.092-.692-6.674-2.076-1.532-1.434-2.298-3.584-2.298-6.451v-4.968h-7.341V110.4h-6.377V81.186c0-3.757-1.78-5.636-5.339-5.636-3.609 0-5.413 1.953-5.413 5.858v17.574c0 3.658 1.854 5.783 5.561 6.377l-1.334 5.042zm29.511-5.265c1.088 0 1.805-.296 2.151-.89.395-.642.593-1.483.593-2.521 0-1.582-.519-2.768-1.557-3.559-.989-.84-2.324-1.26-4.004-1.26v4.893c0 2.225.939 3.337 2.817 3.337z" fill="#F9B700"/></svg>