<svg viewBox="0 0 515 396" fill="none" xmlns="http://www.w3.org/2000/svg"><ellipse cx="267.323" cy="368.514" rx="83.309" ry="27.15" fill="#FEFEFE"/><path d="M254.468 185.613c-14.327-14.748-23.8 5.045-31.038 12.152-1.653 1.623-3.931 2.276-6.205 2.713l-13.268 2.553 2.61 30.172 13.317-2.07c7.008-.025 50.48-29.157 34.584-45.52zM27.25 162.361c17.073-11.457 22.236 9.87 27.843 18.324 1.28 1.93 3.374 3.041 5.508 3.94l12.45 5.248-8.81 28.976-12.598-4.787c-6.85-1.478-43.337-38.991-24.394-51.701z" fill="#01C070"/><ellipse cx="122.483" cy="328.563" rx="52.76" ry="11.778" transform="rotate(4.56 122.483 328.563)" fill="#FEFEFE"/><path d="M155.703 119.293c-39.866-3.964-63.668-2.779-71.405 3.557-7.737 6.335-13.592 29.436-17.567 69.302-3.284 34.132-2.908 56.49 1.129 67.075.392.217.812.466 1.257.747 10.138 5.804 31.512 10.268 64.12 13.392 39.803 4.016 63.604 2.831 71.405-3.558 7.737-6.335 13.593-29.436 17.567-69.302 3.367-32.584 3.238-54.444-.389-65.581a7.183 7.183 0 00-.501-1.204c-9.453-6.15-31.324-10.96-65.616-14.428z" fill="url(#paint0_linear_604_796)"/><path d="M96.01 157.954c-4.323 4.321-6.484 9.484-6.484 15.49 0 6.079 2.161 11.242 6.483 15.49 4.249 4.321 9.414 6.482 15.495 6.482 6.08 0 11.245-2.161 15.494-6.482 4.322-4.248 6.483-9.411 6.483-15.49 0-6.006-2.161-11.169-6.483-15.49-4.249-4.321-9.414-6.482-15.494-6.482-6.081 0-11.246 2.161-15.495 6.482z" fill="#fff"/><path d="M119.042 182.186c2.294-2.293 3.441-5.078 3.441-8.355 0-3.211-1.147-5.963-3.441-8.256-2.294-2.359-5.08-3.539-8.357-3.539-3.212 0-5.965 1.18-8.259 3.539-2.36 2.293-3.54 5.045-3.54 8.256 0 3.277 1.18 6.062 3.54 8.355 2.294 2.294 5.047 3.44 8.259 3.44 3.277 0 6.063-1.146 8.357-3.44z" fill="#3D465D"/><path d="M161.943 157.954c-4.323 4.321-6.484 9.484-6.484 15.49 0 6.079 2.161 11.242 6.484 15.49 4.249 4.321 9.413 6.482 15.494 6.482 6.08 0 11.245-2.161 15.494-6.482 4.323-4.248 6.484-9.411 6.484-15.49 0-6.006-2.161-11.169-6.484-15.49-4.249-4.321-9.414-6.482-15.494-6.482-6.081 0-11.245 2.161-15.494 6.482z" fill="#fff"/><path d="M187.935 185.502c2.21-2.208 3.314-4.89 3.314-8.046 0-3.092-1.104-5.742-3.314-7.951-2.209-2.272-4.892-3.408-8.048-3.408-3.093 0-5.744 1.136-7.953 3.408-2.273 2.209-3.409 4.859-3.409 7.951 0 3.156 1.136 5.838 3.409 8.046 2.209 2.209 4.86 3.313 7.953 3.313 3.156 0 5.839-1.104 8.048-3.313zm-25.443 24.086v-.109a77.644 77.644 0 002.527-1.978c.879-.806 1.356-1.794 1.429-2.966.073-1.245-.293-2.307-1.099-3.186-.806-.952-1.795-1.465-2.967-1.538-1.245-.073-2.308.293-3.187 1.099a42.767 42.767 0 01-1.868 1.538h-.11c-3.516 2.636-7.765 3.954-12.747 3.954-5.128 0-9.487-1.318-13.077-3.954a18.371 18.371 0 01-1.208-1.099c-.806-.952-1.795-1.465-2.967-1.538-1.246-.073-2.308.293-3.187 1.099-.953.805-1.465 1.831-1.539 3.076-.073 1.171.293 2.233 1.099 3.186.66.732 1.465 1.464 2.418 2.197.073 0 .11.036.11.11 5.055 3.808 11.172 5.712 18.351 5.712 7.033 0 13.04-1.867 18.022-5.603z" fill="#3D465D"/><path d="M149.37 111.558c-39.867-3.964-63.669-2.778-71.406 3.557-7.736 6.336-13.592 29.437-17.566 69.302-3.87 39.995-2.69 63.795 3.538 71.401.95 1.16 2.258 2.297 3.924 3.409-4.037-10.585-4.413-32.943-1.129-67.075 3.975-39.866 9.83-62.966 17.567-69.302 7.737-6.336 31.539-7.521 71.406-3.557 34.291 3.469 56.163 8.278 65.615 14.428-.816-1.916-1.698-3.455-2.648-4.615-6.229-7.606-29.329-13.455-69.301-17.548z" fill="#25D28A"/><path d="M145.278 314.693l-1.822-28.918-18.046.162-1.87 27.83-34.544-2.32c-13.854-4.761-2.46-10.617 4.969-12.949l.981-14.607c-25.171-3.668-31.585-19.791-31.558-28.701 47.169 25.26 117.091 18.641 144.817 10.145-7.226 17.584-24.903 20.174-32.347 19.513 0 0-2.288 18.258 5.454 21.431 9.857 6.855 5.108 10.146 1.502 10.935l-37.536-2.521z" fill="#009F5D"/><path d="M115.765 227.992c9.655-18.154 24.264-1.781 33.195 3.03 2.039 1.099 4.409 1.091 6.715.878l13.454-1.242 5.893 29.706-13.367 1.719c-6.738 1.927-56.601-13.95-45.89-34.091z" fill="#FCDA40"/><path d="M484.615 152.147c-14.25-16.632-23.698 5.479-30.922 13.647-1.684 1.905-4.158 2.736-6.647 3.279l-12.943 2.823 2.611 34.21 13.316-2.348c7.008-.028 50.48-33.058 34.585-51.611z" fill="#FF86C9"/><path d="M257.396 125.783c16.997-12.932 22.19 10.974 27.768 20.646 1.295 2.244 3.541 3.622 5.852 4.726l12.182 5.823-8.81 32.853-12.598-5.428c-6.85-1.675-43.337-44.208-24.394-58.62z" fill="#01C070"/><ellipse cx="56.372" cy="13.804" rx="56.372" ry="13.804" transform="matrix(.99594 .09008 -.07018 .99753 334.349 289.873)" fill="#FEFEFE"/><path d="M385.85 76.95c-39.867-4.494-63.668-3.15-71.405 4.034-7.737 7.184-13.592 33.376-17.567 78.577-3.284 38.7-2.908 64.05 1.128 76.052.393.246.812.528 1.258.847 10.138 6.58 31.511 11.641 64.12 15.183 39.802 4.555 63.604 3.21 71.405-4.033 7.737-7.183 13.593-33.376 17.567-78.576 3.367-36.946 3.238-61.731-.389-74.358a8.747 8.747 0 00-.501-1.366c-9.453-6.973-31.325-12.426-65.616-16.36z" fill="#FF86C9"/><path d="M379.516 68.18c-39.866-4.494-63.668-3.15-71.405 4.034-7.737 7.184-13.592 33.376-17.567 78.577-3.869 45.347-2.689 72.332 3.539 80.956.95 1.315 2.258 2.604 3.923 3.866-4.036-12.002-4.412-37.353-1.128-76.053 3.975-45.2 9.83-71.393 17.567-78.576 7.737-7.183 31.539-8.528 71.405-4.033 34.292 3.933 56.163 9.386 65.616 16.359-.816-2.173-1.699-3.917-2.649-5.233-6.228-8.623-29.328-15.256-69.301-19.896z" fill="#FFB0DC"/><path d="M375.425 298.501l-1.822-32.787-18.047.183-1.869 31.555-34.545-2.631c-13.853-5.398-2.459-12.037 4.97-14.682l.981-16.562c-25.171-4.159-31.586-22.439-31.558-32.541 47.168 28.64 117.091 21.135 144.817 11.502-7.227 19.937-24.904 22.874-32.347 22.124 0 0-2.288 20.701 5.453 24.299 9.858 7.772 5.109 11.504 1.503 12.399l-37.536-2.859z" fill="#FF62B9"/><path d="M404.714 207.391c-14.25-16.632-23.698 5.479-30.922 13.647-1.685 1.905-4.158 2.736-6.647 3.278l-12.943 2.823 2.611 34.211 13.316-2.348c7.008-.028 50.48-33.059 34.585-51.611z" fill="#FCDA40"/><path d="M350.441 117.584c-4.99 0-9.228 1.774-12.715 5.32-3.548 3.546-5.321 7.784-5.321 12.712 0 4.989 1.773 9.227 5.321 12.713 3.487 3.546 7.725 5.319 12.715 5.319 4.991 0 9.229-1.773 12.716-5.319 3.547-3.486 5.321-7.724 5.321-12.713 0-4.928-1.774-9.166-5.321-12.712-3.487-3.546-7.725-5.32-12.716-5.32z" fill="#fff"/><path d="M350.632 129.047c-2.501 0-4.645.918-6.432 2.756-1.838 1.786-2.756 3.929-2.756 6.43 0 2.551.918 4.72 2.756 6.506 1.787 1.786 3.931 2.679 6.432 2.679 2.552 0 4.721-.893 6.508-2.679 1.787-1.786 2.68-3.955 2.68-6.506 0-2.501-.893-4.644-2.68-6.43-1.787-1.838-3.956-2.756-6.508-2.756z" fill="#3D465D"/><path d="M404.551 117.584c-4.99 0-9.228 1.774-12.716 5.32-3.547 3.546-5.32 7.784-5.32 12.712 0 4.989 1.773 9.227 5.32 12.713 3.488 3.546 7.726 5.319 12.716 5.319 4.99 0 9.229-1.773 12.716-5.319 3.547-3.486 5.321-7.724 5.321-12.713 0-4.928-1.774-9.166-5.321-12.712-3.487-3.546-7.726-5.32-12.716-5.32z" fill="#fff"/><path d="M404.551 125.29c-2.812 0-5.222 1.032-7.23 3.098-2.066 2.007-3.099 4.417-3.099 7.228 0 2.869 1.033 5.307 3.099 7.315 2.008 2.008 4.418 3.012 7.23 3.012 2.869 0 5.308-1.004 7.317-3.012 2.008-2.008 3.013-4.446 3.013-7.315 0-2.811-1.005-5.221-3.013-7.228-2.009-2.066-4.448-3.098-7.317-3.098zm-75.343-.794c.421.842 1.143 1.383 2.165 1.623l34.81 9.377c.962.24 1.894.12 2.796-.361.842-.481 1.383-1.232 1.623-2.254l1.894-6.942c.241-1.022.121-1.923-.36-2.705-.542-.901-1.293-1.472-2.255-1.713l-34.811-9.376c-1.022-.241-1.924-.091-2.705.45-.902.421-1.473 1.142-1.714 2.164l-1.894 6.943c-.24 1.021-.09 1.953.451 2.794zm56.044-12.862c-.962.301-1.683.902-2.164 1.803-.541.782-.691 1.683-.451 2.705l1.894 6.942c.24 1.022.812 1.773 1.713 2.254.842.481 1.744.571 2.706.271l34.811-9.287c1.022-.24 1.773-.811 2.254-1.713.481-.781.601-1.683.361-2.704l-1.894-6.943c-.24-1.021-.782-1.773-1.623-2.254-.842-.48-1.774-.601-2.796-.36l-34.811 9.286zm10.191 49.497c-.842-.54-1.774-.661-2.796-.36-.962.24-1.713.751-2.254 1.533-.481.661-1.173 1.292-2.075 1.893-2.224 1.382-4.839 2.074-7.846 2.074-1.382 0-2.675-.121-3.877-.361-1.023-.18-1.954 0-2.796.541-.842.421-1.383 1.142-1.623 2.164-.241.901-.061 1.773.541 2.614.481.722 1.262 1.202 2.344 1.443 1.624.361 3.427.541 5.411.541 4.63 0 8.628-1.082 11.995-3.246l-.09.09c2.044-1.262 3.547-2.674 4.509-4.237.481-.842.601-1.713.36-2.615-.3-.962-.901-1.653-1.803-2.074z" fill="#3D465D"/><path d="M311.388 135.735c-12.246-2.915-28.699-4.372-49.359-4.372-20.743 0-37.197 1.457-49.359 4.372-13.08 3.165-23.285 8.37-30.616 15.616-7.247 7.329-12.454 17.532-15.62 30.607-2.582 10.994-3.999 25.361-4.248 43.1v2.499c.249 17.74 1.666 32.106 4.248 43.1 3.166 13.159 8.373 23.361 15.62 30.607 7.331 7.329 17.536 12.534 30.616 15.616 12.162 2.915 28.616 4.372 49.359 4.372 20.66 0 37.113-1.457 49.359-4.372 13.163-3.082 23.368-8.287 30.616-15.616 7.331-7.246 12.537-17.448 15.62-30.607 2.582-10.827 4.04-24.986 4.373-42.475v-3.748c-.333-17.49-1.791-31.649-4.373-42.476-3.083-13.075-8.289-23.278-15.62-30.607-7.248-7.246-17.453-12.451-30.616-15.616z" fill="#FCDA40"/><path d="M225.457 171.419c-5.6 0-10.357 1.99-14.27 5.97-3.981 3.98-5.972 8.735-5.972 14.266 0 5.599 1.991 10.355 5.972 14.267 3.913 3.98 8.67 5.97 14.27 5.97s10.357-1.99 14.271-5.97c3.98-3.912 5.971-8.668 5.971-14.267 0-5.531-1.991-10.286-5.971-14.266-3.914-3.98-8.671-5.97-14.271-5.97z" fill="#fff"/><path d="M225.457 183.764c-2.568 0-4.769.943-6.603 2.829-1.887 1.834-2.83 4.034-2.83 6.601 0 2.62.943 4.847 2.83 6.68 1.834 1.834 4.035 2.751 6.603 2.751 2.62 0 4.848-.917 6.682-2.751 1.834-1.833 2.751-4.06 2.751-6.68 0-2.567-.917-4.767-2.751-6.601-1.834-1.886-4.062-2.829-6.682-2.829z" fill="#3D465D"/><path d="M286.183 171.419c-5.601 0-10.357 1.99-14.271 5.97-3.981 3.98-5.971 8.735-5.971 14.266 0 5.599 1.99 10.355 5.971 14.267 3.914 3.98 8.67 5.97 14.271 5.97 5.6 0 10.357-1.99 14.27-5.97 3.981-3.912 5.971-8.668 5.971-14.267 0-5.531-1.99-10.286-5.971-14.266-3.913-3.98-8.67-5.97-14.27-5.97z" fill="#fff"/><path d="M285.433 182.422c-2.514 0-4.669.923-6.465 2.77-1.848 1.796-2.771 3.95-2.771 6.464 0 2.565.923 4.745 2.771 6.54 1.796 1.796 3.951 2.694 6.465 2.694 2.566 0 4.747-.898 6.542-2.694 1.796-1.795 2.694-3.975 2.694-6.54 0-2.514-.898-4.668-2.694-6.464-1.795-1.847-3.976-2.77-6.542-2.77zm-83.34-9.189c.632.846 1.536 1.3 2.712 1.363l40.312 3.45c1.11.075 2.116-.243 3.017-.953.834-.698 1.282-1.635 1.345-2.812l.715-8.044c.063-1.176-.249-2.148-.935-2.916-.777-.888-1.72-1.37-2.831-1.445l-40.311-3.45c-1.177-.063-2.143.282-2.899 1.035-.913.644-1.401 1.554-1.463 2.73l-.715 8.044c-.063 1.176.288 2.176 1.053 2.998zm62.972-11.324c-1.115.192-2.006.753-2.675 1.685-.718.789-1.019 1.769-.903 2.942l1.077 8.003c.116 1.173.64 2.093 1.572 2.762.865.66 1.855.894 2.97.702l40.101-5.168c1.173-.116 2.093-.64 2.762-1.572.651-.798.918-1.783.802-2.955l-1.077-8.004c-.116-1.172-.606-2.088-1.472-2.748-.865-.659-1.883-.931-3.056-.815l-40.101 5.168zm10.214 61.62c-1.055-1.063-2.378-1.541-3.968-1.433-1.484.04-2.748.542-3.791 1.509-.918.81-2.132 1.508-3.645 2.094-3.698 1.298-7.744 1.461-12.136.486-2.02-.448-3.87-1.043-5.549-1.784-1.435-.595-2.855-.634-4.26-.116-1.367.342-2.391 1.22-3.074 2.635-.643 1.24-.662 2.572-.057 3.996.469 1.21 1.455 2.166 2.959 2.868 2.255 1.053 4.832 1.901 7.73 2.544 6.765 1.501 12.957 1.217 18.578-.854l-.161.103c3.396-1.182 6.05-2.758 7.962-4.73.976-1.073 1.434-2.308 1.375-3.703-.128-1.503-.782-2.708-1.963-3.615z" fill="#3D465D"/><path d="M311.388 125.741c-12.246-2.915-28.699-4.372-49.359-4.372-20.744 0-37.197 1.457-49.36 4.372-13.079 3.165-23.284 8.37-30.615 15.616-7.248 7.329-12.454 17.532-15.62 30.607-2.916 12.243-4.374 28.692-4.374 49.347 0 1.249.042 2.498.125 3.747.25-17.739 1.666-32.106 4.249-43.1 3.166-13.075 8.372-23.278 15.62-30.607 7.331-7.246 17.536-12.451 30.615-15.616 12.163-2.915 28.616-4.372 49.36-4.372 20.66 0 37.113 1.457 49.359 4.372 13.163 3.165 23.368 8.37 30.615 15.616 7.331 7.329 12.538 17.532 15.62 30.607 2.583 10.827 4.041 24.986 4.374 42.476v-3.123c0-20.655-1.458-37.104-4.374-49.347-3.082-13.075-8.289-23.278-15.62-30.607-7.247-7.246-17.452-12.451-30.615-15.616z" fill="#FFE677"/><path d="M284.516 373.328l-4.863-37.199-23.299 1.775v36.115h-44.828c-18.309-4.948-4.098-13.502 5.296-17.16v-18.955c-29.101-1.775-37.618-29.133-38.356-40.645 65.127 32.116 134.311 10.226 169.392-3.155-7.81 23.342-16.754 38.224-26.427 38.015 0 0-1.371 23.785 8.905 27.212 13.329 8 7.48 12.664 2.89 13.997h-48.71z" fill="#EDC200"/><path d="M465.629 160.969l14.547 4.483 10.692-46.251-14.547-4.484-10.692 46.252z" fill="#F9B700"/><path d="M487.016 118.023l-9.324 40.809 3.919 1.207 9.324-40.808-3.919-1.208zm-10.695-3.306l3.694 1.138-11.185 44.083-2.448-2.267 9.939-42.954z" fill="#F9B700"/><path d="M466.189 173.119l8.544 2.633a2.92 2.92 0 003.701-2.137l2.207-9.658-14.548-4.484-2.295 9.505c-.288 1.802.632 3.725 2.391 4.141z" fill="#E19178"/><path d="M466.108 169.69c-.377 1.649.774 3.642 2.39 4.14l6.235 1.922-8.544-2.633c-1.616-.499-2.767-2.492-2.248-4.223l2.153-9.423 2.167.794-2.153 9.423z" fill="#CB836D"/><path d="M467.182 154.052l14.84 4.405-1.615 7.066-14.778-4.554 1.553-6.917z" fill="#ECEEEE"/><path d="M476.32 114.717l10.046-9.889 4.502 14.373-14.548-4.484z" fill="#F9D798"/><path d="M487.455 108.289a2.5 2.5 0 01-3.415-.915l-.078-.136 1.292-1.383a1 1 0 011.701.439l.5 1.995z" fill="#420964"/><path d="M127.634 205.641l-2.996 6.332v3.953c0 8.228 17.955 10.161 26.933 10.098l32.351-15.334-3.179-8.041c-12.417-.599-27.614 10.223-33.66 15.708-7.331-9.724-16.02-12.529-19.449-12.716z" fill="#fff"/><path d="M148.566 221.49l37.528-15.19 13.702 47.656-38.423 14.595-2.474.185a20 20 0 01-8.862-1.353l-17.419-6.905-12.941-49.229c-.232-.88.737-1.596 1.512-1.117 8.904 5.495 24.068 13.781 27.377 11.358z" fill="#FF4362"/><path d="M150.118 226.807l36.966-16.106 12.603 42.908-38.331 15.217-11.238-42.019z" fill="#D80041"/><defs><linearGradient id="paint0_linear_604_796" x1="-444.263" y1="542.767" x2="-317.585" y2="697.46" gradientUnits="userSpaceOnUse"><stop stop-color="#01C070"/><stop offset="1" stop-color="#01C070"/></linearGradient></defs></svg>