<svg viewBox="0 0 586 238" fill="none" xmlns="http://www.w3.org/2000/svg"><g filter="url(#filter0_d_680_338)"><rect x="2.055" y="2" width="342.592" height="156.124" rx="32" fill="#fff" shape-rendering="crispEdges"/><path d="M86.117 117.817a37.744 37.744 0 01-26.697-11.058 37.756 37.756 0 1126.697 11.058h0z" stroke="#FFC978" stroke-width="8.208"/><path d="M98.81 127.432a49.041 49.041 0 1134.677-60.062" stroke="#FFC978" stroke-width="8.208" stroke-linecap="round"/><path d="M68.274 87.787a7.626 7.626 0 01-1.772-.213 7.265 7.265 0 01-1.707-.64c-.341-.171-.576-.399-.704-.683a1.868 1.868 0 01-.15-.918 1.75 1.75 0 01.342-.854 1.43 1.43 0 01.726-.533c.313-.1.661-.064 1.045.106a5.118 5.118 0 002.262.513c.712 0 1.302-.143 1.772-.427.483-.299.839-.74 1.067-1.323.241-.598.362-1.337.362-2.22v-1.11h.32a3.472 3.472 0 01-.704 1.559 3.278 3.278 0 01-1.28 1.003c-.498.227-1.06.341-1.686.341a4.182 4.182 0 01-2.24-.619 4.538 4.538 0 01-1.559-1.75c-.384-.754-.576-1.593-.576-2.518 0-1.024.22-1.928.662-2.71a4.74 4.74 0 011.835-1.835c.797-.455 1.7-.683 2.71-.683 1.323 0 2.44.299 3.35.896.925.598 1.63 1.466 2.113 2.604.484 1.124.726 2.496.726 4.118 0 1.238-.157 2.348-.47 3.33-.313.98-.768 1.813-1.365 2.496a5.942 5.942 0 01-2.177 1.537c-.854.355-1.821.533-2.902.533zm.939-8.387c.37 0 .69-.085.96-.256.284-.185.498-.426.64-.725.157-.313.235-.676.235-1.088 0-.427-.078-.797-.235-1.11a1.472 1.472 0 00-.64-.704 1.76 1.76 0 00-.96-.257c-.37 0-.69.086-.96.257-.271.156-.484.39-.64.704-.157.313-.236.683-.236 1.11 0 .412.079.775.235 1.088.157.299.37.54.64.725.27.171.59.256.96.256zm10.128 8.152c-.527 0-.932-.135-1.217-.405-.27-.285-.405-.683-.405-1.195s.135-.904.405-1.174c.285-.27.69-.405 1.217-.405h1.92v-8.728h1.793l-3.094 1.899c-.37.228-.719.32-1.046.277a1.515 1.515 0 01-.832-.427 1.644 1.644 0 01-.448-.832 1.668 1.668 0 01.085-.981c.128-.328.384-.605.768-.833l2.945-1.835c.313-.199.633-.348.96-.448.342-.1.697-.15 1.067-.15.54 0 .96.143 1.26.428.298.27.447.668.447 1.195v10.435h1.708c.526 0 .924.135 1.195.405.284.27.426.662.426 1.174 0 .512-.142.91-.426 1.195-.27.27-.669.405-1.195.405H79.34zm17.191-.384c-.185.327-.42.54-.704.64a1.3 1.3 0 01-.832.064 1.53 1.53 0 01-.704-.405c-.2-.2-.32-.448-.363-.747-.043-.299.028-.612.213-.939l7.469-12.868c.199-.341.434-.562.704-.661.271-.114.541-.135.811-.064.285.07.519.213.704.426.2.2.321.448.363.747.057.285-.014.59-.213.918l-7.448 12.89zm-3.094-5.698c-1.28 0-2.276-.42-2.988-1.259-.697-.853-1.045-1.977-1.045-3.371 0-.94.163-1.75.49-2.433.328-.683.79-1.21 1.388-1.58.597-.37 1.316-.554 2.155-.554 1.266 0 2.248.42 2.945 1.259.711.825 1.067 1.928 1.067 3.308 0 .924-.164 1.735-.491 2.432-.313.697-.768 1.238-1.366 1.622-.597.384-1.316.576-2.155.576zm0-2.347a.724.724 0 00.533-.213c.157-.157.27-.399.342-.726.085-.341.128-.79.128-1.344 0-.84-.093-1.423-.278-1.75-.17-.327-.412-.491-.725-.491a.825.825 0 00-.576.213c-.142.128-.256.356-.342.683-.07.328-.106.776-.106 1.345 0 .853.085 1.45.256 1.792.17.327.427.491.768.491zm11.267 8.664c-1.266 0-2.255-.42-2.966-1.26-.697-.838-1.046-1.955-1.046-3.35 0-.953.157-1.77.47-2.454.327-.682.79-1.209 1.387-1.579.612-.37 1.33-.555 2.155-.555 1.266 0 2.255.42 2.967 1.26.711.839 1.067 1.949 1.067 3.329 0 .924-.164 1.735-.491 2.432a3.67 3.67 0 01-1.366 1.6c-.598.385-1.323.577-2.177.577zm0-2.326a.75.75 0 00.555-.213c.157-.157.27-.399.342-.726.085-.341.128-.79.128-1.344 0-.84-.093-1.423-.278-1.75-.17-.328-.419-.491-.747-.491a.796.796 0 00-.554.213c-.143.128-.257.356-.342.683-.071.313-.107.761-.107 1.345 0 .853.086 1.45.256 1.792.171.327.42.49.747.49z" fill="#F99500"/><path d="M86.176 42.366a37.756 37.756 0 0126.697 64.452 37.758 37.758 0 01-58.089-5.722 37.753 37.753 0 01-6.363-20.975" stroke="#F99500" stroke-width="8.208" stroke-linecap="round"/><path d="M86.117 31.021a49.043 49.043 0 0145.308 30.274 49.04 49.04 0 11-94.348 18.767" stroke="#F99500" stroke-width="8.208" stroke-linecap="round"/><path d="M161.399 78.983l-4-14.9h2.92l3.14 12.7h-.76l3.28-12.7h2.82l3.26 12.7h-.76l3.14-12.7h2.92l-4 14.9h-3.12l-3.3-12.36h.88l-3.3 12.36h-3.12zm21.907.24c-1.12 0-2.1-.253-2.94-.76a5.29 5.29 0 01-1.96-2.06c-.467-.867-.7-1.827-.7-2.88 0-1.093.233-2.06.7-2.9a5.425 5.425 0 011.94-2.02c.826-.493 1.746-.74 2.76-.74.853 0 1.6.14 2.24.42a4.79 4.79 0 011.66 1.16c.453.493.8 1.06 1.04 1.7.24.627.36 1.307.36 2.04 0 .187-.014.38-.04.58-.014.2-.047.373-.1.52h-8.4v-2h6.92l-1.24.94c.12-.613.086-1.16-.1-1.64a2.278 2.278 0 00-.88-1.14c-.4-.28-.887-.42-1.46-.42-.547 0-1.034.14-1.46.42-.427.267-.754.667-.98 1.2-.214.52-.294 1.153-.24 1.9-.054.667.033 1.26.26 1.78.24.507.586.9 1.04 1.18.466.28 1 .42 1.6.42.6 0 1.106-.127 1.52-.38.426-.253.76-.593 1-1.02l2.12 1.04c-.214.52-.547.98-1 1.38-.454.4-.994.713-1.62.94a5.851 5.851 0 01-2.04.34zm12.246 0c-1.12 0-2.1-.253-2.94-.76a5.29 5.29 0 01-1.96-2.06c-.467-.867-.7-1.827-.7-2.88 0-1.093.233-2.06.7-2.9a5.425 5.425 0 011.94-2.02c.826-.493 1.746-.74 2.76-.74.853 0 1.6.14 2.24.42a4.79 4.79 0 011.66 1.16c.453.493.8 1.06 1.04 1.7.24.627.36 1.307.36 2.04 0 .187-.014.38-.04.58-.014.2-.047.373-.1.52h-8.4v-2h6.92l-1.24.94c.12-.613.086-1.16-.1-1.64a2.278 2.278 0 00-.88-1.14c-.4-.28-.887-.42-1.46-.42-.547 0-1.034.14-1.46.42-.427.267-.754.667-.98 1.2-.214.52-.294 1.153-.24 1.9-.054.667.033 1.26.26 1.78.24.507.586.9 1.04 1.18.466.28 1 .42 1.6.42.6 0 1.106-.127 1.52-.38.426-.253.76-.593 1-1.02l2.12 1.04c-.214.52-.547.98-1 1.38-.454.4-.994.713-1.62.94a5.851 5.851 0 01-2.04.34zm7.086-.24v-15.14h2.62v9.92l-1-.3 5.12-5.36h3.26l-4.02 4.38 4.1 6.5h-3l-3.56-5.64 1.56-.32-3.28 3.52.82-1.6v4.04h-2.62zm11.543 0v-15.14h2.62v15.14h-2.62zm6.359 4.42c-.294 0-.58-.027-.86-.08a2.65 2.65 0 01-.76-.22v-2.2c.173.04.38.08.62.12.253.04.486.06.7.06.6 0 1.033-.14 1.3-.42.28-.28.526-.647.74-1.1l.72-1.68-.04 2.2-4.74-11.98h2.82l3.32 8.84h-1l3.3-8.84h2.84l-4.74 11.98c-.28.707-.62 1.307-1.02 1.8a4.01 4.01 0 01-1.4 1.12c-.52.267-1.12.4-1.8.4zm14.173-4.42v-14.9h5.56c1.014 0 1.907.187 2.68.56.787.36 1.4.893 1.84 1.6.44.693.66 1.54.66 2.54 0 .987-.226 1.833-.68 2.54a4.333 4.333 0 01-1.82 1.6c-.773.373-1.666.56-2.68.56h-2.84v5.5h-2.72zm2.72-7.9h2.88c.494 0 .92-.093 1.28-.28.36-.2.64-.473.84-.82.2-.347.3-.747.3-1.2 0-.467-.1-.867-.3-1.2-.2-.347-.48-.613-.84-.8-.36-.2-.786-.3-1.28-.3h-2.88v4.6zm10.029 7.9v-10.88h2.46v2.42l-.2-.36c.253-.813.647-1.38 1.18-1.7.547-.32 1.2-.48 1.96-.48h.64v2.32h-.94c-.747 0-1.347.233-1.8.7-.453.453-.68 1.093-.68 1.92v6.06h-2.62zm12.8.24c-1.066 0-2.04-.247-2.92-.74a5.706 5.706 0 01-2.08-2.02c-.506-.853-.76-1.827-.76-2.92s.254-2.067.76-2.92a5.706 5.706 0 012.08-2.02c.867-.493 1.84-.74 2.92-.74 1.067 0 2.034.247 2.9.74a5.538 5.538 0 012.06 2.02c.52.84.78 1.813.78 2.92 0 1.093-.26 2.067-.78 2.92a5.698 5.698 0 01-2.08 2.02c-.866.493-1.826.74-2.88.74zm0-2.4c.587 0 1.1-.14 1.54-.42a2.87 2.87 0 001.06-1.16 3.59 3.59 0 00.4-1.7c0-.64-.133-1.2-.4-1.68a2.87 2.87 0 00-1.06-1.16c-.44-.293-.953-.44-1.54-.44-.6 0-1.126.147-1.58.44a3.03 3.03 0 00-1.08 1.16c-.253.48-.38 1.04-.38 1.68 0 .627.127 1.193.38 1.7.267.493.627.88 1.08 1.16.454.28.98.42 1.58.42zm13.007 6.56a6.247 6.247 0 01-2.26-.4 5.414 5.414 0 01-1.8-1.12 4.177 4.177 0 01-1.08-1.66l2.44-.92c.16.507.474.913.94 1.22.48.32 1.067.48 1.76.48.534 0 1-.1 1.4-.3.414-.2.734-.493.96-.88.227-.373.34-.827.34-1.36v-2.48l.5.6a3.72 3.72 0 01-1.5 1.48c-.626.333-1.34.5-2.14.5-1.013 0-1.92-.233-2.72-.7a5.007 5.007 0 01-1.88-1.92c-.453-.813-.68-1.727-.68-2.74 0-1.027.227-1.94.68-2.74a4.948 4.948 0 011.86-1.88c.787-.467 1.68-.7 2.68-.7.814 0 1.527.173 2.14.52.627.333 1.147.82 1.56 1.46l-.36.66v-2.4h2.48v10.34c0 .947-.233 1.793-.7 2.54a4.784 4.784 0 01-1.88 1.76c-.786.427-1.7.64-2.74.64zm-.12-7.26c.56 0 1.047-.12 1.46-.36.427-.253.76-.6 1-1.04.24-.44.36-.947.36-1.52 0-.56-.126-1.06-.38-1.5a2.641 2.641 0 00-1-1.06c-.413-.253-.893-.38-1.44-.38-.546 0-1.04.127-1.48.38-.44.253-.786.607-1.04 1.06-.24.44-.36.94-.36 1.5s.12 1.06.36 1.5c.254.44.594.787 1.02 1.04.44.253.94.38 1.5.38zm7.887 2.86v-10.88h2.46v2.42l-.2-.36c.253-.813.647-1.38 1.18-1.7.547-.32 1.2-.48 1.96-.48h.64v2.32h-.94c-.747 0-1.347.233-1.8.7-.453.453-.68 1.093-.68 1.92v6.06h-2.62zm12.641.24c-1.12 0-2.1-.253-2.94-.76a5.29 5.29 0 01-1.96-2.06c-.467-.867-.7-1.827-.7-2.88 0-1.093.233-2.06.7-2.9a5.425 5.425 0 011.94-2.02c.826-.493 1.746-.74 2.76-.74.853 0 1.6.14 2.24.42a4.79 4.79 0 011.66 1.16c.453.493.8 1.06 1.04 1.7.24.627.36 1.307.36 2.04 0 .187-.014.38-.04.58-.014.2-.047.373-.1.52h-8.4v-2h6.92l-1.24.94c.12-.613.086-1.16-.1-1.64a2.278 2.278 0 00-.88-1.14c-.4-.28-.887-.42-1.46-.42-.547 0-1.034.14-1.46.42-.427.267-.754.667-.98 1.2-.214.52-.294 1.153-.24 1.9-.054.667.033 1.26.26 1.78.24.507.586.9 1.04 1.18.466.28 1 .42 1.6.42.6 0 1.106-.127 1.52-.38.426-.253.76-.593 1-1.02l2.12 1.04c-.214.52-.547.98-1 1.38-.454.4-.994.713-1.62.94a5.851 5.851 0 01-2.04.34zm11.226 0c-1.16 0-2.174-.273-3.04-.82a4.274 4.274 0 01-1.76-2.26l1.96-.94c.28.613.666 1.093 1.16 1.44.506.347 1.066.52 1.68.52.48 0 .86-.107 1.14-.32.28-.213.42-.493.42-.84a.748.748 0 00-.18-.52 1.16 1.16 0 00-.46-.36 2.907 2.907 0 00-.62-.26l-1.78-.5c-.92-.267-1.62-.673-2.1-1.22-.467-.547-.7-1.193-.7-1.94 0-.667.166-1.247.5-1.74.346-.507.82-.9 1.42-1.18.613-.28 1.313-.42 2.1-.42 1.026 0 1.933.247 2.72.74a4.065 4.065 0 011.68 2.08l-2 .94a2.413 2.413 0 00-.94-1.18 2.61 2.61 0 00-1.48-.44c-.44 0-.787.1-1.04.3-.254.2-.38.46-.38.78 0 .2.053.373.16.52.106.147.253.267.44.36.2.093.426.18.68.26l1.74.52c.893.267 1.58.667 2.06 1.2.493.533.74 1.187.74 1.96 0 .653-.174 1.233-.52 1.74-.347.493-.827.88-1.44 1.16-.614.28-1.334.42-2.16.42zm10.273 0c-1.16 0-2.173-.273-3.04-.82a4.28 4.28 0 01-1.76-2.26l1.96-.94c.28.613.667 1.093 1.16 1.44a2.91 2.91 0 001.68.52c.48 0 .86-.107 1.14-.32.28-.213.42-.493.42-.84a.748.748 0 00-.18-.52 1.16 1.16 0 00-.46-.36 2.886 2.886 0 00-.62-.26l-1.78-.5c-.92-.267-1.62-.673-2.1-1.22-.467-.547-.7-1.193-.7-1.94 0-.667.167-1.247.5-1.74.347-.507.82-.9 1.42-1.18.613-.28 1.313-.42 2.1-.42 1.027 0 1.933.247 2.72.74a4.055 4.055 0 011.68 2.08l-2 .94a2.413 2.413 0 00-.94-1.18 2.608 2.608 0 00-1.48-.44c-.44 0-.787.1-1.04.3-.253.2-.38.46-.38.78 0 .2.053.373.16.52.107.147.253.267.44.36.2.093.427.18.68.26l1.74.52c.893.267 1.58.667 2.06 1.2.493.533.74 1.187.74 1.96 0 .653-.173 1.233-.52 1.74-.347.493-.827.88-1.44 1.16-.613.28-1.333.42-2.16.42z" fill="#1F1F1F"/><path d="M167.354 102.309a5.258 5.258 0 01-2.044-.392 4.875 4.875 0 01-1.624-1.134 5.384 5.384 0 01-1.078-1.708 5.903 5.903 0 01-.378-2.142c0-.784.126-1.503.378-2.156a5.184 5.184 0 011.064-1.708 4.698 4.698 0 011.624-1.12 5.093 5.093 0 012.044-.406c.719 0 1.363.126 1.932.378a4.537 4.537 0 011.456.98c.402.401.686.83.854 1.288l-1.232.602a3.104 3.104 0 00-1.134-1.442c-.513-.355-1.138-.532-1.876-.532-.728 0-1.376.173-1.946.518-.56.345-.998.826-1.316 1.442-.317.616-.476 1.335-.476 2.156 0 .812.159 1.526.476 2.142.327.616.77 1.097 1.33 1.442.57.345 1.218.518 1.946.518.635 0 1.209-.135 1.722-.406.514-.271.92-.644 1.218-1.12.299-.476.448-1.027.448-1.652v-.644l.63.588h-4.032v-1.19h4.788v.924c0 .728-.126 1.386-.378 1.974a4.54 4.54 0 01-1.036 1.512 4.666 4.666 0 01-1.526.952 5.033 5.033 0 01-1.834.336zm10.058 0a3.907 3.907 0 01-1.974-.504 3.837 3.837 0 01-1.4-1.414c-.346-.597-.518-1.274-.518-2.03 0-.756.168-1.428.504-2.016a3.869 3.869 0 011.4-1.4c.588-.345 1.25-.518 1.988-.518.728 0 1.386.173 1.974.518a3.66 3.66 0 011.386 1.386c.345.588.518 1.265.518 2.03 0 .765-.178 1.447-.532 2.044a3.984 3.984 0 01-1.414 1.4 3.779 3.779 0 01-1.932.504zm0-1.26c.466 0 .886-.117 1.26-.35.382-.233.681-.555.896-.966.224-.41.336-.868.336-1.372 0-.513-.112-.966-.336-1.358a2.45 2.45 0 00-.896-.952 2.265 2.265 0 00-1.26-.364 2.35 2.35 0 00-1.288.364 2.58 2.58 0 00-.896.952c-.224.392-.336.845-.336 1.358 0 .504.112.961.336 1.372.224.411.522.733.896.966.382.233.812.35 1.288.35zm5.576 1.092v-7.546h1.302v7.546h-1.302zm0-8.75v-1.68h1.302v1.68h-1.302zm3.322 8.75v-7.546h1.274v1.47l-.21-.126c.187-.476.486-.845.896-1.106.42-.27.91-.406 1.47-.406.542 0 1.022.121 1.442.364.43.243.766.579 1.008 1.008.252.43.378.915.378 1.456v4.886h-1.316v-4.466c0-.42-.074-.775-.224-1.064a1.596 1.596 0 00-.644-.672 1.74 1.74 0 00-.938-.252c-.354 0-.672.084-.952.252-.27.159-.485.387-.644.686-.158.29-.238.64-.238 1.05v4.466h-1.302zm11.719 3.08a4.274 4.274 0 01-1.484-.252 3.544 3.544 0 01-1.162-.7 2.932 2.932 0 01-.728-1.022l1.218-.56c.131.355.378.653.742.896.374.252.84.378 1.4.378.43 0 .817-.084 1.162-.252.355-.159.635-.401.84-.728.206-.317.308-.705.308-1.162v-1.694l.238.252a2.707 2.707 0 01-1.134 1.176 3.245 3.245 0 01-1.61.406c-.709 0-1.344-.163-1.904-.49a3.611 3.611 0 01-1.316-1.358 3.926 3.926 0 01-.476-1.918c0-.71.159-1.349.476-1.918a3.542 3.542 0 011.302-1.344c.56-.336 1.195-.504 1.904-.504.588 0 1.12.135 1.596.406.486.261.873.625 1.162 1.092l-.196.35v-1.68h1.274v7.224c0 .653-.154 1.237-.462 1.75a3.205 3.205 0 01-1.288 1.204c-.541.299-1.162.448-1.862.448zm-.098-4.522c.448 0 .85-.112 1.204-.336a2.49 2.49 0 00.868-.896c.215-.383.322-.807.322-1.274a2.528 2.528 0 00-1.19-2.17 2.205 2.205 0 00-1.204-.336c-.457 0-.872.112-1.246.336a2.433 2.433 0 00-.882.91 2.574 2.574 0 00-.308 1.26c0 .467.103.891.308 1.274.215.373.504.672.868.896.374.224.794.336 1.26.336zm11.747 4.522a4.27 4.27 0 01-1.484-.252 3.533 3.533 0 01-1.162-.7 2.919 2.919 0 01-.728-1.022l1.218-.56c.13.355.378.653.742.896.373.252.84.378 1.4.378.429 0 .816-.084 1.162-.252.354-.159.634-.401.84-.728.205-.317.308-.705.308-1.162v-1.694l.238.252c-.262.513-.64.905-1.134 1.176a3.247 3.247 0 01-1.61.406c-.71 0-1.344-.163-1.904-.49a3.604 3.604 0 01-1.316-1.358 3.915 3.915 0 01-.476-1.918c0-.71.158-1.349.476-1.918a3.528 3.528 0 011.302-1.344c.56-.336 1.194-.504 1.904-.504.588 0 1.12.135 1.596.406.485.261.872.625 1.162 1.092l-.196.35v-1.68h1.274v7.224c0 .653-.154 1.237-.462 1.75a3.212 3.212 0 01-1.288 1.204c-.542.299-1.162.448-1.862.448zm-.098-4.522c.448 0 .849-.112 1.204-.336.364-.224.653-.523.868-.896.214-.383.322-.807.322-1.274a2.54 2.54 0 00-.322-1.26 2.466 2.466 0 00-.868-.91 2.208 2.208 0 00-1.204-.336c-.458 0-.873.112-1.246.336a2.418 2.418 0 00-.882.91 2.563 2.563 0 00-.308 1.26c0 .467.102.891.308 1.274.214.373.504.672.868.896a2.4 2.4 0 001.26.336zm9.312 1.61a3.907 3.907 0 01-1.974-.504 3.844 3.844 0 01-1.4-1.414c-.345-.597-.518-1.274-.518-2.03 0-.756.168-1.428.504-2.016a3.877 3.877 0 011.4-1.4c.588-.345 1.251-.518 1.988-.518.728 0 1.386.173 1.974.518a3.66 3.66 0 011.386 1.386c.346.588.518 1.265.518 2.03 0 .765-.177 1.447-.532 2.044a3.976 3.976 0 01-1.414 1.4 3.774 3.774 0 01-1.932.504zm0-1.26a2.33 2.33 0 001.26-.35c.383-.233.682-.555.896-.966.224-.41.336-.868.336-1.372 0-.513-.112-.966-.336-1.358a2.436 2.436 0 00-.896-.952 2.26 2.26 0 00-1.26-.364c-.476 0-.905.121-1.288.364-.373.233-.672.55-.896.952-.224.392-.336.845-.336 1.358 0 .504.112.961.336 1.372.224.411.523.733.896.966.383.233.812.35 1.288.35zm9.16 1.26a3.907 3.907 0 01-1.974-.504 3.844 3.844 0 01-1.4-1.414c-.345-.597-.518-1.274-.518-2.03 0-.756.168-1.428.504-2.016a3.877 3.877 0 011.4-1.4c.588-.345 1.251-.518 1.988-.518.728 0 1.386.173 1.974.518a3.66 3.66 0 011.386 1.386c.346.588.518 1.265.518 2.03 0 .765-.177 1.447-.532 2.044a3.976 3.976 0 01-1.414 1.4 3.774 3.774 0 01-1.932.504zm0-1.26a2.33 2.33 0 001.26-.35c.383-.233.682-.555.896-.966.224-.41.336-.868.336-1.372 0-.513-.112-.966-.336-1.358a2.436 2.436 0 00-.896-.952 2.26 2.26 0 00-1.26-.364c-.476 0-.905.121-1.288.364-.373.233-.672.55-.896.952-.224.392-.336.845-.336 1.358 0 .504.112.961.336 1.372.224.411.523.733.896.966.383.233.812.35 1.288.35zm9.007 1.26c-.71 0-1.349-.173-1.918-.518a3.725 3.725 0 01-1.33-1.414c-.327-.597-.49-1.265-.49-2.002 0-.756.163-1.428.49-2.016a3.725 3.725 0 011.33-1.414 3.623 3.623 0 011.918-.518c.625 0 1.18.135 1.666.406.485.261.868.616 1.148 1.064l-.21.322v-4.676h1.316v10.598h-1.274v-1.61l.168.224a2.728 2.728 0 01-1.148 1.148 3.41 3.41 0 01-1.666.406zm.112-1.26c.476 0 .9-.117 1.274-.35.373-.233.667-.551.882-.952.224-.41.336-.868.336-1.372 0-.513-.112-.97-.336-1.372a2.458 2.458 0 00-.882-.966 2.355 2.355 0 00-1.274-.35c-.467 0-.892.121-1.274.364a2.46 2.46 0 00-.882.952c-.215.392-.322.85-.322 1.372 0 .504.107.961.322 1.372.214.401.508.719.882.952.373.233.798.35 1.274.35zm6.355 1.092v-1.68h1.358v1.68h-1.358zm11.301.168a5.254 5.254 0 01-2.044-.392 4.865 4.865 0 01-1.624-1.134 5.367 5.367 0 01-1.078-1.708 5.903 5.903 0 01-.378-2.142c0-.784.126-1.503.378-2.156a5.184 5.184 0 011.064-1.708 4.69 4.69 0 011.624-1.12 5.09 5.09 0 012.044-.406c.719 0 1.363.126 1.932.378a4.537 4.537 0 011.456.98c.401.401.686.83.854 1.288l-1.232.602a3.117 3.117 0 00-1.134-1.442c-.513-.355-1.139-.532-1.876-.532-.728 0-1.377.173-1.946.518-.56.345-.999.826-1.316 1.442-.317.616-.476 1.335-.476 2.156 0 .812.159 1.526.476 2.142.327.616.77 1.097 1.33 1.442.569.345 1.218.518 1.946.518.635 0 1.209-.135 1.722-.406a3.14 3.14 0 001.218-1.12c.299-.476.448-1.027.448-1.652v-.644l.63.588h-4.032v-1.19h4.788v.924c0 .728-.126 1.386-.378 1.974a4.54 4.54 0 01-1.036 1.512 4.676 4.676 0 01-1.526.952 5.037 5.037 0 01-1.834.336zm6.473-.168v-7.546h1.274v1.386l-.14-.196c.178-.43.448-.747.812-.952.364-.215.808-.322 1.33-.322h.462v1.232h-.658c-.532 0-.961.168-1.288.504-.326.327-.49.793-.49 1.4v4.494H261.3zm8.367.168c-.728 0-1.377-.173-1.946-.518a3.7 3.7 0 01-1.344-1.414c-.327-.607-.49-1.283-.49-2.03 0-.756.159-1.428.476-2.016a3.687 3.687 0 011.316-1.386 3.502 3.502 0 011.876-.518c.56 0 1.055.103 1.484.308a3.13 3.13 0 011.106.812c.308.336.541.723.7 1.162.168.43.252.877.252 1.344 0 .103-.009.22-.028.35a3.754 3.754 0 01-.042.35h-6.188v-1.12h5.432l-.616.504c.084-.485.037-.92-.14-1.302a2.112 2.112 0 00-1.96-1.246c-.439 0-.84.112-1.204.336a2.271 2.271 0 00-.854.966c-.196.41-.275.9-.238 1.47-.037.55.047 1.036.252 1.456.215.411.513.733.896.966.392.224.817.336 1.274.336.504 0 .929-.117 1.274-.35a2.76 2.76 0 00.84-.896l1.092.56a2.79 2.79 0 01-.7.952c-.308.28-.677.504-1.106.672-.42.168-.891.252-1.414.252zm7.244 0c-.495 0-.933-.089-1.316-.266a2.269 2.269 0 01-.882-.756 1.991 1.991 0 01-.322-1.12c0-.401.084-.76.252-1.078.177-.327.448-.602.812-.826.373-.224.84-.383 1.4-.476l2.8-.462v1.092l-2.506.42c-.485.084-.84.238-1.064.462-.215.224-.322.5-.322.826 0 .308.121.565.364.77.252.205.565.308.938.308.476 0 .887-.098 1.232-.294a2.19 2.19 0 00.826-.826c.205-.345.308-.728.308-1.148v-1.918c0-.41-.154-.742-.462-.994-.299-.261-.695-.392-1.19-.392-.429 0-.812.112-1.148.336a1.946 1.946 0 00-.728.868l-1.134-.588c.14-.345.364-.653.672-.924a3.544 3.544 0 012.366-.896c.579 0 1.087.112 1.526.336.439.215.779.518 1.022.91.252.383.378.83.378 1.344v5.124h-1.274v-1.428l.238.084c-.159.299-.373.56-.644.784a3.155 3.155 0 01-.952.532 3.491 3.491 0 01-1.19.196zm8.77-.084c-.737 0-1.307-.21-1.708-.63-.392-.42-.588-1.013-.588-1.778v-3.976h-1.372v-1.246h.28c.336 0 .602-.103.798-.308.196-.205.294-.476.294-.812v-.616h1.302v1.736h1.694v1.246h-1.694v3.934c0 .252.037.471.112.658a.985.985 0 00.406.448c.187.103.434.154.742.154.065 0 .145-.005.238-.014.103-.009.196-.019.28-.028v1.148a2.471 2.471 0 01-.406.056 3.056 3.056 0 01-.378.028zm3.059-3.136l-.084-7.378h1.372l-.098 7.378h-1.19zm-.084 3.052v-1.68h1.372v1.68h-1.372z" fill="#747474"/></g><g filter="url(#filter1_d_680_338)"><rect x="1.886" y="178" width="343" height="50" rx="16" fill="#fff" shape-rendering="crispEdges"/><rect x="25.886" y="198.788" width="244" height="8.424" rx="4.212" fill="#C4FFE6"/><rect x="25.886" y="198.788" width="164.961" height="8.424" rx="4.212" fill="#01C070"/><path d="M282.182 210.5l5.58-11.34h-6.318v-2.07h8.892v2.07l-5.454 11.34h-2.7zm13.753.216a5.34 5.34 0 01-2.034-.396 4.92 4.92 0 01-1.656-1.116 3.924 3.924 0 01-.936-1.746l2.124-.756c.204.612.534 1.068.99 1.368.456.288.96.432 1.512.432.456 0 .858-.096 1.206-.288.36-.204.636-.48.828-.828.192-.36.288-.774.288-1.242 0-.468-.102-.876-.306-1.224a2.024 2.024 0 00-.81-.81 2.34 2.34 0 00-1.206-.306c-.468 0-.894.102-1.278.306a1.808 1.808 0 00-.81.882l-1.998-.45 1.062-7.452h7.308v2.07h-6.336l.918-1.062-.756 5.616-.702-.576c.336-.492.744-.852 1.224-1.08.492-.228 1.086-.342 1.782-.342.888 0 1.656.192 2.304.576.66.384 1.17.906 1.53 1.566.36.66.54 1.422.54 2.286 0 .864-.21 1.644-.63 2.34a4.486 4.486 0 01-1.71 1.638c-.72.396-1.536.594-2.448.594zm8.482-.216l10.872-13.41h2.52l-10.872 13.41h-2.52zm2.088-6.606c-.66 0-1.26-.156-1.8-.468a3.67 3.67 0 01-1.26-1.278 3.402 3.402 0 01-.468-1.764c0-.648.156-1.236.468-1.764a3.48 3.48 0 011.26-1.278 3.533 3.533 0 011.8-.468c.672 0 1.272.156 1.8.468a3.48 3.48 0 011.26 1.278c.312.528.468 1.116.468 1.764 0 .648-.156 1.236-.468 1.764a3.67 3.67 0 01-1.26 1.278c-.528.312-1.128.468-1.8.468zm0-1.818c.36 0 .66-.078.9-.234.24-.168.42-.378.54-.63a1.829 1.829 0 000-1.656c-.12-.252-.3-.462-.54-.63-.24-.168-.54-.252-.9-.252-.336 0-.63.084-.882.252-.24.168-.426.384-.558.648a1.72 1.72 0 00-.198.81c0 .276.066.546.198.81s.318.48.558.648c.252.156.546.234.882.234zm9.144 8.64c-.66 0-1.26-.156-1.8-.468a3.67 3.67 0 01-1.26-1.278 3.402 3.402 0 01-.468-1.764c0-.648.156-1.236.468-1.764a3.48 3.48 0 011.26-1.278 3.533 3.533 0 011.8-.468c.672 0 1.272.156 1.8.468a3.48 3.48 0 011.26 1.278c.312.528.468 1.116.468 1.764 0 .648-.156 1.236-.468 1.764a3.67 3.67 0 01-1.26 1.278c-.528.312-1.128.468-1.8.468zm0-1.818c.348 0 .642-.078.882-.234.252-.168.438-.378.558-.63a1.829 1.829 0 000-1.656 1.556 1.556 0 00-.558-.63c-.24-.168-.534-.252-.882-.252-.336 0-.63.084-.882.252-.24.168-.426.384-.558.648a1.72 1.72 0 00-.198.81c0 .276.066.546.198.81s.318.48.558.648c.252.156.546.234.882.234z" fill="#000"/></g><g filter="url(#filter2_d_680_338)"><rect x="364.647" y="2" width="211.467" height="226" rx="32" fill="#fff" shape-rendering="crispEdges"/><path d="M470.38 130.301a46.295 46.295 0 01-32.739-13.561 46.306 46.306 0 01-10.037-50.459 46.295 46.295 0 0125.058-25.057A46.296 46.296 0 01503.12 51.26 46.31 46.31 0 01516.681 84a46.301 46.301 0 01-46.301 46.301h0z" stroke="#BAE6FF" stroke-width="14.816"/><path d="M437.641 116.74a46.305 46.305 0 01-10.037-50.459 46.299 46.299 0 0168.5-20.779 46.305 46.305 0 0119.687 47.53 46.303 46.303 0 01-12.671 23.708" stroke="#5EC4FF" stroke-width="14.816" stroke-linecap="round"/><path d="M453.236 91.334a7.28 7.28 0 01-1.691-.204 6.933 6.933 0 01-1.629-.611c-.326-.163-.55-.38-.673-.652a1.787 1.787 0 01-.142-.876 1.66 1.66 0 01.326-.815c.176-.245.407-.415.692-.51.299-.095.632-.06.999.102a4.878 4.878 0 002.159.489c.679 0 1.243-.136 1.691-.407.462-.285.801-.706 1.019-1.263.23-.57.346-1.277.346-2.119v-1.06h.305a3.302 3.302 0 01-.672 1.488c-.326.42-.733.74-1.222.957-.475.218-1.012.326-1.61.326-.787 0-1.5-.197-2.139-.59a4.34 4.34 0 01-1.487-1.671c-.367-.72-.55-1.521-.55-2.404 0-.978.211-1.84.632-2.587a4.525 4.525 0 011.752-1.752c.76-.435 1.623-.652 2.587-.652 1.263 0 2.329.285 3.198.855.883.57 1.556 1.4 2.017 2.486.462 1.073.693 2.383.693 3.932 0 1.181-.149 2.24-.448 3.178-.299.937-.734 1.731-1.304 2.383a5.669 5.669 0 01-2.078 1.467c-.815.34-1.738.51-2.771.51zm.897-8.007c.353 0 .658-.081.916-.244a1.67 1.67 0 00.612-.693 2.3 2.3 0 00.224-1.039c0-.407-.075-.76-.224-1.06a1.407 1.407 0 00-.612-.672 1.678 1.678 0 00-.916-.244c-.353 0-.659.081-.917.244-.258.15-.462.374-.611.673-.15.299-.224.652-.224 1.059 0 .394.074.74.224 1.039.149.285.353.516.611.693.258.163.564.244.917.244zm9.098 8.23c-.122.354-.305.612-.55.775a1.287 1.287 0 01-.794.224 1.5 1.5 0 01-.795-.224 1.191 1.191 0 01-.509-.632c-.109-.272-.109-.59 0-.957l4.522-14.098c.109-.353.286-.611.53-.774a1.34 1.34 0 01.795-.224c.285 0 .55.075.794.224.245.136.421.34.53.611.108.272.102.598-.021.978l-4.502 14.098zm7.673-.448c-.502 0-.89-.129-1.161-.387-.258-.271-.387-.652-.387-1.14 0-.49.129-.863.387-1.121.271-.258.659-.387 1.161-.387h1.834v-8.332h1.711l-2.954 1.813c-.353.217-.686.305-.998.265a1.444 1.444 0 01-.795-.408 1.573 1.573 0 01-.428-.794 1.594 1.594 0 01.082-.938c.122-.312.366-.577.733-.794l2.812-1.752a3.72 3.72 0 01.916-.428 3.625 3.625 0 011.019-.142c.516 0 .917.135 1.202.407.285.258.428.638.428 1.14v9.963h1.63c.502 0 .882.129 1.14.387.272.258.408.632.408 1.12 0 .49-.136.87-.408 1.141-.258.258-.638.387-1.14.387h-7.192zm15.129.225c-1.766 0-3.124-.646-4.075-1.936-.937-1.304-1.405-3.144-1.405-5.52 0-1.603.21-2.948.631-4.034.421-1.1 1.039-1.93 1.854-2.486.815-.557 1.813-.835 2.995-.835 1.779 0 3.137.624 4.074 1.874.937 1.25 1.406 3.07 1.406 5.46 0 1.589-.211 2.94-.632 4.054-.421 1.114-1.039 1.963-1.854 2.546-.814.585-1.813.877-2.994.877zm0-2.975c.652 0 1.134-.353 1.446-1.06.326-.72.489-1.867.489-3.442 0-1.562-.163-2.676-.489-3.341-.312-.68-.794-1.019-1.446-1.019-.652 0-1.141.34-1.467 1.019-.312.665-.469 1.779-.469 3.34 0 1.576.157 2.724.469 3.444.326.706.815 1.06 1.467 1.06z" fill="#383D54"/><path d="M390.57 169.301v-14.9h9.94v2.4h-7.22v4.12h6.32v2.4h-6.32v5.98h-2.72zm11.499 0v-10.88h2.62v10.88h-2.62zm0-12.1v-2.8h2.62v2.8h-2.62zm5.039 12.1v-10.88h2.46v2.14l-.2-.38c.254-.654.667-1.147 1.24-1.48.587-.347 1.267-.52 2.04-.52.8 0 1.507.173 2.12.52a3.65 3.65 0 011.46 1.46c.347.613.52 1.326.52 2.14v7h-2.62v-6.38c0-.48-.093-.894-.28-1.24a1.947 1.947 0 00-.78-.8c-.32-.2-.7-.3-1.14-.3-.426 0-.806.1-1.14.3a1.959 1.959 0 00-.78.8c-.186.346-.28.76-.28 1.24v6.38h-2.62zm11.856 0v-10.88h2.62v10.88h-2.62zm0-12.1v-2.8h2.62v2.8h-2.62zm9.179 12.34c-1.16 0-2.174-.274-3.04-.82a4.277 4.277 0 01-1.76-2.26l1.96-.94c.28.613.666 1.093 1.16 1.44.506.346 1.066.52 1.68.52.48 0 .86-.107 1.14-.32.28-.214.42-.494.42-.84a.746.746 0 00-.18-.52 1.155 1.155 0 00-.46-.36 2.857 2.857 0 00-.62-.26l-1.78-.5c-.92-.267-1.62-.674-2.1-1.22-.467-.547-.7-1.194-.7-1.94 0-.667.166-1.247.5-1.74.346-.507.82-.9 1.42-1.18.613-.28 1.313-.42 2.1-.42 1.026 0 1.933.246 2.72.74a4.06 4.06 0 011.68 2.08l-2 .94a2.408 2.408 0 00-.94-1.18 2.605 2.605 0 00-1.48-.44c-.44 0-.787.1-1.04.3-.254.2-.38.46-.38.78 0 .2.053.373.16.52.106.146.253.266.44.36.2.093.426.18.68.26l1.74.52c.893.266 1.58.666 2.06 1.2.493.533.74 1.186.74 1.96 0 .653-.174 1.233-.52 1.74-.347.493-.827.88-1.44 1.16-.614.28-1.334.42-2.16.42zm6.133-.24v-15.14h2.62v6.4l-.36-.38c.253-.654.667-1.147 1.24-1.48.587-.347 1.267-.52 2.04-.52.8 0 1.507.173 2.12.52a3.657 3.657 0 011.46 1.46c.347.613.52 1.326.52 2.14v7h-2.62v-6.38c0-.48-.093-.894-.28-1.24a1.959 1.959 0 00-.78-.8c-.32-.2-.7-.3-1.14-.3-.427 0-.807.1-1.14.3a1.959 1.959 0 00-.78.8c-.187.346-.28.76-.28 1.24v6.38h-2.62zm20.37.12c-1.226 0-2.18-.334-2.86-1-.666-.68-1-1.634-1-2.86v-4.8h-1.88v-2.34h.2c.534 0 .947-.14 1.24-.42.294-.28.44-.687.44-1.22v-.84h2.62v2.48h2.5v2.34h-2.5v4.66c0 .36.06.666.18.92.134.253.334.446.6.58.28.133.634.2 1.06.2.094 0 .2-.007.32-.02l.38-.04v2.24c-.186.026-.4.053-.64.08-.24.026-.46.04-.66.04zm6.563.12c-.76 0-1.42-.127-1.98-.38-.56-.254-.993-.614-1.3-1.08-.307-.48-.46-1.034-.46-1.66 0-.6.133-1.134.4-1.6.267-.48.68-.88 1.24-1.2.56-.32 1.267-.547 2.12-.68l3.56-.58v2l-3.06.52c-.52.093-.907.26-1.16.5-.253.24-.38.553-.38.94 0 .373.14.673.42.9.293.213.653.32 1.08.32.547 0 1.027-.114 1.44-.34.427-.24.753-.567.98-.98.24-.414.36-.867.36-1.36v-2.8c0-.467-.187-.854-.56-1.16-.36-.32-.84-.48-1.44-.48-.56 0-1.06.153-1.5.46-.427.293-.74.686-.94 1.18l-2.14-1.04a3.734 3.734 0 011-1.48 5.106 5.106 0 011.64-1 5.66 5.66 0 012.04-.36c.893 0 1.68.166 2.36.5.68.32 1.207.773 1.58 1.36.387.573.58 1.246.58 2.02v7.24h-2.48v-1.86l.56-.04c-.28.466-.613.86-1 1.18a4.553 4.553 0 01-1.32.72c-.493.16-1.04.24-1.64.24zm12.442 0c-1.16 0-2.174-.274-3.04-.82a4.277 4.277 0 01-1.76-2.26l1.96-.94c.28.613.666 1.093 1.16 1.44.506.346 1.066.52 1.68.52.48 0 .86-.107 1.14-.32.28-.214.42-.494.42-.84a.746.746 0 00-.18-.52 1.155 1.155 0 00-.46-.36 2.857 2.857 0 00-.62-.26l-1.78-.5c-.92-.267-1.62-.674-2.1-1.22-.467-.547-.7-1.194-.7-1.94 0-.667.166-1.247.5-1.74.346-.507.82-.9 1.42-1.18.613-.28 1.313-.42 2.1-.42 1.026 0 1.933.246 2.72.74a4.06 4.06 0 011.68 2.08l-2 .94a2.408 2.408 0 00-.94-1.18 2.605 2.605 0 00-1.48-.44c-.44 0-.787.1-1.04.3-.254.2-.38.46-.38.78 0 .2.053.373.16.52.106.146.253.266.44.36.2.093.426.18.68.26l1.74.52c.893.266 1.58.666 2.06 1.2.493.533.74 1.186.74 1.96 0 .653-.174 1.233-.52 1.74-.347.493-.827.88-1.44 1.16-.614.28-1.334.42-2.16.42zm6.133-.24v-15.14h2.62v9.92l-1-.3 5.12-5.36h3.26l-4.02 4.38 4.1 6.5h-3l-3.56-5.64 1.56-.32-3.28 3.52.82-1.6v4.04h-2.62zm20.058.12c-1.227 0-2.18-.334-2.86-1-.667-.68-1-1.634-1-2.86v-4.8h-1.88v-2.34h.2c.533 0 .946-.14 1.24-.42.293-.28.44-.687.44-1.22v-.84h2.62v2.48h2.5v2.34h-2.5v4.66c0 .36.06.666.18.92.133.253.333.446.6.58.28.133.633.2 1.06.2.093 0 .2-.007.32-.02l.38-.04v2.24c-.187.026-.4.053-.64.08-.24.026-.46.04-.66.04zm8.524.12c-1.067 0-2.04-.247-2.92-.74a5.706 5.706 0 01-2.08-2.02c-.507-.854-.76-1.827-.76-2.92 0-1.094.253-2.067.76-2.92a5.69 5.69 0 012.08-2.02c.866-.494 1.84-.74 2.92-.74 1.066 0 2.033.246 2.9.74a5.546 5.546 0 012.06 2.02c.52.84.78 1.813.78 2.92 0 1.093-.26 2.066-.78 2.92a5.714 5.714 0 01-4.96 2.76zm0-2.4c.586 0 1.1-.14 1.54-.42.453-.28.806-.667 1.06-1.16.266-.507.4-1.074.4-1.7 0-.64-.134-1.2-.4-1.68a2.88 2.88 0 00-1.06-1.16c-.44-.294-.954-.44-1.54-.44-.6 0-1.127.146-1.58.44-.454.28-.814.666-1.08 1.16-.254.48-.38 1.04-.38 1.68 0 .626.126 1.193.38 1.7.266.493.626.88 1.08 1.16.453.28.98.42 1.58.42zm12.787 2.4c-1.054 0-1.994-.247-2.82-.74a5.496 5.496 0 01-1.96-2.06c-.48-.867-.72-1.827-.72-2.88 0-1.067.24-2.027.72-2.88a5.522 5.522 0 011.96-2.04c.84-.507 1.773-.76 2.8-.76.826 0 1.56.166 2.2.5.653.32 1.166.773 1.54 1.36l-.4.54v-6.42h2.62v15.14h-2.48v-2.1l.28.52a3.711 3.711 0 01-1.56 1.36 5.167 5.167 0 01-2.18.46zm.28-2.4c.6 0 1.126-.14 1.58-.42.453-.28.806-.667 1.06-1.16.266-.494.4-1.06.4-1.7 0-.627-.134-1.187-.4-1.68a2.853 2.853 0 00-1.06-1.18c-.454-.28-.98-.42-1.58-.42-.587 0-1.114.146-1.58.44-.467.28-.834.666-1.1 1.16-.254.48-.38 1.04-.38 1.68 0 .64.126 1.206.38 1.7.266.493.633.88 1.1 1.16.466.28.993.42 1.58.42zm11.397 2.4c-.76 0-1.42-.127-1.98-.38-.56-.254-.993-.614-1.3-1.08-.307-.48-.46-1.034-.46-1.66 0-.6.133-1.134.4-1.6.267-.48.68-.88 1.24-1.2.56-.32 1.267-.547 2.12-.68l3.56-.58v2l-3.06.52c-.52.093-.907.26-1.16.5-.253.24-.38.553-.38.94 0 .373.14.673.42.9.293.213.653.32 1.08.32.547 0 1.027-.114 1.44-.34.427-.24.753-.567.98-.98.24-.414.36-.867.36-1.36v-2.8c0-.467-.187-.854-.56-1.16-.36-.32-.84-.48-1.44-.48-.56 0-1.06.153-1.5.46-.427.293-.74.686-.94 1.18l-2.14-1.04a3.734 3.734 0 011-1.48 5.106 5.106 0 011.64-1 5.66 5.66 0 012.04-.36c.893 0 1.68.166 2.36.5.68.32 1.207.773 1.58 1.36.387.573.58 1.246.58 2.02v7.24h-2.48v-1.86l.56-.04c-.28.466-.613.86-1 1.18a4.553 4.553 0 01-1.32.72c-.493.16-1.04.24-1.64.24zm9.622 4.18c-.294 0-.58-.027-.86-.08a2.673 2.673 0 01-.76-.22v-2.2c.173.04.38.08.62.12.253.04.486.06.7.06.6 0 1.033-.14 1.3-.42.28-.28.526-.647.74-1.1l.72-1.68-.04 2.2-4.74-11.98h2.82l3.32 8.84h-1l3.3-8.84h2.84l-4.74 11.98c-.28.706-.62 1.306-1.02 1.8-.4.493-.867.866-1.4 1.12-.52.266-1.12.4-1.8.4z" fill="#1F1F1F"/><path d="M413.823 192.301l-3.766-10.43h1.47l3.192 9.17h-.294l3.192-9.17h1.47l-3.752 10.43h-1.512zm9.2.168c-.728 0-1.376-.173-1.946-.518a3.707 3.707 0 01-1.344-1.414 4.223 4.223 0 01-.49-2.03c0-.756.159-1.428.476-2.016a3.695 3.695 0 011.316-1.386 3.498 3.498 0 011.876-.518c.56 0 1.055.102 1.484.308.439.196.808.466 1.106.812.308.336.542.723.7 1.162.168.429.252.877.252 1.344 0 .102-.009.219-.028.35a3.766 3.766 0 01-.042.35h-6.188v-1.12h5.432l-.616.504c.084-.486.038-.92-.14-1.302a2.118 2.118 0 00-1.96-1.246c-.438 0-.84.112-1.204.336a2.278 2.278 0 00-.854.966c-.196.41-.275.9-.238 1.47-.037.55.047 1.036.252 1.456.215.41.514.732.896.966.392.224.817.336 1.274.336.504 0 .929-.117 1.274-.35a2.75 2.75 0 00.84-.896l1.092.56a2.787 2.787 0 01-.7.952c-.308.28-.676.504-1.106.672-.42.168-.891.252-1.414.252zm5.128-.168v-7.546h1.274v1.386l-.14-.196c.177-.43.448-.747.812-.952.364-.215.807-.322 1.33-.322h.462v1.232h-.658c-.532 0-.961.168-1.288.504-.327.326-.49.793-.49 1.4v4.494h-1.302zm5.301 3.08a3.06 3.06 0 01-.504-.042 1.647 1.647 0 01-.476-.126v-1.162a4.1 4.1 0 01.378.056c.158.028.312.042.462.042.438 0 .77-.098.994-.294.233-.196.452-.528.658-.994l.476-1.134-.028 1.134-3.22-8.106h1.414l2.506 6.44h-.42l2.492-6.44h1.442l-3.402 8.442c-.159.401-.364.77-.616 1.106a2.585 2.585 0 01-.896.784c-.355.196-.775.294-1.26.294zm14.722-2.912a5.25 5.25 0 01-2.044-.392 4.855 4.855 0 01-1.624-1.134 5.364 5.364 0 01-1.078-1.708 5.909 5.909 0 01-.378-2.142c0-.784.126-1.503.378-2.156a5.158 5.158 0 011.064-1.708 4.666 4.666 0 011.624-1.12 5.081 5.081 0 012.044-.406c.718 0 1.362.126 1.932.378a4.536 4.536 0 011.456.98c.401.401.686.83.854 1.288l-1.232.602a3.112 3.112 0 00-1.134-1.442c-.514-.355-1.139-.532-1.876-.532-.728 0-1.377.172-1.946.518-.56.345-.999.826-1.316 1.442-.318.616-.476 1.334-.476 2.156 0 .812.158 1.526.476 2.142.326.616.77 1.096 1.33 1.442.569.345 1.218.518 1.946.518.634 0 1.208-.136 1.722-.406a3.141 3.141 0 001.218-1.12c.298-.476.448-1.027.448-1.652v-.644l.63.588h-4.032v-1.19h4.788v.924c0 .728-.126 1.386-.378 1.974a4.554 4.554 0 01-1.036 1.512c-.439.41-.948.728-1.526.952a5.037 5.037 0 01-1.834.336zm10.057 0a3.907 3.907 0 01-1.974-.504 3.844 3.844 0 01-1.4-1.414c-.345-.598-.518-1.274-.518-2.03 0-.756.168-1.428.504-2.016a3.867 3.867 0 011.4-1.4c.588-.346 1.251-.518 1.988-.518.728 0 1.386.172 1.974.518a3.66 3.66 0 011.386 1.386c.345.588.518 1.264.518 2.03 0 .765-.177 1.446-.532 2.044a3.992 3.992 0 01-1.414 1.4 3.779 3.779 0 01-1.932.504zm0-1.26a2.33 2.33 0 001.26-.35c.383-.234.681-.556.896-.966.224-.411.336-.868.336-1.372 0-.514-.112-.966-.336-1.358a2.437 2.437 0 00-.896-.952 2.257 2.257 0 00-1.26-.364c-.476 0-.905.121-1.288.364-.373.233-.672.55-.896.952-.224.392-.336.844-.336 1.358 0 .504.112.961.336 1.372.224.41.523.732.896.966.383.233.812.35 1.288.35zm9.16 1.26a3.907 3.907 0 01-1.974-.504 3.852 3.852 0 01-1.4-1.414c-.345-.598-.518-1.274-.518-2.03 0-.756.168-1.428.504-2.016a3.874 3.874 0 011.4-1.4c.588-.346 1.251-.518 1.988-.518.728 0 1.386.172 1.974.518a3.66 3.66 0 011.386 1.386c.346.588.518 1.264.518 2.03 0 .765-.177 1.446-.532 2.044a3.984 3.984 0 01-1.414 1.4 3.774 3.774 0 01-1.932.504zm0-1.26a2.33 2.33 0 001.26-.35c.383-.234.682-.556.896-.966.224-.411.336-.868.336-1.372 0-.514-.112-.966-.336-1.358a2.43 2.43 0 00-.896-.952 2.257 2.257 0 00-1.26-.364c-.476 0-.905.121-1.288.364-.373.233-.672.55-.896.952-.224.392-.336.844-.336 1.358 0 .504.112.961.336 1.372.224.41.523.732.896.966.383.233.812.35 1.288.35zm9.006 1.26a3.63 3.63 0 01-1.918-.518 3.74 3.74 0 01-1.33-1.414 4.113 4.113 0 01-.49-2.002c0-.756.164-1.428.49-2.016a3.725 3.725 0 011.33-1.414 3.622 3.622 0 011.918-.518c.626 0 1.181.135 1.666.406.486.261.868.616 1.148 1.064l-.21.322v-4.676h1.316v10.598h-1.274v-1.61l.168.224a2.728 2.728 0 01-1.148 1.148c-.494.27-1.05.406-1.666.406zm.112-1.26c.476 0 .901-.117 1.274-.35.374-.234.668-.551.882-.952.224-.411.336-.868.336-1.372 0-.514-.112-.971-.336-1.372a2.439 2.439 0 00-.882-.966 2.347 2.347 0 00-1.274-.35 2.33 2.33 0 00-1.274.364c-.373.233-.667.55-.882.952-.214.392-.322.849-.322 1.372 0 .504.108.961.322 1.372.215.401.509.718.882.952.374.233.798.35 1.274.35zm6.356 1.092v-1.68h1.358v1.68h-1.358zm11.301.168a5.254 5.254 0 01-2.044-.392 4.865 4.865 0 01-1.624-1.134 5.382 5.382 0 01-1.078-1.708 5.909 5.909 0 01-.378-2.142c0-.784.126-1.503.378-2.156a5.174 5.174 0 011.064-1.708 4.676 4.676 0 011.624-1.12 5.085 5.085 0 012.044-.406c.719 0 1.363.126 1.932.378a4.525 4.525 0 011.456.98c.401.401.686.83.854 1.288l-1.232.602a3.112 3.112 0 00-1.134-1.442c-.513-.355-1.139-.532-1.876-.532-.728 0-1.377.172-1.946.518-.56.345-.999.826-1.316 1.442-.317.616-.476 1.334-.476 2.156 0 .812.159 1.526.476 2.142.327.616.77 1.096 1.33 1.442.569.345 1.218.518 1.946.518a3.64 3.64 0 001.722-.406 3.141 3.141 0 001.218-1.12c.299-.476.448-1.027.448-1.652v-.644l.63.588h-4.032v-1.19h4.788v.924c0 .728-.126 1.386-.378 1.974a4.54 4.54 0 01-1.036 1.512c-.439.41-.947.728-1.526.952a5.037 5.037 0 01-1.834.336zm6.473-.168v-7.546h1.274v1.386l-.14-.196c.178-.43.448-.747.812-.952.364-.215.808-.322 1.33-.322h.462v1.232h-.658c-.532 0-.961.168-1.288.504-.326.326-.49.793-.49 1.4v4.494h-1.302zm8.367.168c-.728 0-1.377-.173-1.946-.518a3.707 3.707 0 01-1.344-1.414 4.212 4.212 0 01-.49-2.03c0-.756.159-1.428.476-2.016a3.687 3.687 0 011.316-1.386 3.496 3.496 0 011.876-.518c.56 0 1.055.102 1.484.308.439.196.807.466 1.106.812.308.336.541.723.7 1.162.168.429.252.877.252 1.344 0 .102-.009.219-.028.35a3.766 3.766 0 01-.042.35h-6.188v-1.12h5.432l-.616.504c.084-.486.037-.92-.14-1.302a2.112 2.112 0 00-1.96-1.246c-.439 0-.84.112-1.204.336a2.271 2.271 0 00-.854.966c-.196.41-.275.9-.238 1.47-.037.55.047 1.036.252 1.456.215.41.513.732.896.966.392.224.817.336 1.274.336.504 0 .929-.117 1.274-.35a2.77 2.77 0 00.84-.896l1.092.56a2.8 2.8 0 01-.7.952c-.308.28-.677.504-1.106.672-.42.168-.891.252-1.414.252zm7.244 0c-.495 0-.934-.089-1.316-.266a2.255 2.255 0 01-.882-.756 1.991 1.991 0 01-.322-1.12c0-.402.084-.761.252-1.078.177-.327.448-.602.812-.826.373-.224.84-.383 1.4-.476l2.8-.462v1.092l-2.506.42c-.486.084-.84.238-1.064.462a1.146 1.146 0 00-.322.826c0 .308.121.564.364.77.252.205.564.308.938.308.476 0 .886-.098 1.232-.294.354-.206.63-.481.826-.826.205-.346.308-.728.308-1.148v-1.918c0-.411-.154-.742-.462-.994-.299-.262-.696-.392-1.19-.392-.43 0-.812.112-1.148.336-.327.214-.57.504-.728.868l-1.134-.588c.14-.346.364-.654.672-.924.308-.28.667-.5 1.078-.658.41-.159.84-.238 1.288-.238.578 0 1.087.112 1.526.336.438.214.779.518 1.022.91.252.382.378.83.378 1.344v5.124h-1.274v-1.428l.238.084a2.61 2.61 0 01-.644.784 3.155 3.155 0 01-.952.532c-.364.13-.761.196-1.19.196zm8.77-.084c-.738 0-1.307-.21-1.708-.63-.392-.42-.588-1.013-.588-1.778v-3.976h-1.372v-1.246h.28c.336 0 .602-.103.798-.308.196-.206.294-.476.294-.812v-.616h1.302v1.736h1.694v1.246h-1.694v3.934c0 .252.037.471.112.658a.99.99 0 00.406.448c.186.102.434.154.742.154.065 0 .144-.005.238-.014l.28-.028v1.148a2.6 2.6 0 01-.406.056c-.15.018-.276.028-.378.028zm3.059-3.136l-.084-7.378h1.372l-.098 7.378h-1.19zm-.084 3.052v-1.68h1.372v1.68h-1.372z" fill="#747474"/></g><defs><filter id="filter0_d_680_338" x=".355" y=".3" width="353.992" height="167.524" filterUnits="userSpaceOnUse" color-interpolation-filters="sRGB"><feFlood flood-opacity="0" result="BackgroundImageFix"/><feColorMatrix in="SourceAlpha" values="0 0 0 0 0 0 0 0 0 0 0 0 0 0 0 0 0 0 127 0" result="hardAlpha"/><feOffset dx="4" dy="4"/><feGaussianBlur stdDeviation="2.85"/><feComposite in2="hardAlpha" operator="out"/><feColorMatrix values="0 0 0 0 0.686068 0 0 0 0 0.686068 0 0 0 0 0.686068 0 0 0 0.25 0"/><feBlend in2="BackgroundImageFix" result="effect1_dropShadow_680_338"/><feBlend in="SourceGraphic" in2="effect1_dropShadow_680_338" result="shape"/></filter><filter id="filter1_d_680_338" x=".186" y="176.3" width="354.4" height="61.4" filterUnits="userSpaceOnUse" color-interpolation-filters="sRGB"><feFlood flood-opacity="0" result="BackgroundImageFix"/><feColorMatrix in="SourceAlpha" values="0 0 0 0 0 0 0 0 0 0 0 0 0 0 0 0 0 0 127 0" result="hardAlpha"/><feOffset dx="4" dy="4"/><feGaussianBlur stdDeviation="2.85"/><feComposite in2="hardAlpha" operator="out"/><feColorMatrix values="0 0 0 0 0.686068 0 0 0 0 0.686068 0 0 0 0 0.686068 0 0 0 0.25 0"/><feBlend in2="BackgroundImageFix" result="effect1_dropShadow_680_338"/><feBlend in="SourceGraphic" in2="effect1_dropShadow_680_338" result="shape"/></filter><filter id="filter2_d_680_338" x="362.947" y=".3" width="222.867" height="237.4" filterUnits="userSpaceOnUse" color-interpolation-filters="sRGB"><feFlood flood-opacity="0" result="BackgroundImageFix"/><feColorMatrix in="SourceAlpha" values="0 0 0 0 0 0 0 0 0 0 0 0 0 0 0 0 0 0 127 0" result="hardAlpha"/><feOffset dx="4" dy="4"/><feGaussianBlur stdDeviation="2.85"/><feComposite in2="hardAlpha" operator="out"/><feColorMatrix values="0 0 0 0 0.686068 0 0 0 0 0.686068 0 0 0 0 0.686068 0 0 0 0.25 0"/><feBlend in2="BackgroundImageFix" result="effect1_dropShadow_680_338"/><feBlend in="SourceGraphic" in2="effect1_dropShadow_680_338" result="shape"/></filter></defs></svg>