<svg width="131" height="164" fill="none" xmlns="http://www.w3.org/2000/svg"><rect x=".621" y=".901" width="129.621" height="163" rx="18" fill="#fff"/><path d="M43.144 110.401c-3.312-.396-5.932-1.483-7.86-3.263-1.878-1.779-2.817-4.399-2.817-7.86V81.631c0-7.81 3.954-11.716 11.864-11.716 7.81 0 11.715 3.781 11.715 11.345v10.084h7.341V86.6c0-5.438 1.384-9.566 4.153-12.383 2.768-2.868 6.895-4.301 12.383-4.301 10.974 0 16.461 5.339 16.461 16.016v24.47h-6.377V85.857c0-6.871-3.361-10.307-10.084-10.307-6.723 0-10.085 3.51-10.085 10.53v5.264c3.362.05 6.056 1.014 8.083 2.892 2.076 1.879 3.114 4.35 3.114 7.415 0 1.928-.37 3.559-1.112 4.894a6.711 6.711 0 01-2.966 2.892c-1.286.643-2.818.964-4.598.964-2.867 0-5.091-.692-6.673-2.076-1.533-1.434-2.299-3.584-2.299-6.451v-4.968h-7.34V110.4h-6.378V81.186c0-3.757-1.78-5.636-5.338-5.636-3.61 0-5.413 1.953-5.413 5.858v17.574c0 3.658 1.853 5.783 5.56 6.377l-1.334 5.042zm29.512-5.265c1.087 0 1.804-.296 2.15-.89.396-.642.594-1.483.594-2.521 0-1.582-.52-2.768-1.558-3.559-.988-.84-2.323-1.26-4.004-1.26v4.893c0 2.225.94 3.337 2.818 3.337z" fill="#F9B700"/></svg>