<svg width="131" height="164" fill="none" xmlns="http://www.w3.org/2000/svg"><rect x=".864" y=".901" width="129.621" height="163" rx="18" fill="#fff"/><path d="M43.387 110.401c-3.313-.396-5.932-1.483-7.86-3.263-1.879-1.779-2.818-4.399-2.818-7.86V81.631c0-7.81 3.955-11.716 11.864-11.716 7.81 0 11.716 3.781 11.716 11.345v10.084h7.34V86.6c0-5.438 1.385-9.566 4.153-12.383 2.768-2.868 6.896-4.301 12.383-4.301 10.974 0 16.461 5.339 16.461 16.016v24.47H90.25V85.857c0-6.871-3.361-10.307-10.084-10.307-6.723 0-10.084 3.51-10.084 10.53v5.264c3.361.05 6.055 1.014 8.082 2.892 2.076 1.879 3.114 4.35 3.114 7.415 0 1.928-.37 3.559-1.112 4.894-.692 1.285-1.68 2.249-2.966 2.892-1.285.643-2.818.964-4.597.964-2.867 0-5.092-.692-6.674-2.076-1.532-1.434-2.298-3.584-2.298-6.451v-4.968H56.29V110.4h-6.377V81.186c0-3.757-1.78-5.636-5.339-5.636-3.609 0-5.413 1.953-5.413 5.858v17.574c0 3.658 1.854 5.783 5.561 6.377l-1.334 5.042zm29.511-5.265c1.088 0 1.805-.296 2.15-.89.396-.642.594-1.483.594-2.521 0-1.582-.52-2.768-1.557-3.559-.989-.84-2.324-1.26-4.004-1.26v4.893c0 2.225.939 3.337 2.817 3.337z" fill="#F9B700"/></svg>