<svg width="130" height="164" fill="none" xmlns="http://www.w3.org/2000/svg"><rect y=".901" width="129.621" height="163" rx="18" fill="#fff"/><path d="M40.839 108.901c-2.85-.34-5.105-1.276-6.765-2.808-1.616-1.531-2.425-3.786-2.425-6.764V84.14c0-6.722 3.404-10.082 10.21-10.082 6.722 0 10.083 3.254 10.083 9.763v16.719c0 2.68 1.255 4.021 3.765 4.021h5.233c2.51 0 3.765-1.341 3.765-4.021v-16.4c0-3.276.766-5.764 2.297-7.466 1.574-1.744 4.042-2.616 7.403-2.616 1.744 0 3.318.361 4.722 1.085 1.404.68 2.51 1.659 3.318 2.935 1.617-2.68 4.127-4.02 7.53-4.02 6.552 0 9.827 3.254 9.827 9.763V108.9H94.25V83.758c0-3.233-1.531-4.85-4.594-4.85-3.106 0-4.658 1.68-4.658 5.042v24.95h-5.552V83.758c0-1.489-.404-2.659-1.213-3.51-.808-.893-1.935-1.34-3.382-1.34-3.063 0-4.594 1.68-4.594 5.042v16.464c0 5.658-3 8.487-8.998 8.487h-5.87c-5.957 0-8.935-2.829-8.935-8.487V83.758c0-3.233-1.531-4.85-4.594-4.85-3.106 0-4.659 1.68-4.659 5.042v15.124c0 3.148 1.596 4.977 4.786 5.488l-1.148 4.339z" fill="#F9B700"/></svg>