<svg width="201" height="41" fill="none" xmlns="http://www.w3.org/2000/svg"><path d="M20.588 10.322l2 3.465c.306.552 1.247 1.155 1.866 1.232l3.598.232c2.363.318 2.723 2.205 1.134 3.964l-2.464 3.732c-.451.499-.556.704-.366 1.366l1.134 3.964c.782 2.802-.93 3.398-3.464 2l-3.232-1.598c-.644-.357-1.633-.254-2.232.134l-3.464 2c-2.383 1.544-4.23.376-3.732-2.464l.232-3.598c.12-.672.369-1.765-.134-2.232l-2.866-2.964c-1.76-1.649-1.587-2.263.732-2.733l3.964-1.134c.611-.128.989-1.29 1.232-1.866l2.464-3.732c.994-2.242 2.395-1.947 3.598.232zm40.001-1l2 3.465c.305.552 1.246 1.155 1.866 1.232l3.598.232c2.362.318 2.722 2.205 1.134 3.964l-2.465 3.732c-.451.499-.556.704-.365 1.366l1.133 3.964c.782 2.802-.93 3.398-3.464 2l-3.232-1.598c-.644-.357-1.633-.254-2.232.134l-3.464 2c-2.383 1.544-4.23.376-3.732-2.464l.232-3.598c.12-.672.369-1.765-.134-2.232l-2.866-2.964c-1.76-1.649-1.587-2.263.732-2.733l3.964-1.134c.611-.128.989-1.29 1.232-1.866L56.99 9.09c.994-2.242 2.395-1.947 3.599.232zm40 0l2 3.465c.305.552 1.246 1.155 1.866 1.232l3.598.232c2.362.318 2.722 2.205 1.134 3.964l-2.464 3.732c-.452.499-.557.704-.366 1.366l1.133 3.964c.782 2.802-.93 3.398-3.464 2l-3.232-1.598c-.644-.357-1.633-.254-2.232.134l-3.464 2c-2.383 1.544-4.23.376-3.732-2.464l.232-3.598c.12-.672.369-1.765-.134-2.232l-2.866-2.964c-1.76-1.649-1.587-2.263.732-2.733l3.964-1.134c.611-.128.989-1.29 1.232-1.866l2.465-3.732c.993-2.242 2.394-1.947 3.598.232zm39 0l2 3.465c.305.552 1.246 1.155 1.866 1.232l3.598.232c2.362.318 2.722 2.205 1.134 3.964l-2.464 3.732c-.452.499-.557.704-.366 1.366l1.133 3.964c.782 2.802-.93 3.398-3.464 2l-3.232-1.598c-.644-.357-1.633-.254-2.232.134l-3.464 2c-2.383 1.544-4.23.376-3.732-2.464l.232-3.598c.119-.672.369-1.765-.134-2.232l-2.866-2.964c-1.76-1.649-1.587-2.263.732-2.733l3.964-1.134c.611-.128.989-1.29 1.232-1.866l2.464-3.732c.994-2.242 2.395-1.947 3.599.232zm40 0l2 3.465c.305.552 1.246 1.155 1.866 1.232l3.598.232c2.362.318 2.722 2.205 1.134 3.964l-2.464 3.732c-.452.499-.557.704-.366 1.366l1.133 3.964c.782 2.802-.93 3.398-3.464 2l-3.232-1.598c-.644-.357-1.633-.254-2.232.134l-3.464 2c-2.383 1.544-4.23.376-3.732-2.464l.232-3.598c.119-.672.369-1.765-.134-2.232l-2.866-2.964c-1.76-1.649-1.587-2.263.732-2.733l3.964-1.134c.611-.128.989-1.29 1.232-1.866l2.464-3.732c.994-2.242 2.395-1.947 3.599.232z" fill="#FECA38"/></svg>