<svg width="362" height="356" viewBox="0 0 362 356" fill="none" xmlns="http://www.w3.org/2000/svg">
<path d="M51.3777 64.0799L54.7244 66.7014C55.1833 67.0614 56.024 67.2317 56.5852 67.0649L59.9431 66.1134C62.0911 65.4997 63.232 66.725 62.4865 68.8315L61.2103 72.4059C60.9979 73.0042 61.1414 73.913 61.5394 74.4097L63.6523 77.0841C65.3181 79.1967 64.4978 80.7131 61.8203 80.4642L58.0799 80.1161C57.3982 80.0516 56.5358 80.4689 56.1576 81.0264L54.0549 84.1322C52.5488 86.3534 50.8539 86.0307 50.2773 83.4049L49.5544 80.079C49.4192 79.4574 48.8175 78.765 48.2192 78.5527L44.6291 77.2786C42.5293 76.5242 42.3047 74.8661 44.1359 73.5922L46.9962 71.6054C47.4771 71.2656 47.8849 70.5197 47.8909 69.9343L47.9823 65.6774C48.0442 63.3785 49.5689 62.6601 51.3777 64.0799Z" fill="#F9B700"/>
<path d="M89.8063 19.8267L94.3954 23.4214C95.0246 23.915 96.1774 24.1486 96.9469 23.9199L101.551 22.615C104.497 21.7735 106.061 23.4537 105.039 26.3422L103.289 31.2435C102.998 32.064 103.195 33.3101 103.74 33.9912L106.638 37.6585C108.922 40.5554 107.797 42.6348 104.126 42.2934L98.9965 41.8161C98.0618 41.7276 96.8793 42.2998 96.3607 43.0644L93.4773 47.3231C91.4121 50.3689 89.088 49.9264 88.2973 46.3259L87.3061 41.7653C87.1206 40.9128 86.2957 39.9635 85.4752 39.6723L80.5524 37.9253C77.6731 36.8908 77.365 34.6171 79.8761 32.8703L83.7982 30.1458C84.4576 29.68 85.0169 28.6572 85.025 27.8545L85.1504 22.0172C85.2352 18.8649 87.326 17.8797 89.8063 19.8267Z" fill="#F9B700"/>
<path d="M141.836 10.4394L145.67 13.4427C146.196 13.8552 147.159 14.0503 147.802 13.8592L151.649 12.769C154.11 12.0659 155.417 13.4697 154.563 15.8831L153.101 19.9782C152.858 20.6637 153.022 21.7049 153.478 22.2739L155.899 25.338C157.807 27.7583 156.868 29.4956 153.8 29.2104L149.515 28.8116C148.734 28.7377 147.746 29.2158 147.313 29.8546L144.903 33.4127C143.178 35.9576 141.236 35.5878 140.576 32.5796L139.747 28.7692C139.592 28.0569 138.903 27.2637 138.218 27.0205L134.105 25.5608C131.699 24.6965 131.442 22.7968 133.54 21.3373L136.817 19.0611C137.367 18.6718 137.835 17.8173 137.842 17.1466L137.946 12.2695C138.017 9.63573 139.764 8.81266 141.836 10.4394Z" fill="#F9B700"/>
<path d="M35.11 142.989C27.6896 162.252 49.7298 162.557 59.2429 166.17C61.4082 166.992 62.9548 168.787 64.3048 170.669L72.215 181.697L98.6133 166.635L91.1288 155.37C88.1602 148.995 43.3392 121.625 35.11 142.989Z" fill="#FCDA40"/>
<path d="M322.585 185.184C312.524 167.159 298.192 183.905 289.33 188.907C287.313 190.045 284.944 190.086 282.634 189.92L269.097 188.946L263.789 218.872L277.235 220.324C284.035 222.121 333.743 205.175 322.585 185.184Z" fill="#FCDA40"/>
<path d="M283.804 129.59C286.536 114.221 280.025 104.932 264.271 101.723L129.019 74.1759C113.341 70.9827 103.754 76.993 100.257 92.2066L74.1187 220.541C71.371 235.987 77.8362 245.307 93.5142 248.5L228.766 276.047C244.52 279.255 254.154 273.215 257.666 257.925L283.804 129.59Z" fill="#FCDA40"/>
<path d="M137.571 119.031C132.14 122.623 128.786 127.554 127.509 133.823C126.217 140.169 127.375 146.019 130.984 151.373C134.501 156.787 139.434 160.141 145.781 161.434C152.129 162.726 157.98 161.569 163.334 157.962C168.75 154.446 172.104 149.515 173.396 143.169C174.673 136.9 173.515 131.05 169.922 125.62C166.405 120.205 161.472 116.852 155.125 115.559C148.777 114.266 142.926 115.423 137.571 119.031Z" fill="white"/>
<path d="M155.285 150.315C157.613 148.641 159.077 146.329 159.677 143.382C160.266 140.493 159.816 137.823 158.328 135.371C156.852 132.86 154.752 131.327 152.026 130.772C149.355 130.228 146.849 130.823 144.508 132.556C142.126 134.22 140.64 136.496 140.052 139.385C139.451 142.332 139.922 145.038 141.465 147.501C142.953 149.952 145.032 151.45 147.703 151.995C150.429 152.55 152.956 151.99 155.285 150.315Z" fill="#3D465D"/>
<path d="M206.402 133.05C200.971 136.642 197.617 141.573 196.34 147.842C195.047 154.188 196.206 160.038 199.815 165.391C203.332 170.806 208.264 174.16 214.612 175.452C220.959 176.745 226.81 175.588 232.165 171.98C237.58 168.465 240.934 163.534 242.227 157.188C243.504 150.918 242.345 145.069 238.752 139.639C235.235 134.224 230.303 130.871 223.955 129.578C217.607 128.285 211.756 129.442 206.402 133.05Z" fill="white"/>
<path d="M224.833 162.306C227.145 160.617 228.603 158.292 229.206 155.331C229.797 152.428 229.359 149.748 227.892 147.29C226.436 144.772 224.359 143.239 221.66 142.689C219.015 142.15 216.53 142.755 214.206 144.502C211.84 146.18 210.362 148.47 209.771 151.372C209.167 154.334 209.626 157.049 211.148 159.518C212.615 161.976 214.671 163.475 217.317 164.014C220.016 164.563 222.522 163.994 224.833 162.306Z" fill="#3D465D"/>
<path d="M264.271 101.723C280.025 104.931 286.536 114.221 283.804 129.59L285.439 121.562C288.709 105.506 282.276 95.8344 266.139 92.5477L130.888 65.0008C114.827 61.7298 105.162 68.1223 101.892 84.1785L100.257 92.2065C103.754 76.9928 113.341 70.9826 129.019 74.1758L264.271 101.723Z" fill="#FFE677"/>
<ellipse cx="122.068" cy="172.528" rx="14.1262" ry="12.2892" transform="rotate(8.70226 122.068 172.528)" fill="#FFE677"/>
<ellipse cx="225.969" cy="194.41" rx="14.1262" ry="12.2892" transform="rotate(8.70226 225.969 194.41)" fill="#FFE677"/>
<path opacity="0.9" d="M244.348 97.7867C235.047 109.026 222.351 110.837 217.166 110.337L225.646 93.9776L244.348 97.7867Z" fill="#D0B126"/>
<path d="M168.604 314.558L171.272 277.004L148.005 274.083L140.772 309.598L96.6893 300.619C79.6754 292.086 95.3634 286.522 105.334 284.806L109.131 266.166C77.3522 257.078 71.8882 235.204 73.4681 223.735C131.08 268.36 219.838 267.251 257.016 261.118C244.661 282.508 222.629 283.571 213.158 281.429C213.158 281.429 207.047 304.543 216.465 309.972C227.97 320.509 221.285 323.924 216.504 324.314L168.604 314.558Z" fill="#EDC200"/>
<path d="M198.415 91.3863C236.353 50.2039 246.065 95.3687 216.239 113.712C180.205 122.369 170.012 97.6324 169.419 84.1822C187.141 46.246 202.427 71.6899 198.415 91.3863Z" fill="#FCDA40"/>
<path d="M303.64 188.28L315.906 192.06L324.921 153.063L312.655 149.283L303.64 188.28Z" fill="#F9B700"/>
<path d="M321.673 152.07L313.811 186.478L317.115 187.496L324.977 153.089L321.673 152.07Z" fill="#F9B700"/>
<path d="M312.655 149.282L315.77 150.242L306.339 187.411L304.275 185.499L312.655 149.282Z" fill="#F9B700"/>
<path d="M304.112 198.524L311.316 200.744C312.679 201.164 314.119 200.333 314.437 198.942L316.298 190.799L304.032 187.019L302.097 195.033C301.854 196.552 302.63 198.173 304.112 198.524Z" fill="#E19178"/>
<path d="M304.044 195.633C303.726 197.023 304.697 198.704 306.06 199.124L311.316 200.744L304.113 198.524C302.75 198.104 301.779 196.423 302.217 194.963L304.032 187.019L305.859 187.688L304.044 195.633Z" fill="#CB836D"/>
<path d="M304.95 182.448L317.462 186.162L316.1 192.12L303.64 188.28L304.95 182.448Z" fill="#ECEEEE"/>
<path d="M312.655 149.283L321.125 140.944L324.92 153.063L312.655 149.283Z" fill="#F9D798"/>
<path d="M322.043 143.863C321.035 144.445 319.746 144.099 319.164 143.091L319.097 142.977L319.99 142.021C320.531 141.442 321.498 141.692 321.691 142.461L322.043 143.863V143.863Z" fill="#420964"/>
<ellipse cx="157.404" cy="346.679" rx="93.7705" ry="8.82372" fill="#E0E6EA"/>
<ellipse cx="173.113" cy="192.093" rx="14.1832" ry="19.3979" transform="rotate(15 173.113 192.093)" fill="#3D465D"/>
<path d="M83.7474 111.682L74.4244 115.016L70.4729 118.968C62.2488 127.192 78.2633 147.069 87.2985 155.98L134.961 172.989L139.82 161.774C128.008 148.765 102.002 144.391 90.476 143.831C92.8685 126.784 86.9871 115.296 83.7474 111.682Z" fill="white"/>
<path d="M88.8266 148.444L141.52 170.772L107.582 232.098L52.7344 207.453L49.7312 204.465C47.9307 202.673 46.488 200.555 45.4803 198.223L33.9189 171.472L70.7217 108.42C71.1807 107.634 72.3697 107.815 72.5757 108.701C75.8906 122.974 82.9599 147.537 88.8266 148.444Z" fill="#FF4362"/>
<path d="M85.0646 155.311L138.109 176.16L107.819 231.643L52.6497 207.411L85.0646 155.311Z" fill="#D80041"/>
</svg>
