<svg width="416" height="308" viewBox="0 0 416 308" fill="none" xmlns="http://www.w3.org/2000/svg">
<path d="M130.99 63.9916C97.3763 60.2766 77.3079 61.3878 70.7847 67.3254C64.2615 73.263 59.3243 94.9123 55.9731 132.273C53.2038 164.261 53.5208 185.215 56.9243 195.135C57.2555 195.338 57.609 195.571 57.9848 195.835C66.5328 201.274 84.5538 205.457 112.048 208.385C145.607 212.15 165.675 211.038 172.253 205.051C178.776 199.114 183.713 177.464 187.065 140.103C189.904 109.566 189.794 89.0789 186.737 78.6423C186.623 78.2413 186.482 77.865 186.314 77.5135C178.344 71.7498 159.903 67.2425 130.99 63.9916Z" fill="url(#paint0_linear_413_739)"/>
<path d="M71.511 146.963C70.7293 153.418 72.0848 159.19 75.5774 164.279C79.1127 169.429 83.763 172.407 89.5282 173.212C95.2802 174.127 100.474 172.619 105.109 168.688C109.744 164.758 112.424 159.589 113.15 153.181C113.974 146.787 112.619 141.016 109.084 135.865C105.591 130.777 100.941 127.799 95.1329 126.932C89.3809 126.017 84.1874 127.525 79.5524 131.456C74.9174 135.386 72.2369 140.555 71.511 146.963Z" fill="white"/>
<path d="M106.094 158.265C106.509 154.839 105.764 151.738 103.858 148.962C101.991 146.241 99.5158 144.651 96.4333 144.191C93.3126 143.675 90.5032 144.476 88.005 146.595C85.5568 148.671 84.1442 151.45 83.7674 154.931C83.3025 158.4 84.0038 161.494 85.8711 164.215C87.7766 166.991 90.2956 168.588 93.4281 169.006C96.5106 169.466 99.276 168.658 101.724 166.582C104.222 164.464 105.679 161.691 106.094 158.265Z" fill="#3D465D"/>
<path d="M121.77 104.343C120.989 110.798 122.344 116.57 125.837 121.659C129.372 126.809 134.022 129.787 139.788 130.592C145.54 131.507 150.733 129.999 155.368 126.068C160.003 122.138 162.684 116.968 163.409 110.561C164.234 104.167 162.878 98.3955 159.343 93.2449C155.85 88.1565 151.2 85.1786 145.392 84.3114C139.64 83.3968 134.447 84.9048 129.812 88.8354C125.177 92.766 122.496 97.9352 121.77 104.343Z" fill="white"/>
<path d="M158.143 114.242C158.615 110.342 157.767 106.812 155.598 103.652C153.472 100.555 150.655 98.7449 147.146 98.221C143.594 97.6339 140.396 98.546 137.553 100.957C134.766 103.321 133.158 106.484 132.729 110.447C132.2 114.395 132.998 117.918 135.124 121.014C137.293 124.174 140.16 125.992 143.726 126.468C147.235 126.992 150.382 126.072 153.169 123.709C156.013 121.297 157.671 118.142 158.143 114.242Z" fill="#3D465D"/>
<path d="M152.218 147.736L152.154 147.643C152.441 146.516 152.7 145.413 152.931 144.334C153.132 143.083 152.92 141.938 152.294 140.897C151.626 139.795 150.729 139.132 149.604 138.908C148.436 138.622 147.384 138.827 146.448 139.523C145.456 140.266 144.859 141.263 144.658 142.514C144.509 143.327 144.332 144.164 144.128 145.025L144.044 145.096C142.897 149.603 140.425 153.466 136.628 156.687C132.718 160.001 128.629 161.702 124.359 161.789C123.811 161.763 123.291 161.713 122.799 161.639C121.631 161.353 120.579 161.558 119.643 162.254C118.651 162.997 118.054 163.994 117.853 165.245C117.595 166.543 117.801 167.743 118.469 168.846C119.094 169.886 119.991 170.549 121.159 170.835C122.088 171.029 123.128 171.129 124.28 171.134C124.336 171.086 124.385 171.094 124.428 171.156C130.496 171.115 136.266 168.774 141.739 164.133C147.1 159.587 150.593 154.121 152.218 147.736Z" fill="#3D465D"/>
<path d="M125.65 56.743C92.0359 53.028 71.9675 54.1393 65.4443 60.0769C58.9211 66.0144 53.9839 87.6638 50.6327 125.025C47.3705 162.507 48.3651 184.812 53.6166 191.94C54.4176 193.027 55.5202 194.092 56.9243 195.135C53.5208 185.215 53.2038 164.261 55.9731 132.274C59.3243 94.9125 64.2615 73.2631 70.7847 67.3256C77.3079 61.388 97.3764 60.2767 130.99 63.9917C159.903 67.2427 178.344 71.75 186.314 77.5137C185.626 75.7176 184.882 74.2759 184.081 73.1886C178.829 66.0607 159.352 60.5788 125.65 56.743Z" fill="#25D28A"/>
<path d="M370.936 79.5004C361.598 73.8912 348.517 68.581 331.691 63.5697C314.797 58.5382 301.079 55.8667 290.537 55.5553C279.194 55.2477 269.747 57.4845 262.195 62.2655C254.693 67.142 248.227 75.1148 242.795 86.1836C238.293 95.509 234.004 108.171 229.929 124.169C229.748 124.923 229.566 125.677 229.384 126.431C225.716 142.55 223.735 155.899 223.439 166.477C223.145 179.157 225.159 189.656 229.481 197.973C233.852 206.386 241.027 213.573 251.007 219.535C260.277 225.124 273.358 230.434 290.252 235.466C307.078 240.477 320.796 243.148 331.406 243.48C342.798 243.883 352.245 241.647 359.747 236.77C367.299 231.989 373.766 224.016 379.148 212.852C383.614 203.677 387.891 191.214 391.979 175.462C392.033 175.236 392.079 175.048 392.115 174.897L392.797 172.07C396.342 156.156 398.244 142.986 398.504 132.558C398.847 119.974 396.833 109.475 392.462 101.063C388.14 92.7454 380.965 85.558 370.936 79.5004Z" fill="url(#paint1_linear_413_739)"/>
<path d="M272.067 110.405C266.992 113.661 263.709 118.38 262.219 124.562C260.71 130.82 261.431 136.731 264.379 142.296C267.242 147.916 271.489 151.565 277.121 153.242C282.752 154.919 288.071 154.12 293.079 150.843C298.136 147.663 301.419 142.944 302.927 136.686C304.417 130.504 303.697 124.593 300.767 118.952C297.904 113.332 293.657 109.683 288.025 108.006C282.394 106.329 277.075 107.128 272.067 110.405Z" fill="white"/>
<path d="M288.906 142.813C291.917 140.882 293.877 138.031 294.785 134.261C295.676 130.567 295.252 127.047 293.513 123.701C291.793 120.28 289.237 118.064 285.844 117.053C282.52 116.063 279.343 116.572 276.314 118.579C273.236 120.49 271.251 123.293 270.36 126.987C269.452 130.757 269.901 134.325 271.707 137.691C273.445 141.037 275.977 143.205 279.301 144.195C282.694 145.205 285.895 144.745 288.906 142.813Z" fill="#3D465D"/>
<path d="M333.129 128.591C328.054 131.847 324.771 136.566 323.281 142.748C321.773 149.006 322.493 154.917 325.442 160.482C328.304 166.102 332.551 169.751 338.183 171.428C343.814 173.105 349.133 172.306 354.141 169.029C359.198 165.849 362.481 161.13 363.989 154.872C365.48 148.69 364.759 142.779 361.829 137.138C358.966 131.518 354.719 127.869 349.088 126.192C343.456 124.515 338.137 125.315 333.129 128.591Z" fill="white"/>
<path d="M340.491 164.242C342.601 162.888 343.974 160.891 344.611 158.249C345.235 155.66 344.938 153.194 343.72 150.849C342.514 148.452 340.723 146.899 338.346 146.191C336.016 145.497 333.79 145.853 331.668 147.26C329.51 148.599 328.12 150.563 327.496 153.152C326.859 155.793 327.173 158.293 328.439 160.652C329.657 162.997 331.431 164.516 333.761 165.21C336.138 165.918 338.381 165.595 340.491 164.242Z" fill="#3D465D"/>
<path d="M320.825 181.895L320.852 181.781C321.83 181.345 322.774 180.899 323.684 180.443C324.698 179.856 325.384 178.97 325.743 177.784C326.12 176.522 326.044 175.328 325.516 174.201C325.006 172.998 324.217 172.198 323.15 171.799C322.014 171.38 320.94 171.464 319.926 172.051C319.256 172.417 318.552 172.773 317.814 173.119L317.712 173.089C313.801 174.833 309.539 175.018 304.925 173.644C300.176 172.23 296.466 169.67 293.796 165.966C293.48 165.468 293.198 164.98 292.949 164.502C292.439 163.299 291.651 162.499 290.583 162.1C289.448 161.681 288.373 161.765 287.359 162.352C286.277 162.918 285.548 163.833 285.171 165.094C284.812 166.28 284.888 167.474 285.398 168.677C285.827 169.613 286.392 170.589 287.092 171.605C287.16 171.626 287.185 171.673 287.166 171.749C290.903 177.063 296.095 180.711 302.744 182.691C309.258 184.631 315.285 184.365 320.825 181.895Z" fill="#3D465D"/>
<path d="M331.69 63.57C348.517 68.5813 361.598 73.8915 370.936 79.5007C380.965 85.5583 388.14 92.7457 392.462 101.063C396.833 109.476 398.847 119.974 398.504 132.559C398.244 142.986 396.342 156.157 392.797 172.07C393.015 171.165 393.242 170.223 393.478 169.243C397.985 150.545 400.388 135.301 400.685 123.511C401.028 110.927 399.014 100.429 394.643 92.0157C390.321 83.6986 383.146 76.5112 373.117 70.4535C363.779 64.8444 350.697 59.5342 333.871 54.5229C316.978 49.4914 303.26 46.8199 292.718 46.5084C281.375 46.2009 271.928 48.4376 264.376 53.2186C256.874 58.0952 250.408 66.0679 244.976 77.1367C239.93 87.5123 235.153 102.049 230.645 120.746C230.373 121.877 230.134 123.018 229.929 124.169C234.004 108.171 238.293 95.5094 242.795 86.1839C248.227 75.1151 254.693 67.1424 262.195 62.2658C269.747 57.4848 279.194 55.2481 290.537 55.5556C301.079 55.867 314.797 58.5385 331.69 63.57Z" fill="#FFAA9D"/>
<path d="M270.68 106.619C260.355 103.888 246.482 102.522 229.062 102.522C211.573 102.522 197.7 103.888 187.445 106.619C176.417 109.585 167.813 114.464 161.632 121.254C155.521 128.123 151.131 137.684 148.462 149.939C146.284 160.242 145.09 173.706 144.879 190.331C144.879 191.111 144.879 191.892 144.879 192.672C145.09 209.298 146.284 222.762 148.462 233.065C151.131 245.397 155.521 254.958 161.632 261.749C167.813 268.618 176.417 273.496 187.445 276.384C197.7 279.116 211.573 280.482 229.062 280.482C246.482 280.482 260.355 279.116 270.68 276.384C281.778 273.496 290.382 268.618 296.493 261.749C302.674 254.958 307.064 245.397 309.663 233.065C311.841 222.918 313.07 209.649 313.351 193.258C313.351 193.024 313.351 192.829 313.351 192.672V189.745C313.07 173.354 311.841 160.085 309.663 149.939C307.064 137.684 302.674 128.123 296.493 121.254C290.382 114.464 281.778 109.585 270.68 106.619Z" fill="#6F7DEA"/>
<path d="M198.376 167.759C192.966 167.759 188.37 169.895 184.59 174.169C180.744 178.442 178.821 183.549 178.821 189.488C178.821 195.5 180.744 200.606 184.59 204.808C188.37 209.081 192.966 211.218 198.376 211.218C203.786 211.218 208.381 209.081 212.162 204.808C216.008 200.606 217.931 195.5 217.931 189.488C217.931 183.549 216.008 178.442 212.162 174.169C208.381 169.895 203.786 167.759 198.376 167.759Z" fill="white"/>
<path d="M198.376 184.609C195.528 184.609 193.088 185.771 191.054 188.096C188.962 190.356 187.916 193.068 187.916 196.232C187.916 199.461 188.962 202.205 191.054 204.465C193.088 206.725 195.528 207.855 198.376 207.855C201.281 207.855 203.751 206.725 205.785 204.465C207.819 202.205 208.836 199.461 208.836 196.232C208.836 193.068 207.819 190.356 205.785 188.096C203.751 185.771 201.281 184.609 198.376 184.609Z" fill="#3D465D"/>
<path d="M257.04 167.759C251.63 167.759 247.034 169.895 243.254 174.169C239.408 178.442 237.485 183.549 237.485 189.488C237.485 195.5 239.408 200.606 243.254 204.808C247.034 209.081 251.63 211.218 257.04 211.218C262.45 211.218 267.045 209.081 270.826 204.808C274.672 200.606 276.595 195.5 276.595 189.488C276.595 183.549 274.672 178.442 270.826 174.169C267.045 169.895 262.45 167.759 257.04 167.759Z" fill="white"/>
<path d="M256.996 184.078C254.084 184.078 251.587 185.267 249.507 187.644C247.367 189.956 246.297 192.73 246.297 195.966C246.297 199.269 247.367 202.076 249.507 204.387C251.587 206.699 254.084 207.855 256.996 207.855C259.968 207.855 262.494 206.699 264.574 204.387C266.655 202.076 267.695 199.269 267.695 195.966C267.695 192.73 266.655 189.956 264.574 187.644C262.494 185.267 259.968 184.078 256.996 184.078Z" fill="#3D465D"/>
<path d="M175.804 169.706C176.415 170.614 177.288 171.102 178.425 171.17L217.368 174.875C218.441 174.955 219.412 174.614 220.282 173.851C221.088 173.102 221.522 172.095 221.582 170.832L222.273 162.194C222.333 160.931 222.032 159.887 221.369 159.063C220.619 158.109 219.708 157.592 218.635 157.512L179.692 153.807C178.555 153.739 177.621 154.11 176.891 154.918C176.009 155.609 175.538 156.586 175.477 157.849L174.787 166.487C174.726 167.75 175.065 168.823 175.804 169.706Z" fill="#3D465D"/>
<path d="M236.116 160.588C235.074 160.95 234.291 161.674 233.77 162.761C233.183 163.702 233.02 164.789 233.281 166.02L235.334 174.386C235.595 175.617 236.214 176.523 237.192 177.102C238.105 177.682 239.082 177.79 240.125 177.428L277.866 166.238C278.974 165.948 279.789 165.26 280.31 164.173C280.832 163.232 280.962 162.145 280.701 160.914L278.648 152.548C278.387 151.317 277.801 150.411 276.888 149.832C275.975 149.252 274.965 149.107 273.857 149.397L236.116 160.588Z" fill="#3D465D"/>
<path d="M246.469 217.912C245.252 217.042 243.905 216.849 242.427 217.332C241.036 217.718 239.949 218.539 239.167 219.795C238.472 220.858 237.472 221.872 236.168 222.838C232.952 225.06 229.17 226.171 224.824 226.171C222.825 226.171 220.956 225.977 219.217 225.591C217.739 225.301 216.392 225.591 215.175 226.46C213.958 227.136 213.176 228.296 212.828 229.938C212.48 231.387 212.741 232.787 213.61 234.14C214.306 235.299 215.436 236.072 217.001 236.458C219.348 237.038 221.955 237.327 224.824 237.327C231.517 237.327 237.298 235.589 242.166 232.111L242.036 232.256C244.991 230.228 247.164 227.958 248.555 225.446C249.251 224.094 249.425 222.693 249.077 221.244C248.642 219.699 247.773 218.588 246.469 217.912Z" fill="#3D465D"/>
<path d="M270.68 97.2533C260.355 94.5214 246.482 93.1555 229.062 93.1555C211.573 93.1555 197.7 94.5214 187.445 97.2533C176.417 100.219 167.813 105.098 161.632 111.888C155.521 118.757 151.131 128.318 148.462 140.572C146.003 152.046 144.774 167.462 144.774 186.819C144.774 187.989 144.809 189.16 144.879 190.331C145.09 173.706 146.284 160.242 148.462 149.939C151.131 137.685 155.521 128.123 161.632 121.254C167.813 114.464 176.417 109.586 187.445 106.62C197.7 103.888 211.573 102.522 229.062 102.522C246.482 102.522 260.355 103.888 270.68 106.62C281.778 109.586 290.382 114.464 296.493 121.254C302.674 128.123 307.064 137.685 309.663 149.939C311.841 160.086 313.07 173.355 313.351 189.746C313.351 188.809 313.351 187.833 313.351 186.819C313.351 167.462 312.122 152.046 309.663 140.572C307.064 128.318 302.674 118.757 296.493 111.888C290.382 105.098 281.778 100.219 270.68 97.2533Z" fill="#92BFF0"/>
<path d="M241.998 303.55H216.128C215.024 303.55 213.979 303.09 213.189 302.32C201.337 290.773 172.576 276.451 142.658 303.55C112.427 330.933 122.064 214.315 214.041 266.861C218.667 269.504 223.924 271.124 229.251 271.124H231.661C236.637 271.124 241.533 269.705 245.971 267.455C329.297 225.196 366.591 329.966 316.27 303.55C265.497 276.897 251.246 290.394 249.791 292.984L245.569 301.352C244.889 302.7 243.508 303.55 241.998 303.55Z" fill="#FCDA40"/>
<path d="M378.653 216.548C378.797 215.827 378.903 215.113 378.97 214.404C379.751 207.865 376.642 202.853 369.642 199.368C362.676 195.835 356.546 195.029 351.253 196.951C348.095 198.057 345.117 199.965 342.319 202.674L378.653 216.548Z" fill="#6F7DEA"/>
<path d="M352.513 260.785C357.007 263.092 361.144 262.268 364.922 258.314C366.388 256.862 367.534 255.373 368.361 253.846C372.449 255.736 376.384 254.093 380.165 248.917C383.571 244.498 384.177 240.299 381.984 236.322C385.492 236.427 387.598 233.521 388.301 227.605C389.003 221.995 385.787 218.31 378.653 216.549L342.319 202.674C340.391 204.504 338.55 206.714 336.797 209.302C332.497 215.651 330.666 222.573 331.302 230.068C331.421 231.01 331.557 231.927 331.709 232.82C334.788 246.26 341.722 255.582 352.513 260.785Z" fill="#6F7DEA"/>
<path d="M79.4724 214.706C79.3282 213.985 79.2225 213.27 79.1553 212.561C78.3743 206.022 81.4835 201.011 88.483 197.526C95.4495 193.992 101.579 193.187 106.872 195.108C110.031 196.215 113.009 198.123 115.807 200.832L79.4724 214.706Z" fill="#6F7DEA"/>
<path d="M105.612 258.943C101.118 261.25 96.9818 260.426 93.2028 256.472C91.7377 255.02 90.5914 253.531 89.7639 252.004C85.6761 253.894 81.7416 252.251 77.9606 247.074C74.5548 242.655 73.9482 238.457 76.1409 234.48C72.6329 234.584 70.5274 231.679 69.8244 225.763C69.122 220.153 72.338 216.467 79.4724 214.706L115.807 200.832C117.734 202.662 119.575 204.871 121.328 207.46C125.628 213.809 127.46 220.731 126.824 228.226C126.704 229.168 126.568 230.085 126.416 230.977C123.338 244.418 116.403 253.74 105.612 258.943Z" fill="#6F7DEA"/>
<defs>
<linearGradient id="paint0_linear_413_739" x1="-374.872" y1="460.862" x2="-254.309" y2="593.317" gradientUnits="userSpaceOnUse">
<stop stop-color="#01C070"/>
<stop offset="1" stop-color="#01C070"/>
</linearGradient>
<linearGradient id="paint1_linear_413_739" x1="-32.5021" y1="-54.5944" x2="-85.5555" y2="123.539" gradientUnits="userSpaceOnUse">
<stop stop-color="#FF8B78"/>
<stop offset="1" stop-color="#FF8B78"/>
</linearGradient>
</defs>
</svg>
