<svg width="484" height="301" viewBox="0 0 484 301" fill="none" xmlns="http://www.w3.org/2000/svg">
<path d="M394.326 220.255V254.813M394.326 254.813L441.18 295.446M394.326 254.813L352.269 295.446" stroke="black" stroke-width="6"/>
<rect x="302.166" y="69.2178" width="177.346" height="147.037" rx="8" fill="white" stroke="black" stroke-width="8"/>
<g clip-path="url(#clip0_536_642)">
<path d="M342.519 119.471C341.771 119.036 341.148 118.6 340.65 118.165C340.151 117.729 339.746 117.243 339.435 116.706C339.123 116.169 338.901 115.562 338.769 114.886C338.636 114.209 338.57 113.419 338.57 112.517V104.582C338.57 103.4 338.714 102.346 339.002 101.42C339.291 100.495 339.672 99.7126 340.148 99.0744C340.623 98.4368 341.168 97.9505 341.783 97.6159C342.398 97.2818 343.04 97.1143 343.71 97.1143H346.047C347.059 97.1143 347.857 97.4449 348.441 98.1062C349.026 98.7675 349.318 99.8373 349.318 101.315V113.917C349.318 115.131 349.563 115.979 350.054 116.461C350.545 116.943 351.234 117.184 352.121 117.184H356.794C357.308 117.184 357.744 117.126 358.103 117.009C358.461 116.892 358.753 116.705 358.979 116.449C359.204 116.192 359.364 115.857 359.458 115.445C359.551 115.034 359.598 114.523 359.598 113.917V100.381C359.598 99.7436 359.652 99.2144 359.762 98.7946C359.871 98.3748 360.05 98.0402 360.299 97.7914C360.548 97.5425 360.883 97.3676 361.303 97.266C361.725 97.165 362.246 97.1143 362.869 97.1143H367.542C368.305 97.1143 368.979 97.2119 369.563 97.406C370.147 97.6006 370.634 97.9194 371.024 98.3629C371.413 98.8064 371.709 99.382 371.912 100.09C372.114 100.798 372.216 101.673 372.216 102.716V115.785C372.216 116.283 372.294 116.641 372.449 116.858C372.605 117.076 372.917 117.185 373.384 117.185C373.835 117.185 374.143 117.057 374.307 116.8C374.471 116.543 374.552 116.205 374.552 115.785V100.381C374.552 99.7436 374.606 99.2144 374.716 98.7946C374.825 98.3748 375.004 98.0402 375.253 97.7914C375.502 97.5425 375.837 97.3676 376.258 97.266C376.678 97.165 377.199 97.1143 377.823 97.1143H382.496C383.259 97.1143 383.933 97.2119 384.517 97.406C385.101 97.6006 385.588 97.9194 385.977 98.3629C386.367 98.8064 386.663 99.382 386.865 100.09C387.068 100.798 387.169 101.673 387.169 102.716V119.052H382.964V102.715C382.964 101.315 382.726 100.343 382.251 99.7978C381.776 99.2533 381.079 98.9808 380.16 98.9808H377.823C377.512 98.9808 377.262 99.0005 377.076 99.0389C376.889 99.0778 376.748 99.1478 376.655 99.2488C376.562 99.3504 376.499 99.4937 376.468 99.6804C376.436 99.8678 376.421 100.101 376.421 100.381V115.784C376.421 116.437 376.331 116.978 376.152 117.406C375.973 117.834 375.743 118.169 375.463 118.409C375.182 118.651 374.859 118.818 374.493 118.911C374.127 119.004 373.757 119.051 373.383 119.051H371.047C370.081 119.051 369.333 118.786 368.804 118.258C368.274 117.729 368.009 116.904 368.009 115.784V102.715C368.009 101.315 367.771 100.343 367.297 99.7978C366.822 99.2533 366.125 98.9808 365.206 98.9808H362.869C362.557 98.9808 362.308 99.0005 362.121 99.0389C361.934 99.0778 361.794 99.1478 361.701 99.2488C361.608 99.3504 361.545 99.4937 361.514 99.6804C361.483 99.8678 361.468 100.101 361.468 100.381V113.917C361.468 114.882 361.382 115.694 361.211 116.356C361.039 117.017 360.767 117.546 360.393 117.942C360.019 118.339 359.536 118.623 358.944 118.794C358.352 118.966 357.636 119.051 356.795 119.051H349.785C348.243 119.051 347.079 118.635 346.293 117.802C345.506 116.97 345.113 115.675 345.113 113.917V101.315C345.113 100.46 344.98 99.8565 344.715 99.5067C344.45 99.1568 344.115 98.9813 343.711 98.9813C343.275 98.9813 342.858 99.1021 342.461 99.343C342.063 99.5845 341.716 99.9423 341.421 100.416C341.125 100.891 340.887 101.478 340.708 102.178C340.529 102.879 340.44 103.68 340.44 104.582V112.516C340.44 113.201 340.494 113.808 340.603 114.337C340.712 114.866 340.884 115.34 341.117 115.76C341.351 116.18 341.659 116.562 342.041 116.904C342.422 117.247 342.894 117.581 343.454 117.907L342.519 119.471Z" fill="black"/>
<path d="M399.042 119.471C398.294 119.036 397.694 118.573 397.242 118.083C396.79 117.592 396.44 117.037 396.191 116.414C395.942 115.792 395.774 115.088 395.689 114.302C395.603 113.517 395.561 112.61 395.561 111.584V103.649C395.561 102.591 395.697 101.654 395.97 100.837C396.242 100.02 396.601 99.3351 397.045 98.7827C397.489 98.2309 397.991 97.8145 398.552 97.5341C399.112 97.2542 399.673 97.1143 400.233 97.1143H402.569C403.037 97.1143 403.469 97.1882 403.866 97.336C404.263 97.4838 404.609 97.7253 404.906 98.0594C405.201 98.394 405.432 98.8296 405.595 99.3662C405.758 99.9028 405.84 100.553 405.84 101.315V107.85C407.071 107.85 408.231 107.943 409.322 108.129C410.412 108.316 411.432 108.573 412.382 108.9V103.649C412.382 102.451 412.538 101.436 412.85 100.604C413.161 99.7713 413.589 99.0981 414.135 98.5847C414.68 98.0712 415.322 97.6977 416.062 97.4647C416.802 97.2311 417.6 97.1148 418.457 97.1148H424.532C425.42 97.1148 426.237 97.2429 426.985 97.4996C427.733 97.7564 428.375 98.1762 428.913 98.7596C429.45 99.343 429.867 100.109 430.163 101.058C430.458 102.007 430.607 103.182 430.607 104.582V115.784C430.607 116.282 430.685 116.64 430.841 116.858C430.996 117.076 431.308 117.184 431.775 117.184C432.226 117.184 432.534 117.056 432.698 116.8C432.862 116.543 432.943 116.204 432.943 115.785V105.516C432.943 104.209 432.908 103.108 432.838 102.214C432.768 101.32 432.643 100.557 432.464 99.927C432.285 99.2968 432.047 98.7641 431.752 98.3285C431.456 97.8929 431.082 97.4884 430.631 97.1148H438.551C439.548 97.1148 440.401 97.2395 441.11 97.4884C441.818 97.7372 442.398 98.1417 442.85 98.702C443.301 99.2623 443.633 99.9857 443.843 100.872C444.053 101.759 444.158 102.84 444.158 104.116V119.052H439.953V104.116C439.953 103.183 439.879 102.389 439.731 101.735C439.583 101.082 439.353 100.549 439.041 100.137C438.73 99.725 438.34 99.4294 437.873 99.2499C437.406 99.0711 436.853 98.9813 436.214 98.9813H434.205C434.392 99.6347 434.54 100.483 434.649 101.525C434.758 102.568 434.813 103.898 434.813 105.516V115.784C434.813 116.437 434.723 116.978 434.544 117.406C434.365 117.834 434.135 118.169 433.854 118.409C433.574 118.651 433.251 118.818 432.885 118.911C432.519 119.004 432.149 119.051 431.775 119.051H429.439C428.473 119.051 427.725 118.786 427.195 118.258C426.665 117.729 426.401 116.904 426.401 115.784V104.582C426.401 103.54 426.292 102.661 426.074 101.945C425.856 101.229 425.556 100.65 425.175 100.206C424.793 99.7628 424.345 99.448 423.831 99.2612C423.317 99.0744 422.772 98.9813 422.196 98.9813H418.457C417.818 98.9813 417.242 99.0632 416.728 99.2262C416.214 99.3899 415.774 99.6545 415.408 100.02C415.042 100.385 414.757 100.864 414.555 101.455C414.352 102.046 414.251 102.778 414.251 103.649V109.67C415.139 110.105 415.929 110.596 416.623 111.14C417.316 111.685 417.904 112.257 418.387 112.856C418.869 113.455 419.236 114.061 419.485 114.676C419.734 115.291 419.859 115.893 419.859 116.484C419.859 117.464 419.516 118.215 418.831 118.736C418.145 119.257 417.242 119.518 416.12 119.518C414.889 119.518 413.959 119.203 413.328 118.573C412.697 117.943 412.382 116.858 412.382 115.317V111.28C411.525 110.829 410.551 110.456 409.461 110.16C408.371 109.865 407.164 109.717 405.84 109.717V119.052H401.634V101.315C401.634 100.833 401.599 100.44 401.529 100.136C401.459 99.8328 401.361 99.5958 401.237 99.4248C401.112 99.2539 400.964 99.1371 400.793 99.075C400.621 99.0129 400.434 98.9819 400.232 98.9819C399.92 98.9819 399.597 99.0795 399.262 99.2736C398.927 99.4683 398.623 99.76 398.351 100.149C398.078 100.538 397.856 101.024 397.685 101.607C397.513 102.191 397.428 102.872 397.428 103.649V111.584C397.428 112.44 397.455 113.19 397.51 113.836C397.564 114.482 397.681 115.053 397.86 115.551C398.039 116.049 398.296 116.484 398.631 116.858C398.966 117.231 399.414 117.581 399.975 117.908L399.042 119.471ZM414.252 112.54V115.317C414.252 115.94 414.376 116.406 414.626 116.718C414.875 117.029 415.218 117.184 415.654 117.184C416.012 117.184 416.257 117.103 416.39 116.94C416.522 116.776 416.589 116.547 416.589 116.251C416.589 115.754 416.39 115.17 415.993 114.501C415.595 113.832 415.015 113.178 414.252 112.54Z" fill="black"/>
</g>
<path d="M342.051 189.487C341.303 189.052 340.704 188.589 340.252 188.099C339.8 187.608 339.45 187.053 339.201 186.43C338.952 185.808 338.784 185.104 338.699 184.318C338.613 183.533 338.57 182.626 338.57 181.6V176.932C338.57 175.112 338.745 173.579 339.096 172.335C339.446 171.09 339.949 170.083 340.603 169.313C341.258 168.542 342.044 167.987 342.963 167.644C343.882 167.302 344.91 167.131 346.047 167.131H351.655V168.998C351.188 169.418 350.779 169.873 350.428 170.363C350.078 170.854 349.786 171.464 349.552 172.195C349.318 172.927 349.143 173.822 349.026 174.879C348.909 175.937 348.851 177.244 348.851 178.799V182.533C348.851 184.199 349.186 185.393 349.855 186.116C350.525 186.839 351.592 187.201 353.056 187.201H360.767C362.23 187.201 363.297 186.831 363.967 186.092C364.637 185.354 364.972 184.167 364.972 182.533V175.532C364.972 174.334 364.839 173.319 364.575 172.487C364.31 171.654 363.901 170.981 363.348 170.468C362.795 169.954 362.094 169.581 361.246 169.348C360.397 169.114 359.38 168.998 358.197 168.998V167.13H368.945C370.035 167.13 370.962 167.258 371.725 167.515C372.488 167.772 373.115 168.137 373.606 168.612C374.097 169.086 374.455 169.67 374.681 170.362C374.906 171.054 375.02 171.844 375.02 172.731V189.067H370.814V172.731C370.814 171.642 370.459 170.747 369.751 170.047C369.042 169.347 367.995 168.997 366.608 168.997H364.739C365.471 169.682 366.004 170.557 366.339 171.623C366.674 172.689 366.842 173.991 366.842 175.532V182.533C366.842 184.758 366.324 186.403 365.288 187.469C364.252 188.535 362.745 189.067 360.767 189.067H350.72C348.742 189.067 347.235 188.542 346.199 187.492C345.163 186.442 344.646 184.789 344.646 182.533V178.799C344.646 177.477 344.693 176.301 344.786 175.275C344.879 174.248 345.035 173.338 345.253 172.545C345.471 171.751 345.755 171.067 346.106 170.491C346.456 169.915 346.881 169.417 347.379 168.997H346.047C345.159 168.997 344.369 169.122 343.676 169.371C342.983 169.62 342.395 170.047 341.912 170.654C341.429 171.261 341.063 172.074 340.814 173.093C340.564 174.112 340.44 175.392 340.44 176.932V181.6C340.44 182.456 340.467 183.206 340.522 183.852C340.576 184.498 340.693 185.069 340.872 185.567C341.051 186.065 341.308 186.5 341.643 186.874C341.978 187.247 342.426 187.597 342.986 187.924L342.051 189.487Z" fill="black"/>
<path d="M424.363 155.496C423.615 155.06 422.992 154.624 422.494 154.189C421.995 153.753 421.591 153.267 421.279 152.73C420.967 152.194 420.745 151.586 420.613 150.91C420.48 150.233 420.414 149.443 420.414 148.541V139.673C420.414 138.615 420.55 137.678 420.823 136.861C421.095 136.044 421.454 135.359 421.898 134.807C422.342 134.255 422.844 133.839 423.405 133.558C423.966 133.278 424.527 133.138 425.087 133.138H427.424C427.891 133.138 428.323 133.212 428.72 133.36C429.117 133.508 429.464 133.75 429.76 134.084C430.056 134.418 430.286 134.854 430.449 135.39C430.613 135.927 430.695 136.577 430.695 137.339V149.941C430.695 151.155 430.94 152.003 431.431 152.485C431.922 152.967 432.611 153.208 433.498 153.208H437.377C436.583 152.648 435.971 151.948 435.543 151.108C435.114 150.268 434.9 149.257 434.9 148.074V142.94C434.9 141.664 435.142 140.435 435.625 139.253C436.107 138.07 436.828 137.024 437.786 136.114C438.744 135.204 439.935 134.48 441.361 133.944C442.786 133.407 444.448 133.138 446.349 133.138C448.11 133.138 449.651 133.29 450.975 133.594C452.299 133.897 453.452 134.305 454.433 134.819C455.414 135.332 456.252 135.927 456.945 136.604C457.638 137.281 458.233 137.993 458.732 138.739C456.162 138.739 453.763 138.907 451.536 139.241C449.308 139.575 447.287 140.023 445.473 140.583C443.658 141.143 442.061 141.788 440.683 142.52C439.304 143.251 438.163 144.021 437.26 144.83C439.269 144.862 441.139 145.056 442.867 145.414C444.596 145.772 446.177 146.239 447.61 146.814C449.043 147.39 450.324 148.039 451.454 148.763C452.583 149.486 453.556 150.222 454.374 150.969C455.192 151.716 455.846 152.447 456.337 153.162C456.828 153.878 457.158 154.516 457.33 155.076H453.124C452.937 154.439 452.559 153.785 451.991 153.116C451.422 152.447 450.714 151.801 449.865 151.179C449.016 150.557 448.061 149.974 447.002 149.429C445.943 148.884 444.837 148.406 443.685 147.993C442.532 147.581 441.363 147.258 440.18 147.025C438.996 146.791 437.859 146.675 436.768 146.675V148.076C436.768 149.056 436.99 149.877 437.434 150.538C437.878 151.199 438.494 151.728 439.28 152.124C440.066 152.521 441.001 152.801 442.084 152.964C443.166 153.128 444.353 153.209 445.647 153.209V155.076H431.161C429.618 155.076 428.454 154.66 427.668 153.828C426.881 152.995 426.488 151.7 426.488 149.942V137.339C426.488 136.857 426.453 136.464 426.383 136.161C426.313 135.857 426.215 135.62 426.091 135.449C425.966 135.278 425.818 135.161 425.647 135.099C425.475 135.037 425.288 135.006 425.086 135.006C424.774 135.006 424.451 135.104 424.116 135.298C423.781 135.492 423.477 135.784 423.205 136.173C422.932 136.562 422.71 137.048 422.539 137.632C422.367 138.215 422.282 138.896 422.282 139.674V148.542C422.282 149.227 422.336 149.833 422.446 150.362C422.555 150.891 422.726 151.365 422.96 151.786C423.194 152.205 423.501 152.587 423.883 152.929C424.264 153.272 424.736 153.606 425.296 153.933L424.363 155.496ZM436.77 143.057C437.611 142.372 438.569 141.723 439.643 141.108C440.718 140.493 441.882 139.938 443.136 139.439C444.39 138.942 445.718 138.51 447.12 138.144C448.522 137.779 449.97 137.487 451.466 137.269C450.811 136.787 449.982 136.367 448.977 136.009C447.973 135.652 446.707 135.473 445.18 135.473C443.981 135.473 442.879 135.667 441.875 136.056C440.87 136.445 439.997 136.982 439.258 137.666C438.518 138.351 437.93 139.157 437.494 140.082C437.058 141.007 436.816 141.999 436.77 143.057Z" fill="black"/>
<path d="M387.36 133.866C386.223 133.866 385.281 133.784 384.533 133.621C383.785 133.458 383.162 133.255 382.663 133.015C382.165 132.774 381.752 132.513 381.425 132.233C381.098 131.953 380.778 131.692 380.467 131.45C380.155 131.21 379.813 131.007 379.439 130.844C379.065 130.68 378.59 130.599 378.014 130.599V128.732H391.565C392.733 128.732 393.73 128.911 394.556 129.269C395.381 129.627 396.055 130.144 396.577 130.82C397.098 131.497 397.484 132.326 397.733 133.306C397.983 134.286 398.107 135.406 398.107 136.666C398.107 141.007 396.947 144.485 394.626 147.098L397.64 148.195C397.935 148.304 398.197 148.394 398.423 148.464C398.648 148.534 398.855 148.569 399.042 148.569C399.571 148.569 399.937 148.351 400.14 147.915C400.342 147.48 400.444 146.841 400.444 146.001V132.933C400.444 132.17 400.514 131.525 400.654 130.996C400.794 130.467 401.028 130.035 401.355 129.701C401.682 129.366 402.114 129.121 402.652 128.966C403.189 128.81 403.855 128.732 404.65 128.732H411.659C412.578 128.732 413.388 128.865 414.089 129.129C414.79 129.393 415.374 129.77 415.841 130.26C416.308 130.751 416.662 131.342 416.904 132.034C417.145 132.726 417.266 133.492 417.266 134.333V150.669H413.06V134.333C413.06 132.995 412.764 132.038 412.172 131.462C411.58 130.887 410.63 130.599 409.322 130.599H404.649C404.166 130.599 403.773 130.638 403.469 130.716C403.165 130.794 402.928 130.926 402.757 131.112C402.585 131.299 402.468 131.541 402.406 131.836C402.344 132.132 402.313 132.497 402.313 132.933V146.002C402.313 146.858 402.262 147.581 402.161 148.172C402.059 148.763 401.904 149.246 401.694 149.619C401.484 149.992 401.215 150.26 400.888 150.424C400.561 150.587 400.179 150.669 399.743 150.669C399.369 150.669 398.952 150.615 398.493 150.505C398.033 150.396 397.515 150.24 396.939 150.038L389.323 147.285C390.818 145.791 391.954 144.189 392.734 142.478C393.512 140.766 393.902 138.829 393.902 136.666C393.902 134.675 393.52 133.166 392.757 132.139C391.994 131.112 390.818 130.598 389.229 130.598H384.229C384.525 130.972 384.911 131.299 385.386 131.579C385.861 131.858 386.519 131.998 387.36 131.998V133.866Z" fill="black"/>
<path d="M334.717 149.502C335.495 148.724 336.266 148.055 337.03 147.495C337.793 146.935 338.564 146.476 339.343 146.118C340.122 145.76 340.921 145.496 341.738 145.325C342.556 145.154 343.408 145.068 344.296 145.068C345.605 145.068 346.867 145.263 348.081 145.651C349.296 146.041 350.507 146.468 351.714 146.935C352.921 147.402 354.144 147.83 355.382 148.219C356.62 148.608 357.909 148.802 359.249 148.802C360.059 148.802 360.736 148.736 361.282 148.604C361.827 148.472 362.259 148.246 362.578 147.927C362.897 147.608 363.123 147.18 363.255 146.643C363.388 146.107 363.454 145.426 363.454 144.601V144.205C362.099 144.065 360.814 143.91 359.599 143.738C358.384 143.567 357.317 143.318 356.398 142.991C355.479 142.664 354.751 142.225 354.214 141.672C353.677 141.121 353.408 140.385 353.408 139.467C353.408 138.922 353.497 138.444 353.677 138.031C353.856 137.619 354.097 137.277 354.401 137.004C354.705 136.732 355.055 136.53 355.452 136.398C355.849 136.266 356.258 136.199 356.679 136.199C357.333 136.199 357.96 136.327 358.559 136.584C359.159 136.841 359.661 137.218 360.066 137.716L358.781 139C358.407 138.626 358.053 138.378 357.718 138.252C357.383 138.128 357.076 138.066 356.795 138.066C356.405 138.066 356.094 138.19 355.861 138.439C355.627 138.688 355.51 139.031 355.51 139.466C355.51 139.964 355.717 140.373 356.13 140.691C356.542 141.01 357.107 141.271 357.824 141.473C358.54 141.676 359.381 141.839 360.347 141.963C361.313 142.088 362.349 142.212 363.455 142.337V132.466C363.455 131.252 363.778 130.327 364.424 129.689C365.071 129.051 365.993 128.732 367.193 128.732H369.53C370.106 128.732 370.651 128.849 371.165 129.082C371.679 129.315 372.127 129.665 372.509 130.132C372.89 130.598 373.19 131.182 373.408 131.882C373.626 132.582 373.735 133.399 373.735 134.333V144.204C374.638 144.516 375.495 144.885 376.305 145.313C377.115 145.741 377.855 146.246 378.525 146.83C379.194 147.413 379.775 148.082 380.265 148.837C380.756 149.592 381.134 150.459 381.398 151.439L379.459 151.952C379.334 151.548 379.147 151.232 378.898 151.007C378.649 150.782 378.329 150.669 377.94 150.669C377.691 150.669 377.371 150.704 376.982 150.774C376.592 150.844 376.172 150.964 375.721 151.135L375.09 149.385C375.557 149.214 376.016 149.07 376.468 148.953C376.919 148.837 377.332 148.755 377.706 148.708C377.176 148.133 376.576 147.635 375.907 147.215C375.237 146.795 374.513 146.43 373.734 146.118V150.669H369.529V144.974C368.828 144.85 368.127 144.741 367.426 144.648C366.725 144.555 366.024 144.469 365.323 144.391V144.601C365.323 145.83 365.195 146.861 364.938 147.693C364.681 148.525 364.245 149.198 363.63 149.712C363.014 150.225 362.197 150.591 361.176 150.809C360.156 151.026 358.89 151.135 357.38 151.135C356.367 151.135 355.429 151.065 354.564 150.925C353.7 150.785 352.874 150.615 352.088 150.412C351.301 150.21 350.534 149.984 349.786 149.735C349.038 149.487 348.279 149.261 347.508 149.059C346.737 148.857 345.935 148.685 345.101 148.545C344.268 148.405 343.376 148.336 342.426 148.336C341.009 148.336 339.739 148.549 338.617 148.977C337.496 149.405 336.585 149.969 335.884 150.669L334.717 149.502ZM365.324 142.547C366.025 142.625 366.722 142.711 367.415 142.804C368.108 142.897 368.813 143.007 369.53 143.131V134.333C369.53 132.964 369.331 131.999 368.934 131.439C368.537 130.878 367.956 130.598 367.193 130.598C365.947 130.598 365.324 131.221 365.324 132.466V142.547Z" fill="black"/>
<path d="M386.348 187.037C387.126 186.259 387.897 185.59 388.661 185.03C389.424 184.469 390.195 184.011 390.974 183.653C391.753 183.295 392.551 183.031 393.369 182.86C394.187 182.689 395.039 182.603 395.927 182.603C397.236 182.603 398.498 182.798 399.712 183.186C400.927 183.576 402.138 184.003 403.345 184.47C404.552 184.937 405.775 185.365 407.013 185.754C408.251 186.143 409.54 186.337 410.88 186.337C411.689 186.337 412.367 186.271 412.912 186.138C413.458 186.006 413.89 185.781 414.209 185.462C414.528 185.143 414.754 184.715 414.886 184.178C415.018 183.642 415.085 182.961 415.085 182.136V181.74C413.73 181.6 412.445 181.444 411.23 181.273C410.015 181.102 408.948 180.853 408.029 180.526C407.11 180.199 406.382 179.76 405.845 179.207C405.308 178.655 405.039 177.92 405.039 177.002C405.039 176.457 405.128 175.979 405.308 175.566C405.487 175.154 405.728 174.812 406.032 174.539C406.336 174.267 406.686 174.065 407.083 173.933C407.48 173.801 407.889 173.734 408.31 173.734C408.964 173.734 409.591 173.862 410.19 174.119C410.789 174.376 411.292 174.753 411.697 175.251L410.412 176.534C410.038 176.161 409.684 175.913 409.349 175.787C409.014 175.663 408.707 175.601 408.426 175.601C408.036 175.601 407.725 175.725 407.492 175.974C407.258 176.223 407.141 176.565 407.141 177.001C407.141 177.499 407.348 177.908 407.76 178.226C408.173 178.545 408.738 178.806 409.455 179.008C410.171 179.211 411.012 179.374 411.978 179.498C412.943 179.623 413.98 179.747 415.086 179.872V170.001C415.086 168.787 415.409 167.862 416.055 167.224C416.702 166.586 417.624 166.267 418.824 166.267H421.161C421.737 166.267 422.282 166.384 422.796 166.617C423.31 166.85 423.757 167.2 424.139 167.667C424.521 168.133 424.821 168.717 425.039 169.417C425.257 170.117 425.366 170.934 425.366 171.868V181.739C426.269 182.05 427.126 182.42 427.936 182.848C428.746 183.276 429.486 183.781 430.156 184.364C430.825 184.948 431.406 185.617 431.896 186.371C432.387 187.126 432.764 187.994 433.029 188.974L431.09 189.487C430.965 189.083 430.778 188.767 430.529 188.542C430.28 188.316 429.96 188.204 429.571 188.204C429.322 188.204 429.002 188.239 428.613 188.309C428.223 188.379 427.803 188.499 427.351 188.67L426.72 186.92C427.188 186.749 427.647 186.605 428.099 186.488C428.55 186.371 428.963 186.29 429.337 186.243C428.807 185.668 428.207 185.17 427.538 184.75C426.868 184.33 426.144 183.964 425.365 183.653V188.204H421.159V182.509C420.458 182.385 419.757 182.276 419.057 182.183C418.356 182.089 417.655 182.004 416.954 181.926V182.136C416.954 183.365 416.826 184.395 416.569 185.228C416.312 186.06 415.876 186.733 415.261 187.247C414.645 187.76 413.828 188.126 412.807 188.344C411.787 188.561 410.521 188.67 409.011 188.67C407.998 188.67 407.059 188.6 406.195 188.46C405.331 188.32 404.505 188.149 403.719 187.947C402.932 187.745 402.165 187.519 401.417 187.27C400.669 187.021 399.91 186.796 399.139 186.594C398.368 186.392 397.566 186.22 396.732 186.08C395.899 185.94 395.007 185.87 394.057 185.87C392.64 185.87 391.37 186.084 390.248 186.512C389.127 186.94 388.216 187.504 387.515 188.204L386.348 187.037ZM416.955 180.082C417.656 180.16 418.352 180.246 419.046 180.339C419.739 180.432 420.444 180.542 421.161 180.666V171.868C421.161 170.499 420.962 169.534 420.565 168.974C420.168 168.413 419.587 168.133 418.824 168.133C417.578 168.133 416.955 168.756 416.955 170V180.082Z" fill="black"/>
<path d="M34.4333 211.266C51.7397 224.245 58.2853 201.94 64.6404 193.51C66.0347 191.66 68.1833 190.667 70.3618 189.88L83.8157 185.023L76.1977 154.255L62.7678 158.566C55.5265 159.735 15.3319 196.94 34.4333 211.266Z" fill="#7288EA"/>
<path d="M323.005 156.738C316.288 136.175 298.122 150.678 288.078 153.931C285.875 154.645 283.545 154.225 281.31 153.618L267.506 149.869L256.077 179.434L269.548 183.615C276.147 186.817 330.418 179.435 323.005 156.738Z" fill="#7288EA"/>
<path d="M268.003 87.0563C267.596 70.781 259.009 62.6433 242.241 62.6433H98.2877C81.601 62.6433 73.0542 70.781 72.6472 87.0563V223.647C73.0542 240.004 81.601 248.182 98.2877 248.182H242.241C259.009 248.182 267.596 240.004 268.003 223.647V87.0563Z" fill="#779BEB"/>
<path d="M116.364 106.703C111.561 111.504 109.16 117.241 109.16 123.914C109.16 130.668 111.561 136.405 116.364 141.125C121.085 145.926 126.824 148.327 133.58 148.327C140.336 148.327 146.074 145.926 150.795 141.125C155.598 136.405 157.999 130.668 157.999 123.914C157.999 117.241 155.598 111.504 150.795 106.703C146.074 101.901 140.336 99.5007 133.58 99.5007C126.824 99.5007 121.085 101.901 116.364 106.703Z" fill="white"/>
<path d="M145.681 131.31C147.712 129.279 148.728 126.814 148.728 123.914C148.728 121.071 147.712 118.635 145.681 116.605C143.651 114.516 141.185 113.472 138.283 113.472C135.44 113.472 133.003 114.516 130.973 116.605C128.884 118.635 127.839 121.071 127.839 123.914C127.839 126.814 128.884 129.279 130.973 131.31C133.003 133.34 135.44 134.355 138.283 134.355C141.185 134.355 143.651 133.34 145.681 131.31Z" fill="#3D465D"/>
<path d="M189.622 106.703C184.82 111.504 182.419 117.241 182.419 123.914C182.419 130.668 184.82 136.405 189.622 141.125C194.344 145.926 200.082 148.327 206.838 148.327C213.594 148.327 219.333 145.926 224.054 141.125C228.856 136.405 231.258 130.668 231.258 123.914C231.258 117.241 228.856 111.504 224.054 106.703C219.333 101.901 213.594 99.5007 206.838 99.5007C200.082 99.5007 194.344 101.901 189.622 106.703Z" fill="white"/>
<path d="M220.955 131.238C222.966 129.227 223.971 126.786 223.971 123.914C223.971 121.099 222.966 118.686 220.955 116.676C218.944 114.608 216.502 113.574 213.629 113.574C210.813 113.574 208.4 114.608 206.389 116.676C204.32 118.686 203.286 121.099 203.286 123.914C203.286 126.786 204.32 129.227 206.389 131.238C208.4 133.249 210.813 134.254 213.629 134.254C216.502 134.254 218.944 133.249 220.955 131.238Z" fill="#3D465D"/>
<path d="M190.233 164.073V163.951C191.21 163.219 192.146 162.486 193.041 161.754C194.018 160.859 194.547 159.76 194.628 158.458C194.71 157.075 194.303 155.895 193.407 154.918C192.512 153.86 191.413 153.291 190.111 153.209C188.727 153.128 187.547 153.535 186.57 154.43C185.919 155 185.227 155.569 184.494 156.139H184.372C180.465 159.069 175.744 160.533 170.209 160.533C164.511 160.533 159.668 159.069 155.679 156.139C155.191 155.732 154.743 155.325 154.336 154.918C153.441 153.86 152.342 153.291 151.04 153.209C149.656 153.128 148.476 153.535 147.499 154.43C146.441 155.325 145.871 156.464 145.789 157.848C145.708 159.15 146.115 160.33 147.01 161.388C147.743 162.202 148.638 163.015 149.697 163.829C149.778 163.829 149.819 163.87 149.819 163.951C155.435 168.183 162.232 170.299 170.209 170.299C178.023 170.299 184.698 168.223 190.233 164.073Z" fill="#3D465D"/>
<path d="M242.241 62.6431C259.009 62.6431 267.596 70.7808 268.003 87.0562V78.5116C268.003 61.4225 259.416 52.8779 242.241 52.8779H98.2877C81.194 52.8779 72.6472 61.4225 72.6472 78.5116V87.0562C73.0542 70.7808 81.601 62.6431 98.2877 62.6431H242.241Z" fill="url(#paint0_linear_536_642)"/>
<ellipse cx="109.16" cy="166.723" rx="14.7325" ry="12.8167" transform="rotate(-2.80982 109.16 166.723)" fill="#93C0F0"/>
<ellipse cx="222.565" cy="167.87" rx="14.7325" ry="12.8167" transform="rotate(-2.80982 222.565 167.87)" fill="#93C0F0"/>
<path d="M221.061 62.7678C213.895 76.1895 201.298 80.6824 195.895 81.2512L201.156 62.7678H221.061Z" fill="#668CDF"/>
<path d="M188.775 300.061L183.685 261.128L159.299 262.986V300.785H112.381C93.2173 295.606 108.091 286.654 117.924 282.825V262.986C83.5565 260.313 73.4197 239.096 72.6472 227.047C140.811 260.66 231.286 241.052 268.003 227.047C259.829 251.478 237.536 257.149 227.411 256.931C227.411 256.931 225.976 281.825 236.731 285.412C250.682 293.786 244.561 298.667 239.756 300.061H188.775Z" fill="#4D63C8"/>
<path d="M172.789 67.8513C202.987 22.0405 222.313 62.4912 195.65 85.3627C160.628 100.345 145.062 79.1202 141.657 66.6351C151.872 27.7213 172.789 48.6374 172.789 67.8513Z" fill="#779BEB"/>
<rect x="326.034" y="99.3127" width="8.71843" height="99.8546" rx="4.35921" transform="rotate(19.9845 326.034 99.3127)" fill="black"/>
<path d="M35.0527 95.5388C45.819 90.1558 46.2677 71.9213 45.1463 63.477L44.1445 58.8443L37.8235 62.4876C38.9189 68.4486 39.2477 82.0423 31.7994 88.7288C2.85559 89.8925 22.2933 101.649 0.660924 101.649C-5.5872 107.823 35.0525 118.761 35.0527 95.5388Z" fill="#FFB600"/>
<path d="M72.6327 81.2354L57.3955 56.0351L105.034 25.5691L121.404 54.0134L99.23 63.5445C95.3621 65.2071 91.6941 67.3005 88.2954 69.7852L72.6327 81.2354Z" fill="black"/>
<rect x="26.6421" y="52.5596" width="109.489" height="17.7788" rx="8.88938" transform="rotate(-28.5568 26.6421 52.5596)" fill="black"/>
<defs>
<linearGradient id="paint0_linear_536_642" x1="169.715" y1="52.2676" x2="169.715" y2="158.464" gradientUnits="userSpaceOnUse">
<stop stop-color="#95C2F0"/>
<stop offset="1" stop-color="#6B8EE9"/>
</linearGradient>
<clipPath id="clip0_536_642">
<rect width="105.514" height="24.8268" fill="white" transform="translate(338.57 95.9856)"/>
</clipPath>
</defs>
</svg>
