<svg width="507" height="368" viewBox="0 0 507 368" fill="none" xmlns="http://www.w3.org/2000/svg">
<path d="M207.47 112.682C214.14 109.636 220.069 105.726 225.256 100.951C228.632 97.3292 228.632 93.7071 225.256 90.085C224.186 89.0972 223.157 88.0682 222.169 86.998C203.477 69.4637 186.144 41.7629 170.169 3.8955C167.452 -1.29069 164.858 -1.29069 162.388 3.8955C146.414 41.7629 129.081 69.4637 110.389 86.998C109.401 88.0682 108.372 89.0972 107.301 90.085C104.007 93.7071 104.007 97.3292 107.301 100.951C112.406 105.726 118.417 109.677 125.334 112.805C113.312 135.197 98.5728 154.954 81.1163 172.076C76.1758 177.345 76.1758 182.654 81.1163 188.005C97.2554 202.905 119.076 211.96 146.578 215.171C144.026 237.068 139.62 255.878 133.362 271.602H200.43C194.255 255.878 189.89 237.027 187.338 215.047C214.264 211.755 235.673 202.741 251.565 188.005C256.588 182.654 256.588 177.345 251.565 172.076C234.191 154.954 219.492 135.155 207.47 112.682Z" fill="#00C353"/>
<path d="M502.601 342.698V317.606H0.27124V342.698C1.52706 359.425 23.504 367.789 66.202 367.789H436.356C479.263 367.789 501.345 359.425 502.601 342.698Z" fill="url(#paint0_linear_413_943)"/>
<path d="M502.601 302.551C501.554 285.824 479.473 277.46 436.356 277.46H66.202C23.2947 277.46 1.31776 285.824 0.27124 302.551V317.606H502.601V302.551Z" fill="url(#paint1_linear_413_943)"/>
<path d="M502.601 293.769C502.601 276.205 480.519 267.423 436.356 267.423H66.202C22.2482 267.423 0.27124 276.205 0.27124 293.769V302.551C1.31776 285.824 23.2947 277.46 66.202 277.46H436.356C479.473 277.46 501.554 285.824 502.601 302.551V293.769Z" fill="url(#paint2_linear_413_943)"/>
<path d="M353.215 84.5241C340.782 81.5647 324.078 80.085 303.103 80.085C282.043 80.085 265.339 81.5647 252.991 84.5241C239.713 87.7371 229.352 93.0218 221.909 100.378C214.551 107.819 209.265 118.177 206.051 131.452C203.429 142.613 201.992 157.198 201.738 175.208C201.738 176.054 201.738 176.9 201.738 177.745C201.992 195.755 203.429 210.341 206.051 221.502C209.265 234.861 214.551 245.219 221.909 252.576C229.352 260.016 239.713 265.301 252.991 268.43C265.339 271.389 282.043 272.869 303.103 272.869C324.078 272.869 340.782 271.389 353.215 268.43C366.578 265.301 376.938 260.016 384.296 252.576C391.739 245.219 397.025 234.861 400.155 221.502C402.776 210.51 404.257 196.136 404.595 178.379C404.595 178.126 404.595 177.914 404.595 177.745V174.574C404.257 156.818 402.776 142.444 400.155 131.452C397.025 118.177 391.739 107.819 384.296 100.378C376.938 93.0218 366.578 87.7371 353.215 84.5241Z" fill="#FF8B78"/>
<path d="M266.153 150.756C259.639 150.756 254.105 153.07 249.553 157.7C244.922 162.329 242.607 167.861 242.607 174.295C242.607 180.808 244.922 186.34 249.553 190.891C254.105 195.52 259.639 197.835 266.153 197.835C272.667 197.835 278.201 195.52 282.753 190.891C287.384 186.34 289.699 180.808 289.699 174.295C289.699 167.861 287.384 162.329 282.753 157.7C278.201 153.07 272.667 150.756 266.153 150.756Z" fill="white"/>
<path d="M266.153 169.01C262.725 169.01 259.786 170.269 257.337 172.787C254.818 175.235 253.558 178.173 253.558 181.601C253.558 185.099 254.818 188.072 257.337 190.52C259.786 192.968 262.725 194.192 266.153 194.192C269.652 194.192 272.625 192.968 275.074 190.52C277.523 188.072 278.748 185.099 278.748 181.601C278.748 178.173 277.523 175.235 275.074 172.787C272.625 170.269 269.652 169.01 266.153 169.01Z" fill="#3D465D"/>
<path d="M336.791 150.756C330.276 150.756 324.743 153.07 320.191 157.7C315.56 162.329 313.245 167.861 313.245 174.295C313.245 180.808 315.56 186.34 320.191 190.891C324.743 195.52 330.276 197.835 336.791 197.835C343.305 197.835 348.838 195.52 353.391 190.891C358.021 186.34 360.337 180.808 360.337 174.295C360.337 167.861 358.021 162.329 353.391 157.7C348.838 153.07 343.305 150.756 336.791 150.756Z" fill="white"/>
<path d="M336.738 168.434C333.231 168.434 330.225 169.722 327.72 172.298C325.144 174.802 323.856 177.807 323.856 181.313C323.856 184.891 325.144 187.932 327.72 190.436C330.225 192.94 333.231 194.192 336.738 194.192C340.316 194.192 343.358 192.94 345.863 190.436C348.368 187.932 349.62 184.891 349.62 181.313C349.62 177.807 348.368 174.802 345.863 172.298C343.358 169.722 340.316 168.434 336.738 168.434Z" fill="#3D465D"/>
<path d="M238.974 152.865C239.709 153.849 240.761 154.378 242.13 154.451L289.022 158.464C290.313 158.551 291.483 158.182 292.531 157.356C293.501 156.544 294.023 155.453 294.096 154.085L294.927 144.728C295.001 143.36 294.638 142.229 293.84 141.336C292.936 140.302 291.839 139.742 290.547 139.655L243.656 135.642C242.287 135.569 241.163 135.97 240.283 136.845C239.222 137.594 238.654 138.653 238.581 140.021L237.75 149.378C237.677 150.747 238.085 151.909 238.974 152.865Z" fill="#3D465D"/>
<path d="M311.597 142.988C310.341 143.38 309.399 144.165 308.771 145.342C308.065 146.362 307.869 147.539 308.183 148.873L310.655 157.935C310.969 159.269 311.714 160.25 312.892 160.878C313.991 161.506 315.168 161.623 316.424 161.231L361.867 149.108C363.202 148.794 364.183 148.049 364.81 146.872C365.438 145.852 365.595 144.675 365.281 143.341L362.809 134.278C362.495 132.944 361.789 131.963 360.69 131.335C359.591 130.708 358.375 130.551 357.04 130.865L311.597 142.988Z" fill="#3D465D"/>
<path d="M324.062 205.087C322.597 204.145 320.975 203.936 319.195 204.459C317.52 204.877 316.212 205.767 315.27 207.127C314.433 208.278 313.229 209.377 311.659 210.423C307.786 212.83 303.233 214.034 297.999 214.034C295.592 214.034 293.342 213.824 291.248 213.406C289.469 213.092 287.846 213.406 286.381 214.347C284.916 215.08 283.974 216.336 283.555 218.115C283.136 219.684 283.45 221.202 284.497 222.667C285.334 223.922 286.695 224.759 288.579 225.178C291.405 225.806 294.545 226.12 297.999 226.12C306.059 226.12 313.02 224.236 318.881 220.469L318.724 220.626C322.283 218.428 324.9 215.969 326.574 213.249C327.412 211.784 327.621 210.266 327.202 208.697C326.679 207.022 325.632 205.819 324.062 205.087Z" fill="#3D465D"/>
<path d="M353.215 74.3776C340.782 71.4182 324.078 69.9385 303.103 69.9385C282.043 69.9385 265.339 71.4182 252.991 74.3776C239.713 77.5906 229.352 82.8753 221.909 90.2315C214.551 97.6723 209.265 108.03 206.051 121.305C203.091 133.735 201.611 150.434 201.611 171.404C201.611 172.672 201.653 173.94 201.738 175.209C201.992 157.198 203.429 142.613 206.051 131.452C209.265 118.177 214.551 107.819 221.909 100.378C229.352 93.0218 239.713 87.7371 252.991 84.5241C265.339 81.5647 282.043 80.085 303.103 80.085C324.078 80.085 340.782 81.5647 353.215 84.5241C366.578 87.7371 376.938 93.0218 384.297 100.378C391.739 107.819 397.025 118.177 400.155 131.452C402.776 142.444 404.257 156.818 404.595 174.574C404.595 173.56 404.595 172.503 404.595 171.404C404.595 150.434 403.115 133.735 400.155 121.305C397.025 108.03 391.739 97.6723 384.297 90.2315C376.938 82.8753 366.578 77.5906 353.215 74.3776Z" fill="#FFAA9D"/>
<path d="M319.3 297.859H287.051C286.021 297.859 285.039 297.459 284.27 296.774C270.175 284.225 235.325 268.309 199.063 297.859C162.46 327.687 174.396 199.786 286.866 259.077C291.186 261.354 296.077 262.731 300.96 262.731H308.454C313.004 262.731 317.542 261.539 321.657 259.596C423.254 211.615 469.064 326.646 408.11 297.859C346.973 268.985 329.814 283.607 328.062 286.413L322.789 295.815C322.082 297.077 320.747 297.859 319.3 297.859Z" fill="#FCDA40"/>
<path d="M483.225 203.61C483.399 202.829 483.526 202.055 483.607 201.287C484.547 194.203 480.804 188.774 472.375 184.999C463.987 181.171 456.606 180.298 450.233 182.38C446.43 183.579 442.844 185.646 439.475 188.58L483.225 203.61Z" fill="#FF8B78"/>
<path d="M451.75 251.532C457.161 254.031 462.142 253.138 466.692 248.855C468.457 247.282 469.837 245.669 470.833 244.015C475.755 246.062 480.493 244.282 485.046 238.675C489.147 233.887 489.877 229.34 487.237 225.031C491.461 225.144 493.996 221.996 494.842 215.588C495.688 209.511 491.816 205.518 483.225 203.61L439.475 188.58C437.154 190.563 434.938 192.956 432.827 195.76C427.649 202.638 425.443 210.137 426.209 218.256C426.353 219.276 426.517 220.27 426.7 221.237C430.407 235.797 438.757 245.896 451.75 251.532Z" fill="#FF8B78"/>
<path d="M147.897 125.675C148.52 125.173 149.158 124.716 149.811 124.303C155.746 120.323 162.271 121.275 169.389 127.16C176.535 132.986 180.587 139.217 181.543 145.853C182.152 149.794 181.887 153.924 180.748 158.244L147.897 125.675Z" fill="#FF8B78"/>
<path d="M118.87 175.118C114.233 171.373 112.828 166.512 114.653 160.535C115.282 158.257 116.117 156.305 117.159 154.679C113.143 151.173 112.641 146.137 115.652 139.572C118.128 133.775 121.882 131.106 126.915 131.565C124.943 127.828 126.642 124.161 132.013 120.564C137.087 117.114 142.382 118.818 147.897 125.675L180.748 158.244C179.999 161.204 178.834 164.25 177.255 167.385C173.381 175.073 167.635 180.372 160.016 183.281C159.038 183.604 158.075 183.897 157.126 184.161C142.43 187.286 129.678 184.271 118.87 175.118Z" fill="#FF8B78"/>
<path d="M74.683 235.465C70.0273 238.415 65.7651 242.611 61.8963 248.052C58.093 242.479 53.8308 238.186 49.1095 235.17C43.5358 231.827 38.9457 231.138 35.3392 233.105C31.6671 235.006 30.0606 239.071 30.5196 245.298C30.9131 251.461 33.2081 257.951 37.4048 264.768C38.0605 265.817 38.749 266.702 39.4703 267.423H84.4206C85.1419 266.702 85.7648 265.883 86.2894 264.965C90.5516 258.147 92.8795 251.657 93.2729 245.495C93.7319 239.267 92.1254 235.17 88.4533 233.203C84.8468 231.302 80.2567 232.056 74.683 235.465Z" fill="#00C353"/>
<defs>
<linearGradient id="paint0_linear_413_943" x1="251.436" y1="443.064" x2="251.436" y2="342.698" gradientUnits="userSpaceOnUse">
<stop stop-color="#C6D5E6"/>
<stop offset="1" stop-color="#5F5F5F"/>
</linearGradient>
<linearGradient id="paint1_linear_413_943" x1="251.436" y1="209.713" x2="251.436" y2="410.445" gradientUnits="userSpaceOnUse">
<stop stop-color="#A875E9"/>
<stop offset="0.517647" stop-color="#FFB233"/>
<stop offset="1" stop-color="#FFB233"/>
</linearGradient>
<linearGradient id="paint2_linear_413_943" x1="249.866" y1="266.796" x2="249.866" y2="375.944" gradientUnits="userSpaceOnUse">
<stop stop-color="#2ECC71"/>
<stop offset="1" stop-color="#1BFF7B"/>
</linearGradient>
</defs>
</svg>
