<svg width="1242" height="339" fill="none" xmlns="http://www.w3.org/2000/svg"><g clip-path="url(#clip0_758_309)"><path d="M-.291 40.382c0-22.091 17.909-40 40-40H1201c22.09 0 40 17.909 40 40v260c0 22.092-17.91 40-40 40H39.709c-22.091 0-40-17.908-40-40v-260z" fill="#FCDA40"/><path opacity=".4" d="M1465.81 126.014c82.41-74.127 58.08-209.052-45.03-249.725-52.63-20.759-112.47-9.967-154.53 27.867l-307.669 276.75c-82.409 74.128-58.078 209.053 45.029 249.725 52.63 20.759 112.47 9.968 154.53-27.867l307.67-276.75zM603.367 86.328c82.409-74.128 58.077-209.053-45.034-249.725-52.628-20.759-112.469-9.968-154.53 27.867L96.137 141.219c-82.409 74.128-58.077 209.053 45.034 249.725 52.628 20.76 112.469 9.968 154.53-27.867l307.666-276.75z" fill="#FAE391"/><path d="M210.584 347.464c13.581 10.185 18.936-6.601 23.936-13.755 1.327-1.898 3.466-2.916 5.645-3.703l10.201-3.682-6.137-24.787-10.819 3.474c-5.834.941-38.214 30.913-22.826 42.453zm221.575-66.135c-13.581-10.185-18.936 6.601-23.937 13.755-1.327 1.898-3.465 2.916-5.644 3.703l-10.201 3.682 6.137 24.787 10.819-3.474c5.833-.941 38.213-30.913 22.826-42.453z" fill="#7288EA"/><path d="M399.065 247.403c-.328-13.111-7.252-19.666-20.771-19.666H262.235c-13.453 0-20.344 6.555-20.672 19.666v110.035c.328 13.177 7.219 19.765 20.672 19.765h116.059c13.519 0 20.443-6.588 20.771-19.765V247.403z" fill="#779BEB"/><path d="M276.809 263.23c-3.872 3.868-5.808 8.49-5.808 13.865 0 5.441 1.936 10.063 5.808 13.865 3.806 3.868 8.433 5.802 13.88 5.802 5.447 0 10.073-1.934 13.88-5.802 3.871-3.802 5.807-8.424 5.807-13.865 0-5.375-1.936-9.997-5.807-13.865-3.807-3.867-8.433-5.801-13.88-5.801-5.447 0-10.074 1.934-13.88 5.801z" fill="#fff"/><path d="M299.056 285.454c2.297-2.295 3.445-5.081 3.445-8.359 0-3.212-1.148-5.965-3.445-8.26-2.297-2.36-5.086-3.54-8.367-3.54-3.216 0-5.972 1.18-8.269 3.54-2.363 2.295-3.544 5.048-3.544 8.26 0 3.278 1.181 6.064 3.544 8.359 2.297 2.294 5.053 3.441 8.269 3.441 3.281 0 6.07-1.147 8.367-3.441z" fill="#3D465D"/><path d="M335.872 263.23c-3.872 3.868-5.808 8.49-5.808 13.865 0 5.441 1.936 10.063 5.808 13.865 3.806 3.868 8.433 5.802 13.88 5.802 5.447 0 10.073-1.934 13.88-5.802 3.871-3.802 5.807-8.424 5.807-13.865 0-5.375-1.936-9.997-5.807-13.865-3.807-3.867-8.433-5.801-13.88-5.801-5.447 0-10.074 1.934-13.88 5.801z" fill="#fff"/><path d="M358.119 285.454c2.297-2.295 3.446-5.081 3.446-8.359 0-3.212-1.149-5.965-3.446-8.26-2.297-2.36-5.086-3.54-8.367-3.54-3.216 0-5.972 1.18-8.269 3.54-2.362 2.295-3.544 5.048-3.544 8.26 0 3.278 1.182 6.064 3.544 8.359 2.297 2.294 5.053 3.441 8.269 3.441 3.281 0 6.07-1.147 8.367-3.441zm-21.755 23.993v-.098c.788-.59 1.542-1.18 2.264-1.77.788-.722 1.214-1.607 1.28-2.655.066-1.115-.262-2.065-.984-2.852-.722-.852-1.608-1.311-2.658-1.377-1.116-.065-2.067.262-2.855.984a38.6 38.6 0 01-1.673 1.376h-.099c-3.15 2.36-6.956 3.54-11.419 3.54-4.593 0-8.498-1.18-11.714-3.54a16.073 16.073 0 01-1.083-.983c-.722-.852-1.608-1.311-2.658-1.377-1.115-.065-2.067.262-2.854.984-.853.721-1.313 1.638-1.378 2.753-.066 1.049.262 1.999.984 2.852a16.19 16.19 0 002.166 1.966c.065 0 .098.033.098.099 4.528 3.408 10.008 5.113 16.439 5.113 6.3 0 11.682-1.672 16.144-5.015z" fill="#3D465D"/><path d="M378.294 227.737c13.519 0 20.443 6.555 20.771 19.666v-6.883c0-13.767-6.924-20.65-20.771-20.65H262.235c-13.781 0-20.672 6.883-20.672 20.65v6.883c.328-13.111 7.219-19.666 20.672-19.666h116.059z" fill="url(#paint0_linear_758_309)"/><path d="M360.928 227.837c-5.773 10.812-15.921 14.432-20.273 14.89l4.238-14.89h16.035z" fill="#668CDF"/><path d="M322.04 231.932c24.328-36.904 39.897-4.318 18.417 14.107-28.213 12.069-40.753-5.029-43.496-15.087 8.229-31.348 25.079-14.498 25.079.98z" fill="#779BEB"/><path d="M120.433 342.77c-.943 16.949 15.995 12.096 24.721 12.289 2.315.052 4.349 1.267 6.211 2.643l8.722 6.446 17.222-18.853-8.891-7.076c-4.018-4.332-46.916-14.654-47.985 4.551zm247.485 10.181c-4.719 16.307-19.096 6.121-27.394 3.417-2.202-.718-4.523-.244-6.736.438l-10.364 3.197-10.012-23.49 10.731-3.736c5.225-2.758 49.122 1.698 43.775 20.174z" fill="#FF435D"/><path d="M323.637 287.09c-.328-13.111-7.252-19.667-20.77-19.667h-116.06c-13.453 0-20.344 6.556-20.672 19.667v110.035c.328 13.177 7.219 19.765 20.672 19.765h116.06c13.518 0 20.442-6.588 20.77-19.765V287.09z" fill="#FF435D"/><path d="M201.381 302.917c-3.872 3.868-5.808 8.489-5.808 13.865 0 5.441 1.936 10.063 5.808 13.865 3.806 3.868 8.433 5.802 13.88 5.802 5.447 0 10.074-1.934 13.88-5.802 3.872-3.802 5.808-8.424 5.808-13.865 0-5.376-1.936-9.997-5.808-13.865-3.806-3.868-8.433-5.802-13.88-5.802-5.447 0-10.074 1.934-13.88 5.802z" fill="#fff"/><path d="M221.689 325.313c1.764-1.695 2.647-3.754 2.647-6.176 0-2.373-.883-4.408-2.647-6.103-1.765-1.744-3.907-2.616-6.428-2.616-2.47 0-4.588.872-6.352 2.616-1.815 1.695-2.722 3.73-2.722 6.103 0 2.422.907 4.481 2.722 6.176 1.764 1.695 3.882 2.543 6.352 2.543 2.521 0 4.663-.848 6.428-2.543z" fill="#3D465D"/><path d="M260.444 302.917c-3.872 3.868-5.808 8.489-5.808 13.865 0 5.441 1.936 10.063 5.808 13.865 3.806 3.868 8.433 5.802 13.88 5.802 5.447 0 10.074-1.934 13.88-5.802 3.872-3.802 5.808-8.424 5.808-13.865 0-5.376-1.936-9.997-5.808-13.865-3.806-3.868-8.433-5.802-13.88-5.802-5.447 0-10.074 1.934-13.88 5.802z" fill="#fff"/><path d="M282.176 322.959c1.836-1.695 2.753-3.754 2.753-6.177 0-2.374-.917-4.409-2.753-6.105-1.835-1.744-4.064-2.616-6.686-2.616-2.569 0-4.772.872-6.607 2.616-1.888 1.696-2.832 3.731-2.832 6.105 0 2.423.944 4.482 2.832 6.177 1.835 1.696 4.038 2.544 6.607 2.544 2.622 0 4.851-.848 6.686-2.544z" fill="#3D465D"/><path d="M302.867 267.423c13.518 0 20.442 6.556 20.77 19.667v-6.883c0-13.767-6.923-20.65-20.77-20.65h-116.06c-13.781 0-20.672 6.883-20.672 20.65v6.883c.328-13.111 7.219-19.667 20.672-19.667h116.06z" fill="#FF6A7F"/><ellipse cx="197.426" cy="349.558" rx="11.868" ry="10.325" transform="rotate(-2.81 197.426 349.558)" fill="#FF6A7F"/><path d="M285.561 267.523c-5.773 10.813-15.921 14.432-20.273 14.89l4.237-14.89h16.036z" fill="#DE374E"/><path d="M246.673 271.619c24.327-36.905 39.896-4.318 18.417 14.106-28.213 12.07-40.753-5.028-43.496-15.086 8.229-31.348 25.079-14.499 25.079.98z" fill="#FF435D"/><path d="M259.538 347.728c-1.068 3.989-11.626 13.42-17.983 11.717-6.357-1.704-13.441-10.972-12.372-14.961 1.069-3.989 6.798 6.16 13.155 7.863 6.356 1.703 18.269-8.608 17.2-4.619z" fill="#3D465D"/><path d="M802.292 355.658c6.984 15.472 19.772 3.35 27.603-.504 2.078-1.023 4.442-.883 6.73-.521l10.712 1.694 6.58-24.672-11.153-2.176c-5.564-1.989-48.385 8.647-40.472 26.179zm240.408-33.161c-5.27-16.137-19.29-5.468-27.5-2.482-2.17.792-4.51.398-6.74-.209l-10.469-2.843-9.208 23.817 10.852 3.369c5.315 2.579 49.035-3.368 43.065-21.652z" fill="#01C070"/><path d="M999.195 266.363c-.328-13.111-7.251-19.667-20.77-19.667h-116.06c-13.453 0-20.344 6.556-20.672 19.667v110.035c.328 13.177 7.219 19.765 20.672 19.765h116.06c13.519 0 20.442-6.588 20.77-19.765V266.363z" fill="#01C070"/><path d="M876.939 282.189c-3.872 3.868-5.808 8.49-5.808 13.865 0 5.441 1.936 10.063 5.808 13.865 3.807 3.868 8.433 5.802 13.88 5.802 5.447 0 10.074-1.934 13.88-5.802 3.872-3.802 5.808-8.424 5.808-13.865 0-5.375-1.936-9.997-5.808-13.865-3.806-3.867-8.433-5.801-13.88-5.801-5.447 0-10.073 1.934-13.88 5.801z" fill="#fff"/><path d="M896.784 303.835c1.637-1.636 2.456-3.622 2.456-5.958 0-2.29-.819-4.253-2.456-5.888-1.638-1.683-3.626-2.524-5.965-2.524-2.292 0-4.257.841-5.894 2.524-1.684 1.635-2.526 3.598-2.526 5.888 0 2.336.842 4.322 2.526 5.958 1.637 1.635 3.602 2.453 5.894 2.453 2.339 0 4.327-.818 5.965-2.453z" fill="#3D465D"/><path d="M936.002 282.189c-3.872 3.868-5.808 8.49-5.808 13.865 0 5.441 1.936 10.063 5.808 13.865 3.807 3.868 8.433 5.802 13.88 5.802 5.447 0 10.074-1.934 13.88-5.802 3.872-3.802 5.808-8.424 5.808-13.865 0-5.375-1.936-9.997-5.808-13.865-3.806-3.867-8.433-5.801-13.88-5.801-5.447 0-10.073 1.934-13.88 5.801z" fill="#fff"/><path d="M961.264 301.955c1.621-1.62 2.432-3.587 2.432-5.901 0-2.267-.811-4.211-2.432-5.83-1.622-1.666-3.591-2.499-5.907-2.499-2.27 0-4.215.833-5.837 2.499-1.668 1.619-2.501 3.563-2.501 5.83 0 2.314.833 4.281 2.501 5.901 1.622 1.619 3.567 2.429 5.837 2.429 2.316 0 4.285-.81 5.907-2.429zm-24.769 26.451v-.098c.787-.59 1.542-1.18 2.264-1.77.787-.722 1.214-1.607 1.279-2.655.066-1.115-.262-2.065-.984-2.852-.722-.852-1.608-1.311-2.658-1.377-1.115-.065-2.067.262-2.855.984-.525.458-1.082.917-1.673 1.376h-.098c-3.15 2.36-6.957 3.54-11.419 3.54-4.594 0-8.499-1.18-11.714-3.54a16.073 16.073 0 01-1.083-.983c-.722-.852-1.608-1.311-2.658-1.377-1.116-.065-2.067.262-2.855.984-.853.721-1.312 1.638-1.378 2.753-.066 1.049.262 1.999.984 2.852a16.19 16.19 0 002.166 1.966c.066 0 .098.033.098.099 4.529 3.408 10.008 5.113 16.44 5.113 6.3 0 11.681-1.672 16.144-5.015z" fill="#3D465D"/><path d="M978.425 246.696c13.519 0 20.442 6.556 20.77 19.667v-6.883c0-13.767-6.923-20.65-20.77-20.65h-116.06c-13.781 0-20.672 6.883-20.672 20.65v6.883c.328-13.111 7.219-19.667 20.672-19.667h116.06z" fill="#25D28A"/><ellipse cx="870.43" cy="330.541" rx="11.868" ry="10.325" transform="rotate(-2.81 870.43 330.541)" fill="#25D28A"/><ellipse cx="961.786" cy="331.465" rx="11.868" ry="10.325" transform="rotate(-2.81 961.786 331.465)" fill="#25D28A"/><path d="M960.575 246.796c-5.772 10.813-15.92 14.432-20.273 14.89l4.238-14.89h16.035z" fill="#1DA16A"/><path d="M921.688 250.892c24.327-36.905 39.896-4.318 18.417 14.106-28.214 12.07-40.753-5.028-43.496-15.086 8.229-31.348 25.079-14.499 25.079.98z" fill="#01C070"/><rect x="1045.14" y="276.236" width="7.023" height="80.441" rx="3.512" transform="rotate(19.985 1045.14 276.236)" fill="#000"/><path d="M810.731 273.196c8.673-4.336 9.034-19.026 8.131-25.828l-.807-3.732-5.092 2.935c.882 4.802 1.147 15.752-4.853 21.139-23.317.937-7.658 10.408-25.085 10.408-5.033 4.974 27.705 13.786 27.706-4.922z" fill="#FFB600"/><path d="M841.004 261.674l-12.275-20.301 38.378-24.543 13.186 22.914-16.731 7.192a55.976 55.976 0 00-10.934 6.241l-11.624 8.497z" fill="#000"/><rect x="803.955" y="238.573" width="88.202" height="14.322" rx="7.161" transform="rotate(-28.557 803.955 238.573)" fill="#000"/><path d="M1073.52 295.09c-.33-13.111-7.25-19.667-20.77-19.667H936.691c-13.454 0-20.344 6.556-20.672 19.667v110.035c.328 13.177 7.218 19.765 20.672 19.765h116.059c13.52 0 20.44-6.588 20.77-19.765V295.09z" fill="#FF86C9"/><path d="M950.718 321.258a18.037 18.037 0 013.347-2.655c-5.643 3.277-10.369 4.818-14.175 4.621-3.084 0-3.74.984-1.969 2.95l7.679 7.572c0-4.917 1.706-9.08 5.118-12.488zm84.752-2.655c1.19.721 2.3 1.606 3.35 2.655 3.41 3.408 5.12 7.571 5.12 12.488l7.68-7.572c1.77-1.966 1.11-2.95-1.97-2.95-3.81.197-8.53-1.344-14.18-4.621z" fill="#3D465D"/><path d="M979.167 319.881c-3.806-3.868-8.433-5.802-13.88-5.802-5.447 0-10.073 1.934-13.88 5.802-3.871 3.802-5.807 8.424-5.807 13.865h39.375c0-5.441-1.936-10.063-5.808-13.865z" fill="#fff"/><path d="M973.655 325.387c-2.297-2.294-5.086-3.441-8.368-3.441-3.215 0-5.972 1.147-8.269 3.441-2.362 2.295-3.543 5.081-3.543 8.359H977.1c0-3.278-1.149-6.064-3.445-8.359z" fill="#3D465D"/><path d="M1038.23 319.881c-3.81-3.868-8.43-5.802-13.88-5.802-5.45 0-10.07 1.934-13.88 5.802-3.87 3.802-5.81 8.424-5.81 13.865h39.38c0-5.441-1.94-10.063-5.81-13.865z" fill="#fff"/><path d="M1032.72 325.387c-2.3-2.294-5.09-3.441-8.37-3.441-3.21 0-5.97 1.147-8.27 3.441-2.36 2.295-3.54 5.081-3.54 8.359h23.62c0-3.278-1.15-6.064-3.44-8.359zm-85.152-17.208c0 .525.197.983.591 1.377.394.393.853.59 1.378.59h25.594c.525 0 .985-.197 1.378-.59.394-.394.591-.852.591-1.377v-5.9c0-.524-.197-.983-.591-1.376-.393-.394-.853-.591-1.378-.591h-7.58c-.196 0-.361.033-.492.099l-18.014 4.523c-.459.066-.82.295-1.083.688-.262.328-.394.722-.394 1.181v1.376zm65.562 1.377c.39.393.85.59 1.38.59h25.59c.53 0 .99-.197 1.38-.59.39-.394.59-.852.59-1.377v-1.376c0-.459-.13-.853-.39-1.181a1.536 1.536 0 00-1.09-.688l-18.01-4.523c-.13-.066-.3-.099-.49-.099h-7.58c-.53 0-.99.197-1.38.591-.4.393-.59.852-.59 1.376v5.9c0 .525.19.983.59 1.377z" fill="#3D465D"/><path d="M1052.75 275.423c13.52 0 20.44 6.556 20.77 19.667v-6.883c0-13.767-6.92-20.65-20.77-20.65H936.691c-13.782 0-20.672 6.883-20.672 20.65v6.883c.328-13.111 7.218-19.667 20.672-19.667h116.059z" fill="#FFB0DC"/><path d="M1034.84 275.523c-5.77 10.813-15.92 14.432-20.27 14.89l4.24-14.89h16.03z" fill="#FB60B6"/><path d="M995.953 279.619c24.327-36.905 39.897-4.318 18.417 14.106-28.214 12.07-40.753-5.028-43.496-15.086 8.229-31.348 25.079-14.499 25.079.98z" fill="#FF86C9"/></g><defs><linearGradient id="paint0_linear_758_309" x1="319.822" y1="219.378" x2="319.822" y2="304.928" gradientUnits="userSpaceOnUse"><stop stop-color="#95C2F0"/><stop offset="1" stop-color="#6B8EE9"/></linearGradient><clipPath id="clip0_758_309"><rect width="1242" height="339" rx="40" fill="#fff"/></clipPath></defs></svg>