<svg width="151" height="38" viewBox="0 0 151 38" fill="none" xmlns="http://www.w3.org/2000/svg">
<path d="M53.7213 8.63636H57.3804V22.9545C57.3738 24.267 57.0954 25.3973 56.5452 26.3452C55.995 27.2865 55.2261 28.0123 54.2384 28.5227C53.2573 29.0265 52.1138 29.2784 50.808 29.2784C49.6148 29.2784 48.5409 29.0663 47.5864 28.642C46.6385 28.2112 45.8861 27.5748 45.3293 26.733C44.7725 25.8911 44.4941 24.8437 44.4941 23.5909H48.1631C48.1697 24.1411 48.289 24.6151 48.521 25.0128C48.7597 25.4105 49.0878 25.7154 49.5054 25.9276C49.923 26.1397 50.4036 26.2457 50.9472 26.2457C51.5371 26.2457 52.0376 26.1231 52.4486 25.8778C52.8596 25.6259 53.1711 25.2547 53.3833 24.7642C53.602 24.2737 53.7147 23.6705 53.7213 22.9545V8.63636ZM65.6183 29.3082C64.6505 29.3082 63.7789 29.1359 63.0033 28.7912C62.2343 28.4399 61.6245 27.9228 61.1737 27.2401C60.7296 26.5573 60.5075 25.7154 60.5075 24.7145C60.5075 23.8527 60.6666 23.1402 60.9848 22.5767C61.303 22.0133 61.7372 21.5625 62.2874 21.2244C62.8376 20.8864 63.4574 20.6312 64.1468 20.4588C64.8428 20.2798 65.562 20.1506 66.3044 20.071C67.1993 19.9782 67.9252 19.8954 68.482 19.8224C69.0388 19.7429 69.4432 19.6236 69.695 19.4645C69.9536 19.2988 70.0828 19.0436 70.0828 18.6989V18.6392C70.0828 17.8902 69.8608 17.3101 69.4166 16.8991C68.9725 16.4882 68.3328 16.2827 67.4976 16.2827C66.616 16.2827 65.9166 16.4749 65.3996 16.8594C64.8892 17.2438 64.5445 17.6979 64.3655 18.2216L61.0047 17.7443C61.2699 16.8163 61.7074 16.0407 62.3172 15.4176C62.9271 14.7879 63.6728 14.3172 64.5544 14.0057C65.4361 13.6875 66.4105 13.5284 67.4777 13.5284C68.2135 13.5284 68.946 13.6146 69.6752 13.7869C70.4043 13.9593 71.0705 14.2443 71.6737 14.642C72.277 15.0331 72.7609 15.5668 73.1254 16.2429C73.4967 16.919 73.6823 17.7642 73.6823 18.7784V29H70.222V26.902H70.1027C69.884 27.3262 69.5757 27.724 69.178 28.0952C68.7869 28.4598 68.2931 28.7547 67.6965 28.9801C67.1065 29.1989 66.4138 29.3082 65.6183 29.3082ZM66.553 26.6634C67.2755 26.6634 67.902 26.5208 68.4323 26.2358C68.9626 25.9441 69.3702 25.5597 69.6553 25.0824C69.9469 24.6051 70.0928 24.0848 70.0928 23.5213V21.7216C69.9801 21.8144 69.7878 21.9006 69.5161 21.9801C69.2509 22.0597 68.9526 22.1293 68.6212 22.1889C68.2897 22.2486 67.9616 22.3016 67.6368 22.348C67.312 22.3944 67.0303 22.4342 66.7916 22.4673C66.2547 22.5402 65.7741 22.6596 65.3499 22.8253C64.9256 22.991 64.5909 23.223 64.3456 23.5213C64.1003 23.813 63.9777 24.1908 63.9777 24.6548C63.9777 25.3177 64.2197 25.8182 64.7036 26.1562C65.1875 26.4943 65.8039 26.6634 66.553 26.6634ZM80.5828 24.2074L80.5729 19.8622H81.1496L86.6382 13.7273H90.8442L84.0928 21.2443H83.347L80.5828 24.2074ZM77.3016 29V8.63636H80.901V29H77.3016ZM86.8868 29L81.9152 22.0497L84.3414 19.5142L91.1922 29H86.8868Z" fill="#1E1E1E"/>
<path d="M105.314 17.7642L102.033 18.1222C101.94 17.7907 101.778 17.4792 101.546 17.1875C101.32 16.8958 101.015 16.6605 100.631 16.4815C100.246 16.3026 99.7757 16.2131 99.2188 16.2131C98.4698 16.2131 97.8401 16.3755 97.3296 16.7003C96.8258 17.0251 96.5773 17.446 96.5839 17.9631C96.5773 18.4072 96.7397 18.7685 97.0711 19.0469C97.4092 19.3253 97.966 19.554 98.7416 19.733L101.347 20.2898C102.792 20.6013 103.866 21.0952 104.568 21.7713C105.278 22.4474 105.636 23.3324 105.642 24.4261C105.636 25.3873 105.354 26.2358 104.797 26.9716C104.247 27.7008 103.481 28.2708 102.5 28.6818C101.519 29.0928 100.392 29.2983 99.1194 29.2983C97.2501 29.2983 95.7454 28.9072 94.6052 28.125C93.4651 27.3362 92.7856 26.2391 92.5669 24.8338L96.0768 24.4957C96.2359 25.1851 96.574 25.7055 97.091 26.0568C97.608 26.4081 98.2809 26.5838 99.1095 26.5838C99.9646 26.5838 100.651 26.4081 101.168 26.0568C101.691 25.7055 101.953 25.2713 101.953 24.7543C101.953 24.3168 101.784 23.9555 101.446 23.6705C101.115 23.3854 100.598 23.1667 99.895 23.0142L97.2899 22.4673C95.8249 22.1624 94.7411 21.6487 94.0384 20.9261C93.3358 20.197 92.9878 19.2756 92.9944 18.1619C92.9878 17.2206 93.243 16.4053 93.76 15.7159C94.2837 15.0199 95.0096 14.483 95.9376 14.1051C96.8722 13.7206 97.9494 13.5284 99.1691 13.5284C100.959 13.5284 102.368 13.9096 103.395 14.6719C104.429 15.4342 105.069 16.465 105.314 17.7642ZM113.005 29.3082C112.037 29.3082 111.166 29.1359 110.39 28.7912C109.621 28.4399 109.011 27.9228 108.56 27.2401C108.116 26.5573 107.894 25.7154 107.894 24.7145C107.894 23.8527 108.053 23.1402 108.372 22.5767C108.69 22.0133 109.124 21.5625 109.674 21.2244C110.224 20.8864 110.844 20.6312 111.533 20.4588C112.229 20.2798 112.949 20.1506 113.691 20.071C114.586 19.9782 115.312 19.8954 115.869 19.8224C116.426 19.7429 116.83 19.6236 117.082 19.4645C117.34 19.2988 117.47 19.0436 117.47 18.6989V18.6392C117.47 17.8902 117.247 17.3101 116.803 16.8991C116.359 16.4882 115.72 16.2827 114.884 16.2827C114.003 16.2827 113.303 16.4749 112.786 16.8594C112.276 17.2438 111.931 17.6979 111.752 18.2216L108.391 17.7443C108.657 16.8163 109.094 16.0407 109.704 15.4176C110.314 14.7879 111.06 14.3172 111.941 14.0057C112.823 13.6875 113.797 13.5284 114.864 13.5284C115.6 13.5284 116.333 13.6146 117.062 13.7869C117.791 13.9593 118.457 14.2443 119.06 14.642C119.664 15.0331 120.148 15.5668 120.512 16.2429C120.883 16.919 121.069 17.7642 121.069 18.7784V29H117.609V26.902H117.489C117.271 27.3262 116.962 27.724 116.565 28.0952C116.174 28.4598 115.68 28.7547 115.083 28.9801C114.493 29.1989 113.801 29.3082 113.005 29.3082ZM113.94 26.6634C114.662 26.6634 115.289 26.5208 115.819 26.2358C116.349 25.9441 116.757 25.5597 117.042 25.0824C117.334 24.6051 117.479 24.0848 117.479 23.5213V21.7216C117.367 21.8144 117.175 21.9006 116.903 21.9801C116.638 22.0597 116.339 22.1293 116.008 22.1889C115.676 22.2486 115.348 22.3016 115.024 22.348C114.699 22.3944 114.417 22.4342 114.178 22.4673C113.641 22.5402 113.161 22.6596 112.737 22.8253C112.312 22.991 111.978 23.223 111.732 23.5213C111.487 23.813 111.364 24.1908 111.364 24.6548C111.364 25.3177 111.606 25.8182 112.09 26.1562C112.574 26.4943 113.191 26.6634 113.94 26.6634ZM124.688 29V13.7273H128.178V16.2727H128.337C128.616 15.3911 129.093 14.7116 129.769 14.2344C130.452 13.7505 131.231 13.5085 132.106 13.5085C132.305 13.5085 132.527 13.5185 132.772 13.5384C133.024 13.5516 133.233 13.5748 133.399 13.608V16.919C133.246 16.866 133.004 16.8196 132.673 16.7798C132.348 16.7334 132.033 16.7102 131.728 16.7102C131.072 16.7102 130.482 16.8527 129.958 17.1378C129.441 17.4162 129.033 17.804 128.735 18.3011C128.437 18.7983 128.288 19.3717 128.288 20.0213V29H124.688ZM139.911 29.3082C138.944 29.3082 138.072 29.1359 137.296 28.7912C136.527 28.4399 135.917 27.9228 135.467 27.2401C135.023 26.5573 134.801 25.7154 134.801 24.7145C134.801 23.8527 134.96 23.1402 135.278 22.5767C135.596 22.0133 136.03 21.5625 136.58 21.2244C137.131 20.8864 137.75 20.6312 138.44 20.4588C139.136 20.2798 139.855 20.1506 140.597 20.071C141.492 19.9782 142.218 19.8954 142.775 19.8224C143.332 19.7429 143.736 19.6236 143.988 19.4645C144.247 19.2988 144.376 19.0436 144.376 18.6989V18.6392C144.376 17.8902 144.154 17.3101 143.71 16.8991C143.265 16.4882 142.626 16.2827 141.791 16.2827C140.909 16.2827 140.21 16.4749 139.693 16.8594C139.182 17.2438 138.837 17.6979 138.658 18.2216L135.298 17.7443C135.563 16.8163 136 16.0407 136.61 15.4176C137.22 14.7879 137.966 14.3172 138.847 14.0057C139.729 13.6875 140.703 13.5284 141.771 13.5284C142.506 13.5284 143.239 13.6146 143.968 13.7869C144.697 13.9593 145.363 14.2443 145.967 14.642C146.57 15.0331 147.054 15.5668 147.418 16.2429C147.79 16.919 147.975 17.7642 147.975 18.7784V29H144.515V26.902H144.396C144.177 27.3262 143.869 27.724 143.471 28.0952C143.08 28.4598 142.586 28.7547 141.989 28.9801C141.399 29.1989 140.707 29.3082 139.911 29.3082ZM140.846 26.6634C141.569 26.6634 142.195 26.5208 142.725 26.2358C143.256 25.9441 143.663 25.5597 143.948 25.0824C144.24 24.6051 144.386 24.0848 144.386 23.5213V21.7216C144.273 21.8144 144.081 21.9006 143.809 21.9801C143.544 22.0597 143.246 22.1293 142.914 22.1889C142.583 22.2486 142.255 22.3016 141.93 22.348C141.605 22.3944 141.323 22.4342 141.085 22.4673C140.548 22.5402 140.067 22.6596 139.643 22.8253C139.219 22.991 138.884 23.223 138.639 23.5213C138.393 23.813 138.271 24.1908 138.271 24.6548C138.271 25.3177 138.513 25.8182 138.997 26.1562C139.48 26.4943 140.097 26.6634 140.846 26.6634Z" fill="#F5CF1E"/>
<path d="M4.11976 16.2785C5.48884 15.2517 6.31347 16.0102 6.9357 16.9631C7.73529 18.1876 8.85223 19.0278 10.2278 19.5243L9.28555 23.3301L7.62443 22.7968C6.72876 22.6523 1.75713 18.0504 4.11976 16.2785Z" fill="#F5CF1E"/>
<path d="M38.6424 16.5784C37.3185 15.4941 36.4622 16.2166 35.7998 17.142C34.9486 18.3312 33.7968 19.1228 32.4012 19.5601L33.1799 23.4027L34.8623 22.9409C35.7633 22.8348 40.9272 18.4497 38.6424 16.5784Z" fill="#F5CF1E"/>
<path d="M33.1481 11.1523C33.0977 9.13923 32.0356 8.13269 29.9615 8.13269H12.1562C10.0922 8.13269 9.03508 9.13923 8.98474 11.1523V28.0471C9.03508 30.0702 10.0922 31.0818 12.1562 31.0818H29.9615C32.0356 31.0818 33.0977 30.0702 33.1481 28.0471V11.1523Z" fill="#F5CF1E"/>
<path d="M14.392 13.5826C13.798 14.1764 13.501 14.886 13.501 15.7114C13.501 16.5468 13.798 17.2564 14.392 17.8402C14.9759 18.4341 15.6857 18.731 16.5214 18.731C17.357 18.731 18.0668 18.4341 18.6508 17.8402C19.2448 17.2564 19.5418 16.5468 19.5418 15.7114C19.5418 14.886 19.2448 14.1764 18.6508 13.5826C18.0668 12.9887 17.357 12.6918 16.5214 12.6918C15.6857 12.6918 14.9759 12.9887 14.392 13.5826Z" fill="white"/>
<path d="M17.4535 16.7686C17.7093 16.5128 17.8373 16.2022 17.8373 15.8368C17.8373 15.4787 17.7093 15.1718 17.4535 14.916C17.1977 14.6529 16.887 14.5214 16.5215 14.5214C16.1633 14.5214 15.8563 14.6529 15.6004 14.916C15.3373 15.1718 15.2057 15.4787 15.2057 15.8368C15.2057 16.2022 15.3373 16.5128 15.6004 16.7686C15.8563 17.0244 16.1633 17.1522 16.5215 17.1522C16.887 17.1522 17.1977 17.0244 17.4535 16.7686Z" fill="#1E1E1E"/>
<path d="M23.4533 13.5826C22.8593 14.1764 22.5623 14.886 22.5623 15.7114C22.5623 16.5468 22.8593 17.2564 23.4533 17.8402C24.0372 18.4341 24.747 18.731 25.5827 18.731C26.4183 18.731 27.1281 18.4341 27.7121 17.8402C28.3061 17.2564 28.6031 16.5468 28.6031 15.7114C28.6031 14.886 28.3061 14.1764 27.7121 13.5826C27.1281 12.9887 26.4183 12.6918 25.5827 12.6918C24.747 12.6918 24.0372 12.9887 23.4533 13.5826Z" fill="white"/>
<path d="M26.5639 16.7537C26.8296 16.488 26.9625 16.1655 26.9625 15.7859C26.9625 15.414 26.8296 15.0952 26.5639 14.8296C26.2982 14.5563 25.9755 14.4197 25.5959 14.4197C25.2238 14.4197 24.905 14.5563 24.6392 14.8296C24.3659 15.0952 24.2292 15.414 24.2292 15.7859C24.2292 16.1655 24.3659 16.488 24.6392 16.7537C24.905 17.0194 25.2238 17.1522 25.5959 17.1522C25.9755 17.1522 26.2982 17.0194 26.5639 16.7537Z" fill="#1E1E1E"/>
<path d="M23.5288 20.6786V20.6635C23.6496 20.5729 23.7654 20.4823 23.8762 20.3917C23.997 20.281 24.0624 20.1451 24.0725 19.9841C24.0826 19.813 24.0322 19.667 23.9215 19.5462C23.8107 19.4154 23.6748 19.3449 23.5137 19.3349C23.3426 19.3248 23.1966 19.3751 23.0758 19.4859C22.9952 19.5563 22.9096 19.6268 22.819 19.6972H22.8039C22.3206 20.0596 21.7367 20.2408 21.0521 20.2408C20.3473 20.2408 19.7483 20.0596 19.2549 19.6972C19.1945 19.6469 19.1391 19.5966 19.0888 19.5462C18.9781 19.4154 18.8421 19.3449 18.681 19.3349C18.5099 19.3248 18.3639 19.3751 18.2431 19.4859C18.1122 19.5966 18.0417 19.7375 18.0317 19.9086C18.0216 20.0697 18.0719 20.2156 18.1827 20.3464C18.2733 20.4471 18.384 20.5478 18.5149 20.6484C18.525 20.6484 18.53 20.6534 18.53 20.6635C19.2247 21.1869 20.0654 21.4486 21.0521 21.4486C22.0186 21.4486 22.8442 21.1919 23.5288 20.6786Z" fill="#1E1E1E"/>
<path d="M29.9615 8.13277C32.0356 8.13277 33.0977 9.13931 33.1481 11.1524V10.0955C33.1481 7.98179 32.0859 6.92493 29.9615 6.92493H12.1562C10.0419 6.92493 8.98474 7.98179 8.98474 10.0955V11.1524C9.03508 9.13931 10.0922 8.13277 12.1562 8.13277H29.9615Z" fill="#F5CF1E"/>
<ellipse cx="13.501" cy="21.0063" rx="1.82225" ry="1.58529" transform="rotate(-2.80982 13.501 21.0063)" fill="#F5CF1E"/>
<ellipse cx="27.5279" cy="21.1481" rx="1.82225" ry="1.58529" transform="rotate(-2.80982 27.5279 21.1481)" fill="#F5CF1E"/>
<path d="M27.3419 8.14807C26.4555 9.80818 24.8974 10.3639 24.2291 10.4343L24.8798 8.14807H27.3419Z" fill="#E8C730"/>
<path d="M23.3485 37.4986L22.7189 32.683L19.7026 32.9128V37.5881H13.8993C11.529 36.9475 13.3688 35.8403 14.5849 35.3667V32.9128C10.3341 32.5822 9.08029 29.9579 8.98474 28.4675C17.4159 32.6251 28.6066 30.1999 33.1481 28.4675C32.1371 31.4894 29.3796 32.1909 28.1273 32.1639C28.1273 32.1639 27.9498 35.243 29.2801 35.6867C31.0057 36.7224 30.2485 37.3262 29.6542 37.4986H23.3485Z" fill="#EFC400"/>
<path d="M21.3711 8.7768C25.1063 3.11052 27.4968 8.11381 24.1989 10.9428C19.867 12.7959 17.9417 10.1706 17.5205 8.62637C18.784 3.81318 21.3711 6.40026 21.3711 8.7768Z" fill="#F5CF1E"/>
<path d="M4.33466 12.2015C5.66633 11.5357 5.72183 9.2803 5.58312 8.23583L5.45921 7.66282L4.67738 8.11346C4.81287 8.85077 4.85353 10.5321 3.93226 11.3592C0.352238 11.5031 2.75646 12.9573 0.0807825 12.9573C-0.692041 13.7209 4.33464 15.0739 4.33466 12.2015Z" fill="#FFB600"/>
<path d="M8.98281 10.4324L7.09814 7.31542L12.9905 3.54712L15.0152 7.06536L14.4773 7.29657C12.5338 8.13199 10.6906 9.18392 8.98281 10.4324Z" fill="#1E1E1E"/>
<rect x="3.29431" y="6.88562" width="13.5425" height="2.19903" rx="1.09952" transform="rotate(-28.5568 3.29431 6.88562)" fill="#1E1E1E"/>
</svg>
