<svg width="152" height="38" viewBox="0 0 152 38" fill="none" xmlns="http://www.w3.org/2000/svg">
<path d="M54.0985 8.70912H57.7576V23.0273C57.751 24.3398 57.4726 25.47 56.9224 26.4179C56.3722 27.3592 55.6033 28.0851 54.6156 28.5955C53.6345 29.0993 52.491 29.3512 51.1852 29.3512C49.992 29.3512 48.9181 29.139 47.9636 28.7148C47.0157 28.2839 46.2633 27.6476 45.7065 26.8057C45.1497 25.9639 44.8712 24.9165 44.8712 23.6637H48.5403C48.5469 24.2139 48.6662 24.6878 48.8982 25.0855C49.1369 25.4833 49.465 25.7882 49.8826 26.0003C50.3002 26.2124 50.7808 26.3185 51.3244 26.3185C51.9143 26.3185 52.4148 26.1959 52.8258 25.9506C53.2368 25.6987 53.5483 25.3275 53.7605 24.837C53.9792 24.3464 54.0919 23.7432 54.0985 23.0273V8.70912ZM65.9955 29.381C65.0277 29.381 64.1561 29.2086 63.3805 28.8639C62.6115 28.5126 62.0017 27.9956 61.5509 27.3128C61.1068 26.63 60.8847 25.7882 60.8847 24.7872C60.8847 23.9255 61.0438 23.2129 61.362 22.6495C61.6802 22.086 62.1144 21.6353 62.6646 21.2972C63.2148 20.9591 63.8346 20.7039 64.5239 20.5316C65.22 20.3526 65.9392 20.2233 66.6816 20.1438C67.5765 20.051 68.3024 19.9681 68.8592 19.8952C69.416 19.8157 69.8203 19.6963 70.0722 19.5372C70.3308 19.3715 70.46 19.1163 70.46 18.7716V18.712C70.46 17.9629 70.238 17.3829 69.7938 16.9719C69.3497 16.5609 68.71 16.3554 67.8748 16.3554C66.9932 16.3554 66.2938 16.5477 65.7768 16.9321C65.2664 17.3166 64.9217 17.7707 64.7427 18.2943L61.3819 17.8171C61.6471 16.889 62.0846 16.1135 62.6944 15.4904C63.3043 14.8606 64.05 14.39 64.9316 14.0784C65.8132 13.7603 66.7877 13.6012 67.8549 13.6012C68.5907 13.6012 69.3232 13.6873 70.0524 13.8597C70.7815 14.032 71.4477 14.3171 72.0509 14.7148C72.6542 15.1059 73.1381 15.6395 73.5026 16.3157C73.8739 16.9918 74.0595 17.837 74.0595 18.8512V29.0728H70.5992V26.9747H70.4799C70.2612 27.399 69.9529 27.7967 69.5552 28.1679C69.1641 28.5325 68.6703 28.8275 68.0737 29.0529C67.4837 29.2716 66.791 29.381 65.9955 29.381ZM66.9302 26.7361C67.6527 26.7361 68.2792 26.5936 68.8095 26.3085C69.3398 26.0169 69.7474 25.6324 70.0325 25.1551C70.3241 24.6779 70.47 24.1575 70.47 23.5941V21.7943C70.3573 21.8871 70.165 21.9733 69.8933 22.0529C69.6281 22.1324 69.3298 22.202 68.9984 22.2617C68.6669 22.3213 68.3388 22.3744 68.014 22.4208C67.6892 22.4672 67.4075 22.5069 67.1688 22.5401C66.6319 22.613 66.1513 22.7323 65.7271 22.898C65.3028 23.0638 64.9681 23.2958 64.7228 23.5941C64.4775 23.8857 64.3549 24.2636 64.3549 24.7276C64.3549 25.3905 64.5969 25.8909 65.0808 26.229C65.5647 26.5671 66.1811 26.7361 66.9302 26.7361ZM80.96 24.2801L80.9501 19.935H81.5268L87.0154 13.8H91.2214L84.47 21.3171H83.7242L80.96 24.2801ZM77.6788 29.0728V8.70912H81.2782V29.0728H77.6788ZM87.264 29.0728L82.2924 22.1225L84.7186 19.587L91.5694 29.0728H87.264ZM105.691 17.837L102.41 18.1949C102.317 17.8635 102.155 17.5519 101.923 17.2603C101.697 16.9686 101.392 16.7333 101.008 16.5543C100.623 16.3753 100.153 16.2858 99.596 16.2858C98.847 16.2858 98.2172 16.4482 97.7068 16.773C97.203 17.0978 96.9545 17.5188 96.9611 18.0358C96.9545 18.48 97.1169 18.8412 97.4483 19.1196C97.7864 19.398 98.3432 19.6267 99.1188 19.8057L101.724 20.3625C103.169 20.6741 104.243 21.1679 104.945 21.8441C105.655 22.5202 106.013 23.4051 106.019 24.4989C106.013 25.4601 105.731 26.3085 105.174 27.0443C104.624 27.7735 103.858 28.3436 102.877 28.7546C101.896 29.1656 100.769 29.371 99.4966 29.371C97.6273 29.371 96.1226 28.98 94.9824 28.1978C93.8422 27.4089 93.1628 26.3119 92.944 24.9066L96.454 24.5685C96.6131 25.2579 96.9511 25.7782 97.4682 26.1296C97.9852 26.4809 98.6581 26.6566 99.4867 26.6566C100.342 26.6566 101.028 26.4809 101.545 26.1296C102.069 25.7782 102.33 25.3441 102.33 24.827C102.33 24.3895 102.161 24.0282 101.823 23.7432C101.492 23.4582 100.975 23.2394 100.272 23.087L97.6671 22.5401C96.2021 22.2352 95.1183 21.7214 94.4156 20.9989C93.713 20.2697 93.365 19.3483 93.3716 18.2347C93.365 17.2934 93.6202 16.4781 94.1372 15.7887C94.6609 15.0926 95.3868 14.5557 96.3148 14.1779C97.2494 13.7934 98.3266 13.6012 99.5463 13.6012C101.336 13.6012 102.745 13.9823 103.772 14.7446C104.806 15.5069 105.446 16.5377 105.691 17.837ZM113.382 29.381C112.414 29.381 111.543 29.2086 110.767 28.8639C109.998 28.5126 109.388 27.9956 108.938 27.3128C108.494 26.63 108.271 25.7882 108.271 24.7872C108.271 23.9255 108.431 23.2129 108.749 22.6495C109.067 22.086 109.501 21.6353 110.051 21.2972C110.601 20.9591 111.221 20.7039 111.911 20.5316C112.607 20.3526 113.326 20.2233 114.068 20.1438C114.963 20.051 115.689 19.9681 116.246 19.8952C116.803 19.8157 117.207 19.6963 117.459 19.5372C117.717 19.3715 117.847 19.1163 117.847 18.7716V18.712C117.847 17.9629 117.625 17.3829 117.181 16.9719C116.736 16.5609 116.097 16.3554 115.262 16.3554C114.38 16.3554 113.681 16.5477 113.164 16.9321C112.653 17.3166 112.308 17.7707 112.129 18.2943L108.769 17.8171C109.034 16.889 109.471 16.1135 110.081 15.4904C110.691 14.8606 111.437 14.39 112.318 14.0784C113.2 13.7603 114.174 13.6012 115.242 13.6012C115.977 13.6012 116.71 13.6873 117.439 13.8597C118.168 14.032 118.834 14.3171 119.438 14.7148C120.041 15.1059 120.525 15.6395 120.889 16.3157C121.261 16.9918 121.446 17.837 121.446 18.8512V29.0728H117.986V26.9747H117.867C117.648 27.399 117.34 27.7967 116.942 28.1679C116.551 28.5325 116.057 28.8275 115.46 29.0529C114.87 29.2716 114.178 29.381 113.382 29.381ZM114.317 26.7361C115.039 26.7361 115.666 26.5936 116.196 26.3085C116.726 26.0169 117.134 25.6324 117.419 25.1551C117.711 24.6779 117.857 24.1575 117.857 23.5941V21.7943C117.744 21.8871 117.552 21.9733 117.28 22.0529C117.015 22.1324 116.717 22.202 116.385 22.2617C116.054 22.3213 115.726 22.3744 115.401 22.4208C115.076 22.4672 114.794 22.5069 114.556 22.5401C114.019 22.613 113.538 22.7323 113.114 22.898C112.69 23.0638 112.355 23.2958 112.11 23.5941C111.864 23.8857 111.742 24.2636 111.742 24.7276C111.742 25.3905 111.984 25.8909 112.467 26.229C112.951 26.5671 113.568 26.7361 114.317 26.7361ZM125.065 29.0728V13.8H128.556V16.3455H128.715C128.993 15.4639 129.47 14.7844 130.146 14.3071C130.829 13.8232 131.608 13.5813 132.483 13.5813C132.682 13.5813 132.904 13.5912 133.149 13.6111C133.401 13.6244 133.61 13.6476 133.776 13.6807V16.9918C133.623 16.9388 133.381 16.8924 133.05 16.8526C132.725 16.8062 132.41 16.783 132.105 16.783C131.449 16.783 130.859 16.9255 130.335 17.2105C129.818 17.4889 129.411 17.8767 129.112 18.3739C128.814 18.871 128.665 19.4444 128.665 20.0941V29.0728H125.065ZM140.289 29.381C139.321 29.381 138.449 29.2086 137.673 28.8639C136.905 28.5126 136.295 27.9956 135.844 27.3128C135.4 26.63 135.178 25.7882 135.178 24.7872C135.178 23.9255 135.337 23.2129 135.655 22.6495C135.973 22.086 136.407 21.6353 136.958 21.2972C137.508 20.9591 138.128 20.7039 138.817 20.5316C139.513 20.3526 140.232 20.2233 140.975 20.1438C141.869 20.051 142.595 19.9681 143.152 19.8952C143.709 19.8157 144.113 19.6963 144.365 19.5372C144.624 19.3715 144.753 19.1163 144.753 18.7716V18.712C144.753 17.9629 144.531 17.3829 144.087 16.9719C143.643 16.5609 143.003 16.3554 142.168 16.3554C141.286 16.3554 140.587 16.5477 140.07 16.9321C139.559 17.3166 139.215 17.7707 139.036 18.2943L135.675 17.8171C135.94 16.889 136.378 16.1135 136.987 15.4904C137.597 14.8606 138.343 14.39 139.225 14.0784C140.106 13.7603 141.081 13.6012 142.148 13.6012C142.884 13.6012 143.616 13.6873 144.345 13.8597C145.074 14.032 145.741 14.3171 146.344 14.7148C146.947 15.1059 147.431 15.6395 147.796 16.3157C148.167 16.9918 148.352 17.837 148.352 18.8512V29.0728H144.892V26.9747H144.773C144.554 27.399 144.246 27.7967 143.848 28.1679C143.457 28.5325 142.963 28.8275 142.367 29.0529C141.777 29.2716 141.084 29.381 140.289 29.381ZM141.223 26.7361C141.946 26.7361 142.572 26.5936 143.102 26.3085C143.633 26.0169 144.04 25.6324 144.325 25.1551C144.617 24.6779 144.763 24.1575 144.763 23.5941V21.7943C144.65 21.8871 144.458 21.9733 144.186 22.0529C143.921 22.1324 143.623 22.202 143.291 22.2617C142.96 22.3213 142.632 22.3744 142.307 22.4208C141.982 22.4672 141.7 22.5069 141.462 22.5401C140.925 22.613 140.444 22.7323 140.02 22.898C139.596 23.0638 139.261 23.2958 139.016 23.5941C138.771 23.8857 138.648 24.2636 138.648 24.7276C138.648 25.3905 138.89 25.8909 139.374 26.229C139.858 26.5671 140.474 26.7361 141.223 26.7361Z" fill="white"/>
<path d="M4.49696 16.3514C5.86604 15.3246 6.69066 16.0831 7.3129 17.036C8.11249 18.2605 9.22942 19.1006 10.605 19.5972L9.66275 23.403L8.00162 22.8697C7.10596 22.7251 2.13433 18.1232 4.49696 16.3514Z" fill="#F5CF1E"/>
<path d="M39.0196 16.6513C37.6957 15.5669 36.8394 16.2894 36.177 17.2149C35.3258 18.4041 34.174 19.1957 32.7784 19.633L33.5571 23.4756L35.2395 23.0138C36.1405 22.9077 41.3044 18.5226 39.0196 16.6513Z" fill="#F5CF1E"/>
<path d="M33.5253 11.2252C33.4749 9.21211 32.4128 8.20557 30.3387 8.20557H12.5334C10.4694 8.20557 9.41228 9.21211 9.36194 11.2252V28.1199C9.41228 30.1431 10.4694 31.1547 12.5334 31.1547H30.3387C32.4128 31.1547 33.4749 30.1431 33.5253 28.1199V11.2252Z" fill="#F5CF1E"/>
<path d="M14.7692 13.6549C14.1752 14.2488 13.8782 14.9584 13.8782 15.7838C13.8782 16.6192 14.1752 17.3288 14.7692 17.9126C15.3531 18.5065 16.0629 18.8034 16.8986 18.8034C17.7342 18.8034 18.444 18.5065 19.028 17.9126C19.622 17.3288 19.919 16.6192 19.919 15.7838C19.919 14.9584 19.622 14.2488 19.028 13.6549C18.444 13.0611 17.7342 12.7642 16.8986 12.7642C16.0629 12.7642 15.3531 13.0611 14.7692 13.6549Z" fill="white"/>
<path d="M17.8307 16.841C18.0865 16.5852 18.2145 16.2746 18.2145 15.9092C18.2145 15.5511 18.0865 15.2442 17.8307 14.9884C17.5748 14.7253 17.2642 14.5938 16.8987 14.5938C16.5405 14.5938 16.2335 14.7253 15.9776 14.9884C15.7145 15.2442 15.5829 15.5511 15.5829 15.9092C15.5829 16.2746 15.7145 16.5852 15.9776 16.841C16.2335 17.0967 16.5405 17.2246 16.8987 17.2246C17.2642 17.2246 17.5748 17.0967 17.8307 16.841Z" fill="#2C2C2C"/>
<path d="M23.8305 13.6549C23.2365 14.2488 22.9395 14.9584 22.9395 15.7838C22.9395 16.6192 23.2365 17.3288 23.8305 17.9126C24.4144 18.5065 25.1242 18.8034 25.9599 18.8034C26.7955 18.8034 27.5053 18.5065 28.0893 17.9126C28.6833 17.3288 28.9803 16.6192 28.9803 15.7838C28.9803 14.9584 28.6833 14.2488 28.0893 13.6549C27.5053 13.0611 26.7955 12.7642 25.9599 12.7642C25.1242 12.7642 24.4144 13.0611 23.8305 13.6549Z" fill="white"/>
<path d="M26.9411 16.8262C27.2068 16.5606 27.3397 16.238 27.3397 15.8585C27.3397 15.4865 27.2068 15.1677 26.9411 14.9021C26.6754 14.6288 26.3527 14.4922 25.9731 14.4922C25.601 14.4922 25.2822 14.6288 25.0164 14.9021C24.7431 15.1677 24.6064 15.4865 24.6064 15.8585C24.6064 16.238 24.7431 16.5606 25.0164 16.8262C25.2822 17.0919 25.601 17.2247 25.9731 17.2247C26.3527 17.2247 26.6754 17.0919 26.9411 16.8262Z" fill="#2C2C2C"/>
<path d="M23.906 20.7508V20.7357C24.0268 20.6451 24.1426 20.5545 24.2534 20.4639C24.3742 20.3532 24.4396 20.2173 24.4497 20.0562C24.4598 19.8851 24.4094 19.7392 24.2987 19.6184C24.1879 19.4875 24.052 19.4171 23.8909 19.407C23.7198 19.397 23.5738 19.4473 23.4529 19.558C23.3724 19.6285 23.2868 19.6989 23.1962 19.7694H23.1811C22.6978 20.1317 22.1139 20.3129 21.4293 20.3129C20.7245 20.3129 20.1255 20.1317 19.6321 19.7694C19.5717 19.719 19.5163 19.6687 19.466 19.6184C19.3552 19.4875 19.2193 19.4171 19.0582 19.407C18.8871 19.397 18.7411 19.4473 18.6203 19.558C18.4894 19.6687 18.4189 19.8096 18.4089 19.9807C18.3988 20.1418 18.4491 20.2877 18.5599 20.4186C18.6505 20.5192 18.7612 20.6199 18.8921 20.7206C18.9022 20.7206 18.9072 20.7256 18.9072 20.7357C19.6019 21.2591 20.4426 21.5208 21.4293 21.5208C22.3958 21.5208 23.2214 21.2641 23.906 20.7508Z" fill="white"/>
<path d="M30.3387 8.20541C32.4128 8.20541 33.4749 9.21195 33.5253 11.225V10.1682C33.5253 8.05443 32.4631 6.99756 30.3387 6.99756H12.5334C10.4191 6.99756 9.36194 8.05443 9.36194 10.1682V11.225C9.41228 9.21195 10.4694 8.20541 12.5334 8.20541H30.3387Z" fill="#F5CF1E"/>
<ellipse cx="13.8782" cy="21.079" rx="1.82225" ry="1.58529" transform="rotate(-2.80982 13.8782 21.079)" fill="#F5CF1E"/>
<ellipse cx="27.9051" cy="21.2206" rx="1.82225" ry="1.58529" transform="rotate(-2.80982 27.9051 21.2206)" fill="#F5CF1E"/>
<path d="M27.719 8.2207C26.8327 9.88082 25.2746 10.4365 24.6063 10.5069L25.257 8.2207H27.719Z" fill="#E8C730"/>
<path d="M23.7257 37.5716L23.0961 32.756L20.0798 32.9858V37.6611H14.2765C11.9062 37.0205 13.746 35.9133 14.9621 35.4397V32.9858C10.7113 32.6552 9.45749 30.0309 9.36194 28.5405C17.7931 32.6981 28.9838 30.2729 33.5253 28.5405C32.5142 31.5624 29.7568 32.2639 28.5045 32.2369C28.5045 32.2369 28.327 35.316 29.6573 35.7597C31.3829 36.7954 30.6257 37.3992 30.0314 37.5716H23.7257Z" fill="#EFC400"/>
<path d="M21.7483 8.84968C25.4835 3.18339 27.874 8.18669 24.5761 11.0156C20.2441 12.8688 18.3189 10.2435 17.8977 8.69925C19.1612 3.88605 21.7483 6.47313 21.7483 8.84968Z" fill="#F5CF1E"/>
<path d="M4.71186 12.274C6.04352 11.6082 6.09902 9.35281 5.96032 8.30834L5.83641 7.73533L5.05458 8.18597C5.19007 8.92328 5.23073 10.6047 4.30946 11.4317C0.729435 11.5756 3.13366 13.0298 0.45798 13.0298C-0.314844 13.7934 4.71184 15.1464 4.71186 12.274Z" fill="#757575"/>
<path d="M9.36001 10.5049L7.47534 7.38793L13.3677 3.61963L15.3924 7.13787L14.8545 7.36908C12.911 8.2045 11.0678 9.25643 9.36001 10.5049Z" fill="#FFB600"/>
<rect x="3.67151" y="6.95801" width="13.5425" height="2.19903" rx="1.09952" transform="rotate(-28.5568 3.67151 6.95801)" fill="#FFB600"/>
</svg>
