<svg width="1242" height="385" fill="none" xmlns="http://www.w3.org/2000/svg"><g clip-path="url(#clip0_536_442)"><path d="M0 40C0 17.909 17.909 0 40 0h1162c22.09 0 40 17.909 40 40v305c0 22.091-17.91 40-40 40H40c-22.091 0-40-17.909-40-40V40z" fill="#F5CF1E"/><path d="M219.584 379.263c13.581 10.185 18.936-6.601 23.937-13.755 1.327-1.898 3.465-2.916 5.644-3.703l10.201-3.682-6.137-24.787-10.819 3.473c-5.833.942-38.213 30.914-22.826 42.454zm221.575-66.135c-13.581-10.185-18.936 6.601-23.937 13.754-1.327 1.899-3.465 2.917-5.644 3.703l-10.201 3.683 6.137 24.786 10.819-3.473c5.833-.941 38.213-30.913 22.826-42.453z" fill="#7288EA"/><path d="M407.744 279.202c-.328-13.111-7.246-19.666-20.754-19.666H271.024c-13.442 0-20.328 6.555-20.655 19.666v110.035c.327 13.177 7.213 19.765 20.655 19.765H386.99c13.508 0 20.426-6.588 20.754-19.765V279.202z" fill="#779BEB"/><path d="M285.586 295.029c-3.869 3.868-5.803 8.49-5.803 13.865 0 5.441 1.934 10.063 5.803 13.865 3.803 3.868 8.426 5.802 13.868 5.802 5.443 0 10.066-1.934 13.869-5.802 3.869-3.802 5.803-8.424 5.803-13.865 0-5.375-1.934-9.997-5.803-13.865-3.803-3.868-8.426-5.801-13.869-5.801-5.442 0-10.065 1.933-13.868 5.801z" fill="#fff"/><path d="M307.815 317.253c2.295-2.295 3.443-5.081 3.443-8.359 0-3.212-1.148-5.965-3.443-8.26-2.295-2.36-5.082-3.54-8.361-3.54-3.213 0-5.967 1.18-8.262 3.54-2.36 2.295-3.541 5.048-3.541 8.26 0 3.278 1.181 6.064 3.541 8.359 2.295 2.294 5.049 3.441 8.262 3.441 3.279 0 6.066-1.147 8.361-3.441z" fill="#3D465D"/><path d="M344.601 295.029c-3.868 3.868-5.803 8.49-5.803 13.865 0 5.441 1.935 10.063 5.803 13.865 3.804 3.868 8.427 5.802 13.869 5.802 5.443 0 10.066-1.934 13.869-5.802 3.869-3.802 5.803-8.424 5.803-13.865 0-5.375-1.934-9.997-5.803-13.865-3.803-3.868-8.426-5.801-13.869-5.801-5.442 0-10.065 1.933-13.869 5.801z" fill="#fff"/><path d="M366.831 317.253c2.295-2.295 3.442-5.081 3.442-8.359 0-3.212-1.147-5.965-3.442-8.26-2.295-2.36-5.082-3.54-8.361-3.54-3.213 0-5.967 1.18-8.262 3.54-2.361 2.295-3.541 5.048-3.541 8.26 0 3.278 1.18 6.064 3.541 8.359 2.295 2.294 5.049 3.441 8.262 3.441 3.279 0 6.066-1.147 8.361-3.441zm-21.738 23.993v-.099c.787-.59 1.541-1.18 2.263-1.77.786-.721 1.213-1.606 1.278-2.655.066-1.114-.262-2.065-.983-2.851-.722-.853-1.607-1.311-2.656-1.377-1.115-.066-2.066.262-2.853.983-.524.459-1.081.918-1.672 1.377h-.098c-3.148 2.36-6.951 3.54-11.41 3.54-4.59 0-8.491-1.18-11.704-3.54a16.073 16.073 0 01-1.082-.983c-.722-.853-1.607-1.311-2.656-1.377-1.115-.066-2.066.262-2.853.983-.852.721-1.311 1.639-1.377 2.754-.065 1.049.263 1.999.984 2.851.59.656 1.311 1.311 2.164 1.967.065 0 .098.033.098.098 4.525 3.409 10 5.114 16.426 5.114 6.295 0 11.672-1.672 16.131-5.015z" fill="#3D465D"/><path d="M386.99 259.536c13.508 0 20.426 6.555 20.754 19.666v-6.883c0-13.767-6.918-20.65-20.754-20.65H271.024c-13.77 0-20.655 6.883-20.655 20.65v6.883c.327-13.111 7.213-19.666 20.655-19.666H386.99z" fill="url(#paint0_linear_536_442)"/><path d="M369.928 259.636c-5.773 10.812-15.921 14.431-20.273 14.89l4.238-14.89h16.035z" fill="#668CDF"/><path d="M331.041 263.731c24.327-36.904 39.896-4.318 18.416 14.107-28.213 12.069-40.752-5.029-43.495-15.087 8.228-31.348 25.079-14.498 25.079.98z" fill="#779BEB"/><path d="M129.433 374.569c-.943 16.949 15.995 12.095 24.721 12.289 2.315.051 4.349 1.266 6.211 2.643l8.722 6.446 17.222-18.853-8.891-7.076c-4.018-4.332-46.916-14.654-47.985 4.551zm247.485 10.181c-4.719 16.307-19.096 6.121-27.394 3.417-2.203-.718-4.523-.245-6.737.438l-10.363 3.197-10.013-23.491 10.731-3.735c5.226-2.758 49.123 1.698 43.776 20.174z" fill="#FF435D"/><path d="M332.376 318.889c-.328-13.111-7.246-19.667-20.754-19.667H195.657c-13.443 0-20.328 6.556-20.656 19.667v110.035c.328 13.176 7.213 19.765 20.656 19.765h115.965c13.508 0 20.426-6.589 20.754-19.765V318.889z" fill="#FF435D"/><path d="M210.218 334.716c-3.868 3.868-5.803 8.489-5.803 13.865 0 5.441 1.935 10.063 5.803 13.865 3.804 3.868 8.426 5.801 13.869 5.801s10.065-1.933 13.869-5.801c3.869-3.802 5.803-8.424 5.803-13.865 0-5.376-1.934-9.997-5.803-13.865-3.804-3.868-8.426-5.802-13.869-5.802s-10.065 1.934-13.869 5.802z" fill="#fff"/><path d="M230.51 357.112c1.763-1.696 2.644-3.754 2.644-6.176 0-2.373-.881-4.408-2.644-6.103-1.763-1.744-3.904-2.616-6.423-2.616-2.468 0-4.584.872-6.347 2.616-1.813 1.695-2.72 3.73-2.72 6.103 0 2.422.907 4.48 2.72 6.176 1.763 1.695 3.879 2.543 6.347 2.543 2.519 0 4.66-.848 6.423-2.543z" fill="#3D465D"/><path d="M269.234 334.716c-3.869 3.868-5.803 8.489-5.803 13.865 0 5.441 1.934 10.063 5.803 13.865 3.803 3.868 8.426 5.801 13.869 5.801 5.442 0 10.065-1.933 13.868-5.801 3.869-3.802 5.804-8.424 5.804-13.865 0-5.376-1.935-9.997-5.804-13.865-3.803-3.868-8.426-5.802-13.868-5.802-5.443 0-10.066 1.934-13.869 5.802z" fill="#fff"/><path d="M290.949 354.758c1.833-1.695 2.75-3.755 2.75-6.177 0-2.374-.917-4.409-2.75-6.105-1.834-1.744-4.061-2.616-6.681-2.616-2.567 0-4.768.872-6.602 2.616-1.886 1.696-2.829 3.731-2.829 6.105 0 2.422.943 4.482 2.829 6.177 1.834 1.696 4.035 2.544 6.602 2.544 2.62 0 4.847-.848 6.681-2.544z" fill="#3D465D"/><path d="M311.622 299.222c13.508 0 20.426 6.556 20.754 19.667v-6.884c0-13.766-6.918-20.65-20.754-20.65H195.657c-13.771 0-20.656 6.884-20.656 20.65v6.884c.328-13.111 7.213-19.667 20.656-19.667h115.965z" fill="#FF6A7F"/><ellipse cx="206.425" cy="381.357" rx="11.868" ry="10.325" transform="rotate(-2.81 206.425 381.357)" fill="#FF6A7F"/><ellipse cx="295.632" cy="381.949" rx="11.868" ry="10.325" transform="rotate(-2.81 295.632 381.949)" fill="#FF6A7F"/><path d="M294.561 299.322c-5.773 10.813-15.921 14.432-20.273 14.89l4.237-14.89h16.036z" fill="#DE374E"/><path d="M255.673 303.417c24.327-36.904 39.896-4.318 18.417 14.107-28.213 12.07-40.753-5.029-43.496-15.086 8.229-31.348 25.079-14.499 25.079.979z" fill="#FF435D"/><path d="M268.538 379.527c-1.069 3.989-11.626 13.42-17.983 11.717-6.357-1.704-13.441-10.973-12.372-14.962 1.068-3.989 6.797 6.16 13.154 7.864 6.357 1.703 18.27-8.608 17.201-4.619z" fill="#3D465D"/><path d="M819.232 396.809c13.581 10.185 18.936-6.601 23.936-13.754 1.327-1.899 3.466-2.917 5.644-3.703l10.201-3.683-6.137-24.786-10.818 3.473c-5.834.941-38.214 30.913-22.826 42.453zm232.468-43.926c-5.27-16.137-19.29-5.468-27.5-2.483-2.17.793-4.51.398-6.74-.209l-10.47-2.842-9.207 23.817 10.857 3.368c5.31 2.579 49.03-3.367 43.06-21.651z" fill="#01C070"/><path d="M1007.39 296.749c-.33-13.111-7.24-19.667-20.753-19.667H870.672c-13.443 0-20.328 6.556-20.656 19.667v110.035c.328 13.176 7.213 19.765 20.656 19.765h115.965c13.513 0 20.423-6.589 20.753-19.765V296.749z" fill="#01C070"/><path d="M885.233 312.575c-3.868 3.868-5.803 8.49-5.803 13.865 0 5.441 1.935 10.063 5.803 13.865 3.804 3.868 8.426 5.802 13.869 5.802s10.065-1.934 13.869-5.802c3.869-3.802 5.803-8.424 5.803-13.865 0-5.375-1.934-9.997-5.803-13.865-3.804-3.868-8.426-5.802-13.869-5.802s-10.065 1.934-13.869 5.802z" fill="#fff"/><path d="M905.062 334.22c1.636-1.635 2.454-3.621 2.454-5.958 0-2.289-.818-4.252-2.454-5.888-1.636-1.682-3.623-2.523-5.96-2.523-2.29 0-4.253.841-5.889 2.523-1.683 1.636-2.525 3.599-2.525 5.888 0 2.337.842 4.323 2.525 5.958 1.636 1.636 3.599 2.454 5.889 2.454 2.337 0 4.324-.818 5.96-2.454z" fill="#3D465D"/><path d="M944.249 312.575c-3.869 3.868-5.803 8.49-5.803 13.865 0 5.441 1.934 10.063 5.803 13.865 3.803 3.868 8.426 5.802 13.869 5.802 5.442 0 10.065-1.934 13.868-5.802 3.869-3.802 5.804-8.424 5.804-13.865 0-5.375-1.935-9.997-5.804-13.865-3.803-3.868-8.426-5.802-13.868-5.802-5.443 0-10.066 1.934-13.869 5.802z" fill="#fff"/><path d="M969.49 332.34c1.62-1.619 2.43-3.586 2.43-5.9 0-2.267-.81-4.211-2.43-5.831-1.62-1.666-3.588-2.499-5.902-2.499-2.268 0-4.212.833-5.832 2.499-1.667 1.62-2.5 3.564-2.5 5.831 0 2.314.833 4.281 2.5 5.9 1.62 1.62 3.564 2.43 5.832 2.43 2.314 0 4.282-.81 5.902-2.43zm-24.749 26.452v-.099c.787-.59 1.541-1.18 2.262-1.77.787-.721 1.213-1.606 1.279-2.655.065-1.114-.263-2.065-.984-2.851-.721-.853-1.606-1.312-2.656-1.377-1.114-.066-2.065.262-2.852.983-.525.459-1.082.918-1.672 1.377h-.099c-3.147 2.36-6.95 3.54-11.409 3.54-4.59 0-8.492-1.18-11.705-3.54a16.576 16.576 0 01-1.082-.983c-.721-.853-1.606-1.312-2.656-1.377-1.114-.066-2.065.262-2.852.983-.853.721-1.312 1.639-1.377 2.754-.066 1.048.262 1.999.983 2.851.591.656 1.312 1.311 2.164 1.967.066 0 .099.033.099.098 4.524 3.409 10 5.114 16.426 5.114 6.295 0 11.672-1.672 16.131-5.015z" fill="#3D465D"/><path d="M986.637 277.082c13.513 0 20.423 6.556 20.753 19.667v-6.884c0-13.766-6.92-20.65-20.753-20.65H870.672c-13.771 0-20.656 6.884-20.656 20.65v6.884c.328-13.111 7.213-19.667 20.656-19.667h115.965z" fill="#25D28A"/><ellipse cx="879.43" cy="360.927" rx="11.868" ry="10.325" transform="rotate(-2.81 879.43 360.927)" fill="#25D28A"/><ellipse cx="970.787" cy="361.851" rx="11.868" ry="10.325" transform="rotate(-2.81 970.787 361.851)" fill="#25D28A"/><path d="M969.576 277.182c-5.773 10.812-15.921 14.432-20.274 14.89l4.238-14.89h16.036z" fill="#1DA16A"/><path d="M930.688 281.277c24.327-36.904 39.896-4.318 18.417 14.107-28.214 12.069-40.753-5.029-43.496-15.086 8.229-31.349 25.079-14.499 25.079.979z" fill="#01C070"/><rect x="1054.14" y="306.622" width="7.023" height="80.441" rx="3.512" transform="rotate(19.985 1054.14 306.622)" fill="#000"/><path d="M819.731 303.582c8.673-4.337 9.034-19.026 8.131-25.829l-.807-3.732-5.092 2.935c.882 4.802 1.147 15.753-4.853 21.14-23.317.937-7.658 10.408-25.085 10.408-5.033 4.973 27.706 13.785 27.706-4.922z" fill="#FFB600"/><path d="M850.004 292.06l-12.275-20.301 38.378-24.543 13.186 22.914-16.731 7.192a55.971 55.971 0 00-10.934 6.24l-11.624 8.498z" fill="#000"/><rect x="812.955" y="268.959" width="88.202" height="14.322" rx="7.161" transform="rotate(-28.557 812.955 268.959)" fill="#000"/><path d="M1081.66 325.476c-.33-13.111-7.25-19.667-20.76-19.667H944.937c-13.443 0-20.328 6.556-20.656 19.667v110.035c.328 13.176 7.213 19.765 20.656 19.765H1060.9c13.51 0 20.43-6.589 20.76-19.765V325.476z" fill="#FF86C9"/><path d="M958.953 351.643a18.02 18.02 0 013.344-2.655c-5.639 3.278-10.36 4.819-14.164 4.622-3.082 0-3.737.983-1.967 2.95l7.672 7.572c0-4.917 1.705-9.08 5.115-12.489zm84.687-2.655c1.18.721 2.3 1.606 3.34 2.655 3.41 3.409 5.12 7.572 5.12 12.489l7.67-7.572c1.77-1.967 1.12-2.95-1.97-2.95-3.8.197-8.52-1.344-14.16-4.622z" fill="#3D465D"/><path d="M987.379 350.267c-3.803-3.868-8.426-5.802-13.869-5.802-5.442 0-10.065 1.934-13.868 5.802-3.869 3.802-5.804 8.423-5.804 13.865h39.344c0-5.442-1.934-10.063-5.803-13.865z" fill="#fff"/><path d="M981.871 355.773c-2.295-2.294-5.082-3.441-8.361-3.441-3.213 0-5.967 1.147-8.262 3.441-2.361 2.295-3.541 5.081-3.541 8.359h23.606c0-3.278-1.147-6.064-3.442-8.359z" fill="#3D465D"/><path d="M1046.39 350.267c-3.8-3.868-8.42-5.802-13.86-5.802-5.45 0-10.07 1.934-13.87 5.802-3.87 3.802-5.81 8.423-5.81 13.865h39.35c0-5.442-1.94-10.063-5.81-13.865z" fill="#fff"/><path d="M1040.89 355.773c-2.3-2.294-5.09-3.441-8.36-3.441-3.22 0-5.97 1.147-8.27 3.441-2.36 2.295-3.54 5.081-3.54 8.359h23.61c0-3.278-1.15-6.064-3.44-8.359zm-85.085-17.208c0 .524.197.983.591 1.377.393.393.852.59 1.377.59h25.573c.525 0 .984-.197 1.377-.59.394-.394.59-.853.59-1.377v-5.9c0-.525-.196-.983-.59-1.377-.393-.393-.852-.59-1.377-.59h-7.574c-.196 0-.36.033-.491.099l-18 4.523c-.459.065-.82.295-1.082.688a1.832 1.832 0 00-.394 1.18v1.377zm65.505 1.377c.4.393.86.59 1.38.59h25.57c.53 0 .99-.197 1.38-.59.39-.394.59-.853.59-1.377v-1.377c0-.459-.13-.852-.39-1.18-.27-.393-.63-.623-1.08-.688l-18-4.523c-.14-.066-.3-.099-.5-.099h-7.57c-.52 0-.98.197-1.38.59-.39.394-.59.852-.59 1.377v5.9c0 .524.2.983.59 1.377zm-2.26 43.758v-.099c.79-.59 1.54-1.18 2.26-1.77.79-.721 1.22-1.606 1.28-2.655.07-1.114-.26-2.065-.98-2.851-.72-.852-1.61-1.311-2.66-1.377-1.11-.065-2.06.262-2.85.983-.52.459-1.08.918-1.67 1.377h-.1c-3.15 2.36-6.95 3.54-11.41 3.54-4.591 0-8.492-1.18-11.705-3.54a16.049 16.049 0 01-1.082-.983c-.721-.852-1.607-1.311-2.656-1.377-1.115-.065-2.065.262-2.852.983-.853.722-1.312 1.639-1.377 2.754-.066 1.049.262 1.999.983 2.851.59.656 1.312 1.312 2.164 1.967.066 0 .099.033.099.098 4.524 3.409 9.999 5.114 16.426 5.114 6.29 0 11.67-1.672 16.13-5.015z" fill="#3D465D"/><path d="M1060.9 305.809c13.51 0 20.43 6.556 20.76 19.667v-6.884c0-13.766-6.92-20.65-20.76-20.65H944.937c-13.771 0-20.656 6.884-20.656 20.65v6.884c.328-13.111 7.213-19.667 20.656-19.667H1060.9z" fill="#FFB0DC"/><path d="M1043.84 305.909c-5.77 10.812-15.92 14.432-20.27 14.89l4.24-14.89h16.03z" fill="#FB60B6"/><path d="M1004.95 310.004c24.33-36.904 39.9-4.318 18.42 14.107-28.213 12.07-40.753-5.029-43.496-15.086 8.229-31.349 25.076-14.499 25.076.979z" fill="#FF86C9"/></g><defs><linearGradient id="paint0_linear_536_442" x1="328.564" y1="251.177" x2="328.564" y2="336.727" gradientUnits="userSpaceOnUse"><stop stop-color="#95C2F0"/><stop offset="1" stop-color="#6B8EE9"/></linearGradient><clipPath id="clip0_536_442"><path fill="#fff" d="M0 0h1242v385H0z"/></clipPath></defs></svg>