<svg width="430" height="391" fill="none" xmlns="http://www.w3.org/2000/svg"><ellipse cx="265.243" cy="281.66" rx="74.739" ry="8.824" transform="rotate(8.78 265.243 281.66)" fill="#E0E6EA"/><path d="M133.796 163.01c15.314 14.459 24.116-6.302 31.201-13.831 1.587-1.686 3.834-2.434 6.088-2.969l13.505-3.209-3.996-30.685-13.503 2.701c-7.152.335-50.244 31.991-33.295 47.993zm275.846-49.299c-15.314-14.46-24.117 6.302-31.201 13.83-1.587 1.687-3.834 2.435-6.088 2.97l-13.505 3.208 3.996 30.685 13.502-2.701c7.153-.334 50.244-31.99 33.296-47.992z" fill="#01C070"/><path d="M374.052 68.288c1.4-15.832-6.032-24.672-22.297-26.522L212.123 25.891c-16.185-1.84-25.373 5.11-27.563 20.853l-15.063 132.49c-1.409 15.911 5.979 24.786 22.165 26.627l139.632 15.875c16.264 1.849 25.496-5.137 27.695-20.958l15.063-132.49z" fill="#01C070"/><path d="M242.731 69.17c-5.384-.794-10.24.445-14.567 3.716-4.392 3.262-6.98 7.552-7.764 12.87-.794 5.383.446 10.237 3.718 14.563 3.198 4.382 7.49 6.969 12.874 7.763 5.384.795 10.24-.444 14.567-3.716 4.382-3.197 6.97-7.487 7.764-12.87.784-5.317-.455-10.172-3.718-14.563-3.199-4.381-7.49-6.969-12.874-7.763z" fill="#fff"/><path d="M241.583 76.953c-3.179-.47-6.075.296-8.69 2.296-2.67 1.926-4.24 4.477-4.708 7.655-.479 3.243.283 6.171 2.283 8.786 1.936 2.605 4.493 4.141 7.672 4.61 3.243.478 6.168-.25 8.773-2.185 2.605-1.935 4.147-4.524 4.625-7.766.469-3.178-.265-6.07-2.2-8.674-1.926-2.67-4.511-4.244-7.755-4.722z" fill="#3D465D"/><path d="M301.115 77.78c-5.384-.793-10.24.445-14.567 3.717-4.391 3.262-6.979 7.552-7.764 12.87-.794 5.383.446 10.237 3.718 14.563 3.199 4.381 7.49 6.969 12.874 7.763 5.384.794 10.24-.444 14.567-3.716 4.382-3.197 6.97-7.487 7.764-12.87.784-5.318-.455-10.172-3.718-14.563-3.198-4.381-7.49-6.969-12.874-7.763z" fill="#fff"/><path d="M299.967 85.563c-3.178-.469-6.075.297-8.69 2.297-2.67 1.925-4.24 4.477-4.708 7.655-.479 3.242.283 6.171 2.283 8.785 1.936 2.605 4.493 4.142 7.672 4.611 3.243.478 6.168-.25 8.773-2.185 2.605-1.935 4.147-4.524 4.625-7.767.469-3.178-.264-6.07-2.2-8.674-1.926-2.67-4.511-4.243-7.755-4.722zm-80.634-12.028c.32.975 1.013 1.674 2.077 2.096l36.069 15.656c.999.413 2.024.432 3.074.056.984-.385 1.688-1.11 2.11-2.174l3.148-7.189c.422-1.064.436-2.056.041-2.976-.44-1.059-1.16-1.794-2.16-2.207l-36.068-15.656c-1.065-.422-2.062-.404-2.991.055-1.04.31-1.771.998-2.193 2.063l-3.149 7.189c-.422 1.064-.408 2.093.042 3.087zm61.905-5.245c-1.085.17-1.96.704-2.622 1.6-.708.757-1.014 1.706-.917 2.847l.939 7.792c.097 1.14.593 2.042 1.49 2.705.832.652 1.79.893 2.876.722l39.038-4.48c1.141-.097 2.043-.594 2.706-1.49.643-.767.916-1.72.819-2.86l-.939-7.793c-.096-1.14-.561-2.037-1.392-2.69-.832-.653-1.818-.931-2.959-.834l-39.039 4.48zm3.119 55.028c-.822-.718-1.808-.996-2.959-.834-1.076.106-1.968.538-2.676 1.295-.625.637-1.471 1.208-2.54 1.713-2.62 1.137-5.552 1.467-8.796.989a21.533 21.533 0 01-4.126-1.007c-1.074-.357-2.109-.31-3.103.139-.975.32-1.674 1.012-2.096 2.077-.403.934-.347 1.903.168 2.907.404.855 1.171 1.498 2.3 1.93 1.695.647 3.612 1.129 5.753 1.444 4.995.737 9.481.206 13.458-1.593l-.112.083c2.407-1.037 4.253-2.322 5.54-3.855.653-.831.921-1.752.805-2.764-.171-1.085-.71-1.927-1.616-2.524z" fill="#3D465D"/><path d="M351.755 41.766c16.265 1.85 23.697 10.69 22.297 26.521l.942-8.288c1.885-16.576-5.503-25.81-22.162-27.705L213.2 16.42c-16.58-1.885-25.813 5.46-27.697 22.037l-.943 8.288c2.19-15.742 11.378-22.693 27.563-20.853l139.632 15.875z" fill="#25D28A"/><path d="M331.198 39.551c-8.431 12.229-21.146 15.198-26.449 15.153l7.141-17.348 19.308 2.195z" fill="#1DA16A"/><path d="M273.712 266.161l-.644-38.326-23.859-.887-4.168 36.664-45.51-5.174c-18.017-7.137-2.602-14.18 7.357-16.809l2.188-19.244c-33.041-6.383-40.534-28.081-39.954-39.854 62.411 40.122 152.332 31.08 189.492 21.544-10.623 22.797-32.873 25.839-42.67 24.511 0 0-4.137 23.989 5.9 28.655 12.609 9.66 6.133 13.72 1.318 14.542l-49.45-5.622z" fill="#009F5D"/><path d="M283.813 39.158c34.344-41.105 48.63.263 20.245 19.507-35.624 10.67-48.382-11.634-50.308-24.12 14.2-36.619 32.182-14.024 30.063 4.613z" fill="#01C070"/><path d="M27.236 219.761c11.364 17.234 24.421-.525 32.89-6.168 1.927-1.284 4.287-1.499 6.603-1.504l13.572-.028 3.083-30.237-13.517-.455c-6.914-1.29-55.234 19.28-42.631 38.392zm286.992.56c-10.061-18.026-24.393-1.279-33.255 3.723-2.017 1.138-4.386 1.178-6.696 1.012l-13.537-.973-5.308 29.925 13.446 1.453c6.8 1.796 56.508-15.149 45.35-35.14z" fill="#FCDA40"/><path d="M275.447 164.727c2.732-15.37-3.779-24.659-19.533-27.867l-135.252-27.547c-15.678-3.194-25.265 2.817-28.762 18.03L65.762 255.678c-2.748 15.446 3.717 24.765 19.395 27.958l135.252 27.547c15.754 3.209 25.388-2.832 28.9-18.122l26.138-128.334z" fill="#FCDA40"/><path d="M129.214 154.168c-5.431 3.592-8.785 8.523-10.061 14.792-1.293 6.346-.135 12.196 3.474 17.549 3.517 5.415 8.45 8.768 14.797 10.061 6.348 1.293 12.199.136 17.554-3.472 5.415-3.515 8.769-8.446 10.061-14.792 1.277-6.27.119-12.119-3.474-17.549-3.517-5.415-8.45-8.769-14.797-10.061-6.348-1.293-12.199-.136-17.554 3.472z" fill="#fff"/><path d="M146.928 185.452c2.328-1.675 3.792-3.986 4.393-6.933.588-2.889.138-5.559-1.35-8.011-1.476-2.511-3.576-4.044-6.302-4.599-2.671-.544-5.177.05-7.517 1.784-2.383 1.664-3.869 3.94-4.457 6.828-.6 2.948-.129 5.653 1.413 8.116 1.488 2.452 3.567 3.95 6.238 4.494 2.726.555 5.253-.004 7.582-1.679z" fill="#3D465D"/><path d="M198.045 168.187c-5.431 3.592-8.785 8.522-10.062 14.792-1.293 6.346-.134 12.196 3.475 17.549 3.517 5.415 8.449 8.768 14.797 10.061 6.347 1.293 12.198.136 17.553-3.472 5.415-3.516 8.769-8.446 10.062-14.792 1.277-6.27.118-12.12-3.475-17.55-3.517-5.414-8.449-8.768-14.797-10.061-6.348-1.292-12.199-.135-17.553 3.473z" fill="#fff"/><path d="M216.476 197.442c2.312-1.688 3.77-4.013 4.373-6.975.591-2.902.153-5.582-1.314-8.041-1.455-2.517-3.533-4.05-6.232-4.6-2.645-.539-5.13.066-7.454 1.813-2.366 1.677-3.844 3.967-4.435 6.87-.603 2.962-.144 5.677 1.377 8.146 1.467 2.458 3.523 3.956 6.169 4.495 2.699.55 5.205-.019 7.516-1.708z" fill="#3D465D"/><path d="M255.914 136.859c15.754 3.209 22.265 12.498 19.533 27.868l1.635-8.028c3.271-16.057-3.163-25.728-19.3-29.015l-135.251-27.546c-16.061-3.272-25.726 3.121-28.996 19.177l-1.635 8.028c3.497-15.213 13.084-21.224 28.762-18.031l135.252 27.547z" fill="#FFE677"/><ellipse cx="113.711" cy="207.665" rx="14.126" ry="12.289" transform="rotate(8.702 113.711 207.665)" fill="#FFE677"/><ellipse cx="217.612" cy="229.547" rx="14.126" ry="12.289" transform="rotate(8.702 217.612 229.547)" fill="#FFE677"/><path opacity=".9" d="M235.991 132.923c-9.301 11.24-21.997 13.05-27.182 12.551l8.48-16.36 18.702 3.809z" fill="#D0B126"/><path d="M160.247 349.695l2.668-37.554-23.267-2.921-7.233 35.514-44.083-8.978c-17.014-8.533-1.325-14.098 8.645-15.813l3.797-18.641c-31.779-9.088-37.243-30.962-35.663-42.43 57.612 44.625 146.37 43.516 183.548 37.383-12.355 21.39-34.386 22.453-43.858 20.31 0 0-6.111 23.115 3.307 28.544 11.505 10.536 4.82 13.951.039 14.342l-47.9-9.756z" fill="#EDC200"/><path d="M190.058 126.523c37.938-41.182 47.651 3.982 17.824 22.326-36.034 8.656-46.227-16.08-46.82-29.53 17.722-37.936 33.008-12.492 28.996 7.204z" fill="#FCDA40"/><ellipse cx="154.36" cy="381.816" rx="79.075" ry="8.824" fill="#E0E6EA"/><ellipse cx="165.413" cy="224.776" rx="14.183" ry="16.858" transform="rotate(15 165.413 224.776)" fill="#3D465D"/><path d="M68.218 64.358l3.043 4.972c.417.682 1.416 1.304 2.217 1.359l4.77.386c3.054.24 3.933 2.361 1.965 4.71l-3.352 3.982c-.56.667-.81 1.903-.537 2.732l1.433 4.448c1.128 3.513-.652 5.068-3.973 3.465l-4.64-2.24c-.844-.409-2.152-.286-2.905.25l-4.19 2.982c-3 2.132-5.022.906-4.505-2.744l.665-4.62c.124-.863-.317-2.041-.984-2.6l-4.002-3.358c-2.336-1.975-1.83-4.213 1.133-4.972l4.627-1.182c.78-.206 1.662-.97 1.95-1.719l2.157-5.425c1.18-2.924 3.484-3.117 5.128-.426z" fill="#F9B700"/><path d="M117.891 63.685l2.598 4.244c.356.582 1.208 1.113 1.892 1.16l4.071.329c2.606.206 3.356 2.016 1.677 4.02l-2.861 3.398c-.477.57-.692 1.625-.458 2.332l1.223 3.797c.963 2.998-.557 4.326-3.391 2.958l-3.96-1.912c-.721-.35-1.837-.244-2.48.212l-3.576 2.546c-2.56 1.82-4.286.773-3.845-2.342l.568-3.943c.106-.737-.271-1.742-.84-2.22l-3.416-2.865c-1.994-1.686-1.562-3.596.967-4.244l3.949-1.01c.666-.175 1.418-.826 1.664-1.466l1.841-4.63c1.008-2.496 2.974-2.66 4.377-.364z" fill="#FECA38"/><path d="M69.586 116.249l2.069 3.379c.284.464.962.887 1.507.924l3.242.263c2.076.163 2.673 1.605 1.336 3.202l-2.278 2.706c-.38.453-.552 1.294-.366 1.857l.974 3.024c.767 2.388-.443 3.445-2.7 2.355l-3.154-1.522c-.574-.278-1.463-.195-1.975.169l-2.848 2.028c-2.039 1.449-3.414.615-3.062-1.866l.452-3.14c.084-.587-.216-1.388-.67-1.768l-2.72-2.282c-1.588-1.343-1.244-2.864.77-3.38l3.145-.804c.531-.14 1.13-.658 1.326-1.168l1.466-3.688c.803-1.987 2.369-2.118 3.486-.289z" fill="#FFE980"/><path d="M98.715 112.998L278.2 152.682l-1.266 7.31-2.346 10.883-182.996-40.067.398-3.55a49.372 49.372 0 012.928-12.075l.765-2.83 3.033.645z" fill="#FF4362"/><path d="M2.61 200.897c-.993-3.802 1.876-7.517 5.806-7.517h72.572a6 6 0 015.811 4.507l14.432 56.15c.975 3.797-1.892 7.494-5.811 7.494H23.084a6 6 0 01-5.805-4.484L2.61 200.897z" fill="#4F4F4F"/><path d="M95.36 248.706h36.267a6.413 6.413 0 110 12.825H95.36v-12.825z" fill="#4F4F4F"/><ellipse cx="51.902" cy="227.456" rx="6.174" ry="8.061" transform="rotate(-13.998 51.902 227.456)" fill="#fff"/><path d="M384.649 97.583l5.76 3.986 1.977 3.424c4.114 7.125-10.469 17.776-18.275 22.211l-35.684 2.896-1.268-8.554c10.454-6.726 29.026-4.953 37.005-3.226 1.487-12.087 7.609-18.86 10.485-20.737z" fill="#fff"/><path d="M374.447 121.775l-40.096 5.609 11.962 48.122 40.573-6.572 2.235-1.077a19.988 19.988 0 006.998-5.602l11.633-14.69-13.407-49.103c-.24-.879-1.437-1.014-1.869-.212-4.963 9.211-13.953 23.969-18.029 23.525z" fill="#FF4362"/><path d="M375.76 127.156l-40.066 4.535 10.54 43.46 40.804-5.987-11.278-42.008z" fill="#D80041"/></svg>