<svg width="490" height="355" fill="none" xmlns="http://www.w3.org/2000/svg"><path d="M367.637 260.913v65.482m0 0l47.117 9.709m-47.117-9.709l-42.293 9.709" stroke="#000" stroke-width="6"/><rect x="274.936" y="109.876" width="210.512" height="166.45" rx="8" fill="#fff" stroke="#000" stroke-width="8"/><g clip-path="url(#clip0_590_510)" fill="#000"><path d="M324.156 166.923c-.877-.49-1.607-.98-2.192-1.471a6.596 6.596 0 01-1.424-1.641 6.371 6.371 0 01-.781-2.048c-.155-.762-.232-1.65-.232-2.665v-8.929c0-1.33.168-2.516.506-3.558.338-1.041.785-1.921 1.343-2.639.557-.717 1.196-1.265 1.917-1.641a4.825 4.825 0 012.26-.565h2.739c1.187 0 2.122.372 2.807 1.117.685.744 1.027 1.947 1.027 3.61v14.18c0 1.366.288 2.32.863 2.862.576.543 1.384.814 2.424.814h5.478c.603 0 1.114-.065 1.534-.197.42-.131.762-.341 1.027-.63.265-.289.452-.666.562-1.129.109-.464.164-1.038.164-1.72v-15.231c0-.717.064-1.313.192-1.785s.338-.849.63-1.129.685-.477 1.178-.591c.494-.114 1.105-.171 1.835-.171h5.479c.894 0 1.685.11 2.369.329a3.87 3.87 0 011.712 1.076c.457.499.804 1.147 1.041 1.944.237.797.357 1.781.357 2.954v14.705c0 .561.091.964.274 1.209.182.245.548.367 1.095.367.529 0 .89-.144 1.082-.433.192-.289.288-.67.288-1.142v-17.333c0-.717.063-1.313.192-1.785.128-.472.338-.849.63-1.129s.684-.477 1.177-.591c.493-.114 1.104-.171 1.835-.171h5.479c.894 0 1.684.11 2.369.329a3.87 3.87 0 011.712 1.076c.456.499.804 1.147 1.041 1.944.237.797.357 1.781.357 2.954v18.382h-4.931v-18.383c0-1.575-.279-2.669-.835-3.282-.557-.613-1.374-.919-2.452-.919h-2.739c-.366 0-.658.022-.877.065-.219.044-.383.123-.493.236-.109.114-.182.276-.219.486a4.58 4.58 0 00-.055.788v17.332c0 .735-.106 1.343-.316 1.825-.21.482-.479.858-.808 1.129-.328.272-.708.46-1.136.564a5.456 5.456 0 01-1.301.158h-2.74c-1.132 0-2.008-.298-2.629-.893-.622-.595-.932-1.523-.932-2.783v-14.706c0-1.575-.278-2.669-.835-3.282-.557-.613-1.374-.919-2.451-.919h-2.74a4.73 4.73 0 00-.876.065c-.22.044-.384.123-.493.236a.908.908 0 00-.219.486 4.684 4.684 0 00-.055.788v15.231c0 1.086-.1 2-.301 2.744-.201.744-.521 1.339-.959 1.785-.438.447-1.005.767-1.698.959-.694.193-1.534.289-2.52.289h-8.217c-1.808 0-3.173-.468-4.095-1.405-.923-.937-1.384-2.394-1.384-4.372v-14.18c0-.962-.155-1.641-.465-2.035-.311-.393-.704-.591-1.178-.591-.511 0-1 .136-1.465.407-.467.272-.873.674-1.22 1.208-.347.534-.625 1.195-.835 1.983-.21.787-.315 1.689-.315 2.704v8.928c0 .771.064 1.453.192 2.048.128.596.329 1.129.603 1.602.274.473.634.902 1.082 1.287.447.385 1 .761 1.657 1.129l-1.096 1.76zm66.264 0c-.877-.49-1.58-1.011-2.11-1.563a6.056 6.056 0 01-1.232-1.877c-.292-.7-.489-1.492-.589-2.376-.1-.884-.15-1.904-.15-3.059v-8.929c0-1.19.159-2.245.479-3.164.32-.92.74-1.69 1.261-2.311.52-.621 1.109-1.09 1.767-1.405.656-.315 1.314-.473 1.97-.473h2.74a4.5 4.5 0 011.52.25c.465.166.871.438 1.219.814.346.376.616.866.808 1.47.191.604.287 1.335.287 2.193v7.353c1.443 0 2.803.105 4.082.315 1.278.21 2.474.499 3.588.866v-5.908c0-1.348.182-2.49.548-3.426.365-.937.867-1.694 1.506-2.272a5.83 5.83 0 012.26-1.26 9.628 9.628 0 012.807-.394h7.122c1.041 0 2 .144 2.877.433a5.442 5.442 0 012.259 1.418c.63.656 1.119 1.518 1.466 2.586.346 1.068.52 2.39.52 3.965v12.605c0 .56.092.963.275 1.208.182.245.547.368 1.095.368.529 0 .89-.144 1.082-.433.192-.289.287-.67.287-1.143V151.22c0-1.47-.041-2.709-.123-3.715-.082-1.007-.228-1.865-.438-2.574-.21-.709-.489-1.308-.835-1.798a6.698 6.698 0 00-1.315-1.366h9.286c1.168 0 2.168.14 2.999.42.831.28 1.511.736 2.041 1.366.529.63.918 1.444 1.164 2.442.246.997.369 2.214.369 3.65v16.806h-4.93v-16.806c0-1.05-.087-1.944-.26-2.679-.174-.735-.443-1.334-.808-1.799a3.07 3.07 0 00-1.37-.998c-.548-.201-1.196-.302-1.945-.302h-2.356c.22.735.393 1.69.521 2.862.128 1.174.192 2.67.192 4.491v11.554c0 .735-.105 1.343-.315 1.825-.21.482-.48.858-.808 1.129a2.79 2.79 0 01-1.137.564 5.456 5.456 0 01-1.301.158h-2.739c-1.133 0-2.009-.298-2.63-.893s-.931-1.523-.931-2.783v-12.605c0-1.172-.128-2.162-.384-2.967-.255-.805-.607-1.457-1.054-1.956a3.752 3.752 0 00-1.575-1.064 5.787 5.787 0 00-1.917-.315h-4.383c-.749 0-1.425.092-2.027.276a3.816 3.816 0 00-1.548.892c-.429.412-.763.95-1 1.616-.238.665-.356 1.488-.356 2.468v6.775a15.721 15.721 0 012.78 1.655 12.535 12.535 0 012.068 1.93c.566.674.996 1.356 1.288 2.048.292.692.438 1.37.438 2.035 0 1.103-.402 1.948-1.205 2.534-.804.586-1.863.88-3.178.88-1.443 0-2.534-.355-3.273-1.064-.74-.709-1.11-1.93-1.11-3.663v-4.543c-1.004-.507-2.146-.928-3.424-1.26-1.278-.332-2.693-.499-4.245-.499v10.504h-4.931v-19.958c0-.542-.041-.985-.123-1.326-.082-.342-.197-.608-.343-.801a1.107 1.107 0 00-.52-.393 1.995 1.995 0 00-.658-.105c-.365 0-.744.11-1.136.328-.393.219-.749.547-1.069.985-.319.438-.58.985-.78 1.641-.202.657-.302 1.423-.302 2.298v8.928c0 .963.032 1.807.096 2.534.064.726.201 1.37.411 1.93.21.56.511 1.05.904 1.47.393.42.918.814 1.575 1.182l-1.094 1.759zm17.831-7.799v3.125c0 .7.146 1.225.439 1.576.292.35.694.525 1.205.525.42 0 .707-.092.863-.276.155-.184.233-.442.233-.774 0-.56-.233-1.217-.699-1.97-.466-.753-1.146-1.488-2.041-2.206z"/></g><path d="M322.675 245.706c-.882-.491-1.589-1.011-2.122-1.563a6.07 6.07 0 01-1.239-1.877c-.294-.701-.491-1.492-.592-2.377a27.264 27.264 0 01-.151-3.059v-5.252c0-2.048.206-3.772.62-5.173.413-1.4 1.005-2.534 1.777-3.4a6.653 6.653 0 012.782-1.878c1.083-.384 2.295-.577 3.636-.577h6.611v2.101a9.578 9.578 0 00-1.446 1.536c-.413.552-.758 1.239-1.033 2.062-.276.822-.482 1.829-.62 3.019-.138 1.191-.207 2.662-.207 4.411v4.202c0 1.874.395 3.217 1.184 4.031.79.814 2.048 1.221 3.774 1.221h9.09c1.726 0 2.984-.416 3.774-1.248.789-.831 1.184-2.166 1.184-4.004v-7.878c0-1.348-.157-2.49-.469-3.427-.312-.936-.794-1.694-1.445-2.272-.652-.577-1.479-.998-2.479-1.26-1.001-.263-2.199-.393-3.595-.393v-2.102h12.672c1.285 0 2.378.144 3.278.433.899.289 1.639.7 2.217 1.234a4.704 4.704 0 011.267 1.97c.266.779.4 1.667.4 2.665v18.382h-4.959v-18.382c0-1.225-.418-2.232-1.253-3.02-.836-.787-2.071-1.181-3.705-1.181h-2.204c.863.771 1.492 1.755 1.887 2.954.395 1.199.592 2.665.592 4.399v7.877c0 2.504-.611 4.355-1.831 5.555-1.222 1.199-2.999 1.798-5.33 1.798h-11.845c-2.332 0-4.109-.591-5.33-1.772-1.221-1.182-1.831-3.042-1.831-5.581v-4.201c0-1.488.055-2.81.165-3.965.11-1.156.293-2.18.551-3.072.257-.893.592-1.663 1.005-2.311a6.88 6.88 0 011.501-1.681h-1.57c-1.047 0-1.979.14-2.796.42-.817.28-1.51.761-2.08 1.445-.569.682-1.001 1.597-1.295 2.744-.293 1.146-.44 2.586-.44 4.319v5.252c0 .963.032 1.808.096 2.534.064.727.202 1.37.413 1.93.211.561.514 1.05.909 1.471.395.42.923.814 1.584 1.181l-1.102 1.76zm97.041-38.248c-.882-.49-1.617-.981-2.204-1.471a6.616 6.616 0 01-1.433-1.641 6.376 6.376 0 01-.785-2.048c-.157-.761-.234-1.65-.234-2.665v-9.979c0-1.19.16-2.245.482-3.164.321-.92.744-1.69 1.267-2.311.524-.621 1.116-1.09 1.777-1.405.661-.315 1.323-.473 1.983-.473h2.755c.551 0 1.06.083 1.528.25.469.166.877.438 1.226.814.349.376.62.866.813 1.47.192.604.289 1.335.289 2.193v14.18c0 1.366.289 2.32.868 2.862.579.543 1.391.814 2.437.814h4.573c-.936-.631-1.658-1.418-2.162-2.363-.506-.946-.758-2.083-.758-3.414v-5.777c0-1.435.285-2.818.854-4.149.569-1.33 1.419-2.508 2.548-3.532 1.13-1.024 2.534-1.838 4.215-2.442 1.68-.604 3.64-.906 5.881-.906 2.075 0 3.893.171 5.454.513 1.56.341 2.92.8 4.076 1.378 1.157.578 2.144 1.248 2.961 2.009.818.761 1.52 1.562 2.108 2.402-3.031 0-5.858.189-8.485.565-2.626.376-5.008.88-7.148 1.509-2.139.631-4.022 1.357-5.647 2.18-1.625.823-2.97 1.69-4.035 2.6 2.369.036 4.573.254 6.611.656 2.038.404 3.902.929 5.592 1.576 1.689.648 3.199 1.379 4.531 2.193 1.331.814 2.479 1.641 3.443 2.482.964.841 1.736 1.663 2.314 2.468.579.806.968 1.524 1.171 2.154h-4.959c-.22-.717-.666-1.453-1.336-2.206-.67-.752-1.506-1.479-2.506-2.179a25.553 25.553 0 00-3.375-1.97 33.485 33.485 0 00-3.911-1.615 29.979 29.979 0 00-4.132-1.089 21.729 21.729 0 00-4.022-.394v1.576c0 1.103.262 2.026.785 2.77.523.744 1.249 1.339 2.176 1.785.927.447 2.028.762 3.305.946 1.276.184 2.676.275 4.201.275v2.101h-17.079c-1.818 0-3.19-.468-4.117-1.405-.928-.936-1.392-2.394-1.392-4.372v-14.181c0-.542-.041-.985-.124-1.326-.082-.342-.197-.608-.344-.801a1.114 1.114 0 00-.523-.393 2.015 2.015 0 00-.662-.105c-.367 0-.748.11-1.143.328-.394.219-.753.547-1.074.985-.321.438-.583.984-.785 1.641-.202.656-.303 1.423-.303 2.298v9.978c0 .771.064 1.454.193 2.048.129.596.33 1.129.606 1.602.276.473.638.902 1.088 1.287.45.386 1.006.762 1.667 1.129l-1.1 1.759zm14.626-13.997a25.27 25.27 0 013.388-2.192 32.983 32.983 0 014.118-1.878 41.525 41.525 0 014.696-1.457 49.41 49.41 0 015.124-.985c-.771-.542-1.749-1.015-2.934-1.417-1.184-.403-2.676-.604-4.476-.604-1.415 0-2.713.219-3.897.656-1.185.438-2.213 1.042-3.085 1.812a8.777 8.777 0 00-2.08 2.718 8.349 8.349 0 00-.854 3.347zm-58.251-10.341c-1.341 0-2.452-.092-3.333-.276-.882-.183-1.617-.411-2.204-.682-.588-.271-1.074-.565-1.46-.88a30.718 30.718 0 00-1.13-.88 5.774 5.774 0 00-1.212-.683c-.441-.184-1.001-.275-1.68-.275v-2.101h15.977c1.377 0 2.552.201 3.525.604.973.403 1.768.985 2.383 1.746s1.07 1.694 1.364 2.796c.293 1.103.44 2.364.44 3.782 0 4.884-1.368 8.797-4.104 11.738l3.553 1.234c.348.123.657.224.923.302.266.079.51.118.73.118.624 0 1.056-.245 1.295-.735.238-.49.358-1.208.358-2.153V182.07c0-.858.083-1.584.248-2.18.165-.595.441-1.08.826-1.457.386-.376.895-.652 1.529-.827.634-.175 1.419-.263 2.355-.263h8.264c1.084 0 2.039.149 2.864.446.827.298 1.516.722 2.066 1.274a5.42 5.42 0 011.254 1.995c.284.779.427 1.642.427 2.587v18.382h-4.959v-18.382c0-1.505-.349-2.582-1.047-3.23-.698-.647-1.818-.971-3.36-.971h-5.509c-.57 0-1.033.044-1.392.131-.358.088-.638.236-.839.447-.203.21-.341.482-.413.814a5.8 5.8 0 00-.11 1.234v14.705c0 .963-.06 1.777-.179 2.442-.12.665-.303 1.208-.551 1.628-.248.42-.565.722-.951.906-.385.184-.835.276-1.35.276a6.65 6.65 0 01-1.473-.185 18.806 18.806 0 01-1.832-.525l-8.979-3.098c1.762-1.681 3.102-3.484 4.021-5.409.918-1.926 1.378-4.106 1.378-6.539 0-2.241-.45-3.939-1.35-5.094-.9-1.156-2.287-1.734-4.159-1.734H372.4c.348.421.803.788 1.363 1.103.56.315 1.336.472 2.328.472v2.102zm-62.063 17.594a23.526 23.526 0 012.727-2.259c.9-.63 1.809-1.146 2.727-1.549.918-.402 1.86-.7 2.823-.893.965-.192 1.97-.288 3.017-.288 1.542 0 3.03.219 4.462.656 1.432.438 2.859.919 4.283 1.444a73.534 73.534 0 004.324 1.445c1.46.438 2.979.656 4.559.656.954 0 1.753-.074 2.396-.223.643-.149 1.152-.403 1.528-.761.377-.359.643-.841.799-1.445.156-.604.234-1.369.234-2.298v-.446a127.428 127.428 0 01-4.544-.525c-1.433-.192-2.691-.472-3.774-.841-1.083-.367-1.942-.862-2.575-1.483-.634-.621-.951-1.448-.951-2.482 0-.613.106-1.151.317-1.615.211-.464.496-.849.854-1.156a3.514 3.514 0 011.24-.682c.468-.149.95-.224 1.445-.224.772 0 1.511.144 2.218.433a4.576 4.576 0 011.776 1.274l-1.515 1.444c-.441-.42-.858-.699-1.253-.84a3.28 3.28 0 00-1.088-.211c-.46 0-.827.141-1.102.421-.276.28-.413.665-.413 1.155 0 .561.243 1.021.73 1.379.486.358 1.152.652 1.997.88.845.228 1.837.411 2.975.551 1.139.141 2.36.28 3.664.421v-11.107c0-1.366.381-2.407 1.143-3.125s1.85-1.077 3.265-1.077h2.754c.679 0 1.322.131 1.928.394a4.336 4.336 0 011.584 1.181c.449.525.803 1.182 1.06 1.97s.386 1.706.386 2.757v11.108c1.065.35 2.075.766 3.03 1.247.954.482 1.827 1.05 2.617 1.707a10.905 10.905 0 012.052 2.258c.578.85 1.023 1.825 1.336 2.928l-2.287.578c-.147-.455-.367-.81-.661-1.064-.294-.253-.671-.38-1.13-.38-.293 0-.67.039-1.129.118-.46.078-.955.214-1.487.407l-.744-1.97a18.332 18.332 0 011.625-.486 12.08 12.08 0 011.46-.275 10.26 10.26 0 00-2.121-1.681 16.407 16.407 0 00-2.562-1.234v5.121h-4.958v-6.408a59.032 59.032 0 00-2.479-.367c-.827-.105-1.653-.202-2.479-.289v.236c0 1.383-.151 2.543-.454 3.479-.303.937-.817 1.694-1.543 2.272-.725.578-1.689.989-2.892 1.234-1.203.245-2.695.368-4.476.368-1.194 0-2.3-.079-3.319-.237a33.758 33.758 0 01-2.92-.577 42.177 42.177 0 01-2.713-.762 44.531 44.531 0 00-2.686-.761 34.007 34.007 0 00-2.837-.578 20.01 20.01 0 00-3.155-.236c-1.671 0-3.167.241-4.49.722-1.322.482-2.396 1.116-3.222 1.904l-1.376-1.313zm36.084-7.826c.826.088 1.647.185 2.465.289.817.105 1.648.228 2.493.368v-9.9c0-1.54-.234-2.626-.702-3.256-.469-.631-1.153-.946-2.052-.946-1.47 0-2.204.701-2.204 2.101v11.344zm24.785 50.06a23.501 23.501 0 012.728-2.258 15.755 15.755 0 012.727-1.549 13.69 13.69 0 012.823-.893 15.407 15.407 0 013.016-.289c1.543 0 3.031.219 4.463.657 1.432.438 2.859.919 4.283 1.444a72.793 72.793 0 004.324 1.444c1.46.439 2.979.657 4.559.657.954 0 1.753-.074 2.396-.224.643-.148 1.152-.402 1.528-.761.377-.359.643-.84.799-1.444.156-.604.234-1.37.234-2.298v-.446a129.507 129.507 0 01-4.544-.525c-1.433-.193-2.691-.473-3.774-.841-1.084-.367-1.942-.862-2.575-1.484-.634-.621-.951-1.448-.951-2.481 0-.613.105-1.152.317-1.616.211-.463.496-.848.854-1.155a3.536 3.536 0 011.239-.683 4.778 4.778 0 011.446-.223c.772 0 1.511.144 2.217.433a4.57 4.57 0 011.777 1.273l-1.515 1.445c-.441-.42-.858-.7-1.253-.841a3.303 3.303 0 00-1.088-.21c-.46 0-.827.14-1.102.42-.276.28-.413.666-.413 1.156 0 .561.243 1.02.73 1.378.486.359 1.152.653 1.997.88.845.228 1.836.412 2.975.552 1.138.14 2.36.28 3.664.42v-11.107c0-1.365.381-2.407 1.143-3.125s1.85-1.076 3.264-1.076h2.755c.679 0 1.322.131 1.928.393a4.338 4.338 0 011.584 1.182c.449.525.803 1.181 1.06 1.969s.386 1.707.386 2.758v11.107c1.065.351 2.075.766 3.03 1.248.954.482 1.827 1.05 2.617 1.706.789.657 1.473 1.41 2.052 2.259.578.849 1.023 1.825 1.336 2.928l-2.287.578c-.147-.456-.367-.811-.661-1.064-.294-.254-.671-.381-1.13-.381-.293 0-.67.04-1.129.118-.46.079-.955.214-1.487.407l-.744-1.969c.55-.193 1.092-.355 1.625-.486a12.08 12.08 0 011.46-.275 10.206 10.206 0 00-2.122-1.681 16.264 16.264 0 00-2.561-1.234v5.12h-4.958v-6.407a60.737 60.737 0 00-2.479-.368c-.827-.105-1.653-.201-2.479-.289v.236c0 1.384-.151 2.543-.454 3.48-.303.936-.817 1.694-1.543 2.271-.726.578-1.689.99-2.892 1.235-1.203.245-2.695.367-4.476.367a21.85 21.85 0 01-3.32-.236 33.804 33.804 0 01-2.919-.578 41.54 41.54 0 01-2.713-.761 44.531 44.531 0 00-2.686-.761 33.24 33.24 0 00-2.838-.578 19.997 19.997 0 00-3.154-.236c-1.671 0-3.167.24-4.49.722-1.322.482-2.396 1.116-3.223 1.904l-1.376-1.314zm36.085-7.825c.826.088 1.647.184 2.465.289.817.105 1.648.228 2.493.368v-9.9c0-1.541-.234-2.626-.703-3.257-.468-.63-1.152-.945-2.052-.945-1.469 0-2.203.7-2.203 2.101v11.344z" fill="#000"/><ellipse cx="155.295" cy="341.321" rx="84.3" ry="13.403" fill="#E0E6EA"/><path d="M13.72 251.924c17.418 12.99 23.997-9.364 30.393-17.778 1.395-1.834 3.536-2.817 5.706-3.596l13.56-4.868-7.66-30.769-13.505 4.312c-7.282 1.168-47.703 38.373-28.494 52.699zm290.194-54.527c-6.758-20.577-25.046-6.042-35.142-2.801-2.205.707-4.531.289-6.764-.314l-13.904-3.755-11.494 29.565 13.547 4.182c6.636 3.201 61.213-4.181 53.757-26.877z" fill="#7288EA"/><path d="M248.603 127.715c-.409-16.276-9.045-24.413-25.907-24.413H77.933c-16.78 0-25.375 8.137-25.785 24.413v136.59c.41 16.357 9.005 24.536 25.785 24.536h144.763c16.862 0 25.498-8.179 25.907-24.536v-136.59z" fill="#779BEB"/><path d="M96.111 147.361c-4.83 4.801-7.244 10.538-7.244 17.211 0 6.754 2.414 12.491 7.244 17.211 4.748 4.801 10.518 7.202 17.313 7.202 6.794 0 12.564-2.401 17.312-7.202 4.83-4.72 7.244-10.457 7.244-17.211 0-6.673-2.414-12.41-7.244-17.211-4.748-4.801-10.518-7.202-17.312-7.202-6.795 0-12.565 2.401-17.313 7.202z" fill="#fff"/><path d="M125.594 171.968c2.042-2.031 3.063-4.496 3.063-7.396 0-2.843-1.021-5.279-3.063-7.309-2.043-2.088-4.523-3.133-7.44-3.133-2.859 0-5.31 1.045-7.352 3.133-2.101 2.03-3.151 4.466-3.151 7.309 0 2.9 1.05 5.365 3.151 7.396 2.042 2.03 4.493 3.045 7.352 3.045 2.917 0 5.397-1.015 7.44-3.045z" fill="#3D465D"/><path d="M169.782 147.361c-4.83 4.801-7.245 10.538-7.245 17.211 0 6.754 2.415 12.491 7.245 17.211 4.747 4.801 10.518 7.202 17.312 7.202 6.794 0 12.565-2.401 17.313-7.202 4.829-4.72 7.244-10.457 7.244-17.211 0-6.673-2.415-12.41-7.244-17.211-4.748-4.801-10.519-7.202-17.313-7.202-6.794 0-12.565 2.401-17.312 7.202z" fill="#fff"/><path d="M201.29 171.896c2.023-2.01 3.034-4.452 3.034-7.324 0-2.815-1.011-5.227-3.034-7.238-2.022-2.068-4.478-3.102-7.367-3.102-2.831 0-5.258 1.034-7.281 3.102-2.08 2.011-3.12 4.423-3.12 7.238 0 2.872 1.04 5.314 3.12 7.324 2.023 2.011 4.45 3.016 7.281 3.016 2.889 0 5.345-1.005 7.367-3.016zm-30.777 42.783v-.122a84.45 84.45 0 002.824-2.197c.982-.895 1.514-1.994 1.596-3.296.082-1.383-.328-2.563-1.228-3.539-.9-1.058-2.006-1.628-3.315-1.709-1.392-.082-2.579.325-3.561 1.22-.655.57-1.351 1.14-2.087 1.709h-.123c-3.929 2.93-8.677 4.395-14.243 4.395-5.73 0-10.6-1.465-14.611-4.395a20.122 20.122 0 01-1.351-1.22c-.9-1.058-2.006-1.628-3.315-1.709-1.392-.082-2.579.325-3.561 1.22-1.064.895-1.637 2.035-1.719 3.418-.082 1.302.327 2.482 1.228 3.54.737.814 1.637 1.627 2.701 2.441.082 0 .123.041.123.122 5.648 4.232 12.483 6.348 20.505 6.348 7.858 0 14.57-2.075 20.137-6.226z" fill="#3D465D"/><path d="M222.696 103.301c16.862 0 25.498 8.138 25.907 24.413v-8.544c0-17.089-8.636-25.634-25.907-25.634H77.933c-17.19 0-25.785 8.545-25.785 25.634v8.544c.41-16.275 9.005-24.413 25.785-24.413h144.763z" fill="url(#paint0_linear_590_510)"/><ellipse cx="13.093" cy="12.817" rx="13.093" ry="12.817" transform="rotate(-2.794 3990.002 -1548.556) skewX(.031)" fill="#93C0F0"/><ellipse cx="12.269" cy="12.817" rx="12.269" ry="12.817" transform="rotate(-2.794 4067.328 -3712.915) skewX(.031)" fill="#93C0F0"/><path d="M201.397 103.426c-7.206 13.422-19.874 17.915-25.307 18.483l5.29-18.483h20.017z" fill="#668CDF"/><path d="M168.93 340.72l-5.119-38.934-24.523 1.858v37.799H92.105c-19.27-5.179-4.313-14.131 5.575-17.96v-19.839c-34.56-2.673-44.755-23.89-45.532-35.939 68.548 33.613 159.532 14.005 196.455 0-8.22 24.431-30.638 30.102-40.82 29.884 0 0-1.443 24.894 9.373 28.482 14.029 8.373 7.873 13.254 3.041 14.649H168.93z" fill="#4D63C8"/><path d="M152.853 108.509c30.368-45.81 49.804-5.36 22.99 17.512-35.219 14.982-50.873-6.243-54.297-18.728 10.273-38.914 31.307-17.997 31.307 1.216z" fill="#779BEB"/><rect width="8.762" height="99.92" rx="4.381" transform="matrix(.844 .53636 -.5394 .84205 322.082 143.804)" fill="#000"/><path d="M30.509 53.782l3.549 5.797c.486.795 1.65 1.52 2.584 1.584l5.561.45c3.56.28 4.585 2.753 2.292 5.492l-3.909 4.641c-.652.778-.945 2.22-.626 3.186l1.67 5.186c1.316 4.095-.76 5.909-4.632 4.04l-5.408-2.611c-.985-.477-2.51-.334-3.388.29l-4.884 3.477c-3.497 2.486-5.856 1.056-5.253-3.2l.775-5.385c.145-1.007-.37-2.38-1.147-3.032l-4.666-3.914c-2.724-2.303-2.134-4.912 1.32-5.798l5.395-1.378c.91-.24 1.938-1.13 2.274-2.003l2.515-6.326c1.377-3.409 4.062-3.633 5.978-.496z" fill="#F9B700"/><path d="M88.422 52.998l3.029 4.947c.415.679 1.408 1.298 2.205 1.352l4.747.384c3.039.24 3.913 2.35 1.956 4.688l-3.336 3.961c-.557.664-.807 1.894-.535 2.72l1.426 4.426c1.123 3.495-.649 5.042-3.953 3.448l-4.616-2.229c-.841-.407-2.143-.285-2.892.248l-4.17 2.968c-2.984 2.121-4.997.9-4.482-2.731l.662-4.597c.123-.86-.316-2.031-.98-2.588l-3.982-3.34c-2.325-1.966-1.822-4.193 1.127-4.949l4.604-1.176c.777-.205 1.654-.964 1.94-1.71l2.147-5.399c1.175-2.91 3.467-3.1 5.103-.423zm77.535-5.361l1.835 2.998c.252.412.854.786 1.337.82l2.876.232c1.842.145 2.371 1.424 1.185 2.84l-2.021 2.401c-.337.403-.489 1.148-.324 1.648l.864 2.682c.68 2.118-.393 3.056-2.396 2.09l-2.797-1.35c-.509-.248-1.298-.174-1.752.149l-2.526 1.799c-1.809 1.285-3.029.546-2.717-1.655l.401-2.786c.075-.52-.191-1.23-.593-1.568l-2.414-2.024c-1.408-1.191-1.103-2.54.683-2.999l2.79-.713c.471-.124 1.002-.584 1.176-1.036l1.301-3.271c.712-1.763 2.101-1.88 3.092-.257z" fill="#FECA38"/><path d="M32.105 114.28l2.412 3.94c.33.541 1.122 1.034 1.757 1.077l3.78.306c2.42.191 3.116 1.872 1.558 3.734l-2.657 3.154c-.444.529-.643 1.509-.426 2.166l1.136 3.525c.894 2.784-.517 4.016-3.149 2.746l-3.676-1.775c-.67-.324-1.707-.227-2.303.197l-3.32 2.364c-2.378 1.69-3.98.718-3.57-2.175l.526-3.661c.098-.684-.251-1.617-.78-2.061l-3.172-2.66c-1.851-1.566-1.45-3.339.898-3.941l3.667-.937c.618-.163 1.317-.768 1.545-1.362l1.71-4.3c.936-2.317 2.761-2.469 4.064-.337z" fill="#FFE980"/><rect x="83.767" y="156.13" width="59.313" height="30.855" rx="6" stroke="#000" stroke-width="4"/><rect x="158.346" y="156.13" width="59.313" height="30.855" rx="6" stroke="#000" stroke-width="4"/><rect x="247.496" y=".512" width="133.063" height="45.493" rx="22.747" fill="#FFF2B7" stroke="#F9B700"/><path d="M286.538 32.75c-1.278 0-2.448-.234-3.51-.702a8.058 8.058 0 01-2.7-1.97 7.567 7.567 0 01-1.593-2.782l2.295-.945c.486 1.296 1.206 2.295 2.16 2.997.972.684 2.106 1.026 3.402 1.026.792 0 1.485-.126 2.079-.378.594-.252 1.053-.603 1.377-1.053a2.674 2.674 0 00.513-1.62c0-.846-.243-1.512-.729-1.998-.468-.504-1.161-.882-2.079-1.134l-3.699-1.134c-1.458-.45-2.574-1.16-3.348-2.133-.774-.972-1.161-2.088-1.161-3.348 0-1.098.261-2.06.783-2.889a5.47 5.47 0 012.214-1.97c.954-.487 2.034-.73 3.24-.73 1.206 0 2.295.216 3.267.648.99.432 1.827 1.017 2.511 1.755a6.793 6.793 0 011.512 2.484l-2.268.945c-.432-1.134-1.08-1.989-1.944-2.565-.864-.594-1.881-.89-3.051-.89-.72 0-1.359.125-1.917.377-.54.234-.963.585-1.269 1.053-.288.45-.432.99-.432 1.62 0 .738.234 1.395.702 1.971.468.576 1.179 1.017 2.133 1.323l3.375 1c1.584.485 2.781 1.178 3.591 2.078.81.9 1.215 2.016 1.215 3.348 0 1.098-.288 2.07-.864 2.916-.558.846-1.341 1.512-2.349 1.998-.99.468-2.142.702-3.456.702zm10.247-.324V17.873h2.511v14.553h-2.511zm0-16.875v-3.24h2.511v3.24h-2.511zm6.407 16.875V17.873h2.457v2.835l-.405-.243c.36-.918.936-1.629 1.728-2.133.81-.522 1.755-.783 2.835-.783 1.044 0 1.971.234 2.781.702a5.044 5.044 0 011.944 1.944c.486.828.729 1.764.729 2.808v9.423h-2.538v-8.613c0-.81-.144-1.494-.432-2.052a3.081 3.081 0 00-1.242-1.296c-.522-.324-1.125-.486-1.809-.486-.684 0-1.296.162-1.836.486a3.27 3.27 0 00-1.242 1.323c-.306.558-.459 1.233-.459 2.025v8.613h-2.511zm19.928.324c-.954 0-1.8-.17-2.538-.513-.72-.36-1.287-.846-1.701-1.458-.414-.63-.621-1.35-.621-2.16 0-.774.162-1.467.486-2.079.342-.63.864-1.16 1.566-1.593.72-.432 1.62-.738 2.7-.918l5.4-.89v2.105l-4.833.81c-.936.162-1.62.46-2.052.891-.414.432-.621.963-.621 1.593 0 .594.234 1.09.702 1.485.486.396 1.089.594 1.809.594.918 0 1.71-.189 2.376-.567a4.23 4.23 0 001.593-1.593 4.25 4.25 0 00.594-2.214v-3.699c0-.792-.297-1.43-.891-1.917-.576-.504-1.341-.756-2.295-.756-.828 0-1.566.216-2.214.648a3.753 3.753 0 00-1.404 1.674l-2.187-1.134c.27-.666.702-1.26 1.296-1.782a6.584 6.584 0 012.079-1.269 6.833 6.833 0 012.484-.459c1.116 0 2.097.216 2.943.648.846.414 1.503 1 1.971 1.755.486.738.729 1.602.729 2.592v9.882h-2.457v-2.754l.459.162a4.989 4.989 0 01-1.242 1.512 6.062 6.062 0 01-1.836 1.026 6.746 6.746 0 01-2.295.378zm18.176 0c-1.404 0-2.673-.324-3.807-.972a7.404 7.404 0 01-2.7-2.727c-.666-1.152-.999-2.457-.999-3.915 0-1.458.324-2.754.972-3.888a7.467 7.467 0 012.7-2.7c1.134-.666 2.412-.999 3.834-.999 1.404 0 2.673.333 3.807 1a7.06 7.06 0 012.673 2.672c.666 1.134.999 2.44.999 3.915 0 1.476-.342 2.79-1.026 3.942a7.683 7.683 0 01-2.727 2.7c-1.116.648-2.358.972-3.726.972zm0-2.43c.9 0 1.71-.225 2.43-.675a4.666 4.666 0 001.728-1.863c.432-.792.648-1.674.648-2.646 0-.99-.216-1.863-.648-2.619a4.712 4.712 0 00-1.728-1.836c-.72-.468-1.53-.702-2.43-.702-.918 0-1.746.234-2.484.702a4.988 4.988 0 00-1.728 1.836c-.432.756-.648 1.63-.648 2.62 0 .971.216 1.853.648 2.645.432.792 1.008 1.413 1.728 1.863.738.45 1.566.675 2.484.675z" fill="#000"/><circle cx="249.086" cy="77.003" r="6.459" fill="#FFF2B7"/><circle cx="258.172" cy="56.431" r="9.087" fill="#FFF2B7"/><circle cx="241.41" cy="89.921" r="3.463" fill="#FFF2B7"/><defs><linearGradient id="paint0_linear_590_510" x1="149.762" y1="92.926" x2="149.762" y2="199.122" gradientUnits="userSpaceOnUse"><stop stop-color="#95C2F0"/><stop offset="1" stop-color="#6B8EE9"/></linearGradient><clipPath id="clip0_590_510"><path fill="#fff" transform="translate(318.571 140.496)" d="M0 0h124.395v27.936H0z"/></clipPath></defs></svg>