<svg viewBox="0 0 517 164" fill="none" xmlns="http://www.w3.org/2000/svg">
<rect x="0.307129" y="0.224121" width="120" height="163" rx="18" fill="white"/>
<path d="M43.3152 77.2241C41.2948 76.9829 39.6965 76.3195 38.5205 75.2339C37.3746 74.1483 36.8016 72.5501 36.8016 70.4392V59.6738C36.8016 54.9093 39.2141 52.527 44.0389 52.527C48.8034 52.527 51.1857 54.8339 51.1857 59.4476V71.2986C51.1857 73.1984 52.0752 74.1483 53.8544 74.1483H57.5635C59.3426 74.1483 60.2322 73.1984 60.2322 71.2986V59.6738C60.2322 57.3519 60.775 55.5878 61.8606 54.3816C62.9763 53.1452 64.7253 52.527 67.1076 52.527C68.344 52.527 69.4597 52.7833 70.4548 53.296C71.4499 53.7785 72.234 54.472 72.8069 55.3767C73.9528 53.4769 75.732 52.527 78.1444 52.527C82.7883 52.527 85.1102 54.8339 85.1102 59.4476V77.2241H81.175V59.4024C81.175 57.1106 80.0894 55.9647 77.9182 55.9647C75.7169 55.9647 74.6162 57.1558 74.6162 59.5381V77.2241H70.681V59.4024C70.681 58.347 70.3945 57.5177 69.8216 56.9146C69.2486 56.2813 68.4495 55.9647 67.4242 55.9647C65.2531 55.9647 64.1675 57.1558 64.1675 59.5381V71.2082C64.1675 75.2188 62.0415 77.2241 57.7896 77.2241H53.6282C49.4065 77.2241 47.2956 75.2188 47.2956 71.2082V59.4024C47.2956 57.1106 46.2101 55.9647 44.0389 55.9647C41.8376 55.9647 40.7369 57.1558 40.7369 59.5381V70.2583C40.7369 72.4898 41.8677 73.7864 44.1293 74.1483L43.3152 77.2241Z" fill="#FFA96A"/>
<path d="M46.4051 126.224V108.344H49.2371V116.216H57.5171V108.344H60.3251V126.224H57.5171V118.736H49.2371V126.224H46.4051ZM67.6541 126.512C66.7741 126.512 65.9981 126.36 65.3261 126.056C64.6701 125.736 64.1581 125.304 63.7901 124.76C63.4221 124.2 63.2381 123.544 63.2381 122.792C63.2381 122.088 63.3901 121.456 63.6941 120.896C64.0141 120.336 64.5021 119.864 65.1581 119.48C65.8141 119.096 66.6381 118.824 67.6301 118.664L72.1421 117.92V120.056L68.1581 120.752C67.4381 120.88 66.9101 121.112 66.5741 121.448C66.2381 121.768 66.0701 122.184 66.0701 122.696C66.0701 123.192 66.2541 123.6 66.6221 123.92C67.0061 124.224 67.4941 124.376 68.0861 124.376C68.8221 124.376 69.4621 124.216 70.0061 123.896C70.5661 123.576 70.9981 123.152 71.3021 122.624C71.6061 122.08 71.7581 121.48 71.7581 120.824V117.488C71.7581 116.848 71.5181 116.328 71.0381 115.928C70.5741 115.512 69.9501 115.304 69.1661 115.304C68.4461 115.304 67.8141 115.496 67.2701 115.88C66.7421 116.248 66.3501 116.728 66.0941 117.32L63.8381 116.192C64.0781 115.552 64.4701 114.992 65.0141 114.512C65.5581 114.016 66.1901 113.632 66.9101 113.36C67.6461 113.088 68.4221 112.952 69.2381 112.952C70.2621 112.952 71.1661 113.144 71.9501 113.528C72.7501 113.912 73.3661 114.448 73.7981 115.136C74.2461 115.808 74.4701 116.592 74.4701 117.488V126.224H71.8781V123.872L72.4301 123.944C72.1261 124.472 71.7341 124.928 71.2541 125.312C70.7901 125.696 70.2541 125.992 69.6461 126.2C69.0541 126.408 68.3901 126.512 67.6541 126.512Z" fill="black"/>
<rect x="132.307" y="0.224121" width="120" height="163" rx="18" fill="white"/>
<path d="M179.975 77.2241C177.955 76.9829 176.357 76.3195 175.181 75.2339C174.035 74.1483 173.462 72.5501 173.462 70.4392V59.6738C173.462 54.9093 175.874 52.527 180.699 52.527C185.464 52.527 187.846 54.8339 187.846 59.4476V65.5993H192.324V62.7044C192.324 59.3873 193.168 56.8694 194.857 55.1505C196.546 53.4015 199.064 52.527 202.411 52.527C209.105 52.527 212.453 55.7838 212.453 62.2973V77.2241H208.562V62.2521C208.562 58.0605 206.512 55.9647 202.411 55.9647C198.31 55.9647 196.259 58.1057 196.259 62.3878V65.5993C198.31 65.6295 199.953 66.2175 201.19 67.3634C202.456 68.5093 203.089 70.017 203.089 71.8867C203.089 73.0627 202.863 74.0578 202.411 74.872C201.989 75.6561 201.386 76.2441 200.602 76.6361C199.817 77.0281 198.883 77.2241 197.797 77.2241C196.048 77.2241 194.691 76.8019 193.726 75.9576C192.791 75.0831 192.324 73.7714 192.324 72.0224V68.9918H187.846V77.2241H183.956V59.4024C183.956 57.1106 182.87 55.9647 180.699 55.9647C178.498 55.9647 177.397 57.1558 177.397 59.5381V70.2583C177.397 72.4898 178.528 73.7864 180.79 74.1483L179.975 77.2241ZM197.978 74.0126C198.641 74.0126 199.079 73.8317 199.29 73.4698C199.531 73.0778 199.652 72.5651 199.652 71.9319C199.652 70.9669 199.335 70.2432 198.702 69.7607C198.099 69.2481 197.284 68.9918 196.259 68.9918V71.9771C196.259 73.3341 196.832 74.0126 197.978 74.0126Z" fill="#FFA96A"/>
<path d="M178.347 126.224V108.344H180.627L190.659 122.192L189.579 122.36V108.344H192.387V126.224H190.107L180.147 112.28L181.179 112.088V126.224H178.347ZM199.713 126.512C198.833 126.512 198.057 126.36 197.385 126.056C196.729 125.736 196.217 125.304 195.849 124.76C195.481 124.2 195.297 123.544 195.297 122.792C195.297 122.088 195.449 121.456 195.753 120.896C196.073 120.336 196.561 119.864 197.217 119.48C197.873 119.096 198.697 118.824 199.689 118.664L204.201 117.92V120.056L200.217 120.752C199.497 120.88 198.969 121.112 198.633 121.448C198.297 121.768 198.129 122.184 198.129 122.696C198.129 123.192 198.313 123.6 198.681 123.92C199.065 124.224 199.553 124.376 200.145 124.376C200.881 124.376 201.521 124.216 202.065 123.896C202.625 123.576 203.057 123.152 203.361 122.624C203.665 122.08 203.817 121.48 203.817 120.824V117.488C203.817 116.848 203.577 116.328 203.097 115.928C202.633 115.512 202.009 115.304 201.225 115.304C200.505 115.304 199.873 115.496 199.329 115.88C198.801 116.248 198.409 116.728 198.153 117.32L195.897 116.192C196.137 115.552 196.529 114.992 197.073 114.512C197.617 114.016 198.249 113.632 198.969 113.36C199.705 113.088 200.481 112.952 201.297 112.952C202.321 112.952 203.225 113.144 204.009 113.528C204.809 113.912 205.425 114.448 205.857 115.136C206.305 115.808 206.529 116.592 206.529 117.488V126.224H203.937V123.872L204.489 123.944C204.185 124.472 203.793 124.928 203.313 125.312C202.849 125.696 202.313 125.992 201.705 126.2C201.113 126.408 200.449 126.512 199.713 126.512Z" fill="black"/>
<rect x="264.307" y="0.224121" width="120" height="163" rx="18" fill="white"/>
<path d="M312.261 77.2241C310.24 76.9829 308.642 76.3195 307.466 75.2339C306.32 74.1483 305.747 72.5501 305.747 70.4392V61.4379C305.747 55.4973 308.959 52.527 315.382 52.527C321.805 52.527 325.016 55.5727 325.016 61.664V67.2729L331.439 72.2033C332.193 72.7762 332.932 73.0627 333.656 73.0627C334.44 73.0627 334.832 72.4596 334.832 71.2534V63.4281C334.832 58.4525 332.691 55.829 328.409 55.5576V52.527H339.943C344.768 52.527 347.18 54.9093 347.18 59.6738V77.2241H343.245V59.5381C343.245 57.1558 342.144 55.9647 339.943 55.9647H335.013C337.516 56.6884 338.767 58.935 338.767 62.7044V71.6153C338.767 75.3545 337.41 77.2241 334.696 77.2241C333.731 77.2241 332.766 77.013 331.801 76.5909C330.866 76.1687 329.871 75.5505 328.816 74.7363L325.016 71.751C325.016 73.4396 324.519 74.7816 323.524 75.7767C322.559 76.7416 321.232 77.2241 319.543 77.2241C317.885 77.2241 316.588 76.7567 315.653 75.8219C314.718 74.8569 314.251 73.5452 314.251 71.8867C314.251 70.2583 314.718 68.9616 315.653 67.9966C316.588 67.0317 317.885 66.5492 319.543 66.5492C320.026 66.5492 320.538 66.5944 321.081 66.6849V61.5283C321.081 57.8193 319.181 55.9647 315.382 55.9647C311.582 55.9647 309.682 57.774 309.682 61.3926V70.2583C309.682 72.4898 310.813 73.7864 313.075 74.1483L312.261 77.2241ZM319.362 74.2388C320.508 74.2388 321.081 73.4849 321.081 71.9771V69.8964C320.87 69.8361 320.644 69.7909 320.403 69.7607C320.191 69.7004 319.995 69.6702 319.814 69.6702C318.397 69.6702 317.689 70.4241 317.689 71.9319V72.1581C317.689 73.5452 318.246 74.2388 319.362 74.2388Z" fill="#FFA96A"/>
<path d="M319.835 126.512C318.571 126.512 317.395 126.28 316.307 125.816C315.235 125.352 314.299 124.712 313.499 123.896C312.715 123.064 312.099 122.088 311.651 120.968C311.203 119.848 310.979 118.616 310.979 117.272C310.979 115.944 311.195 114.72 311.627 113.6C312.075 112.464 312.699 111.488 313.499 110.672C314.299 109.84 315.235 109.2 316.307 108.752C317.379 108.288 318.555 108.056 319.835 108.056C321.099 108.056 322.227 108.272 323.219 108.704C324.227 109.136 325.075 109.704 325.763 110.408C326.451 111.096 326.947 111.848 327.251 112.664L324.707 113.864C324.323 112.904 323.707 112.128 322.859 111.536C322.027 110.928 321.019 110.624 319.835 110.624C318.651 110.624 317.603 110.904 316.691 111.464C315.779 112.024 315.067 112.8 314.555 113.792C314.059 114.784 313.811 115.944 313.811 117.272C313.811 118.6 314.059 119.768 314.555 120.776C315.067 121.768 315.779 122.544 316.691 123.104C317.603 123.648 318.651 123.92 319.835 123.92C321.019 123.92 322.027 123.624 322.859 123.032C323.707 122.44 324.323 121.664 324.707 120.704L327.251 121.904C326.947 122.704 326.451 123.456 325.763 124.16C325.075 124.864 324.227 125.432 323.219 125.864C322.227 126.296 321.099 126.512 319.835 126.512ZM333.553 126.512C332.673 126.512 331.897 126.36 331.225 126.056C330.569 125.736 330.057 125.304 329.689 124.76C329.321 124.2 329.137 123.544 329.137 122.792C329.137 122.088 329.289 121.456 329.593 120.896C329.913 120.336 330.401 119.864 331.057 119.48C331.713 119.096 332.537 118.824 333.529 118.664L338.041 117.92V120.056L334.057 120.752C333.337 120.88 332.809 121.112 332.473 121.448C332.137 121.768 331.969 122.184 331.969 122.696C331.969 123.192 332.153 123.6 332.521 123.92C332.905 124.224 333.393 124.376 333.985 124.376C334.721 124.376 335.361 124.216 335.905 123.896C336.465 123.576 336.897 123.152 337.201 122.624C337.505 122.08 337.657 121.48 337.657 120.824V117.488C337.657 116.848 337.417 116.328 336.937 115.928C336.473 115.512 335.849 115.304 335.065 115.304C334.345 115.304 333.713 115.496 333.169 115.88C332.641 116.248 332.249 116.728 331.993 117.32L329.737 116.192C329.977 115.552 330.369 114.992 330.913 114.512C331.457 114.016 332.089 113.632 332.809 113.36C333.545 113.088 334.321 112.952 335.137 112.952C336.161 112.952 337.065 113.144 337.849 113.528C338.649 113.912 339.265 114.448 339.697 115.136C340.145 115.808 340.369 116.592 340.369 117.488V126.224H337.777V123.872L338.329 123.944C338.025 124.472 337.633 124.928 337.153 125.312C336.689 125.696 336.153 125.992 335.545 126.2C334.953 126.408 334.289 126.512 333.553 126.512Z" fill="black"/>
<rect x="396.307" y="0.224121" width="120" height="163" rx="18" fill="white"/>
<path d="M438.741 77.2241C436.721 76.9829 435.122 76.3195 433.946 75.2339C432.8 74.1483 432.227 72.5501 432.227 70.4392V59.6738C432.227 54.9093 434.64 52.527 439.465 52.527C444.229 52.527 446.611 54.8339 446.611 59.4476V65.5993H451.089V62.5235C451.089 55.8592 454.452 52.527 461.176 52.527C465.097 52.527 467.871 53.6428 469.499 55.8743C470.736 53.6428 472.56 52.527 474.972 52.527C479.465 52.527 481.712 54.8339 481.712 59.4476V77.2241H477.777V59.4024C477.777 57.1106 476.691 55.9647 474.52 55.9647C472.319 55.9647 471.218 57.1558 471.218 59.5381V77.2241H467.328V62.2521C467.328 58.0605 465.277 55.9647 461.176 55.9647C457.075 55.9647 455.025 58.1057 455.025 62.3878V65.5993C457.075 65.6295 458.719 66.2175 459.955 67.3634C461.222 68.5093 461.855 70.017 461.855 71.8867C461.855 73.0627 461.629 74.0578 461.176 74.872C460.754 75.6561 460.151 76.2441 459.367 76.6361C458.583 77.0281 457.648 77.2241 456.563 77.2241C454.814 77.2241 453.457 76.7869 452.492 75.9124C451.557 75.0379 451.089 73.7261 451.089 71.9771V68.9918H446.611V77.2241H442.721V59.4024C442.721 57.1106 441.636 55.9647 439.465 55.9647C437.263 55.9647 436.163 57.1558 436.163 59.5381V70.2583C436.163 72.4898 437.293 73.7864 439.555 74.1483L438.741 77.2241ZM456.744 74.0126C457.407 74.0126 457.844 73.8317 458.055 73.4698C458.297 73.0778 458.417 72.5651 458.417 71.9319C458.417 70.9669 458.101 70.2432 457.467 69.7607C456.864 69.2481 456.05 68.9918 455.025 68.9918V71.9771C455.025 73.3341 455.598 74.0126 456.744 74.0126Z" fill="#FFA96A"/>
<path d="M443.284 126.224V108.344H446.116V118.04L445.372 117.752L453.46 108.344H456.988L449.836 116.72L449.98 114.704L457.276 126.224H453.94L448.708 118.04L446.116 121.064V126.224H443.284ZM462.775 126.512C461.895 126.512 461.119 126.36 460.447 126.056C459.791 125.736 459.279 125.304 458.911 124.76C458.543 124.2 458.359 123.544 458.359 122.792C458.359 122.088 458.511 121.456 458.815 120.896C459.135 120.336 459.623 119.864 460.279 119.48C460.935 119.096 461.759 118.824 462.751 118.664L467.263 117.92V120.056L463.279 120.752C462.559 120.88 462.031 121.112 461.695 121.448C461.359 121.768 461.191 122.184 461.191 122.696C461.191 123.192 461.375 123.6 461.743 123.92C462.127 124.224 462.615 124.376 463.207 124.376C463.943 124.376 464.583 124.216 465.127 123.896C465.687 123.576 466.119 123.152 466.423 122.624C466.727 122.08 466.879 121.48 466.879 120.824V117.488C466.879 116.848 466.639 116.328 466.159 115.928C465.695 115.512 465.071 115.304 464.287 115.304C463.567 115.304 462.935 115.496 462.391 115.88C461.863 116.248 461.471 116.728 461.215 117.32L458.959 116.192C459.199 115.552 459.591 114.992 460.135 114.512C460.679 114.016 461.311 113.632 462.031 113.36C462.767 113.088 463.543 112.952 464.359 112.952C465.383 112.952 466.287 113.144 467.071 113.528C467.871 113.912 468.487 114.448 468.919 115.136C469.367 115.808 469.591 116.592 469.591 117.488V126.224H466.999V123.872L467.551 123.944C467.247 124.472 466.855 124.928 466.375 125.312C465.911 125.696 465.375 125.992 464.767 126.2C464.175 126.408 463.511 126.512 462.775 126.512Z" fill="black"/>
</svg>
