<svg width="50" height="50" viewBox="0 0 50 50" fill="none" xmlns="http://www.w3.org/2000/svg">
<rect width="50" height="50" rx="12" fill="#D3FFE5"/>
<path d="M36.6667 16.6581V30.5298C36.6667 31.6615 35.745 32.6998 34.6133 32.8398L34.2517 32.8865C32.3383 33.1431 29.6433 33.9365 27.4733 34.8465C26.715 35.1615 25.875 34.5898 25.875 33.7615V17.5331C25.875 17.1015 26.12 16.7048 26.505 16.4948C28.64 15.3398 31.8717 14.3131 34.065 14.1265H34.135C35.535 14.1265 36.6667 15.2581 36.6667 16.6581Z" fill="#01C070"/>
<path d="M23.495 16.4948C21.36 15.3398 18.1283 14.3131 15.935 14.1265H15.8533C14.4533 14.1265 13.3217 15.2581 13.3217 16.6581V30.5298C13.3217 31.6615 14.2433 32.6998 15.375 32.8398L15.7367 32.8865C17.65 33.1431 20.345 33.9365 22.515 34.8465C23.2733 35.1615 24.1133 34.5898 24.1133 33.7615V17.5331C24.1133 17.0898 23.88 16.7048 23.495 16.4948ZM16.8333 20.0298H19.4583C19.9367 20.0298 20.3333 20.4265 20.3333 20.9048C20.3333 21.3948 19.9367 21.7798 19.4583 21.7798H16.8333C16.355 21.7798 15.9583 21.3948 15.9583 20.9048C15.9583 20.4265 16.355 20.0298 16.8333 20.0298ZM20.3333 25.2798H16.8333C16.355 25.2798 15.9583 24.8948 15.9583 24.4048C15.9583 23.9265 16.355 23.5298 16.8333 23.5298H20.3333C20.8117 23.5298 21.2083 23.9265 21.2083 24.4048C21.2083 24.8948 20.8117 25.2798 20.3333 25.2798Z" fill="#01C070"/>
</svg>
