<svg width="50" height="50" viewBox="0 0 50 50" fill="none" xmlns="http://www.w3.org/2000/svg">
<rect width="50" height="50" rx="12" fill="#FFEAED"/>
<path d="M31.4517 20.0652C31.37 20.0535 31.2883 20.0535 31.2067 20.0652C29.3983 20.0068 27.9633 18.5252 27.9633 16.7052C27.9633 14.8502 29.4683 13.3335 31.335 13.3335C33.19 13.3335 34.7067 14.8385 34.7067 16.7052C34.695 18.5252 33.26 20.0068 31.4517 20.0652Z" fill="#FF435D"/>
<path d="M35.255 28.15C33.9483 29.025 32.1167 29.3517 30.425 29.13C30.8683 28.1733 31.1017 27.1117 31.1133 25.9917C31.1133 24.825 30.8567 23.7166 30.3667 22.7483C32.0933 22.515 33.925 22.8416 35.2433 23.7166C37.0867 24.93 37.0867 26.925 35.255 28.15Z" fill="#FF435D"/>
<path d="M18.5133 20.0652C18.595 20.0535 18.6767 20.0535 18.7583 20.0652C20.5667 20.0068 22.0017 18.5252 22.0017 16.7052C22.0017 14.8385 20.4967 13.3335 18.63 13.3335C16.775 13.3335 15.27 14.8385 15.27 16.7052C15.27 18.5252 16.705 20.0068 18.5133 20.0652Z" fill="#FF435D"/>
<path d="M18.6417 25.9919C18.6417 27.1235 18.8867 28.1969 19.33 29.1652C17.685 29.3402 15.97 28.9902 14.71 28.1619C12.8667 26.9369 12.8667 24.9419 14.71 23.7169C15.9583 22.8769 17.72 22.5385 19.3767 22.7252C18.8983 23.7052 18.6417 24.8135 18.6417 25.9919Z" fill="#FF435D"/>
<path d="M25.14 29.515C25.0467 29.5033 24.9417 29.5033 24.8367 29.515C22.69 29.445 20.975 27.6833 20.975 25.5133C20.9867 23.2967 22.7717 21.5 25 21.5C27.2167 21.5 29.0133 23.2967 29.0133 25.5133C29.0017 27.6833 27.2983 29.445 25.14 29.515Z" fill="#FF435D"/>
<path d="M21.3483 31.9301C19.5867 33.1084 19.5867 35.0451 21.3483 36.2117C23.355 37.5534 26.645 37.5534 28.6517 36.2117C30.4133 35.0334 30.4133 33.0967 28.6517 31.9301C26.6567 30.5884 23.3667 30.5884 21.3483 31.9301Z" fill="#FF435D"/>
</svg>
