<svg width="50" height="50" viewBox="0 0 50 50" fill="none" xmlns="http://www.w3.org/2000/svg">
<rect width="50" height="50" rx="12" fill="#DEF1FF"/>
<path d="M30.425 17.6733H19.575C16.1333 17.6733 13.3333 20.4733 13.3333 23.915V30.425C13.3333 33.8667 16.1333 36.6667 19.575 36.6667H30.425C33.8667 36.6667 36.6667 33.8667 36.6667 30.425V23.915C36.6667 20.4733 33.8667 17.6733 30.425 17.6733ZM27.9167 25.0233C27.9167 24.3817 28.4417 23.8567 29.0833 23.8567C29.725 23.8567 30.25 24.3817 30.25 25.0233C30.25 25.665 29.725 26.2017 29.0833 26.2017C28.4417 26.2017 27.9167 25.6883 27.9167 25.0467V25.0233ZM22.8183 29.7483C22.6433 29.9233 22.4217 30.005 22.2 30.005C21.9783 30.005 21.7567 29.9233 21.5817 29.7483L20.38 28.5467L19.225 29.7017C19.05 29.8767 18.8283 29.9583 18.6067 29.9583C18.385 29.9583 18.1633 29.8767 17.9883 29.7017C17.65 29.3633 17.65 28.8033 17.9883 28.465L19.1433 27.31L18.0233 26.19C17.685 25.8517 17.685 25.2917 18.0233 24.9533C18.3617 24.615 18.9217 24.615 19.26 24.9533L20.38 26.0733L21.535 24.9183C21.8733 24.58 22.4333 24.58 22.7717 24.9183C23.11 25.2567 23.11 25.8167 22.7717 26.155L21.6167 27.31L22.8183 28.5117C23.1567 28.85 23.1567 29.41 22.8183 29.7483ZM26.7967 28.5C26.155 28.5 25.6183 27.975 25.6183 27.3333C25.6183 26.6917 26.1317 26.1667 26.7733 26.1667H26.7967C27.4383 26.1667 27.9633 26.6917 27.9633 27.3333C27.9633 27.975 27.45 28.5 26.7967 28.5ZM29.0833 30.7983C28.4417 30.7983 27.9167 30.285 27.9167 29.6433V29.62C27.9167 28.9783 28.4417 28.4533 29.0833 28.4533C29.725 28.4533 30.25 28.9783 30.25 29.62C30.25 30.2617 29.7367 30.7983 29.0833 30.7983ZM31.3933 28.5C30.7517 28.5 30.215 27.975 30.215 27.3333C30.215 26.6917 30.7283 26.1667 31.37 26.1667H31.3933C32.035 26.1667 32.56 26.6917 32.56 27.3333C32.56 27.975 32.0467 28.5 31.3933 28.5Z" fill="#31A8FF"/>
<path d="M26.9133 14.1618L26.9017 15.2585C26.89 16.2852 26.0383 17.1368 25 17.1368C24.825 17.1368 24.72 17.2535 24.72 17.4052C24.72 17.5568 24.8367 17.6735 24.9883 17.6735H23.11C23.0983 17.5918 23.0867 17.4985 23.0867 17.4052C23.0867 16.3552 23.9383 15.5035 24.9767 15.5035C25.1517 15.5035 25.2683 15.3868 25.2683 15.2352L25.28 14.1385C25.2917 13.6952 25.6533 13.3335 26.0967 13.3335H26.1083C26.5633 13.3335 26.9133 13.7068 26.9133 14.1618Z" fill="#31A8FF"/>
</svg>
