<svg viewBox="0 0 567 164" fill="none" xmlns="http://www.w3.org/2000/svg">
<rect y="0.900879" width="129.621" height="163" rx="18" fill="white"/>
<path d="M40.8386 108.901C37.9883 108.561 35.7335 107.625 34.0744 106.093C32.4577 104.562 31.6494 102.307 31.6494 99.3288V84.1412C31.6494 77.4195 35.0528 74.0587 41.8596 74.0587C48.5813 74.0587 51.9421 77.3132 51.9421 83.8222V100.541C51.9421 103.221 53.1971 104.562 55.7071 104.562H60.9399C63.4499 104.562 64.7049 103.221 64.7049 100.541V84.1412C64.7049 80.8655 65.4706 78.3767 67.0021 76.675C68.5762 74.9308 71.0437 74.0587 74.4045 74.0587C76.1488 74.0587 77.7228 74.4203 79.1267 75.1435C80.5306 75.8242 81.6367 76.8027 82.445 78.0789C84.0616 75.3988 86.5716 74.0587 89.975 74.0587C96.5265 74.0587 99.8023 77.3132 99.8023 83.8222V108.901H94.2505V83.7583C94.2505 80.5251 92.719 78.9085 89.656 78.9085C86.5504 78.9085 84.9976 80.5889 84.9976 83.9498V108.901H79.4458V83.7583C79.4458 82.2694 79.0416 81.0994 78.2333 80.2486C77.425 79.3552 76.2976 78.9085 74.8512 78.9085C71.7882 78.9085 70.2566 80.5889 70.2566 83.9498V100.414C70.2566 106.072 67.2574 108.901 61.2589 108.901H55.3881C49.4321 108.901 46.4542 106.072 46.4542 100.414V83.7583C46.4542 80.5251 44.9227 78.9085 41.8596 78.9085C38.754 78.9085 37.2012 80.5889 37.2012 83.9498V99.0736C37.2012 102.222 38.7966 104.051 41.9872 104.562L40.8386 108.901Z" fill="#F9B700"/>
<rect x="291.242" y="0.900879" width="129.621" height="163" rx="18" fill="white"/>
<path d="M332.081 108.901C329.231 108.561 326.976 107.625 325.317 106.093C323.7 104.562 322.892 102.307 322.892 99.3288V84.1412C322.892 77.4195 326.295 74.0587 333.102 74.0587C339.824 74.0587 343.185 77.3132 343.185 83.8222V100.541C343.185 103.221 344.44 104.562 346.95 104.562H352.182C354.692 104.562 355.947 103.221 355.947 100.541V84.1412C355.947 80.8655 356.713 78.3767 358.245 76.675C359.819 74.9308 362.286 74.0587 365.647 74.0587C367.391 74.0587 368.965 74.4203 370.369 75.1435C371.773 75.8242 372.879 76.8027 373.687 78.0789C375.304 75.3988 377.814 74.0587 381.217 74.0587C387.769 74.0587 391.045 77.3132 391.045 83.8222V108.901H385.493V83.7583C385.493 80.5251 383.961 78.9085 380.898 78.9085C377.793 78.9085 376.24 80.5889 376.24 83.9498V108.901H370.688V83.7583C370.688 82.2694 370.284 81.0994 369.476 80.2486C368.667 79.3552 367.54 78.9085 366.094 78.9085C363.031 78.9085 361.499 80.5889 361.499 83.9498V100.414C361.499 106.072 358.5 108.901 352.501 108.901H346.631C340.675 108.901 337.697 106.072 337.697 100.414V83.7583C337.697 80.5251 336.165 78.9085 333.102 78.9085C329.996 78.9085 328.444 80.5889 328.444 83.9498V99.0736C328.444 102.222 330.039 104.051 333.23 104.562L332.081 108.901Z" fill="#F9B700"/>
<rect x="145.621" y="0.900879" width="129.621" height="163" rx="18" fill="white"/>
<path d="M188.144 110.401C184.832 110.005 182.212 108.918 180.284 107.138C178.406 105.359 177.466 102.739 177.466 99.2783V81.6306C177.466 73.8201 181.421 69.9148 189.331 69.9148C197.141 69.9148 201.046 73.6965 201.046 81.2598V91.3443H208.387V86.5986C208.387 81.161 209.771 77.0333 212.54 74.2156C215.308 71.3484 219.436 69.9148 224.923 69.9148C235.897 69.9148 241.384 75.2537 241.384 85.9313V110.401H235.007V85.8571C235.007 78.9859 231.646 75.5503 224.923 75.5503C218.2 75.5503 214.838 79.06 214.838 86.0796V91.3443C218.2 91.3937 220.894 92.3577 222.921 94.2361C224.997 96.1146 226.035 98.5863 226.035 101.651C226.035 103.579 225.664 105.21 224.923 106.545C224.231 107.83 223.242 108.794 221.957 109.437C220.671 110.08 219.139 110.401 217.359 110.401C214.492 110.401 212.268 109.709 210.686 108.325C209.153 106.891 208.387 104.741 208.387 101.874V96.9055H201.046V110.401H194.669V81.1857C194.669 77.4287 192.89 75.5503 189.331 75.5503C185.722 75.5503 183.918 77.5029 183.918 81.4081V98.9817C183.918 102.64 185.771 104.765 189.479 105.359L188.144 110.401ZM217.656 105.136C218.743 105.136 219.46 104.84 219.806 104.246C220.202 103.604 220.399 102.763 220.399 101.725C220.399 100.143 219.88 98.957 218.842 98.1661C217.854 97.3257 216.519 96.9055 214.838 96.9055V101.799C214.838 104.024 215.777 105.136 217.656 105.136Z" fill="#F9B700"/>
<rect x="436.864" y="0.900879" width="129.621" height="163" rx="18" fill="white"/>
<path d="M479.387 110.401C476.075 110.005 473.455 108.918 471.527 107.138C469.648 105.359 468.709 102.739 468.709 99.2783V81.6306C468.709 73.8201 472.664 69.9148 480.573 69.9148C488.383 69.9148 492.289 73.6965 492.289 81.2598V91.3443H499.63V86.5986C499.63 81.161 501.014 77.0333 503.782 74.2156C506.55 71.3484 510.678 69.9148 516.165 69.9148C527.139 69.9148 532.626 75.2537 532.626 85.9313V110.401H526.25V85.8571C526.25 78.9859 522.888 75.5503 516.165 75.5503C509.442 75.5503 506.081 79.06 506.081 86.0796V91.3443C509.442 91.3937 512.136 92.3577 514.163 94.2361C516.239 96.1146 517.277 98.5863 517.277 101.651C517.277 103.579 516.907 105.21 516.165 106.545C515.473 107.83 514.484 108.794 513.199 109.437C511.914 110.08 510.381 110.401 508.602 110.401C505.735 110.401 503.51 109.709 501.928 108.325C500.396 106.891 499.63 104.741 499.63 101.874V96.9055H492.289V110.401H485.912V81.1857C485.912 77.4287 484.132 75.5503 480.573 75.5503C476.964 75.5503 475.16 77.5029 475.16 81.4081V98.9817C475.16 102.64 477.014 104.765 480.721 105.359L479.387 110.401ZM508.898 105.136C509.986 105.136 510.703 104.84 511.049 104.246C511.444 103.604 511.642 102.763 511.642 101.725C511.642 100.143 511.123 98.957 510.085 98.1661C509.096 97.3257 507.761 96.9055 506.081 96.9055V101.799C506.081 104.024 507.02 105.136 508.898 105.136Z" fill="#F9B700"/>
</svg>
