<svg width="50" height="50" viewBox="0 0 50 50" fill="none" xmlns="http://www.w3.org/2000/svg">
<rect width="50" height="50" rx="12" fill="#E7E9FF"/>
<path fill-rule="evenodd" clip-rule="evenodd" d="M25.25 15.2539C19.7272 15.2539 15.25 19.7311 15.25 25.2539C15.25 26.7765 15.5909 28.222 16.2015 29.5161L15.42 33.3241C15.2058 34.3679 16.1178 35.296 17.1652 35.1L21.1144 34.3611C22.376 34.9348 23.777 35.2539 25.25 35.2539C30.7728 35.2539 35.25 30.7768 35.25 25.2539C35.25 19.7311 30.7728 15.2539 25.25 15.2539ZM24.75 20.2539C24.1977 20.2539 23.75 20.7016 23.75 21.2539V22.2539H21.75V21.2539C21.75 19.5971 23.0931 18.2539 24.75 18.2539H25.75C27.4069 18.2539 28.75 19.5971 28.75 21.2539V22.4255C28.75 23.2211 28.4339 23.9842 27.8713 24.5468L26.5429 25.8752C26.3554 26.0628 26.25 26.3171 26.25 26.5823V28.2539H24.25V26.5823C24.25 25.7867 24.5661 25.0236 25.1287 24.461L26.4571 23.1326C26.6446 22.945 26.75 22.6907 26.75 22.4255V21.2539C26.75 20.7016 26.3023 20.2539 25.75 20.2539H24.75ZM24.25 29.2539V31.2539H26.25V29.2539H24.25Z" fill="#3747D6"/>
</svg>
