<svg viewBox="0 0 515 396" fill="none" xmlns="http://www.w3.org/2000/svg">
<ellipse cx="267.323" cy="368.514" rx="83.3087" ry="27.1501" fill="#FEFEFE"/>
<path d="M254.468 185.613C240.141 170.865 230.668 190.658 223.43 197.765C221.777 199.388 219.499 200.041 217.225 200.478L203.957 203.031L206.567 233.203L219.884 231.133C226.892 231.108 270.364 201.976 254.468 185.613Z" fill="#01C070"/>
<path d="M27.2494 162.361C44.3234 150.904 49.4864 172.231 55.0935 180.685C56.3736 182.615 58.4669 183.726 60.6011 184.625L73.0514 189.873L64.241 218.849L51.6433 214.062C44.7928 212.584 8.30643 175.071 27.2494 162.361Z" fill="#01C070"/>
<ellipse cx="122.483" cy="328.563" rx="52.7604" ry="11.7782" transform="rotate(4.56088 122.483 328.563)" fill="#FEFEFE"/>
<path d="M155.703 119.293C115.837 115.329 92.0349 116.514 84.2982 122.85C76.5615 129.185 70.7059 152.286 66.7313 192.152C63.4468 226.284 63.8228 248.642 67.8595 259.227C68.2523 259.444 68.6716 259.693 69.1172 259.974C79.2553 265.778 100.629 270.242 133.237 273.366C173.04 277.382 196.841 276.197 204.642 269.808C212.379 263.473 218.235 240.372 222.209 200.506C225.576 167.922 225.447 146.062 221.82 134.925C221.685 134.498 221.518 134.096 221.319 133.721C211.866 127.571 189.995 122.761 155.703 119.293Z" fill="url(#paint0_linear_604_796)"/>
<path d="M96.0093 157.954C91.687 162.275 89.5259 167.438 89.5259 173.444C89.5259 179.523 91.687 184.686 96.0093 188.934C100.258 193.255 105.423 195.416 111.504 195.416C117.584 195.416 122.749 193.255 126.998 188.934C131.32 184.686 133.481 179.523 133.481 173.444C133.481 167.438 131.32 162.275 126.998 157.954C122.749 153.633 117.584 151.472 111.504 151.472C105.423 151.472 100.258 153.633 96.0093 157.954Z" fill="white"/>
<path d="M119.042 182.186C121.336 179.893 122.483 177.108 122.483 173.831C122.483 170.62 121.336 167.868 119.042 165.575C116.748 163.216 113.962 162.036 110.685 162.036C107.473 162.036 104.72 163.216 102.426 165.575C100.066 167.868 98.8865 170.62 98.8865 173.831C98.8865 177.108 100.066 179.893 102.426 182.186C104.72 184.48 107.473 185.626 110.685 185.626C113.962 185.626 116.748 184.48 119.042 182.186Z" fill="#3D465D"/>
<path d="M161.943 157.954C157.62 162.275 155.459 167.438 155.459 173.444C155.459 179.523 157.62 184.686 161.943 188.934C166.192 193.255 171.356 195.416 177.437 195.416C183.517 195.416 188.682 193.255 192.931 188.934C197.254 184.686 199.415 179.523 199.415 173.444C199.415 167.438 197.254 162.275 192.931 157.954C188.682 153.633 183.517 151.472 177.437 151.472C171.356 151.472 166.192 153.633 161.943 157.954Z" fill="white"/>
<path d="M187.935 185.502C190.145 183.294 191.249 180.612 191.249 177.456C191.249 174.364 190.145 171.714 187.935 169.505C185.726 167.233 183.043 166.097 179.887 166.097C176.794 166.097 174.143 167.233 171.934 169.505C169.661 171.714 168.525 174.364 168.525 177.456C168.525 180.612 169.661 183.294 171.934 185.502C174.143 187.711 176.794 188.815 179.887 188.815C183.043 188.815 185.726 187.711 187.935 185.502Z" fill="#3D465D"/>
<path d="M162.492 209.588V209.479C163.371 208.819 164.213 208.16 165.019 207.501C165.898 206.695 166.375 205.707 166.448 204.535C166.521 203.29 166.155 202.228 165.349 201.349C164.543 200.397 163.554 199.884 162.382 199.811C161.137 199.738 160.074 200.104 159.195 200.91C158.609 201.422 157.986 201.935 157.327 202.448H157.217C153.701 205.084 149.452 206.402 144.47 206.402C139.342 206.402 134.983 205.084 131.393 202.448C130.954 202.081 130.551 201.715 130.185 201.349C129.379 200.397 128.39 199.884 127.218 199.811C125.972 199.738 124.91 200.104 124.031 200.91C123.078 201.715 122.566 202.741 122.492 203.986C122.419 205.157 122.785 206.219 123.591 207.172C124.251 207.904 125.056 208.636 126.009 209.369C126.082 209.369 126.119 209.405 126.119 209.479C131.174 213.287 137.291 215.191 144.47 215.191C151.503 215.191 157.51 213.324 162.492 209.588Z" fill="#3D465D"/>
<path d="M149.37 111.558C109.503 107.594 85.7012 108.78 77.9645 115.115C70.2278 121.451 64.3721 144.552 60.3975 184.417C56.5285 224.412 57.7081 248.212 63.9365 255.818C64.8866 256.978 66.1943 258.115 67.8596 259.227C63.8229 248.642 63.4469 226.284 66.7314 192.152C70.706 152.286 76.5617 129.186 84.2984 122.85C92.0351 116.514 115.837 115.329 155.704 119.293C189.995 122.762 211.867 127.571 221.319 133.721C220.503 131.805 219.621 130.266 218.671 129.106C212.442 121.5 189.342 115.651 149.37 111.558Z" fill="#25D28A"/>
<path d="M145.278 314.693L143.456 285.775L125.41 285.937L123.54 313.767L88.9955 311.447C75.1422 306.686 86.5363 300.83 93.965 298.498L94.9462 283.891C69.7748 280.223 63.3607 264.1 63.3879 255.19C110.557 280.45 180.479 273.831 208.205 265.335C200.979 282.919 183.302 285.509 175.858 284.848C175.858 284.848 173.57 303.106 181.312 306.279C191.169 313.134 186.42 316.425 182.814 317.214L145.278 314.693Z" fill="#009F5D"/>
<path d="M115.765 227.992C125.42 209.838 140.029 226.211 148.96 231.022C150.999 232.121 153.369 232.113 155.675 231.9L169.129 230.658L175.022 260.364L161.655 262.083C154.917 264.01 105.054 248.133 115.765 227.992Z" fill="#FCDA40"/>
<path d="M484.615 152.147C470.365 135.515 460.917 157.626 453.693 165.794C452.009 167.699 449.535 168.53 447.046 169.073L434.103 171.896L436.714 206.106L450.03 203.758C457.038 203.73 500.51 170.7 484.615 152.147Z" fill="#FF86C9"/>
<path d="M257.396 125.783C274.393 112.851 279.586 136.757 285.164 146.429C286.459 148.673 288.705 150.051 291.016 151.155L303.198 156.978L294.388 189.831L281.79 184.403C274.94 182.728 238.453 140.195 257.396 125.783Z" fill="#01C070"/>
<ellipse cx="56.3718" cy="13.8036" rx="56.3718" ry="13.8036" transform="matrix(0.995935 0.0900789 -0.0701819 0.997534 334.349 289.873)" fill="#FEFEFE"/>
<path d="M385.85 76.9509C345.983 72.4564 322.182 73.8008 314.445 80.9843C306.708 88.1678 300.853 114.36 296.878 159.561C293.594 198.261 293.97 223.611 298.006 235.613C298.399 235.859 298.818 236.141 299.264 236.46C309.402 243.04 330.775 248.101 363.384 251.643C403.186 256.198 426.988 254.853 434.789 247.61C442.526 240.427 448.382 214.234 452.356 169.034C455.723 132.088 455.594 107.303 451.967 94.6759C451.832 94.1907 451.665 93.7355 451.466 93.3103C442.013 86.3371 420.141 80.884 385.85 76.9509Z" fill="#FF86C9"/>
<path d="M379.516 68.1807C339.65 63.6862 315.848 65.0307 308.111 72.2141C300.374 79.3976 294.519 105.59 290.544 150.791C286.675 196.138 287.855 223.123 294.083 231.747C295.033 233.062 296.341 234.351 298.006 235.613C293.97 223.611 293.594 198.26 296.878 159.56C300.853 114.36 306.708 88.1674 314.445 80.9839C322.182 73.8005 345.984 72.456 385.85 76.9505C420.142 80.8836 442.013 86.3367 451.466 93.3099C450.65 91.1369 449.767 89.3927 448.817 88.0772C442.589 79.4536 419.489 72.8214 379.516 68.1807Z" fill="#FFB0DC"/>
<path d="M375.425 298.501L373.603 265.714L355.556 265.897L353.687 297.452L319.142 294.821C305.289 289.423 316.683 282.784 324.112 280.139L325.093 263.577C299.922 259.418 293.507 241.138 293.535 231.036C340.703 259.676 410.626 252.171 438.352 242.538C431.125 262.475 413.448 265.412 406.005 264.662C406.005 264.662 403.717 285.363 411.458 288.961C421.316 296.733 416.567 300.465 412.961 301.36L375.425 298.501Z" fill="#FF62B9"/>
<path d="M404.714 207.391C390.464 190.759 381.016 212.87 373.792 221.038C372.107 222.943 369.634 223.774 367.145 224.316L354.202 227.139L356.813 261.35L370.129 259.002C377.137 258.974 420.609 225.943 404.714 207.391Z" fill="#FCDA40"/>
<path d="M350.441 117.584C345.451 117.584 341.213 119.358 337.726 122.904C334.178 126.45 332.405 130.688 332.405 135.616C332.405 140.605 334.178 144.843 337.726 148.329C341.213 151.875 345.451 153.648 350.441 153.648C355.432 153.648 359.67 151.875 363.157 148.329C366.704 144.843 368.478 140.605 368.478 135.616C368.478 130.688 366.704 126.45 363.157 122.904C359.67 119.358 355.432 117.584 350.441 117.584Z" fill="white"/>
<path d="M350.632 129.047C348.131 129.047 345.987 129.965 344.2 131.803C342.362 133.589 341.444 135.732 341.444 138.233C341.444 140.784 342.362 142.953 344.2 144.739C345.987 146.525 348.131 147.418 350.632 147.418C353.184 147.418 355.353 146.525 357.14 144.739C358.927 142.953 359.82 140.784 359.82 138.233C359.82 135.732 358.927 133.589 357.14 131.803C355.353 129.965 353.184 129.047 350.632 129.047Z" fill="#3D465D"/>
<path d="M404.551 117.584C399.561 117.584 395.323 119.358 391.835 122.904C388.288 126.45 386.515 130.688 386.515 135.616C386.515 140.605 388.288 144.843 391.835 148.329C395.323 151.875 399.561 153.648 404.551 153.648C409.541 153.648 413.78 151.875 417.267 148.329C420.814 144.843 422.588 140.605 422.588 135.616C422.588 130.688 420.814 126.45 417.267 122.904C413.78 119.358 409.541 117.584 404.551 117.584Z" fill="white"/>
<path d="M404.551 125.29C401.739 125.29 399.329 126.322 397.321 128.388C395.255 130.395 394.222 132.805 394.222 135.616C394.222 138.485 395.255 140.923 397.321 142.931C399.329 144.939 401.739 145.943 404.551 145.943C407.42 145.943 409.859 144.939 411.868 142.931C413.876 140.923 414.881 138.485 414.881 135.616C414.881 132.805 413.876 130.395 411.868 128.388C409.859 126.322 407.42 125.29 404.551 125.29Z" fill="#3D465D"/>
<path d="M329.208 124.496C329.629 125.338 330.351 125.879 331.373 126.119L366.183 135.496C367.145 135.736 368.077 135.616 368.979 135.135C369.821 134.654 370.362 133.903 370.602 132.881L372.496 125.939C372.737 124.917 372.617 124.016 372.136 123.234C371.594 122.333 370.843 121.762 369.881 121.521L335.07 112.145C334.048 111.904 333.146 112.054 332.365 112.595C331.463 113.016 330.892 113.737 330.651 114.759L328.757 121.702C328.517 122.723 328.667 123.655 329.208 124.496Z" fill="#3D465D"/>
<path d="M385.252 111.634C384.29 111.935 383.569 112.536 383.088 113.437C382.547 114.219 382.397 115.12 382.637 116.142L384.531 123.084C384.771 124.106 385.343 124.857 386.244 125.338C387.086 125.819 387.988 125.909 388.95 125.609L423.761 116.322C424.783 116.082 425.534 115.511 426.015 114.609C426.496 113.828 426.616 112.926 426.376 111.905L424.482 104.962C424.242 103.941 423.7 103.189 422.859 102.708C422.017 102.228 421.085 102.107 420.063 102.348L385.252 111.634Z" fill="#3D465D"/>
<path d="M395.443 161.131C394.601 160.591 393.669 160.47 392.647 160.771C391.685 161.011 390.934 161.522 390.393 162.304C389.912 162.965 389.22 163.596 388.318 164.197C386.094 165.579 383.479 166.271 380.472 166.271C379.09 166.271 377.797 166.15 376.595 165.91C375.572 165.73 374.641 165.91 373.799 166.451C372.957 166.872 372.416 167.593 372.176 168.615C371.935 169.516 372.115 170.388 372.717 171.229C373.198 171.951 373.979 172.431 375.061 172.672C376.685 173.033 378.488 173.213 380.472 173.213C385.102 173.213 389.1 172.131 392.467 169.967L392.377 170.057C394.421 168.795 395.924 167.383 396.886 165.82C397.367 164.978 397.487 164.107 397.246 163.205C396.946 162.243 396.345 161.552 395.443 161.131Z" fill="#3D465D"/>
<path d="M311.388 135.735C299.142 132.82 282.689 131.363 262.029 131.363C241.286 131.363 224.832 132.82 212.67 135.735C199.59 138.9 189.385 144.105 182.054 151.351C174.807 158.68 169.6 168.883 166.434 181.958C163.852 192.952 162.435 207.319 162.186 225.058C162.186 225.891 162.186 226.724 162.186 227.557C162.435 245.297 163.852 259.663 166.434 270.657C169.6 283.816 174.807 294.018 182.054 301.264C189.385 308.593 199.59 313.798 212.67 316.88C224.832 319.795 241.286 321.252 262.029 321.252C282.689 321.252 299.142 319.795 311.388 316.88C324.551 313.798 334.756 308.593 342.004 301.264C349.335 294.018 354.541 283.816 357.624 270.657C360.206 259.83 361.664 245.671 361.997 228.182C361.997 227.932 361.997 227.723 361.997 227.557V224.434C361.664 206.944 360.206 192.785 357.624 181.958C354.541 168.883 349.335 158.68 342.004 151.351C334.756 144.105 324.551 138.9 311.388 135.735Z" fill="#FCDA40"/>
<path d="M225.457 171.419C219.857 171.419 215.1 173.409 211.187 177.389C207.206 181.369 205.215 186.124 205.215 191.655C205.215 197.254 207.206 202.01 211.187 205.922C215.1 209.902 219.857 211.892 225.457 211.892C231.057 211.892 235.814 209.902 239.728 205.922C243.708 202.01 245.699 197.254 245.699 191.655C245.699 186.124 243.708 181.369 239.728 177.389C235.814 173.409 231.057 171.419 225.457 171.419Z" fill="white"/>
<path d="M225.457 183.764C222.889 183.764 220.688 184.707 218.854 186.593C216.967 188.427 216.024 190.627 216.024 193.194C216.024 195.814 216.967 198.041 218.854 199.874C220.688 201.708 222.889 202.625 225.457 202.625C228.077 202.625 230.305 201.708 232.139 199.874C233.973 198.041 234.89 195.814 234.89 193.194C234.89 190.627 233.973 188.427 232.139 186.593C230.305 184.707 228.077 183.764 225.457 183.764Z" fill="#3D465D"/>
<path d="M286.183 171.419C280.582 171.419 275.826 173.409 271.912 177.389C267.931 181.369 265.941 186.124 265.941 191.655C265.941 197.254 267.931 202.01 271.912 205.922C275.826 209.902 280.582 211.892 286.183 211.892C291.783 211.892 296.54 209.902 300.453 205.922C304.434 202.01 306.424 197.254 306.424 191.655C306.424 186.124 304.434 181.369 300.453 177.389C296.54 173.409 291.783 171.419 286.183 171.419Z" fill="white"/>
<path d="M285.433 182.422C282.919 182.422 280.764 183.345 278.968 185.192C277.12 186.988 276.197 189.142 276.197 191.656C276.197 194.221 277.12 196.401 278.968 198.196C280.764 199.992 282.919 200.89 285.433 200.89C287.999 200.89 290.18 199.992 291.975 198.196C293.771 196.401 294.669 194.221 294.669 191.656C294.669 189.142 293.771 186.988 291.975 185.192C290.18 183.345 287.999 182.422 285.433 182.422Z" fill="#3D465D"/>
<path d="M202.093 173.233C202.725 174.079 203.629 174.533 204.805 174.596L245.117 178.046C246.227 178.121 247.233 177.803 248.134 177.093C248.968 176.395 249.416 175.458 249.479 174.281L250.194 166.237C250.257 165.061 249.945 164.089 249.259 163.321C248.482 162.433 247.539 161.951 246.428 161.876L206.117 158.426C204.94 158.363 203.974 158.708 203.218 159.461C202.305 160.105 201.817 161.015 201.755 162.191L201.04 170.235C200.977 171.411 201.328 172.411 202.093 173.233Z" fill="#3D465D"/>
<path d="M265.065 161.909C263.95 162.101 263.059 162.662 262.39 163.594C261.672 164.383 261.371 165.363 261.487 166.536L262.564 174.539C262.68 175.712 263.204 176.632 264.136 177.301C265.001 177.961 265.991 178.195 267.106 178.003L307.207 172.835C308.38 172.719 309.3 172.195 309.969 171.263C310.62 170.465 310.887 169.48 310.771 168.308L309.694 160.304C309.578 159.132 309.088 158.216 308.222 157.556C307.357 156.897 306.339 156.625 305.166 156.741L265.065 161.909Z" fill="#3D465D"/>
<path d="M275.279 223.529C274.224 222.466 272.901 221.988 271.311 222.096C269.827 222.136 268.563 222.638 267.52 223.605C266.602 224.415 265.388 225.113 263.875 225.699C260.177 226.997 256.131 227.16 251.739 226.185C249.719 225.737 247.869 225.142 246.19 224.401C244.755 223.806 243.335 223.767 241.93 224.285C240.563 224.627 239.539 225.505 238.856 226.92C238.213 228.16 238.194 229.492 238.799 230.916C239.268 232.126 240.254 233.082 241.758 233.784C244.013 234.837 246.59 235.685 249.488 236.328C256.253 237.829 262.445 237.545 268.066 235.474L267.905 235.577C271.301 234.395 273.955 232.819 275.867 230.847C276.843 229.774 277.301 228.539 277.242 227.144C277.114 225.641 276.46 224.436 275.279 223.529Z" fill="#3D465D"/>
<path d="M311.388 125.741C299.142 122.826 282.689 121.369 262.029 121.369C241.285 121.369 224.832 122.826 212.669 125.741C199.59 128.906 189.385 134.111 182.054 141.357C174.806 148.686 169.6 158.889 166.434 171.964C163.518 184.207 162.06 200.656 162.06 221.311C162.06 222.56 162.102 223.809 162.185 225.058C162.435 207.319 163.851 192.952 166.434 181.958C169.6 168.883 174.806 158.68 182.054 151.351C189.385 144.105 199.59 138.9 212.669 135.735C224.832 132.82 241.285 131.363 262.029 131.363C282.689 131.363 299.142 132.82 311.388 135.735C324.551 138.9 334.756 144.105 342.003 151.351C349.334 158.68 354.541 168.883 357.623 181.958C360.206 192.785 361.664 206.944 361.997 224.434C361.997 223.434 361.997 222.393 361.997 221.311C361.997 200.656 360.539 184.207 357.623 171.964C354.541 158.889 349.334 148.686 342.003 141.357C334.756 134.111 324.551 128.906 311.388 125.741Z" fill="#FFE677"/>
<path d="M284.516 373.328L279.653 336.129L256.354 337.904V374.019H211.526C193.217 369.071 207.428 360.517 216.822 356.859V337.904C187.721 336.129 179.204 308.771 178.466 297.259C243.593 329.375 312.777 307.485 347.858 294.104C340.048 317.446 331.104 332.328 321.431 332.119C321.431 332.119 320.06 355.904 330.336 359.331C343.665 367.331 337.816 371.995 333.226 373.328H284.516Z" fill="#EDC200"/>
<path d="M465.629 160.969L480.176 165.452L490.868 119.201L476.321 114.717L465.629 160.969Z" fill="#F9B700"/>
<path d="M487.016 118.023L477.692 158.832L481.611 160.039L490.935 119.231L487.016 118.023Z" fill="#F9B700"/>
<path d="M476.321 114.717L480.015 115.855L468.83 159.938L466.382 157.671L476.321 114.717Z" fill="#F9B700"/>
<path d="M466.189 173.119L474.733 175.752C476.349 176.25 478.057 175.264 478.434 173.615L480.641 163.957L466.093 159.473L463.798 168.978C463.51 170.78 464.43 172.703 466.189 173.119Z" fill="#E19178"/>
<path d="M466.108 169.69C465.731 171.339 466.882 173.332 468.498 173.83L474.733 175.752L466.189 173.119C464.573 172.62 463.422 170.627 463.941 168.896L466.094 159.473L468.261 160.267L466.108 169.69Z" fill="#CB836D"/>
<path d="M467.182 154.052L482.022 158.457L480.407 165.523L465.629 160.969L467.182 154.052Z" fill="#ECEEEE"/>
<path d="M476.32 114.717L486.366 104.828L490.868 119.201L476.32 114.717Z" fill="#F9D798"/>
<path d="M487.455 108.289C486.259 108.979 484.731 108.569 484.04 107.374L483.962 107.238L485.254 105.855C485.795 105.276 486.762 105.526 486.955 106.294L487.455 108.289V108.289Z" fill="#420964"/>
<path d="M127.634 205.641L124.638 211.973L124.638 215.926C124.638 224.154 142.593 226.087 151.571 226.024L183.922 210.69L180.743 202.649C168.326 202.05 153.129 212.872 147.083 218.357C139.752 208.633 131.063 205.828 127.634 205.641Z" fill="white"/>
<path d="M148.566 221.49L186.094 206.3L199.796 253.956L161.373 268.551L158.899 268.736C155.88 268.961 152.85 268.499 150.037 267.383L132.618 260.478L119.677 211.249C119.445 210.369 120.414 209.653 121.189 210.132C130.093 215.627 145.257 223.913 148.566 221.49Z" fill="#FF4362"/>
<path d="M150.118 226.807L187.084 210.701L199.687 253.609L161.356 268.826L150.118 226.807Z" fill="#D80041"/>
<defs>
<linearGradient id="paint0_linear_604_796" x1="-444.263" y1="542.767" x2="-317.585" y2="697.46" gradientUnits="userSpaceOnUse">
<stop stop-color="#01C070"/>
<stop offset="1" stop-color="#01C070"/>
</linearGradient>
</defs>
</svg>
