<svg width="50" height="50" viewBox="0 0 50 50" fill="none" xmlns="http://www.w3.org/2000/svg">
<path d="M0 12C0 5.37258 5.37258 0 12 0H38C44.6274 0 50 5.37258 50 12V38C50 44.6274 44.6274 50 38 50H12C5.37258 50 0 44.6274 0 38V12Z" fill="#FFF4E7"/>
<path d="M34.6792 23.6939L33.6992 27.8739C32.8592 31.4839 31.1992 32.9439 28.0792 32.6439C27.5792 32.6039 27.0392 32.5139 26.4592 32.3739L24.7792 31.9739C20.6092 30.9839 19.3192 28.9239 20.2992 24.7439L21.2792 20.5539C21.4792 19.7039 21.7192 18.9639 22.0192 18.3539C23.1892 15.9339 25.1792 15.2839 28.5192 16.0739L30.1892 16.4639C34.3792 17.4439 35.6592 19.5139 34.6792 23.6939Z" fill="#FFB158" stroke="#FFB158" stroke-width="1.5" stroke-linecap="round" stroke-linejoin="round"/>
<path d="M28.0791 32.644C27.4591 33.064 26.6791 33.414 25.7291 33.724L24.1491 34.244C20.1791 35.524 18.0891 34.454 16.7991 30.484L15.5191 26.534C14.2391 22.564 15.2991 20.464 19.2691 19.184L20.8491 18.664C21.2591 18.534 21.6491 18.424 22.0191 18.354C21.7191 18.964 21.4791 19.704 21.2791 20.554L20.2991 24.744C19.3191 28.924 20.6091 30.984 24.7791 31.974L26.4591 32.374C27.0391 32.514 27.5791 32.604 28.0791 32.644Z" fill="#FFB158" stroke="#FFB158" stroke-width="1.5" stroke-linecap="round" stroke-linejoin="round"/>
<path d="M25.6592 21.7837L30.5092 23.0137" stroke="white" stroke-width="1.5" stroke-linecap="round" stroke-linejoin="round"/>
<path d="M24.6791 25.6538L27.5791 26.3938" stroke="white" stroke-width="1.5" stroke-linecap="round" stroke-linejoin="round"/>
</svg>
