<svg width="50" height="50" viewBox="0 0 50 50" fill="none" xmlns="http://www.w3.org/2000/svg">
<rect width="50" height="50" rx="12" fill="#FFE4F4"/>
<path d="M14.5 26.3125C14.5 25.588 15.088 25 15.8125 25H18.4375C19.162 25 19.75 25.588 19.75 26.3125V34.1875C19.75 34.912 19.162 35.5 18.4375 35.5H15.8125C15.4644 35.5 15.1306 35.3617 14.8844 35.1156C14.6383 34.8694 14.5 34.5356 14.5 34.1875V26.3125ZM22.375 21.0625C22.375 20.338 22.963 19.75 23.6875 19.75H26.3125C27.037 19.75 27.625 20.338 27.625 21.0625V34.1875C27.625 34.912 27.037 35.5 26.3125 35.5H23.6875C23.3394 35.5 23.0056 35.3617 22.7594 35.1156C22.5133 34.8694 22.375 34.5356 22.375 34.1875V21.0625ZM30.25 15.8125C30.25 15.088 30.838 14.5 31.5625 14.5H34.1875C34.912 14.5 35.5 15.088 35.5 15.8125V34.1875C35.5 34.912 34.912 35.5 34.1875 35.5H31.5625C31.2144 35.5 30.8806 35.3617 30.6344 35.1156C30.3883 34.8694 30.25 34.5356 30.25 34.1875V15.8125Z" fill="#FF81CD" stroke="#FF81CD" stroke-width="1.5" stroke-linecap="round" stroke-linejoin="round"/>
</svg>
