<svg width="434" height="320" viewBox="0 0 434 320" fill="none" xmlns="http://www.w3.org/2000/svg">
<path d="M184.507 28.9938L187.551 33.9654C187.968 34.6478 188.967 35.2695 189.767 35.324L194.538 35.7103C197.591 35.9511 198.47 38.072 196.503 40.4213L193.151 44.4021C192.591 45.0691 192.34 46.3055 192.613 47.1343L194.047 51.5829C195.175 55.0952 193.394 56.6505 190.073 55.0478L185.434 52.8084C184.59 52.3988 183.282 52.5218 182.529 53.0569L178.339 56.0396C175.339 58.1719 173.317 56.9451 173.834 53.2953L174.499 48.6758C174.623 47.8123 174.182 46.6345 173.515 46.075L169.512 42.7179C167.176 40.7426 167.682 38.5046 170.645 37.7453L175.272 36.5631C176.053 36.357 176.934 35.5941 177.222 34.8448L179.379 29.4193C180.56 26.4953 182.864 26.3029 184.507 28.9938Z" fill="#F9B700"/>
<path d="M236.538 38.3786L239.081 42.5324C239.429 43.1026 240.263 43.622 240.933 43.6676L244.918 43.9904C247.47 44.1915 248.204 45.9635 246.56 47.9264L243.759 51.2524C243.292 51.8097 243.082 52.8427 243.31 53.5352L244.508 57.2519C245.45 60.1865 243.963 61.486 241.188 60.1469L237.312 58.2759C236.606 57.9337 235.514 58.0364 234.884 58.4835L231.384 60.9756C228.878 62.7571 227.188 61.7321 227.62 58.6827L228.175 54.8231C228.279 54.1016 227.91 53.1175 227.353 52.6501L224.009 49.8452C222.057 48.1948 222.48 46.3249 224.956 45.6905L228.822 44.7028C229.474 44.5306 230.21 43.8932 230.451 43.2672L232.253 38.7341C233.24 36.2911 235.164 36.1303 236.538 38.3786Z" fill="#F9B700"/>
<path d="M214.244 156.418C202.416 144.242 194.511 159.989 188.458 166.276C186.851 167.944 184.58 168.617 182.306 169.055L171.655 171.103L173.857 196.543L185.084 194.798C190.993 194.776 227.647 170.214 214.244 156.418Z" fill="#01C070"/>
<path d="M22.6645 136.812C36.7608 127.354 41.2281 144.398 45.8464 151.804C47.072 153.769 49.1544 154.898 51.2886 155.798L61.2825 160.01L53.854 184.441L43.2322 180.405C37.4562 179.159 6.69266 147.53 22.6645 136.812Z" fill="#01C070"/>
<ellipse cx="115.313" cy="278.401" rx="53.2766" ry="11.8935" transform="rotate(4.56088 115.313 278.401)" fill="#E0E6EA"/>
<path d="M130.971 100.499C97.357 97.1572 77.2885 98.1569 70.7653 103.499C64.2421 108.841 59.3049 128.318 55.9537 161.931C53.1844 190.709 53.5015 209.561 56.905 218.486C57.2362 218.668 57.5897 218.878 57.9654 219.115C66.5134 224.009 84.5344 227.772 112.028 230.406C145.588 233.793 165.656 232.793 172.234 227.407C178.757 222.065 183.694 202.588 187.045 168.975C189.884 141.501 189.775 123.07 186.717 113.68C186.603 113.32 186.463 112.981 186.294 112.665C178.325 107.479 159.883 103.424 130.971 100.499Z" fill="url(#paint0_linear_539_940)"/>
<path d="M80.6395 133.097C76.9951 136.74 75.173 141.094 75.173 146.157C75.173 151.283 76.9951 155.636 80.6395 159.218C84.2221 162.861 88.5767 164.683 93.7035 164.683C98.8303 164.683 103.185 162.861 106.768 159.218C110.412 155.636 112.234 151.283 112.234 146.157C112.234 141.094 110.412 136.74 106.768 133.097C103.185 129.454 98.8303 127.632 93.7035 127.632C88.5767 127.632 84.2221 129.454 80.6395 133.097Z" fill="white"/>
<path d="M105.214 158.151C107.148 156.217 108.115 153.869 108.115 151.107C108.115 148.399 107.148 146.079 105.214 144.145C103.279 142.156 100.931 141.162 98.1673 141.162C95.4593 141.162 93.1382 142.156 91.2039 144.145C89.2144 146.079 88.2196 148.399 88.2196 151.107C88.2196 153.869 89.2144 156.217 91.2039 158.151C93.1382 160.085 95.4593 161.052 98.1673 161.052C100.931 161.052 103.279 160.085 105.214 158.151Z" fill="#3D465D"/>
<path d="M136.231 133.097C132.587 136.741 130.765 141.094 130.765 146.158C130.765 151.283 132.587 155.637 136.231 159.218C139.814 162.862 144.168 164.683 149.295 164.683C154.422 164.683 158.777 162.862 162.359 159.218C166.004 155.637 167.826 151.283 167.826 146.158C167.826 141.094 166.004 136.741 162.359 133.097C158.777 129.454 154.422 127.632 149.295 127.632C144.168 127.632 139.814 129.454 136.231 133.097Z" fill="white"/>
<path d="M158.147 156.324C160.009 154.462 160.941 152.2 160.941 149.54C160.941 146.933 160.009 144.698 158.147 142.836C156.284 140.92 154.022 139.963 151.361 139.963C148.753 139.963 146.518 140.92 144.655 142.836C142.739 144.698 141.781 146.933 141.781 149.54C141.781 152.2 142.739 154.462 144.655 156.324C146.518 158.186 148.753 159.117 151.361 159.117C154.022 159.117 156.284 158.186 158.147 156.324Z" fill="#3D465D"/>
<path d="M136.694 176.632V176.54C137.436 175.984 138.146 175.428 138.825 174.873C139.567 174.193 139.968 173.36 140.03 172.372C140.092 171.322 139.783 170.426 139.103 169.685C138.424 168.883 137.59 168.45 136.602 168.389C135.552 168.327 134.656 168.636 133.915 169.315C133.421 169.747 132.896 170.179 132.34 170.612H132.247C129.282 172.835 125.699 173.946 121.499 173.946C117.175 173.946 113.5 172.835 110.474 170.612C110.103 170.303 109.763 169.994 109.454 169.685C108.775 168.883 107.941 168.45 106.953 168.389C105.903 168.327 105.007 168.636 104.266 169.315C103.463 169.994 103.03 170.859 102.969 171.908C102.907 172.896 103.216 173.792 103.895 174.595C104.451 175.212 105.131 175.83 105.934 176.447C105.995 176.447 106.026 176.478 106.026 176.54C110.288 179.751 115.446 181.357 121.499 181.357C127.429 181.357 132.494 179.782 136.694 176.632Z" fill="#3D465D"/>
<path d="M125.63 93.9781C92.0165 90.6358 71.9481 91.6356 65.4249 96.9774C58.9016 102.319 53.9644 121.797 50.6133 155.409C47.3511 189.131 48.3457 209.198 53.5972 215.611C54.3982 216.589 55.5008 217.547 56.9049 218.486C53.5014 209.561 53.1844 190.709 55.9537 161.931C59.3049 128.318 64.2421 108.841 70.7653 103.499C77.2885 98.1571 97.357 97.1573 130.971 100.5C159.883 103.424 178.325 107.479 186.294 112.665C185.607 111.049 184.862 109.752 184.061 108.774C178.81 102.361 159.333 97.429 125.63 93.9781Z" fill="#25D28A"/>
<path d="M122.18 265.251L120.644 240.869L105.428 241.006L103.852 264.471L74.7257 262.514C63.0453 258.5 72.6522 253.563 78.9157 251.596L79.7431 239.28C58.5197 236.188 53.1117 222.594 53.1346 215.082C92.9049 236.379 151.86 230.799 175.237 223.635C169.144 238.461 154.24 240.645 147.964 240.088C147.964 240.088 146.035 255.481 152.562 258.157C160.873 263.937 156.87 266.712 153.829 267.377L122.18 265.251Z" fill="#009F5D"/>
<path d="M408.293 128.201C396.531 114.473 388.649 132.049 382.609 139.256C380.975 141.206 378.518 142.057 376.029 142.6L365.704 144.851L367.905 173.696L379.133 171.717C385.041 171.693 421.695 143.843 408.293 128.201Z" fill="#FF86C9"/>
<path d="M216.713 105.972C230.743 95.2972 235.234 114.391 239.83 122.85C241.067 125.126 243.294 126.521 245.605 127.625L255.331 132.274L247.902 159.974L237.281 155.398C231.505 153.985 200.741 118.123 216.713 105.972Z" fill="#01C070"/>
<ellipse cx="52.727" cy="10.6867" rx="52.727" ry="10.6867" transform="matrix(0.995935 0.0900789 -0.0701819 0.997534 281.457 250.762)" fill="#E0E6EA"/>
<path d="M325.019 64.799C291.405 61.0094 271.337 62.143 264.814 68.1998C258.29 74.2565 253.353 96.3405 250.002 134.452C247.233 167.081 247.55 188.456 250.953 198.575C251.285 198.782 251.638 199.02 252.014 199.289C260.562 204.837 278.583 209.105 306.077 212.091C339.636 215.931 359.704 214.798 366.282 208.69C372.805 202.634 377.742 180.55 381.094 142.439C383.933 111.288 383.823 90.39 380.766 79.7438C380.652 79.3348 380.511 78.951 380.343 78.5924C372.373 72.713 353.932 68.1152 325.019 64.799Z" fill="#FF86C9"/>
<path d="M319.679 57.4048C286.065 53.6152 265.997 54.7488 259.473 60.8056C252.95 66.8623 248.013 88.9463 244.662 127.057C241.4 165.292 242.394 188.044 247.646 195.315C248.447 196.425 249.549 197.511 250.953 198.575C247.55 188.456 247.233 167.081 250.002 134.452C253.353 96.3405 258.291 74.2566 264.814 68.1998C271.337 62.1431 291.405 61.0095 325.019 64.799C353.932 68.1152 372.373 72.713 380.343 78.5925C379.655 76.7603 378.911 75.2897 378.11 74.1805C372.858 66.9095 353.381 61.3176 319.679 57.4048Z" fill="#FFB0DC"/>
<path d="M316.229 251.599L314.693 223.954L299.477 224.109L297.901 250.715L268.774 248.496C257.094 243.945 266.701 238.347 272.964 236.117L273.792 222.153C252.568 218.646 247.16 203.233 247.183 194.716C286.953 218.863 345.908 212.536 369.286 204.414C363.193 221.223 348.289 223.7 342.012 223.068C342.012 223.068 340.083 240.522 346.611 243.556C354.922 250.109 350.918 253.255 347.877 254.009L316.229 251.599Z" fill="#FF62B9"/>
<path d="M295.164 99.0596C290.957 99.0596 287.383 100.555 284.443 103.545C281.452 106.535 279.957 110.107 279.957 114.263C279.957 118.469 281.452 122.042 284.443 124.982C287.383 127.972 290.957 129.467 295.164 129.467C299.372 129.467 302.945 127.972 305.885 124.982C308.876 122.042 310.372 118.469 310.372 114.263C310.372 110.107 308.876 106.535 305.885 103.545C302.945 100.555 299.372 99.0596 295.164 99.0596Z" fill="white"/>
<path d="M295.324 110.676C293.215 110.676 291.408 111.451 289.901 113C288.352 114.505 287.577 116.313 287.577 118.421C287.577 120.572 288.352 122.401 289.901 123.907C291.408 125.413 293.215 126.166 295.324 126.166C297.476 126.166 299.305 125.413 300.812 123.907C302.318 122.401 303.071 120.572 303.071 118.421C303.071 116.313 302.318 114.505 300.812 113C299.305 111.451 297.476 110.676 295.324 110.676Z" fill="#3D465D"/>
<path d="M340.787 99.0596C336.58 99.0596 333.006 100.555 330.066 103.545C327.075 106.535 325.579 110.107 325.579 114.263C325.579 118.469 327.075 122.042 330.066 124.982C333.006 127.972 336.58 129.467 340.787 129.467C344.994 129.467 348.568 127.972 351.508 124.982C354.499 122.042 355.995 118.469 355.995 114.263C355.995 110.107 354.499 106.535 351.508 103.545C348.568 100.555 344.994 99.0596 340.787 99.0596Z" fill="white"/>
<path d="M337.916 108.752C335.546 108.752 333.513 109.623 331.82 111.364C330.078 113.057 329.207 115.089 329.207 117.459C329.207 119.878 330.078 121.933 331.82 123.626C333.513 125.319 335.546 126.166 337.916 126.166C340.336 126.166 342.392 125.319 344.085 123.626C345.779 121.933 346.626 119.878 346.626 117.459C346.626 115.089 345.779 113.057 344.085 111.364C342.392 109.623 340.336 108.752 337.916 108.752Z" fill="#3D465D"/>
<path d="M277.143 105.749C277.498 106.458 278.106 106.915 278.968 107.117L308.319 115.023C309.13 115.226 309.916 115.125 310.676 114.719C311.386 114.314 311.842 113.68 312.045 112.819L313.641 106.965C313.844 106.104 313.743 105.344 313.337 104.685C312.881 103.925 312.247 103.443 311.436 103.24L282.086 95.3345C281.224 95.1318 280.464 95.2585 279.805 95.7146C279.044 96.0694 278.563 96.6775 278.36 97.539L276.763 103.392C276.56 104.254 276.687 105.039 277.143 105.749Z" fill="#3D465D"/>
<path d="M324.515 94.0423C323.704 94.2957 323.096 94.8025 322.69 95.5626C322.234 96.2215 322.107 96.9816 322.31 97.8432L323.907 103.697C324.109 104.558 324.591 105.192 325.351 105.597C326.061 106.002 326.821 106.078 327.633 105.825L356.983 97.9952C357.845 97.7925 358.479 97.311 358.884 96.5509C359.29 95.892 359.391 95.1319 359.188 94.2703L357.592 88.417C357.389 87.5554 356.933 86.9219 356.223 86.5165C355.513 86.1111 354.727 86.0097 353.866 86.2124L324.515 94.0423Z" fill="#3D465D"/>
<path d="M333.107 135.776C332.397 135.32 331.612 135.219 330.75 135.472C329.939 135.675 329.305 136.105 328.849 136.764C328.443 137.322 327.86 137.854 327.1 138.361C325.224 139.526 323.019 140.109 320.485 140.109C319.319 140.109 318.229 140.008 317.215 139.805C316.353 139.653 315.568 139.805 314.858 140.261C314.148 140.616 313.692 141.224 313.489 142.085C313.286 142.846 313.439 143.58 313.945 144.29C314.351 144.898 315.01 145.304 315.922 145.506C317.291 145.81 318.812 145.962 320.485 145.962C324.388 145.962 327.759 145.05 330.598 143.226L330.522 143.302C332.245 142.238 333.513 141.047 334.324 139.729C334.729 139.019 334.831 138.285 334.628 137.524C334.374 136.714 333.867 136.131 333.107 135.776Z" fill="#3D465D"/>
<path d="M262.236 114.363C251.911 111.905 238.038 110.676 220.619 110.676C203.129 110.676 189.257 111.905 179.001 114.363C167.974 117.031 159.369 121.42 153.188 127.529C147.077 133.709 142.687 142.311 140.018 153.336C137.841 162.605 136.647 174.718 136.436 189.676C136.436 190.378 136.436 191.08 136.436 191.782C136.647 206.739 137.841 218.853 140.018 228.122C142.687 239.217 147.077 247.819 153.188 253.928C159.369 260.108 167.974 264.497 179.001 267.095C189.257 269.553 203.129 270.782 220.619 270.782C238.038 270.782 251.911 269.553 262.236 267.095C273.334 264.497 281.939 260.108 288.05 253.928C294.231 247.819 298.621 239.217 301.22 228.122C303.397 218.993 304.626 207.055 304.907 192.309C304.907 192.098 304.907 191.923 304.907 191.782V189.149C304.626 174.402 303.397 162.465 301.22 153.336C298.621 142.311 294.231 133.709 288.05 127.529C281.939 121.42 273.334 117.031 262.236 114.363Z" fill="#FCDA40"/>
<path d="M189.783 144.45C185.062 144.45 181.051 146.128 177.751 149.484C174.395 152.839 172.717 156.849 172.717 161.513C172.717 166.233 174.395 170.243 177.751 173.541C181.051 176.897 185.062 178.575 189.783 178.575C194.505 178.575 198.516 176.897 201.816 173.541C205.172 170.243 206.85 166.233 206.85 161.513C206.85 156.849 205.172 152.839 201.816 149.484C198.516 146.128 194.505 144.45 189.783 144.45Z" fill="white"/>
<path d="M189.783 157.681C187.298 157.681 185.168 158.594 183.393 160.419C181.567 162.194 180.654 164.323 180.654 166.808C180.654 169.343 181.567 171.498 183.393 173.273C185.168 175.047 187.298 175.935 189.783 175.935C192.319 175.935 194.475 175.047 196.25 173.273C198.025 171.498 198.913 169.343 198.913 166.808C198.913 164.323 198.025 162.194 196.25 160.419C194.475 158.594 192.319 157.681 189.783 157.681Z" fill="#3D465D"/>
<path d="M240.984 144.45C236.262 144.45 232.251 146.128 228.952 149.484C225.595 152.839 223.917 156.849 223.917 161.513C223.917 166.233 225.595 170.243 228.952 173.541C232.251 176.897 236.262 178.575 240.984 178.575C245.706 178.575 249.716 176.897 253.016 173.541C256.372 170.243 258.051 166.233 258.051 161.513C258.051 156.849 256.372 152.839 253.016 149.484C249.716 146.128 245.706 144.45 240.984 144.45Z" fill="white"/>
<path d="M240.946 157.264C238.404 157.264 236.225 158.198 234.409 160.065C232.542 161.88 231.608 164.058 231.608 166.599C231.608 169.192 232.542 171.397 234.409 173.212C236.225 175.027 238.404 175.934 240.946 175.934C243.539 175.934 245.744 175.027 247.56 173.212C249.375 171.397 250.283 169.192 250.283 166.599C250.283 164.058 249.375 161.88 247.56 160.065C245.744 158.198 243.539 157.264 240.946 157.264Z" fill="#3D465D"/>
<path d="M170.084 145.979C170.616 146.693 171.379 147.076 172.371 147.129L206.36 150.038C207.296 150.101 208.143 149.833 208.903 149.234C209.606 148.646 209.985 147.855 210.038 146.863L210.64 140.081C210.693 139.089 210.43 138.27 209.852 137.622C209.197 136.873 208.401 136.467 207.465 136.404L173.477 133.495C172.484 133.442 171.67 133.733 171.032 134.367C170.263 134.91 169.852 135.677 169.798 136.669L169.196 143.452C169.143 144.444 169.439 145.286 170.084 145.979Z" fill="#3D465D"/>
<path d="M222.722 138.82C221.812 139.104 221.129 139.673 220.674 140.526C220.162 141.265 220.02 142.118 220.248 143.085L222.04 149.654C222.267 150.621 222.808 151.332 223.661 151.787C224.457 152.242 225.311 152.327 226.221 152.043L259.16 143.256C260.127 143.028 260.838 142.488 261.293 141.635C261.748 140.895 261.862 140.042 261.635 139.075L259.843 132.506C259.615 131.54 259.103 130.829 258.307 130.374C257.51 129.919 256.628 129.805 255.661 130.032L222.722 138.82Z" fill="#3D465D"/>
<path d="M231.758 183.831C230.696 183.148 229.52 182.997 228.23 183.376C227.016 183.679 226.068 184.324 225.385 185.31C224.778 186.144 223.906 186.941 222.768 187.699C219.96 189.444 216.66 190.316 212.867 190.316C211.122 190.316 209.491 190.164 207.973 189.861C206.683 189.633 205.508 189.861 204.445 190.543C203.383 191.074 202.7 191.985 202.397 193.274C202.093 194.412 202.321 195.511 203.08 196.573C203.687 197.484 204.673 198.09 206.039 198.394C208.087 198.849 210.363 199.076 212.867 199.076C218.709 199.076 223.754 197.711 228.002 194.981L227.889 195.094C230.468 193.502 232.365 191.719 233.579 189.747C234.186 188.685 234.337 187.585 234.034 186.448C233.655 185.234 232.896 184.362 231.758 183.831Z" fill="#3D465D"/>
<path d="M262.236 105.936C251.911 103.478 238.038 102.25 220.619 102.25C203.129 102.25 189.256 103.478 179.001 105.936C167.974 108.605 159.369 112.993 153.188 119.103C147.077 125.282 142.687 133.884 140.018 144.909C137.56 155.232 136.33 169.101 136.33 186.516C136.33 187.569 136.365 188.622 136.436 189.676C136.646 174.718 137.84 162.605 140.018 153.336C142.687 142.311 147.077 133.709 153.188 127.529C159.369 121.42 167.974 117.031 179.001 114.363C189.256 111.905 203.129 110.676 220.619 110.676C238.038 110.676 251.911 111.905 262.236 114.363C273.334 117.031 281.939 121.42 288.049 127.529C294.231 133.709 298.621 142.311 301.22 153.336C303.397 162.465 304.626 174.402 304.907 189.149C304.907 188.306 304.907 187.429 304.907 186.516C304.907 169.101 303.678 155.232 301.22 144.909C298.621 133.884 294.231 125.282 288.049 119.103C281.939 112.993 273.334 108.605 262.236 105.936Z" fill="#FFE677"/>
<path d="M239.579 314.689L235.479 283.325L215.834 284.822V315.272H178.037C162.6 311.1 174.582 303.888 182.503 300.804V284.822C157.966 283.325 150.785 260.259 150.163 250.552C205.075 277.63 263.407 259.174 292.986 247.892C286.401 267.573 278.86 280.12 270.704 279.944C270.704 279.944 269.548 299.998 278.212 302.888C289.45 309.634 284.519 313.566 280.648 314.689H239.579Z" fill="#EDC200"/>
<path d="M164.295 99.0396C173.974 99.6207 181.632 87.0801 184.251 80.7372L185.418 77.1017L179.54 77.0974C177.904 81.6974 172.657 91.3134 164.768 92.9782C144.106 82.1318 152.932 98.1632 137.84 89.4499C130.994 91.2401 154.941 115.241 164.295 99.0396Z" fill="#FFB600"/>
<path d="M196.273 104.198L195.794 80.4793L241.3 78.4131L241.263 104.851L216.865 103.606L196.273 104.198Z" fill="black"/>
<rect x="175.738" y="65.6675" width="88.2021" height="14.3222" rx="7.16111" transform="rotate(1.44319 175.738 65.6675)" fill="black"/>
<path d="M180.09 197.699L173.752 206.773L172.708 212.932C170.537 225.751 197.999 233.5 212.002 235.772L266.451 220.42L263.62 207.053C244.433 202.844 217.901 215.692 207.033 222.643C198.179 205.558 185.382 198.895 180.09 197.699Z" fill="white"/>
<path d="M208.517 227.915L270.993 214.154L279.762 292.015L216.05 304.612L209.49 303.999C206.477 303.718 203.566 302.756 200.978 301.186L173.382 284.446L166.081 202.858C166 201.951 167.07 201.407 167.751 202.012C179.96 212.853 202.546 230.905 208.517 227.915Z" fill="#FF4362"/>
<path d="M209.533 236.608L271.373 221.272L279.684 291.445L215.951 305.036L209.533 236.608Z" fill="#D80041"/>
<path d="M183.374 258.177C194.58 245.426 178.259 238.787 171.515 233.247C169.725 231.777 168.875 229.566 168.26 227.333L165.378 216.878L140.191 221.076L142.816 232.132C143.303 238.02 170.677 272.625 183.374 258.177Z" fill="#FCDA40"/>
<path d="M257.168 258.87C245.961 246.119 262.283 239.48 269.027 233.941C270.817 232.471 271.666 230.26 272.282 228.027L275.163 217.571L300.351 221.77L297.726 232.825C297.239 238.714 269.865 273.318 257.168 258.87Z" fill="#FCDA40"/>
<path d="M133.038 57.0295L135.257 60.6551C135.562 61.1528 136.29 61.6061 136.874 61.6459L140.353 61.9277C142.58 62.1033 143.22 63.6499 141.786 65.3632L139.341 68.2663C138.933 68.7527 138.75 69.6544 138.949 70.2588L139.995 73.503C140.817 76.0645 139.519 77.1987 137.097 76.0298L133.714 74.3967C133.098 74.0981 132.144 74.1877 131.595 74.578L128.539 76.7532C126.352 78.3081 124.877 77.4135 125.254 74.7518L125.739 71.383C125.829 70.7532 125.508 69.8943 125.021 69.4863L122.103 67.0381C120.399 65.5975 120.768 63.9654 122.929 63.4117L126.303 62.5495C126.872 62.3992 127.515 61.8429 127.725 61.2965L129.298 57.3398C130.159 55.2074 131.839 55.0671 133.038 57.0295Z" fill="#F9B700"/>
<path d="M392.285 135.639L404.55 139.419L413.565 100.422L401.3 96.6416L392.285 135.639Z" fill="#F9B700"/>
<path d="M410.318 99.4293L402.456 133.837L405.76 134.855L413.621 100.448L410.318 99.4293Z" fill="#F9B700"/>
<path d="M401.299 96.6413L404.414 97.6013L394.984 134.77L392.92 132.858L401.299 96.6413Z" fill="#F9B700"/>
<path d="M392.757 145.883L399.96 148.103C401.323 148.523 402.764 147.692 403.081 146.301L404.942 138.158L392.676 134.378L390.741 142.392C390.498 143.911 391.274 145.532 392.757 145.883Z" fill="#E19178"/>
<path d="M392.688 142.992C392.371 144.382 393.341 146.063 394.704 146.483L399.961 148.103L392.757 145.883C391.394 145.463 390.424 143.782 390.861 142.322L392.677 134.378L394.504 135.047L392.688 142.992Z" fill="#CB836D"/>
<path d="M393.594 129.807L406.106 133.521L404.745 139.479L392.285 135.639L393.594 129.807Z" fill="#ECEEEE"/>
<path d="M401.299 96.6416L409.769 88.3032L413.565 100.422L401.299 96.6416Z" fill="#F9D798"/>
<path d="M410.687 91.2217C409.679 91.8038 408.39 91.4584 407.808 90.4502L407.742 90.3359L408.635 89.3802C409.176 88.8014 410.143 89.0512 410.336 89.8196L410.687 91.2217V91.2217Z" fill="#420964"/>
<defs>
<linearGradient id="paint0_linear_539_940" x1="-374.892" y1="457.553" x2="-268.083" y2="587.982" gradientUnits="userSpaceOnUse">
<stop stop-color="#01C070"/>
<stop offset="1" stop-color="#01C070"/>
</linearGradient>
</defs>
</svg>
