<svg viewBox="0 0 452 289" fill="none" xmlns="http://www.w3.org/2000/svg">
<path d="M233.194 226.646C233.184 225.369 232.706 224.319 231.761 223.497C231.286 223.044 230.77 222.743 230.214 222.594C229.671 222.394 229.095 222.321 228.484 222.374C227.194 222.435 226.112 222.931 225.24 223.863C222.79 226.431 220.082 228.7 217.115 230.67C219.553 227.637 221.634 224.17 223.356 220.268C223.833 219.094 223.846 217.932 223.396 216.781C222.926 215.599 222.098 214.794 220.912 214.367C219.738 213.89 218.561 213.886 217.378 214.355C216.182 214.875 215.32 215.714 214.792 216.874C213.266 220.449 211.337 223.551 209.007 226.179C207.829 227.543 206.198 228.827 204.114 230.03C204.478 228.366 204.988 226.511 205.645 224.464C206.034 223.213 205.939 222.049 205.36 220.973C204.763 219.864 203.857 219.147 202.643 218.821C201.411 218.464 200.225 218.593 199.084 219.209C197.975 219.806 197.217 220.714 196.809 221.933C196.488 222.931 196.205 223.885 195.962 224.796C195.247 227.26 194.775 229.479 194.545 231.45C194.532 231.5 194.534 231.542 194.553 231.574L194.478 233.221C194.089 236.695 194.365 240.17 195.304 243.647C197.067 248.701 200.274 251.553 204.924 252.203C205.108 252.226 205.292 252.248 205.476 252.27C205.958 252.291 206.424 252.321 206.875 252.36C210.699 252.247 215.547 250.945 221.419 248.453L226.039 246.683C227.241 246.246 228.421 245.736 229.58 245.152C229.887 245.018 230.185 244.867 230.473 244.7C231.614 244.085 232.372 243.177 232.748 241.976C233.105 240.744 232.994 239.589 232.415 238.512C231.818 237.403 230.912 236.686 229.698 236.361C228.466 236.003 227.279 236.133 226.139 236.748C224.613 237.586 223.002 238.239 221.305 238.705C225.202 236.199 228.734 233.283 231.901 229.958C232.573 229.271 232.983 228.5 233.13 227.645C233.193 227.309 233.214 226.976 233.194 226.646Z" fill="url(#paint0_linear_413_469)"/>
<path d="M439.739 259.672C440.84 259.024 441.51 258.086 441.75 256.856C441.904 256.218 441.907 255.621 441.758 255.065C441.66 254.495 441.435 253.959 441.083 253.457C440.386 252.37 439.415 251.681 438.172 251.391C434.723 250.554 431.403 249.343 428.215 247.759C432.06 248.354 436.103 248.422 440.344 247.963C441.598 247.789 442.611 247.219 443.383 246.254C444.172 245.256 444.455 244.136 444.231 242.895C444.058 241.641 443.473 240.619 442.475 239.829C441.427 239.053 440.269 238.726 439.001 238.849C435.141 239.315 431.491 239.196 428.05 238.492C426.279 238.154 424.352 237.383 422.268 236.18C423.891 235.663 425.753 235.177 427.854 234.723C429.132 234.434 430.092 233.77 430.735 232.73C431.397 231.658 431.565 230.516 431.24 229.302C430.934 228.056 430.228 227.093 429.125 226.413C428.053 225.751 426.888 225.549 425.628 225.805C424.603 226.026 423.636 226.258 422.725 226.502C420.233 227.116 418.076 227.816 416.254 228.603C416.204 228.616 416.169 228.639 416.151 228.671L414.687 229.43C411.484 230.83 408.612 232.807 406.07 235.358C402.575 239.412 401.709 243.616 403.471 247.968C403.543 248.138 403.616 248.309 403.689 248.479C403.912 248.907 404.119 249.326 404.31 249.735C406.32 252.991 409.872 256.539 414.966 260.377L418.809 263.494C419.788 264.316 420.82 265.083 421.905 265.795C422.175 265.994 422.454 266.176 422.743 266.343C423.847 267.023 425.012 267.225 426.239 266.95C427.485 266.643 428.43 265.97 429.073 264.93C429.734 263.858 429.903 262.716 429.578 261.502C429.271 260.256 428.566 259.293 427.462 258.613C425.974 257.711 424.603 256.642 423.351 255.405C427.47 257.527 431.761 259.127 436.224 260.208C437.155 260.446 438.028 260.415 438.842 260.116C439.164 260.002 439.463 259.854 439.739 259.672Z" fill="#FCDA40"/>
<path d="M7.65029 226.646C7.66072 225.369 8.13851 224.319 9.08367 223.497C9.55873 223.044 10.0744 222.743 10.6308 222.594C11.1736 222.394 11.7502 222.321 12.3607 222.374C13.6509 222.435 14.7324 222.931 15.6052 223.863C18.0549 226.431 20.7632 228.7 23.7299 230.67C21.2915 227.637 19.211 224.17 17.4884 220.268C17.0116 219.094 16.9985 217.932 17.4492 216.781C17.9184 215.599 18.7464 214.794 19.9331 214.367C21.1063 213.89 22.2843 213.886 23.4669 214.355C24.6631 214.875 25.5249 215.714 26.0523 216.874C27.579 220.449 29.5073 223.551 31.8373 226.179C33.0159 227.543 34.6472 228.827 36.7311 230.03C36.3667 228.366 35.8563 226.511 35.1998 224.464C34.8106 223.213 34.9054 222.049 35.4844 220.973C36.0818 219.864 36.9875 219.147 38.2013 218.821C39.4336 218.464 40.6201 218.593 41.7608 219.209C42.8694 219.806 43.6275 220.714 44.0353 221.933C44.3568 222.931 44.6394 223.885 44.8832 224.796C45.5976 227.26 46.0696 229.479 46.2994 231.45C46.3129 231.5 46.3105 231.542 46.2919 231.574L46.3671 233.221C46.7553 236.695 46.48 240.17 45.5411 243.647C43.7776 248.701 40.5707 251.553 35.9204 252.203C35.7366 252.226 35.5528 252.248 35.369 252.27C34.8867 252.291 34.4205 252.321 33.9702 252.36C30.1454 252.247 25.2974 250.945 19.4262 248.453L14.8053 246.683C13.6041 246.246 12.424 245.736 11.2648 245.152C10.9577 245.018 10.6599 244.867 10.3714 244.7C9.23074 244.085 8.47258 243.177 8.09691 241.976C7.73975 240.744 7.85065 239.589 8.42959 238.512C9.02705 237.403 9.9327 236.686 11.1465 236.361C12.3789 236.003 13.5654 236.133 14.706 236.748C16.2314 237.586 17.8426 238.239 19.5396 238.705C15.643 236.199 12.1112 233.283 8.94395 229.958C8.27203 229.271 7.86225 228.5 7.71461 227.645C7.65186 227.309 7.63042 226.976 7.65029 226.646Z" fill="url(#paint1_linear_413_469)"/>
<path d="M362.009 157.926C354.046 156.03 343.347 155.083 329.912 155.083C316.423 155.083 305.724 156.03 297.814 157.926C289.309 159.984 282.673 163.369 277.906 168.081C273.193 172.847 269.807 179.481 267.748 187.984C266.069 195.133 265.148 204.475 264.986 216.011C264.986 216.552 264.986 217.094 264.986 217.636C265.148 229.171 266.069 238.514 267.748 245.663C269.807 254.22 273.193 260.854 277.906 265.566C282.673 270.332 289.309 273.717 297.814 275.721C305.724 277.616 316.423 278.564 329.912 278.564C343.347 278.564 354.046 277.616 362.009 275.721C370.569 273.717 377.205 270.332 381.918 265.566C386.685 260.854 390.071 254.22 392.075 245.663C393.755 238.622 394.703 229.415 394.919 218.042C394.919 217.879 394.919 217.744 394.919 217.636V215.605C394.703 204.231 393.755 195.024 392.075 187.984C390.071 179.481 386.685 172.847 381.918 168.081C377.205 163.369 370.569 159.984 362.009 157.926Z" fill="#FCDA40"/>
<path d="M293.589 207.453C294.456 206.587 295.377 205.856 296.352 205.26C291.693 207.968 287.792 209.24 284.65 209.078C282.104 209.078 281.563 209.89 283.025 211.515L289.363 217.77C289.363 213.708 290.772 210.269 293.589 207.453ZM363.553 205.26C364.528 205.856 365.449 206.587 366.316 207.453C369.133 210.269 370.542 213.708 370.542 217.77L376.88 211.515C378.342 209.89 377.801 209.078 375.255 209.078C372.113 209.24 368.212 207.968 363.553 205.26Z" fill="#3D465D"/>
<path d="M317.073 206.316C313.931 203.12 310.112 201.523 305.615 201.523C301.119 201.523 297.3 203.12 294.158 206.316C290.962 209.457 289.363 213.275 289.363 217.77H321.867C321.867 213.275 320.269 209.457 317.073 206.316Z" fill="white"/>
<path d="M312.522 210.865C310.626 208.97 308.324 208.022 305.615 208.022C302.961 208.022 300.686 208.97 298.79 210.865C296.839 212.761 295.864 215.062 295.864 217.77H315.366C315.366 215.062 314.418 212.761 312.522 210.865Z" fill="#3D465D"/>
<path d="M365.828 206.316C362.686 203.12 358.867 201.523 354.371 201.523C349.875 201.523 346.055 203.12 342.913 206.316C339.717 209.457 338.119 213.275 338.119 217.77H370.623C370.623 213.275 369.025 209.457 365.828 206.316Z" fill="white"/>
<path d="M361.278 210.865C359.382 208.97 357.08 208.022 354.371 208.022C351.716 208.022 349.441 208.97 347.545 210.865C345.595 212.761 344.62 215.062 344.62 217.77H364.122C364.122 215.062 363.174 212.761 361.278 210.865Z" fill="#3D465D"/>
<path d="M290.989 196.649C290.989 197.082 291.151 197.461 291.476 197.786C291.801 198.111 292.18 198.273 292.614 198.273H313.741C314.175 198.273 314.554 198.111 314.879 197.786C315.204 197.461 315.366 197.082 315.366 196.649V191.774C315.366 191.341 315.204 190.962 314.879 190.637C314.554 190.312 314.175 190.15 313.741 190.15H307.484C307.322 190.15 307.186 190.177 307.078 190.231L292.208 193.968C291.828 194.022 291.53 194.212 291.314 194.536C291.097 194.807 290.989 195.132 290.989 195.511V196.649Z" fill="#3D465D"/>
<path d="M345.107 197.786C345.432 198.111 345.812 198.273 346.245 198.273H367.372C367.806 198.273 368.185 198.111 368.51 197.786C368.835 197.461 368.998 197.082 368.998 196.649V195.511C368.998 195.132 368.889 194.807 368.673 194.536C368.456 194.212 368.158 194.022 367.779 193.968L352.908 190.231C352.8 190.177 352.664 190.15 352.502 190.15H346.245C345.812 190.15 345.432 190.312 345.107 190.637C344.782 190.962 344.62 191.341 344.62 191.774V196.649C344.62 197.082 344.782 197.461 345.107 197.786Z" fill="#3D465D"/>
<path d="M343.238 233.937V233.855C343.888 233.368 344.511 232.881 345.107 232.393C345.757 231.797 346.11 231.066 346.164 230.2C346.218 229.279 345.947 228.494 345.351 227.844C344.755 227.14 344.024 226.761 343.157 226.706C342.236 226.652 341.451 226.923 340.801 227.519C340.367 227.898 339.907 228.277 339.419 228.656H339.338C336.738 230.606 333.596 231.581 329.912 231.581C326.12 231.581 322.896 230.606 320.242 228.656C319.917 228.385 319.619 228.115 319.348 227.844C318.752 227.14 318.021 226.761 317.154 226.706C316.233 226.652 315.448 226.923 314.798 227.519C314.093 228.115 313.714 228.873 313.66 229.794C313.606 230.66 313.877 231.445 314.473 232.149C314.96 232.691 315.556 233.233 316.26 233.774C316.314 233.774 316.342 233.801 316.342 233.855C320.079 236.672 324.603 238.08 329.912 238.08C335.112 238.08 339.555 236.699 343.238 233.937Z" fill="#3D465D"/>
<path d="M362.009 151.427C354.046 149.531 343.347 148.583 329.912 148.583C316.423 148.583 305.724 149.531 297.814 151.427C289.309 153.485 282.673 156.87 277.906 161.582C273.193 166.347 269.807 172.982 267.748 181.485C265.852 189.446 264.904 200.142 264.904 213.574C264.904 214.386 264.931 215.198 264.986 216.011C265.148 204.475 266.069 195.133 267.748 187.984C269.807 179.481 273.193 172.847 277.906 168.081C282.673 163.369 289.309 159.984 297.814 157.926C305.724 156.03 316.423 155.083 329.912 155.083C343.347 155.083 354.046 156.03 362.009 157.926C370.569 159.984 377.205 163.369 381.918 168.081C386.685 172.847 390.071 179.481 392.075 187.984C393.755 195.024 394.703 204.231 394.919 215.605C394.919 214.955 394.919 214.278 394.919 213.574C394.919 200.142 393.971 189.446 392.075 181.485C390.071 172.982 386.685 166.347 381.918 161.582C377.205 156.87 370.569 153.485 362.009 151.427Z" fill="url(#paint2_linear_413_469)"/>
<path d="M152.479 168.215C144.516 166.32 133.817 165.372 120.382 165.372C106.893 165.372 96.1936 166.32 88.2843 168.215C79.7792 170.273 73.143 173.658 68.3758 178.37C63.6628 183.136 60.277 189.77 58.2184 198.273C56.539 205.422 55.6181 214.765 55.4556 226.3C55.4556 226.842 55.4556 227.384 55.4556 227.925C55.6181 239.461 56.539 248.803 58.2184 255.952C60.277 264.509 63.6628 271.144 68.3758 275.855C73.143 280.621 79.7792 284.006 88.2843 286.01C96.1936 287.906 106.893 288.853 120.382 288.853C133.817 288.853 144.516 287.906 152.479 286.01C161.038 284.006 167.675 280.621 172.388 275.855C177.155 271.144 180.541 264.509 182.545 255.952C184.224 248.912 185.172 239.705 185.389 228.331C185.389 228.169 185.389 228.033 185.389 227.925V225.894C185.172 214.521 184.224 205.314 182.545 198.273C180.541 189.77 177.155 183.136 172.388 178.37C167.675 173.658 161.038 170.273 152.479 168.215Z" fill="url(#paint3_linear_413_469)"/>
<path d="M84.3752 208.664C81.179 211.859 79.5809 215.677 79.5809 220.118C79.5809 224.613 81.179 228.431 84.3752 231.573C87.5172 234.768 91.3364 236.366 95.8327 236.366C100.329 236.366 104.148 234.768 107.29 231.573C110.486 228.431 112.085 224.613 112.085 220.118C112.085 215.677 110.486 211.859 107.29 208.664C104.148 205.468 100.329 203.871 95.8327 203.871C91.3364 203.871 87.5172 205.468 84.3752 208.664Z" fill="white"/>
<path d="M102.74 227.024C104.636 225.128 105.584 222.826 105.584 220.118C105.584 217.465 104.636 215.19 102.74 213.294C100.844 211.345 98.5414 210.37 95.8327 210.37C93.1782 210.37 90.903 211.345 89.0069 213.294C87.0567 215.19 86.0816 217.465 86.0816 220.118C86.0816 222.826 87.0567 225.128 89.0069 227.024C90.903 228.919 93.1782 229.867 95.8327 229.867C98.5414 229.867 100.844 228.919 102.74 227.024Z" fill="#3D465D"/>
<path d="M133.131 208.664C129.935 211.859 128.336 215.677 128.336 220.118C128.336 224.613 129.935 228.431 133.131 231.573C136.273 234.768 140.092 236.366 144.588 236.366C149.085 236.366 152.904 234.768 156.046 231.573C159.242 228.431 160.84 224.613 160.84 220.118C160.84 215.677 159.242 211.859 156.046 208.664C152.904 205.468 149.085 203.871 144.588 203.871C140.092 203.871 136.273 205.468 133.131 208.664Z" fill="white"/>
<path d="M151.495 227.024C153.391 225.128 154.339 222.826 154.339 220.118C154.339 217.465 153.391 215.19 151.495 213.294C149.599 211.345 147.297 210.37 144.588 210.37C141.934 210.37 139.659 211.345 137.763 213.294C135.812 215.19 134.837 217.465 134.837 220.118C134.837 222.826 135.812 225.128 137.763 227.024C139.659 228.919 141.934 229.867 144.588 229.867C147.297 229.867 149.599 228.919 151.495 227.024Z" fill="#3D465D"/>
<path d="M133.537 246.846V246.764C134.187 246.277 134.81 245.789 135.406 245.302C136.056 244.706 136.408 243.975 136.462 243.109C136.517 242.188 136.246 241.403 135.65 240.753C135.054 240.049 134.323 239.67 133.456 239.615C132.535 239.561 131.749 239.832 131.099 240.428C130.666 240.807 130.205 241.186 129.718 241.565H129.637C127.036 243.515 123.894 244.49 120.211 244.49C116.418 244.49 113.195 243.515 110.541 241.565C110.216 241.294 109.918 241.024 109.647 240.753C109.051 240.049 108.32 239.67 107.453 239.615C106.532 239.561 105.746 239.832 105.096 240.428C104.392 241.024 104.013 241.782 103.959 242.702C103.904 243.569 104.175 244.354 104.771 245.058C105.259 245.6 105.855 246.142 106.559 246.683C106.613 246.683 106.64 246.71 106.64 246.764C110.378 249.581 114.902 250.989 120.211 250.989C125.411 250.989 129.853 249.608 133.537 246.846Z" fill="#3D465D"/>
<path d="M120.382 165.372C133.817 165.372 144.516 166.32 152.479 168.215C161.038 170.273 167.675 173.658 172.388 178.37C177.155 183.136 180.541 189.77 182.545 198.273C184.224 205.314 185.172 214.521 185.389 225.894C185.389 225.244 185.389 224.567 185.389 223.863C185.389 210.432 184.441 199.736 182.545 191.774C180.541 183.271 177.155 176.637 172.388 171.871C167.675 167.159 161.038 163.774 152.479 161.716C144.516 159.821 133.817 158.873 120.382 158.873C106.893 158.873 96.1936 159.821 88.2843 161.716C79.7792 163.774 73.143 167.159 68.3758 171.871C63.6628 176.637 60.277 183.271 58.2184 191.774C56.3223 199.736 55.3743 210.432 55.3743 223.863C55.3743 224.676 55.4014 225.488 55.4556 226.3C55.6181 214.765 56.539 205.422 58.2184 198.273C60.277 189.77 63.6628 183.136 68.3758 178.37C73.143 173.658 79.7792 170.273 88.2843 168.215C96.1936 166.32 106.893 165.372 120.382 165.372Z" fill="url(#paint4_linear_413_469)"/>
<path d="M238.613 29.6205C223.088 20.6602 206.64 18.5075 189.267 23.1624C171.895 27.8174 158.726 37.906 149.762 53.4281C141.334 68.0216 138.924 83.4134 142.533 99.6035C147.503 115.429 157.285 127.554 171.881 135.978C187.405 144.939 203.854 147.091 221.227 142.436C238.599 137.781 251.768 127.693 260.732 112.171C269.16 97.5771 271.57 82.1853 267.961 65.9952C262.991 50.1697 253.209 38.0448 238.613 29.6205Z" fill="#FF8B78"/>
<path d="M168.211 78.5324C165.95 82.4461 165.395 86.5478 166.544 90.8375C167.708 95.1795 170.24 98.4539 174.14 100.661C178.002 102.934 182.105 103.489 186.448 102.325C190.791 101.161 194.066 98.6297 196.274 94.73C198.549 90.8686 199.104 86.7669 197.941 82.4249C196.791 78.1352 194.259 74.8608 190.345 72.6015C186.483 70.3283 182.38 69.7735 178.037 70.9373C173.694 72.101 170.419 74.6327 168.211 78.5324Z" fill="white"/>
<path d="M190.701 91.5134C192.042 89.1917 192.362 86.723 191.661 84.1073C190.975 81.544 189.47 79.5922 187.148 78.252C184.812 76.8594 182.336 76.5137 179.719 77.2148C177.155 77.9018 175.21 79.4323 173.883 81.8063C172.49 84.142 172.137 86.5915 172.824 89.1549C173.525 91.7705 175.062 93.7415 177.436 95.0677C179.759 96.4079 182.202 96.7345 184.766 96.0475C187.382 95.3464 189.361 93.8351 190.701 91.5134Z" fill="#3D465D"/>
<path d="M215.305 65.9135C213.045 69.8272 212.489 73.9289 213.639 78.2186C214.802 82.5606 217.334 85.835 221.234 88.042C225.096 90.3152 229.199 90.87 233.542 89.7062C237.885 88.5425 241.161 86.0108 243.369 82.1111C245.643 78.2497 246.198 74.148 245.035 69.806C243.885 65.5163 241.354 62.2419 237.439 59.9826C233.577 57.7094 229.475 57.1546 225.132 58.3184C220.788 59.4821 217.513 62.0138 215.305 65.9135Z" fill="white"/>
<path d="M237.796 78.8945C239.136 76.5728 239.456 74.1041 238.756 71.4884C238.069 68.9251 236.564 66.9733 234.242 65.6331C231.906 64.2406 229.43 63.8948 226.814 64.5959C224.25 65.2829 222.304 66.8134 220.977 69.1874C219.584 71.5231 219.231 73.9726 219.918 76.536C220.619 79.1516 222.156 81.1226 224.531 82.4488C226.853 83.789 229.296 84.1156 231.86 83.4286C234.476 82.7275 236.455 81.2162 237.796 78.8945Z" fill="#3D465D"/>
<path d="M225.58 102.689L225.559 102.611C226.06 101.972 226.536 101.339 226.985 100.714C227.459 99.9708 227.61 99.1734 227.438 98.3224C227.252 97.419 226.787 96.7306 226.043 96.2571C225.286 95.7312 224.481 95.5543 223.63 95.7263C222.726 95.9124 222.038 96.3772 221.564 97.1209C221.243 97.5993 220.897 98.0847 220.524 98.577L220.445 98.5981C218.438 101.154 215.656 102.909 212.097 103.863C208.435 104.844 205.069 104.737 202 103.54C201.616 103.363 201.258 103.179 200.926 102.987C200.169 102.461 199.364 102.284 198.513 102.456C197.609 102.642 196.921 103.107 196.447 103.851C195.921 104.609 195.751 105.439 195.937 106.343C196.109 107.194 196.574 107.882 197.331 108.408C197.943 108.805 198.658 109.174 199.479 109.515C199.531 109.501 199.564 109.52 199.578 109.572C203.918 111.325 208.651 111.514 213.779 110.14C218.803 108.794 222.736 106.31 225.58 102.689Z" fill="#3D465D"/>
<path d="M236.931 23.3429C221.406 14.3825 204.958 12.2298 187.585 16.8848C170.213 21.5398 157.044 31.6283 148.08 47.1505C139.115 62.6727 136.96 79.1177 141.614 96.4857C141.894 97.532 142.2 98.5712 142.533 99.6034C138.924 83.4134 141.334 68.0216 149.762 53.4281C158.726 37.9059 171.895 27.8173 189.267 23.1624C206.64 18.5074 223.088 20.6601 238.613 29.6205C253.209 38.0447 262.991 50.1697 267.961 65.9952C267.733 64.9349 267.479 63.8816 267.198 62.8354C262.545 45.4674 252.455 32.3033 236.931 23.3429Z" fill="#FFAA9D"/>
<path d="M241.886 155.899C242.034 155.973 242.182 156.066 242.331 156.177C243.628 157.029 244.499 158.196 244.943 159.678C245.611 162.013 246.63 164.217 248.001 166.292C248.891 167.7 249.947 169.034 251.17 170.294C251.318 170.442 251.466 170.609 251.615 170.794C255.098 173.869 257.118 176.426 257.674 178.464C258.304 180.02 258.619 181.687 258.619 183.466C258.619 187.282 257.211 190.542 254.394 193.247C251.577 195.952 248.186 197.304 244.221 197.304C241.96 197.304 240.348 197.304 239.384 197.304C237.198 197.304 235.27 197.304 233.603 197.304C231.453 197.304 229.619 196.582 228.099 195.137C226.987 194.062 226.58 192.377 226.876 190.079C224.764 189.931 223.485 188.579 223.04 186.022C223.04 185.874 223.04 185.726 223.04 185.578C223.04 183.947 223.522 182.502 224.486 181.243C223.596 179.983 223.151 178.556 223.151 176.963C223.151 174.888 223.911 173.128 225.431 171.683C226.95 170.201 228.785 169.46 230.934 169.46C232.75 169.46 234.047 169.571 234.826 169.794C233.973 168.089 233.158 165.829 232.38 163.013C231.898 161.383 232.083 159.827 232.936 158.345C233.491 157.418 234.159 156.696 234.937 156.177C235.53 155.807 236.178 155.529 236.883 155.343C238.625 154.862 240.292 155.047 241.886 155.899Z" fill="#FCDA40"/>
<path d="M322.072 72.3289C322.098 71.0294 321.641 69.9476 320.703 69.0836C320.232 68.6095 319.716 68.2887 319.154 68.1211C318.607 67.9024 318.023 67.8114 317.4 67.8482C316.085 67.8733 314.971 68.3474 314.056 69.2706C311.49 71.8151 308.669 74.0473 305.594 75.9671C308.162 72.9502 310.378 69.4808 312.242 65.5588C312.76 64.3784 312.807 63.1962 312.381 62.0123C311.937 60.7952 311.117 59.9527 309.921 59.4849C308.741 58.966 307.543 58.9284 306.326 59.372C305.094 59.8668 304.193 60.6967 303.623 61.8618C301.968 65.4567 299.917 68.5583 297.472 71.1664C296.234 72.5216 294.537 73.7817 292.382 74.9469C292.8 73.2637 293.372 71.3901 294.099 69.326C294.53 68.0641 294.467 66.877 293.908 65.7647C293.332 64.6193 292.431 63.8638 291.205 63.4981C289.961 63.0993 288.75 63.197 287.571 63.7913C286.758 64.1883 286.127 64.7651 285.679 65.5215C285.486 65.7976 285.319 66.1234 285.179 66.4989C284.824 67.5054 284.509 68.4684 284.235 69.388C283.438 71.876 282.895 74.1198 282.605 76.1193C282.59 76.1704 282.591 76.2125 282.609 76.2457L282.486 77.9194C281.992 81.4435 282.173 84.9882 283.03 88.5535C284.681 93.7464 287.863 96.7398 292.577 97.5338C292.763 97.5616 292.95 97.5894 293.136 97.6172C293.626 97.6521 294.1 97.696 294.557 97.7489C296.834 97.7605 299.469 97.3643 302.462 96.5603C304.618 95.9518 306.953 95.1603 309.469 94.1861L314.221 92.5163C315.456 92.1058 316.671 91.62 317.868 91.0589C318.184 90.9308 318.491 90.786 318.79 90.6247C319.968 90.0304 320.765 89.1279 321.182 87.9171C321.58 86.673 321.5 85.4949 320.942 84.3827C320.365 83.2373 319.464 82.4817 318.238 82.1161C316.994 81.7173 315.783 81.815 314.605 82.4092C313.029 83.2186 311.37 83.8365 309.63 84.2632C313.667 81.8235 317.344 78.9568 320.661 75.663C321.365 74.9828 321.804 74.2097 321.978 73.3439C322.051 73.0043 322.083 72.6659 322.072 72.3289Z" fill="#FF8B78"/>
<path d="M95.3978 112.89C95.0717 111.631 95.2649 110.473 95.9776 109.415C96.3255 108.845 96.7533 108.413 97.2611 108.12C97.7422 107.781 98.29 107.557 98.9043 107.448C100.189 107.168 101.383 107.371 102.487 108.057C105.573 109.937 108.834 111.455 112.27 112.61C109.073 110.27 106.114 107.409 103.392 104.026C102.613 102.998 102.294 101.858 102.434 100.608C102.584 99.321 103.186 98.3115 104.241 97.5794C105.269 96.801 106.426 96.4867 107.713 96.6362C109.026 96.832 110.094 97.4306 110.919 98.432C113.362 101.545 116.075 104.087 119.059 106.058C120.577 107.089 122.52 107.922 124.886 108.556C124.089 107.015 123.098 105.325 121.914 103.486C121.201 102.358 120.988 101.189 121.273 99.9772C121.569 98.7293 122.27 97.7855 123.378 97.1457C124.496 96.4695 125.697 96.2838 126.981 96.5888C127.864 96.7865 128.611 97.2014 129.222 97.8334C129.474 98.0571 129.712 98.3354 129.935 98.6684C130.514 99.5651 131.043 100.429 131.523 101.26C132.875 103.496 133.924 105.552 134.669 107.43C134.696 107.476 134.704 107.518 134.694 107.554L135.202 109.154C136.499 112.467 137.144 115.958 137.137 119.624C136.734 125.059 134.332 128.708 129.931 130.573C129.756 130.643 129.581 130.713 129.406 130.783C128.938 130.931 128.487 131.084 128.055 131.241C125.842 131.78 123.187 132.005 120.09 131.917C117.851 131.824 115.396 131.596 112.723 131.231L107.713 130.708C106.417 130.595 105.122 130.404 103.828 130.135C103.491 130.084 103.158 130.014 102.831 129.927C101.547 129.622 100.562 128.928 99.8764 127.847C99.2004 126.729 99.0053 125.565 99.2908 124.353C99.5862 123.105 100.288 122.162 101.396 121.522C102.513 120.846 103.714 120.66 104.998 120.965C106.719 121.387 108.475 121.604 110.267 121.616C105.775 120.178 101.533 118.241 97.5427 115.806C96.7009 115.307 96.0948 114.657 95.7244 113.855C95.5742 113.542 95.4654 113.22 95.3978 112.89Z" fill="#FF8B78"/>
<defs>
<linearGradient id="paint0_linear_413_469" x1="215.155" y1="174.076" x2="161.1" y2="205.285" gradientUnits="userSpaceOnUse">
<stop stop-color="#7BAAEB"/>
<stop offset="1" stop-color="#6C75E9"/>
</linearGradient>
<linearGradient id="paint1_linear_413_469" x1="25.6898" y1="174.076" x2="79.7446" y2="205.285" gradientUnits="userSpaceOnUse">
<stop stop-color="#7BAAEB"/>
<stop offset="1" stop-color="#6C75E9"/>
</linearGradient>
<linearGradient id="paint2_linear_413_469" x1="36.9721" y1="148.177" x2="36.9721" y2="218.854" gradientUnits="userSpaceOnUse">
<stop offset="1" stop-color="#FFEA89"/>
</linearGradient>
<linearGradient id="paint3_linear_413_469" x1="-172.152" y1="158.873" x2="-172.152" y2="288.853" gradientUnits="userSpaceOnUse">
<stop stop-color="#7BAAEB"/>
<stop offset="1" stop-color="#6C75E9"/>
</linearGradient>
<linearGradient id="paint4_linear_413_469" x1="-172.558" y1="158.467" x2="-172.558" y2="229.144" gradientUnits="userSpaceOnUse">
<stop stop-color="#95C2F0"/>
<stop offset="1" stop-color="#6B8EE9"/>
</linearGradient>
</defs>
</svg>
