<svg width="435" height="320" viewBox="0 0 435 320" fill="none" xmlns="http://www.w3.org/2000/svg">
<path d="M185.007 28.7557L188.051 33.7273C188.468 34.4098 189.467 35.0314 190.268 35.086L195.038 35.4723C198.092 35.7131 198.97 37.834 197.003 40.1833L193.651 44.1641C193.091 44.8311 192.84 46.0674 193.114 46.8963L194.547 51.3448C195.675 54.8572 193.894 56.4125 190.574 54.8097L185.935 52.5703C185.09 52.1608 183.782 52.2837 183.029 52.8188L178.839 55.8016C175.84 57.9338 173.817 56.707 174.334 53.0572L174.999 48.4377C175.123 47.5742 174.682 46.3965 174.015 45.8369L170.013 42.4799C167.676 40.5045 168.182 38.2665 171.145 37.5072L175.772 36.325C176.553 36.119 177.434 35.3561 177.722 34.6068L179.88 29.1813C181.061 26.2573 183.364 26.0648 185.007 28.7557Z" fill="#F9B700"/>
<path d="M237.038 38.1406L239.581 42.2944C239.929 42.8646 240.764 43.384 241.433 43.4295L245.418 43.7523C247.97 43.9535 248.704 45.7255 247.06 47.6883L244.26 51.0143C243.792 51.5716 243.582 52.6046 243.811 53.2971L245.008 57.0139C245.951 59.9485 244.463 61.248 241.688 59.9088L237.813 58.0378C237.107 57.6957 236.014 57.7984 235.385 58.2455L231.884 60.7376C229.378 62.519 227.688 61.4941 228.12 58.4446L228.676 54.585C228.779 53.8636 228.411 52.8795 227.853 52.412L224.51 49.6072C222.558 47.9568 222.98 46.0869 225.456 45.4525L229.322 44.4648C229.974 44.2926 230.71 43.6552 230.951 43.0292L232.753 38.4961C233.74 36.0531 235.665 35.8923 237.038 38.1406Z" fill="#F9B700"/>
<path d="M214.744 156.18C202.916 144.004 195.011 159.751 188.958 166.038C187.351 167.706 185.08 168.379 182.806 168.817L172.155 170.865L174.357 196.305L185.584 194.559C191.493 194.538 228.147 169.976 214.744 156.18Z" fill="#01C070"/>
<path d="M23.1646 136.574C37.2609 127.116 41.7282 144.16 46.3465 151.566C47.5721 153.531 49.6545 154.66 51.7887 155.559L61.7826 159.772L54.3541 184.203L43.7323 180.167C37.9563 178.921 7.19278 147.292 23.1646 136.574Z" fill="#01C070"/>
<ellipse cx="115.813" cy="278.163" rx="53.2766" ry="11.8935" transform="rotate(4.56088 115.813 278.163)" fill="#E0E6EA"/>
<path d="M131.471 100.261C97.857 96.9191 77.7885 97.9189 71.2653 103.261C64.7421 108.603 59.8049 128.08 56.4537 161.693C53.6844 190.471 54.0015 209.323 57.4049 218.248C57.7362 218.43 58.0897 218.64 58.4654 218.877C67.0134 223.771 85.0344 227.534 112.528 230.168C146.088 233.555 166.156 232.555 172.734 227.169C179.257 221.827 184.194 202.35 187.545 168.737C190.384 141.263 190.275 122.832 187.217 113.442C187.104 113.081 186.963 112.743 186.794 112.427C178.825 107.241 160.383 103.186 131.471 100.261Z" fill="url(#paint0_linear_557_582)"/>
<ellipse cx="84.2846" cy="175.378" rx="7.84897" ry="7.72201" transform="rotate(8.70226 84.2846 175.378)" fill="#25D28A"/>
<path d="M81.1396 132.859C77.4953 136.502 75.6731 140.856 75.6731 145.919C75.6731 151.045 77.4953 155.398 81.1396 158.98C84.7222 162.623 89.0769 164.445 94.2037 164.445C99.3305 164.445 103.685 162.623 107.268 158.98C110.912 155.398 112.734 151.045 112.734 145.919C112.734 140.856 110.912 136.502 107.268 132.859C103.685 129.215 99.3305 127.394 94.2037 127.394C89.0769 127.394 84.7222 129.215 81.1396 132.859Z" fill="white"/>
<path d="M105.714 157.913C107.648 155.979 108.615 153.631 108.615 150.869C108.615 148.161 107.648 145.841 105.714 143.907C103.779 141.918 101.431 140.924 98.6674 140.924C95.9594 140.924 93.6383 141.918 91.704 143.907C89.7145 145.841 88.7197 148.161 88.7197 150.869C88.7197 153.631 89.7145 155.979 91.704 157.913C93.6383 159.847 95.9594 160.814 98.6674 160.814C101.431 160.814 103.779 159.847 105.714 157.913Z" fill="#3D465D"/>
<path d="M136.731 132.859C133.087 136.502 131.265 140.856 131.265 145.92C131.265 151.045 133.087 155.399 136.731 158.98C140.314 162.624 144.669 164.445 149.795 164.445C154.922 164.445 159.277 162.624 162.86 158.98C166.504 155.399 168.326 151.045 168.326 145.92C168.326 140.856 166.504 136.502 162.86 132.859C159.277 129.216 154.922 127.394 149.795 127.394C144.669 127.394 140.314 129.216 136.731 132.859Z" fill="white"/>
<path d="M158.647 156.086C160.51 154.224 161.441 151.962 161.441 149.302C161.441 146.695 160.51 144.46 158.647 142.598C156.784 140.682 154.522 139.725 151.861 139.725C149.253 139.725 147.018 140.682 145.155 142.598C143.239 144.46 142.281 146.695 142.281 149.302C142.281 151.962 143.239 154.224 145.155 156.086C147.018 157.948 149.253 158.879 151.861 158.879C154.522 158.879 156.784 157.948 158.647 156.086Z" fill="#3D465D"/>
<path d="M137.194 176.394V176.302C137.936 175.746 138.646 175.19 139.325 174.635C140.067 173.955 140.468 173.122 140.53 172.134C140.592 171.084 140.283 170.188 139.603 169.447C138.924 168.645 138.09 168.212 137.102 168.151C136.052 168.089 135.156 168.398 134.415 169.077C133.921 169.509 133.396 169.941 132.84 170.374H132.747C129.782 172.597 126.199 173.708 121.999 173.708C117.675 173.708 114 172.597 110.974 170.374C110.603 170.065 110.263 169.756 109.954 169.447C109.275 168.645 108.441 168.212 107.453 168.151C106.403 168.089 105.507 168.398 104.766 169.077C103.963 169.756 103.53 170.621 103.469 171.67C103.407 172.658 103.716 173.554 104.395 174.357C104.951 174.974 105.631 175.592 106.434 176.209C106.495 176.209 106.526 176.24 106.526 176.302C110.788 179.513 115.946 181.119 121.999 181.119C127.929 181.119 132.994 179.544 137.194 176.394Z" fill="#3D465D"/>
<path d="M126.13 93.74C92.5166 90.3978 72.4482 91.3975 65.925 96.7394C59.4018 102.081 54.4646 121.559 51.1134 155.171C47.8512 188.893 48.8458 208.96 54.0973 215.373C54.8983 216.351 56.0009 217.309 57.405 218.248C54.0015 209.323 53.6845 190.471 56.4538 161.693C59.805 128.08 64.7422 108.603 71.2654 103.261C77.7886 97.919 97.8571 96.9192 131.471 100.262C160.383 103.186 178.825 107.241 186.794 112.427C186.107 110.811 185.363 109.514 184.561 108.536C179.31 102.123 159.833 97.191 126.13 93.74Z" fill="#25D28A"/>
<path d="M122.681 265.013L121.144 240.631L105.928 240.768L104.352 264.233L75.2258 262.276C63.5454 258.262 73.1523 253.325 79.4158 251.358L80.2432 239.042C59.0199 235.95 53.6118 222.356 53.6348 214.844C93.405 236.141 152.36 230.561 175.738 223.397C169.644 238.223 154.74 240.407 148.464 239.85C148.464 239.85 146.535 255.243 153.062 257.919C161.373 263.699 157.37 266.474 154.329 267.139L122.681 265.013Z" fill="#009F5D"/>
<path d="M408.793 127.963C397.031 114.235 389.149 131.811 383.109 139.018C381.475 140.968 379.018 141.819 376.529 142.361L366.204 144.613L368.405 173.458L379.633 171.479C385.541 171.455 422.195 143.605 408.793 127.963Z" fill="#FF86C9"/>
<path d="M217.213 105.734C231.243 95.0592 235.734 114.153 240.33 122.612C241.567 124.888 243.794 126.283 246.105 127.387L255.831 132.036L248.402 159.736L237.781 155.16C232.005 153.747 201.241 117.885 217.213 105.734Z" fill="#01C070"/>
<ellipse cx="48.3431" cy="10.6867" rx="48.3431" ry="10.6867" transform="matrix(0.995935 0.0900789 -0.0701819 0.997534 281.957 250.524)" fill="#E0E6EA"/>
<path d="M325.519 64.561C291.905 60.7714 271.837 61.905 265.314 67.9617C258.79 74.0185 253.853 96.1024 250.502 134.214C247.733 166.843 248.05 188.218 251.453 198.337C251.785 198.544 252.138 198.782 252.514 199.051C261.062 204.599 279.083 208.867 306.577 211.853C340.136 215.693 360.204 214.56 366.782 208.452C373.305 202.396 378.242 180.312 381.594 142.201C384.433 111.05 384.323 90.152 381.266 79.5058C381.152 79.0968 381.011 78.713 380.843 78.3544C372.873 72.475 354.432 67.8772 325.519 64.561Z" fill="#FF86C9"/>
<path d="M320.179 57.1668C286.565 53.3772 266.497 54.5108 259.973 60.5675C253.45 66.6243 248.513 88.7082 245.162 126.819C241.9 165.054 242.894 187.806 248.146 195.077C248.947 196.187 250.049 197.273 251.453 198.337C248.05 188.218 247.733 166.843 250.502 134.214C253.853 96.1025 258.791 74.0185 265.314 67.9618C271.837 61.905 291.905 60.7714 325.519 64.561C354.432 67.8772 372.873 72.475 380.843 78.3544C380.155 76.5223 379.411 75.0516 378.61 73.9425C373.358 66.6715 353.881 61.0796 320.179 57.1668Z" fill="#FFB0DC"/>
<path d="M316.729 251.361L315.193 223.716L299.977 223.871L298.401 250.477L269.274 248.258C257.594 243.707 267.201 238.109 273.464 235.879L274.292 221.915C253.068 218.408 247.66 202.995 247.683 194.478C287.453 218.625 346.408 212.298 369.786 204.176C363.693 220.985 348.789 223.462 342.512 222.83C342.512 222.83 340.583 240.284 347.111 243.318C355.422 249.871 351.418 253.017 348.377 253.771L316.729 251.361Z" fill="#FF62B9"/>
<path d="M295.664 98.8215C291.457 98.8215 287.883 100.317 284.943 103.307C281.952 106.297 280.457 109.869 280.457 114.025C280.457 118.231 281.952 121.804 284.943 124.744C287.883 127.734 291.457 129.229 295.664 129.229C299.872 129.229 303.445 127.734 306.385 124.744C309.376 121.804 310.872 118.231 310.872 114.025C310.872 109.869 309.376 106.297 306.385 103.307C303.445 100.317 299.872 98.8215 295.664 98.8215Z" fill="white"/>
<path d="M295.824 110.438C293.715 110.438 291.908 111.212 290.401 112.761C288.852 114.267 288.077 116.075 288.077 118.183C288.077 120.334 288.852 122.163 290.401 123.669C291.908 125.175 293.715 125.928 295.824 125.928C297.976 125.928 299.805 125.175 301.312 123.669C302.818 122.163 303.571 120.334 303.571 118.183C303.571 116.075 302.818 114.267 301.312 112.761C299.805 111.212 297.976 110.438 295.824 110.438Z" fill="#3D465D"/>
<path d="M341.287 98.8215C337.08 98.8215 333.506 100.317 330.566 103.307C327.575 106.297 326.079 109.869 326.079 114.025C326.079 118.231 327.575 121.804 330.566 124.744C333.506 127.734 337.08 129.229 341.287 129.229C345.494 129.229 349.068 127.734 352.008 124.744C354.999 121.804 356.495 118.231 356.495 114.025C356.495 109.869 354.999 106.297 352.008 103.307C349.068 100.317 345.494 98.8215 341.287 98.8215Z" fill="white"/>
<path d="M338.417 108.514C336.046 108.514 334.014 109.385 332.32 111.126C330.578 112.819 329.708 114.851 329.708 117.221C329.708 119.64 330.578 121.695 332.32 123.388C334.014 125.081 336.046 125.928 338.417 125.928C340.836 125.928 342.892 125.081 344.586 123.388C346.279 121.695 347.126 119.64 347.126 117.221C347.126 114.851 346.279 112.819 344.586 111.126C342.892 109.385 340.836 108.514 338.417 108.514Z" fill="#3D465D"/>
<path d="M277.762 104.65C278.116 105.359 278.725 105.815 279.587 106.018L308.937 113.924C309.748 114.126 310.534 114.025 311.294 113.62C312.004 113.214 312.46 112.581 312.663 111.719L314.26 105.866C314.463 105.004 314.361 104.244 313.956 103.585C313.499 102.825 312.866 102.344 312.055 102.141L282.704 94.2352C281.842 94.0324 281.082 94.1591 280.423 94.6153C279.663 94.97 279.181 95.5781 278.978 96.4397L277.381 102.293C277.179 103.155 277.305 103.94 277.762 104.65Z" fill="#3D465D"/>
<path d="M325.015 93.8042C324.204 94.0576 323.596 94.5644 323.19 95.3246C322.734 95.9834 322.607 96.7436 322.81 97.6051L324.407 103.459C324.61 104.32 325.091 104.954 325.852 105.359C326.561 105.764 327.322 105.84 328.133 105.587L357.483 97.7572C358.345 97.5545 358.979 97.073 359.384 96.3128C359.79 95.654 359.891 94.8938 359.689 94.0323L358.092 88.1789C357.889 87.3174 357.433 86.6839 356.723 86.2785C356.013 85.873 355.228 85.7717 354.366 85.9744L325.015 93.8042Z" fill="#3D465D"/>
<path d="M333.607 135.538C332.898 135.082 332.112 134.98 331.25 135.234C330.439 135.437 329.805 135.867 329.349 136.526C328.944 137.084 328.361 137.616 327.6 138.123C325.725 139.288 323.52 139.871 320.985 139.871C319.819 139.871 318.729 139.77 317.715 139.567C316.854 139.415 316.068 139.567 315.358 140.023C314.648 140.378 314.192 140.986 313.989 141.847C313.787 142.608 313.939 143.342 314.446 144.052C314.851 144.66 315.51 145.066 316.423 145.268C317.791 145.572 319.312 145.724 320.985 145.724C324.888 145.724 328.259 144.812 331.098 142.988L331.022 143.064C332.746 141.999 334.013 140.809 334.824 139.491C335.229 138.781 335.331 138.047 335.128 137.286C334.875 136.476 334.368 135.893 333.607 135.538Z" fill="#3D465D"/>
<path d="M262.737 114.125C252.411 111.667 238.539 110.438 221.119 110.438C203.629 110.438 189.757 111.667 179.502 114.125C168.474 116.793 159.87 121.182 153.688 127.291C147.577 133.471 143.187 142.073 140.518 153.098C138.341 162.367 137.147 174.48 136.936 189.437C136.936 190.14 136.936 190.842 136.936 191.544C137.147 206.501 138.341 218.615 140.518 227.884C143.187 238.979 147.577 247.581 153.688 253.69C159.87 259.87 168.474 264.259 179.502 266.857C189.757 269.315 203.629 270.544 221.119 270.544C238.539 270.544 252.411 269.315 262.737 266.857C273.834 264.259 282.439 259.87 288.55 253.69C294.731 247.581 299.121 238.979 301.72 227.884C303.897 218.755 305.127 206.817 305.408 192.071C305.408 191.86 305.408 191.685 305.408 191.544V188.911C305.127 174.164 303.897 162.227 301.72 153.098C299.121 142.073 294.731 133.471 288.55 127.291C282.439 121.182 273.834 116.793 262.737 114.125Z" fill="#FCDA40"/>
<path d="M190.284 144.212C185.562 144.212 181.551 145.89 178.252 149.246C174.895 152.601 173.217 156.611 173.217 161.274C173.217 165.995 174.895 170.005 178.252 173.303C181.551 176.659 185.562 178.337 190.284 178.337C195.005 178.337 199.016 176.659 202.316 173.303C205.672 170.005 207.35 165.995 207.35 161.274C207.35 156.611 205.672 152.601 202.316 149.246C199.016 145.89 195.005 144.212 190.284 144.212Z" fill="white"/>
<path d="M190.284 157.443C187.799 157.443 185.668 158.356 183.893 160.181C182.067 161.956 181.155 164.085 181.155 166.57C181.155 169.105 182.067 171.26 183.893 173.035C185.668 174.809 187.799 175.697 190.284 175.697C192.82 175.697 194.975 174.809 196.75 173.035C198.525 171.26 199.413 169.105 199.413 166.57C199.413 164.085 198.525 161.956 196.75 160.181C194.975 158.356 192.82 157.443 190.284 157.443Z" fill="#3D465D"/>
<path d="M241.484 144.212C236.763 144.212 232.752 145.89 229.452 149.246C226.096 152.601 224.417 156.611 224.417 161.274C224.417 165.995 226.096 170.005 229.452 173.303C232.752 176.659 236.763 178.337 241.484 178.337C246.206 178.337 250.217 176.659 253.516 173.303C256.873 170.005 258.551 165.995 258.551 161.274C258.551 156.611 256.873 152.601 253.516 149.246C250.217 145.89 246.206 144.212 241.484 144.212Z" fill="white"/>
<path d="M241.446 157.026C238.904 157.026 236.725 157.96 234.909 159.827C233.042 161.642 232.108 163.82 232.108 166.361C232.108 168.954 233.042 171.158 234.909 172.974C236.725 174.789 238.904 175.696 241.446 175.696C244.04 175.696 246.244 174.789 248.06 172.974C249.876 171.158 250.783 168.954 250.783 166.361C250.783 163.82 249.876 161.642 248.06 159.827C246.244 157.96 244.04 157.026 241.446 157.026Z" fill="#3D465D"/>
<path d="M170.584 145.741C171.117 146.454 171.879 146.838 172.871 146.891L206.86 149.8C207.796 149.863 208.644 149.595 209.403 148.996C210.107 148.407 210.485 147.617 210.538 146.625L211.14 139.843C211.193 138.851 210.931 138.032 210.352 137.384C209.697 136.635 208.902 136.229 207.966 136.166L173.977 133.257C172.985 133.204 172.17 133.495 171.533 134.129C170.763 134.672 170.352 135.439 170.299 136.431L169.696 143.214C169.643 144.206 169.939 145.048 170.584 145.741Z" fill="#3D465D"/>
<path d="M223.679 136.193C222.739 136.355 221.987 136.828 221.423 137.614C220.818 138.279 220.564 139.106 220.662 140.094L221.571 146.843C221.668 147.831 222.11 148.607 222.896 149.171C223.625 149.727 224.46 149.924 225.4 149.763L259.211 145.405C260.2 145.307 260.976 144.866 261.54 144.08C262.089 143.408 262.314 142.577 262.216 141.589L261.308 134.84C261.21 133.852 260.797 133.08 260.067 132.523C259.338 131.967 258.479 131.738 257.49 131.835L223.679 136.193Z" fill="#3D465D"/>
<path d="M232.29 188.149C231.401 187.252 230.286 186.85 228.945 186.941C227.694 186.974 226.629 187.398 225.748 188.212C224.975 188.896 223.951 189.484 222.676 189.978C219.557 191.073 216.146 191.21 212.443 190.388C210.74 190.01 209.18 189.509 207.764 188.884C206.554 188.382 205.357 188.35 204.172 188.786C203.02 189.074 202.157 189.815 201.581 191.008C201.038 192.053 201.022 193.176 201.533 194.377C201.928 195.397 202.76 196.203 204.027 196.795C205.929 197.683 208.101 198.398 210.545 198.941C216.249 200.206 221.47 199.966 226.209 198.22L226.073 198.307C228.937 197.311 231.174 195.981 232.787 194.319C233.609 193.414 233.995 192.373 233.946 191.197C233.838 189.93 233.286 188.914 232.29 188.149Z" fill="#3D465D"/>
<path d="M262.736 105.698C252.411 103.24 238.539 102.011 221.119 102.011C203.629 102.011 189.757 103.24 179.502 105.698C168.474 108.367 159.869 112.755 153.688 118.865C147.577 125.044 143.187 133.646 140.518 144.671C138.06 154.994 136.831 168.863 136.831 186.278C136.831 187.331 136.866 188.384 136.936 189.438C137.147 174.48 138.341 162.367 140.518 153.098C143.187 142.073 147.577 133.471 153.688 127.291C159.869 121.182 168.474 116.793 179.502 114.125C189.757 111.667 203.629 110.438 221.119 110.438C238.539 110.438 252.411 111.667 262.736 114.125C273.834 116.793 282.439 121.182 288.55 127.291C294.731 133.471 299.121 142.073 301.72 153.098C303.897 162.227 305.126 174.164 305.407 188.911C305.407 188.068 305.407 187.19 305.407 186.278C305.407 168.863 304.178 154.994 301.72 144.671C299.121 133.646 294.731 125.044 288.55 118.865C282.439 112.755 273.834 108.367 262.736 105.698Z" fill="#FFE677"/>
<path d="M240.079 314.451L235.979 283.087L216.334 284.584V315.034H178.538C163.1 310.862 175.082 303.65 183.003 300.566V284.584C158.467 283.087 151.286 260.021 150.663 250.314C205.575 277.392 263.907 258.936 293.486 247.654C286.901 267.335 279.36 279.882 271.204 279.706C271.204 279.706 270.048 299.76 278.712 302.65C289.95 309.396 285.019 313.328 281.149 314.451H240.079Z" fill="#EDC200"/>
<path d="M164.795 98.8016C174.474 99.3827 182.132 86.8421 184.751 80.4991L185.918 76.8637L180.041 76.8594C178.404 81.4593 173.158 91.0754 165.268 92.7402C144.607 81.8938 153.432 97.9252 138.34 89.2119C131.494 91.002 155.441 115.003 164.795 98.8016Z" fill="#FFB600"/>
<path d="M196.774 103.96L196.294 80.2413L241.801 78.1751L241.764 104.613L217.366 103.368L196.774 103.96Z" fill="black"/>
<rect x="176.239" y="65.4294" width="88.2021" height="14.3222" rx="7.16111" transform="rotate(1.44319 176.239 65.4294)" fill="black"/>
<path d="M180.59 197.461L174.252 206.535L173.209 212.694C171.037 225.513 198.5 233.262 212.502 235.534L266.951 220.182L264.12 206.815C244.933 202.606 218.401 215.454 207.534 222.405C198.679 205.32 185.882 198.657 180.59 197.461Z" fill="white"/>
<path d="M209.017 227.677L271.493 213.916L280.262 291.777L216.55 304.374L209.99 303.761C206.977 303.48 204.066 302.518 201.479 300.948L173.883 284.208L166.581 202.62C166.5 201.713 167.57 201.169 168.251 201.774C180.46 212.615 203.046 230.667 209.017 227.677Z" fill="#FF4362"/>
<path d="M210.033 236.37L271.874 221.034L280.184 291.207L216.451 304.798L210.033 236.37Z" fill="#D80041"/>
<path d="M183.874 257.939C195.081 245.188 178.759 238.548 172.015 233.009C170.225 231.539 169.376 229.328 168.76 227.095L165.879 216.639L140.691 220.838L143.316 231.894C143.803 237.782 171.177 272.386 183.874 257.939Z" fill="#FCDA40"/>
<path d="M257.668 258.632C246.461 245.881 262.783 239.242 269.527 233.703C271.317 232.233 272.166 230.022 272.782 227.789L275.663 217.333L300.851 221.532L298.226 232.587C297.739 238.476 270.365 273.08 257.668 258.632Z" fill="#FCDA40"/>
<path d="M133.538 56.7914L135.758 60.4171C136.062 60.9147 136.79 61.3681 137.374 61.4079L140.853 61.6896C143.08 61.8652 143.721 63.4119 142.286 65.1252L139.841 68.0283C139.433 68.5147 139.25 69.4163 139.449 70.0208L140.495 73.265C141.317 75.8264 140.019 76.9607 137.597 75.7918L134.214 74.1587C133.598 73.86 132.644 73.9497 132.095 74.3399L129.039 76.5151C126.852 78.0701 125.377 77.1755 125.754 74.5138L126.239 71.1449C126.329 70.5152 126.008 69.6563 125.521 69.2482L122.603 66.8C120.899 65.3595 121.268 63.7274 123.429 63.1736L126.803 62.3115C127.372 62.1612 128.015 61.6048 128.225 61.0584L129.798 57.1017C130.659 54.9694 132.339 54.829 133.538 56.7914Z" fill="#F9B700"/>
<path d="M106.799 78.5168L108.142 80.7108C108.326 81.012 108.766 81.2863 109.12 81.3104L111.225 81.4809C112.573 81.5871 112.96 82.5231 112.092 83.5598L110.613 85.3165C110.366 85.6109 110.255 86.1565 110.376 86.5222L111.008 88.4854C111.506 90.0354 110.72 90.7217 109.255 90.0144L107.208 89.0262C106.835 88.8455 106.258 88.8997 105.925 89.1359L104.076 90.4521C102.753 91.3931 101.86 90.8517 102.088 89.2411L102.382 87.2025C102.437 86.8214 102.242 86.3017 101.947 86.0548L100.181 84.5733C99.1504 83.7016 99.3736 82.7139 100.681 82.3789L102.723 81.8572C103.068 81.7662 103.457 81.4296 103.584 81.0989L104.536 78.7046C105.057 77.4143 106.073 77.3294 106.799 78.5168Z" fill="#F9B700"/>
<path d="M392.785 135.401L405.05 139.181L414.065 100.184L401.8 96.4035L392.785 135.401Z" fill="#F9B700"/>
<path d="M410.818 99.1913L402.956 133.599L406.26 134.617L414.122 100.21L410.818 99.1913Z" fill="#F9B700"/>
<path d="M401.799 96.4032L404.914 97.3633L395.484 134.532L393.42 132.62L401.799 96.4032Z" fill="#F9B700"/>
<path d="M393.257 145.645L400.461 147.865C401.824 148.285 403.264 147.453 403.582 146.063L405.442 137.92L393.177 134.14L391.241 142.154C390.998 143.673 391.774 145.294 393.257 145.645Z" fill="#E19178"/>
<path d="M393.188 142.754C392.871 144.144 393.841 145.825 395.204 146.245L400.461 147.865L393.257 145.645C391.894 145.225 390.924 143.544 391.361 142.084L393.177 134.14L395.004 134.809L393.188 142.754Z" fill="#CB836D"/>
<path d="M394.094 129.569L406.607 133.283L405.245 139.241L392.785 135.401L394.094 129.569Z" fill="#ECEEEE"/>
<path d="M401.799 96.4036L410.269 88.0652L414.065 100.184L401.799 96.4036Z" fill="#F9D798"/>
<path d="M411.187 90.9837C410.179 91.5658 408.89 91.2203 408.308 90.2122L408.242 90.0979L409.135 89.1421C409.676 88.5633 410.643 88.8132 410.835 89.5815L411.187 90.9837Z" fill="#420964"/>
<path d="M25.5709 144.796L33.2761 149.635L46.604 124.586L38.8988 119.747L25.5709 144.796Z" fill="#F9B700"/>
<path d="M44.5624 123.311L32.8661 145.429L34.9416 146.732L46.6379 124.614L44.5624 123.311Z" fill="#F9B700"/>
<path d="M38.8991 119.747L40.8559 120.976L27.5789 144.697L26.5162 143.009L38.8991 119.747Z" fill="#F9B700"/>
<path d="M24.0148 151.898L28.54 154.739C29.3962 155.277 30.5352 154.972 31.0077 154.078L33.7758 148.844L26.0706 144.005L23.275 149.137C22.8298 150.133 23.0637 151.385 24.0148 151.898Z" fill="#E19178"/>
<path d="M24.4983 149.905C24.0257 150.799 24.3818 152.128 25.238 152.666L28.5402 154.74L24.0149 151.898C23.1587 151.36 22.8026 150.031 23.3701 149.112L26.0707 144.005L27.1989 144.799L24.4983 149.905Z" fill="#CB836D"/>
<path d="M27.5377 141.044L35.4239 145.882L33.3985 149.712L25.5709 144.797L27.5377 141.044Z" fill="#ECEEEE"/>
<path d="M38.8987 119.747L46.2284 115.592L46.604 124.586L38.8987 119.747Z" fill="#F9D798"/>
<path d="M46.3217 117.759C45.5246 117.972 44.7053 117.499 44.4917 116.702L44.4675 116.612L44.8006 116.404C45.4728 115.985 46.3423 116.476 46.3296 117.269L46.3217 117.759Z" fill="#420964"/>
<defs>
<linearGradient id="paint0_linear_557_582" x1="-374.392" y1="457.315" x2="-267.583" y2="587.744" gradientUnits="userSpaceOnUse">
<stop stop-color="#01C070"/>
<stop offset="1" stop-color="#01C070"/>
</linearGradient>
</defs>
</svg>
