<svg width="447" height="334" fill="none" xmlns="http://www.w3.org/2000/svg"><path d="M197.317 28.756l3.044 4.971c.417.683 1.415 1.304 2.216 1.359l4.77.386c3.054.241 3.933 2.362 1.966 4.711l-3.353 3.981c-.559.667-.81 1.903-.537 2.732l1.434 4.449c1.127 3.512-.653 5.068-3.974 3.465l-4.639-2.24c-.845-.41-2.153-.286-2.906.249l-4.189 2.983c-3 2.132-5.023.905-4.505-2.745l.665-4.62c.124-.863-.318-2.04-.985-2.6l-4.002-3.357c-2.336-1.975-1.83-4.213 1.133-4.973l4.627-1.182c.78-.206 1.662-.969 1.95-1.718l2.157-5.426c1.181-2.924 3.484-3.116 5.128-.425z" fill="#FECA38"/><path d="M308.134 310.391c-3.949 6.882-31.448 22.891-70.242 22.891-38.793 0-70.242-10.249-70.242-22.891 0-12.643 104.406-58.012 143.199-58.012 41.787 13.929 23.435 22.286-2.715 58.012z" fill="#E0E6EA"/><path d="M249.347 38.14l2.543 4.154c.349.57 1.183 1.09 1.852 1.136l3.986.322c2.551.201 3.285 1.973 1.642 3.936l-2.801 3.326c-.468.558-.677 1.59-.449 2.283l1.198 3.717c.942 2.934-.546 4.234-3.32 2.895l-3.876-1.871c-.706-.342-1.799-.24-2.428.208l-3.5 2.492c-2.506 1.781-4.197.756-3.764-2.293l.555-3.86c.104-.721-.265-1.706-.822-2.173l-3.344-2.805c-1.952-1.65-1.529-3.52.946-4.154l3.866-.988c.652-.172 1.389-.81 1.63-1.436l1.802-4.533c.987-2.443 2.911-2.604 4.284-.355z" fill="#FECA38"/><path d="M227.054 156.18c-11.828-12.177-19.733 3.571-25.786 9.858-1.607 1.668-3.878 2.341-6.152 2.778l-10.651 2.049 2.202 25.44 11.227-1.746c5.909-.021 42.563-24.583 29.16-38.379zM35.475 136.574c14.096-9.459 18.563 7.586 23.182 14.991 1.225 1.966 3.308 3.095 5.442 3.994l9.994 4.213-7.429 24.43-10.622-4.036c-5.776-1.245-36.54-32.875-20.567-43.592z" fill="#01C070"/><path d="M203.668 297.621c-36.808 53.437-23.964 0-88.687-11.014-24.49-1.954-43.99-7.969-43.554-13.437-10.783-13.541 10.62-30.279 35.11-28.325 220.846-20.387 97.567 47.309 97.131 52.776z" fill="#E0E6EA"/><path d="M144.856 85.853c-34.149-3.21-54.578-1.8-61.287 4.229-6.708 6.03-11.996 27.732-15.862 65.108-3.208 31.999-3.142 52.929.199 62.789.334.198.69.426 1.07.683 8.629 5.307 26.91 9.217 54.843 11.732 34.093 3.26 54.522 1.85 61.286-4.23 6.709-6.029 11.996-27.732 15.863-65.108 3.261-30.551 3.401-51.017.418-61.399a6.92 6.92 0 00-.416-1.12c-8.037-5.64-26.742-9.868-56.114-12.684z" fill="url(#paint0_linear_732_1222)"/><ellipse cx="99.463" cy="169.878" rx="8.164" ry="8.195" transform="rotate(-2.81 99.463 169.878)" fill="#25D28A"/><ellipse cx="166.927" cy="170.083" rx="7.998" ry="8.195" transform="rotate(-2.81 166.927 170.083)" fill="#25D28A"/><path d="M96.298 127.983c-3.395 3.452-5.12 7.544-5.178 12.274-.059 4.787 1.567 8.829 4.879 12.126 3.254 3.355 7.239 4.998 11.955 4.928 4.716-.069 8.742-1.829 12.079-5.281 3.394-3.395 5.12-7.486 5.178-12.274.058-4.73-1.568-8.772-4.879-12.126-3.254-3.355-7.239-4.997-11.955-4.928-4.716.069-8.742 1.829-12.08 5.281z" fill="#fff"/><path d="M117.864 150.618c1.991-1.936 3.003-4.266 3.036-6.991.033-2.67-.923-4.944-2.867-6.822-1.944-1.933-4.321-2.879-7.132-2.838-2.755.041-5.128 1.056-7.12 3.047-2.047 1.937-3.087 4.24-3.12 6.91-.033 2.725.95 5.026 2.951 6.903 1.944 1.879 4.294 2.797 7.049 2.757 2.811-.041 5.212-1.03 7.203-2.966z" fill="#3D465D"/><path d="M151.011 126.663c-3.385 3.552-5.108 7.762-5.168 12.63-.06 4.928 1.56 9.088 4.861 12.483 3.243 3.454 7.216 5.147 11.919 5.078 4.702-.069 8.718-1.879 12.047-5.43 3.385-3.492 5.108-7.702 5.168-12.63.06-4.868-1.56-9.029-4.86-12.482-3.243-3.455-7.216-5.148-11.919-5.078-4.703.069-8.718 1.878-12.048 5.429z" fill="#fff"/><path d="M170.977 149.849c1.919-2.009 2.896-4.43 2.931-7.26.034-2.775-.884-5.139-2.755-7.092-1.87-2.011-4.159-2.996-6.866-2.956-2.652.039-4.939 1.091-6.859 3.157-1.973 2.01-2.977 4.402-3.011 7.177-.034 2.83.911 5.222 2.835 7.175 1.871 1.954 4.133 2.912 6.786 2.873 2.707-.04 5.02-1.065 6.939-3.074zm-21.335 29.242l.002-.103a70.102 70.102 0 002.19-1.883c.763-.765 1.183-1.697 1.259-2.795.078-1.167-.224-2.157-.906-2.969-.68-.882-1.522-1.349-2.527-1.403-1.067-.053-1.982.303-2.746 1.069-.508.487-1.048.975-1.62 1.463l-.094.001c-3.046 2.513-6.706 3.801-10.979 3.864-4.398.064-8.122-1.115-11.17-3.538a15.64 15.64 0 01-1.025-1.014c-.68-.881-1.522-1.349-2.527-1.403-1.067-.053-1.983.304-2.746 1.069-.826.766-1.278 1.733-1.355 2.9-.076 1.098.226 2.087.906 2.969a15.44 15.44 0 002.049 2.027c.063-.001.094.032.093.101 4.292 3.502 9.517 5.208 15.675 5.118 6.032-.089 11.206-1.913 15.521-5.473z" fill="#3D465D"/><path opacity=".9" d="M167.378 100.316c-5.534 6.573-13.02 7.577-16.072 7.257l5.076-9.593 10.996 2.336z" fill="#00AB64"/><path d="M139.511 78.69c-34.148-3.21-54.577-1.8-61.286 4.23-6.708 6.03-11.996 27.732-15.862 65.108-3.777 37.496-3.038 59.765 2.217 66.808.801 1.074 1.91 2.122 3.326 3.143-3.341-9.86-3.407-30.789-.199-62.788 3.866-37.377 9.154-59.08 15.862-65.109 6.709-6.03 27.138-7.44 61.286-4.23 29.373 2.817 48.078 7.045 56.114 12.684-.677-1.784-1.417-3.213-2.218-4.287-5.255-7.043-25.002-12.23-59.24-15.558z" fill="#25D28A"/><path d="M140.002 85.965c14.139-25.684 23.188-3.005 10.704 9.818-16.398 8.4-23.686-3.5-25.28-10.5 4.783-21.817 14.576-10.09 14.576.682z" fill="#01C070"/><path d="M134.99 265.013l-1.536-24.382-15.216.137-1.576 23.465-29.127-1.957c-11.68-4.014-2.073-8.951 4.19-10.918l.828-12.316c-21.223-3.092-28.247-16.5-28.224-24.013 39.77 21.298 100.341 15.532 123.718 8.368-6.093 14.826-20.997 17.01-27.273 16.452 0 0-1.929 15.394 4.598 18.07 8.311 5.78 4.307 8.555 1.267 9.22l-31.649-2.126z" fill="#009F5D"/><path d="M421.086 127.963c-11.762-13.728-19.644 3.848-25.684 11.055-1.634 1.95-4.091 2.801-6.58 3.343l-10.325 2.252 2.201 28.845 11.228-1.979c5.908-.024 42.562-27.874 29.16-43.516zm-191.58-22.229c14.03-10.675 18.521 8.419 23.117 16.878 1.237 2.276 3.464 3.671 5.775 4.775l9.726 4.649-7.429 27.7-10.621-4.576c-5.776-1.413-36.54-37.275-20.568-49.426z" fill="#FF86C9"/><path d="M376.302 255.684c0 16.476-29.439-6.456-42.201 18.217-26.143-2.364-40.986-11.805-40.535-18.217.451-6.412-51.409-55.4 52.477-25.121 26.143 2.364 30.71 18.709 30.259 25.121z" fill="#E0E6EA"/><path d="M337.829 64.561c-33.614-3.79-53.683-2.656-60.206 3.4-6.523 6.058-11.46 28.141-14.811 66.253-2.77 32.629-2.453 54.004.951 64.123.331.207.685.445 1.06.714 8.548 5.548 26.569 9.816 54.063 12.802 33.56 3.84 53.628 2.707 60.206-3.401 6.523-6.056 11.46-28.14 14.811-66.251 2.839-31.151 2.73-52.049-.328-62.695a7.379 7.379 0 00-.423-1.152c-7.969-5.879-26.411-10.477-55.323-13.793z" fill="#FF86C9"/><path d="M332.488 57.167c-33.613-3.79-53.682-2.656-60.205 3.4-6.523 6.057-11.461 28.141-14.812 66.252-3.262 38.235-2.267 60.987 2.984 68.258.801 1.11 1.904 2.196 3.308 3.26-3.404-10.119-3.721-31.494-.951-64.123 3.351-38.111 8.288-60.195 14.811-66.252 6.524-6.057 26.592-7.19 60.206-3.401 28.912 3.316 47.354 7.914 55.323 13.793-.687-1.832-1.432-3.302-2.233-4.412-5.251-7.27-24.728-12.862-58.431-16.775z" fill="#FFB0DC"/><path opacity=".9" d="M356.468 66.958c-5.082 6.859-12.261 8.253-15.215 8.093l4.523-9.852 10.692 1.76z" fill="#D95EA2"/><path d="M331.449 64.283c17.931-26.278 27.114-1.69 11.86 11.08-19.542 7.837-27.311-5.227-28.753-12.74 6.834-22.785 17.524-9.743 16.893 1.66z" fill="#FF86C9"/><path d="M329.022 251.361l-1.536-27.645-15.216.155-1.576 26.606-29.127-2.219c-11.68-4.551-2.073-10.149 4.19-12.379l.827-13.964c-21.223-3.507-26.631-18.92-26.608-27.437 39.77 24.147 98.725 17.82 122.103 9.698-6.093 16.809-20.998 19.286-27.274 18.654 0 0-1.929 17.454 4.598 20.488 8.312 6.553 4.308 9.699 1.267 10.453l-31.648-2.41z" fill="#FF62B9"/><path d="M307.957 98.821c-4.207 0-7.781 1.495-10.721 4.485-2.991 2.99-4.486 6.563-4.486 10.719 0 4.206 1.495 7.779 4.486 10.718 2.94 2.99 6.514 4.485 10.721 4.485 4.208 0 7.781-1.495 10.721-4.485 2.991-2.939 4.487-6.512 4.487-10.718 0-4.156-1.496-7.729-4.487-10.719-2.94-2.99-6.513-4.485-10.721-4.485z" fill="#fff"/><path d="M308.117 110.438c-2.109 0-3.916.774-5.423 2.323-1.549 1.506-2.324 3.314-2.324 5.422 0 2.151.775 3.98 2.324 5.486 1.507 1.506 3.314 2.259 5.423 2.259 2.152 0 3.981-.753 5.488-2.259 1.506-1.506 2.259-3.335 2.259-5.486 0-2.108-.753-3.916-2.259-5.422-1.507-1.549-3.336-2.323-5.488-2.323z" fill="#3D465D"/><path d="M353.58 98.821c-4.208 0-7.782 1.495-10.722 4.485-2.991 2.99-4.486 6.563-4.486 10.719 0 4.206 1.495 7.779 4.486 10.718 2.94 2.99 6.514 4.485 10.722 4.485 4.207 0 7.781-1.495 10.721-4.485 2.991-2.939 4.486-6.512 4.486-10.718 0-4.156-1.495-7.729-4.486-10.719-2.94-2.99-6.514-4.485-10.721-4.485z" fill="#fff"/><path d="M350.709 108.514c-2.371 0-4.403.871-6.096 2.612-1.742 1.693-2.613 3.725-2.613 6.095 0 2.419.871 4.474 2.613 6.167 1.693 1.693 3.725 2.54 6.096 2.54 2.419 0 4.476-.847 6.169-2.54 1.694-1.693 2.54-3.748 2.54-6.167 0-2.37-.846-4.402-2.54-6.095-1.693-1.741-3.75-2.612-6.169-2.612zm-60.773-3.003c.355.709.963 1.166 1.825 1.368l29.351 7.906c.811.203 1.597.101 2.357-.304.71-.405 1.166-1.039 1.369-1.9l1.596-5.854c.203-.861.102-1.621-.304-2.28-.456-.76-1.09-1.242-1.901-1.445l-29.35-7.905c-.862-.203-1.622-.076-2.281.38-.761.354-1.242.962-1.445 1.824l-1.597 5.853c-.203.862-.076 1.647.38 2.357zm47.372-11.707c-.811.254-1.419.76-1.825 1.52-.456.66-.583 1.42-.38 2.281l1.597 5.854c.202.861.684 1.495 1.444 1.9.71.405 1.47.481 2.282.228l29.35-7.83c.862-.203 1.496-.684 1.901-1.444.406-.659.507-1.42.304-2.28l-1.597-5.854c-.202-.862-.659-1.495-1.368-1.9-.71-.406-1.496-.507-2.357-.305l-29.351 7.83zm8.592 41.734c-.71-.456-1.495-.558-2.357-.304-.811.203-1.445.633-1.901 1.292-.406.558-.989 1.09-1.749 1.597-1.876 1.165-4.081 1.748-6.615 1.748-1.166 0-2.256-.101-3.27-.304-.862-.152-1.647 0-2.357.456-.71.355-1.166.963-1.369 1.824-.203.761-.05 1.495.456 2.205.406.608 1.065 1.014 1.977 1.216 1.369.304 2.89.456 4.563.456 3.903 0 7.274-.912 10.113-2.736l-.076.076c1.723-1.065 2.991-2.255 3.802-3.573.405-.71.507-1.444.304-2.205-.254-.81-.761-1.393-1.521-1.748z" fill="#3D465D"/><path d="M145.847 56.791l2.22 3.626c.304.498 1.032.951 1.616.99l3.479.283c2.227.175 2.868 1.722 1.433 3.435l-2.445 2.903c-.408.487-.591 1.388-.391 1.993l1.045 3.244c.822 2.561-.476 3.696-2.898 2.527l-3.383-1.633c-.616-.299-1.57-.21-2.119.18l-3.055 2.176c-2.188 1.555-3.663.66-3.286-2.001l.485-3.37c.091-.629-.231-1.488-.718-1.896l-2.918-2.448c-1.704-1.44-1.335-3.073.826-3.626l3.374-.862c.569-.15 1.212-.707 1.422-1.254l1.573-3.956c.862-2.133 2.541-2.273 3.74-.31zm259.231 78.61l12.266 3.78 9.014-38.997-12.265-3.78-9.015 38.997z" fill="#FECA38"/><path d="M423.111 99.191l-7.862 34.408 3.304 1.018 7.862-34.407-3.304-1.019zm-9.018-2.788l3.115.96-9.431 37.169-2.064-1.912 8.38-36.217z" fill="#FECA38"/><path d="M405.55 145.645l7.204 2.22a2.463 2.463 0 003.121-1.802l1.86-8.143-12.265-3.78-1.936 8.014c-.243 1.519.533 3.14 2.016 3.491z" fill="#E19178"/><path d="M405.481 142.754c-.317 1.39.653 3.071 2.016 3.491l5.257 1.62-7.204-2.22c-1.363-.42-2.333-2.101-1.896-3.561l1.816-7.944 1.827.669-1.816 7.945z" fill="#CB836D"/><path d="M406.387 129.569l12.513 3.714-1.362 5.958-12.46-3.84 1.309-5.832z" fill="#ECEEEE"/><path d="M414.092 96.404l8.47-8.339 3.796 12.119-12.266-3.78z" fill="#F9D798"/><path d="M423.48 90.984a2.107 2.107 0 01-2.879-.772l-.066-.114.893-.956a1 1 0 011.7.44l.352 1.402z" fill="#420964"/><path d="M318.758 137.638c-.327-13.056-7.216-19.584-20.667-19.584h-115.48c-13.386 0-20.242 6.528-20.569 19.584v109.574c.327 13.121 7.183 19.682 20.569 19.682h115.48c13.451 0 20.34-6.561 20.667-19.682V137.638z" fill="#FCDA40"/><path d="M214.044 149.134c-4.722 0-8.733 1.678-12.032 5.034-3.357 3.355-5.035 7.365-5.035 12.029 0 4.72 1.678 8.73 5.035 12.029 3.299 3.355 7.31 5.033 12.032 5.033s8.732-1.678 12.032-5.033c3.357-3.299 5.035-7.309 5.035-12.029 0-4.664-1.678-8.674-5.035-12.029-3.3-3.356-7.31-5.034-12.032-5.034z" fill="#fff"/><path d="M214.044 162.365c-2.485 0-4.615.913-6.39 2.738-1.826 1.775-2.739 3.904-2.739 6.389 0 2.535.913 4.69 2.739 6.465 1.775 1.774 3.905 2.662 6.39 2.662 2.536 0 4.692-.888 6.467-2.662 1.775-1.775 2.662-3.93 2.662-6.465 0-2.485-.887-4.614-2.662-6.389-1.775-1.825-3.931-2.738-6.467-2.738z" fill="#3D465D"/><path d="M265.245 149.134c-4.722 0-8.733 1.678-12.033 5.034-3.356 3.355-5.034 7.365-5.034 12.029 0 4.72 1.678 8.73 5.034 12.029 3.3 3.355 7.311 5.033 12.033 5.033 4.721 0 8.732-1.678 12.032-5.033 3.356-3.299 5.034-7.309 5.034-12.029 0-4.664-1.678-8.674-5.034-12.029-3.3-3.356-7.311-5.034-12.032-5.034z" fill="#fff"/><path d="M265.206 161.948c-2.542 0-4.72.934-6.536 2.801-1.868 1.815-2.801 3.993-2.801 6.534 0 2.593.933 4.798 2.801 6.613 1.816 1.815 3.994 2.722 6.536 2.722 2.594 0 4.799-.907 6.614-2.722 1.816-1.815 2.724-4.02 2.724-6.613 0-2.541-.908-4.719-2.724-6.534-1.815-1.867-4.02-2.801-6.614-2.801zm-70.862-11.285c.533.714 1.295 1.097 2.287 1.15l33.989 2.909c.936.063 1.784-.205 2.543-.804.704-.588 1.082-1.379 1.135-2.371l.603-6.782c.053-.992-.21-1.811-.789-2.459-.655-.749-1.45-1.155-2.386-1.218l-33.989-2.909c-.992-.053-1.807.238-2.444.873-.77.542-1.181 1.31-1.234 2.301l-.602 6.783c-.053.992.242 1.834.887 2.527zm53.095-9.548c-.94.162-1.692.635-2.255 1.421-.606.665-.859 1.492-.762 2.481l.909 6.748c.098.988.539 1.764 1.325 2.328.729.556 1.564.754 2.504.592l33.811-4.358c.989-.097 1.765-.539 2.329-1.325.549-.672.774-1.503.677-2.491l-.909-6.749c-.098-.988-.511-1.76-1.241-2.317-.729-.556-1.588-.785-2.577-.687l-33.811 4.357zm5.146 53.768c-.889-.897-2.004-1.3-3.346-1.209-1.25.033-2.316.457-3.196 1.272-.773.683-1.798 1.272-3.073 1.766-3.118 1.095-6.529 1.231-10.233.41-1.703-.378-3.263-.88-4.678-1.505-1.21-.501-2.407-.534-3.592-.097-1.152.288-2.016 1.029-2.592 2.222-.542 1.045-.558 2.168-.048 3.369.396 1.02 1.227 1.826 2.495 2.418 1.901.888 4.074 1.603 6.518 2.145 5.703 1.266 10.924 1.026 15.663-.72l-.135.087c2.863-.997 5.101-2.326 6.713-3.988.823-.906 1.209-1.946 1.159-3.123-.107-1.267-.659-2.283-1.655-3.047z" fill="#3D465D"/><path d="M298.091 118.054c13.451 0 20.34 6.528 20.667 19.584v-6.854c0-13.709-6.889-20.564-20.667-20.564h-115.48c-13.712 0-20.569 6.855-20.569 20.564v6.854c.327-13.056 7.183-19.584 20.569-19.584h115.48z" fill="#FFE677"/><path opacity=".9" d="M281.101 118.154c-5.749 10.767-15.854 14.371-20.188 14.827l4.22-14.827h15.968z" fill="#D0B126"/><path opacity=".9" d="M281.1 118.154c-5.748 10.767-15.854 14.371-20.188 14.827l4.22-14.827H281.1z" fill="#D0B126"/><path d="M255.201 308.511l-4.084-31.233-19.562 1.49v30.323h-37.638c-15.373-4.155-3.441-11.336 4.447-14.407v-15.916c-27.57-2.144-35.702-19.164-36.322-28.83 54.682 26.965 127.222 11.235 156.677 0-1.675 19.258-24.402 24.148-32.524 23.973 0 0-1.151 19.97 7.476 22.848 11.192 6.717 6.281 10.633 2.427 11.752h-40.897z" fill="#EDC200"/><path d="M179.983 108.11c10.387.765 18.793-12.591 21.698-19.365l1.306-3.887-6.311-.09c-1.825 4.916-7.599 15.166-16.096 16.839-22.031-11.949-12.787 5.396-28.867-4.181-7.378 1.823 17.989 27.946 28.27 10.684z" fill="#FFB600"/><path d="M216.299 117.987l-.515-25.474 48.875-2.219-.039 28.395-26.204-1.337-22.117.635z" fill="#000"/><rect x="194.244" y="76.605" width="94.731" height="15.382" rx="7.691" transform="rotate(1.443 194.244 76.605)" fill="#000"/><path d="M242.376 120.576c24.225-40.096 39.729-4.691 18.34 15.327-28.095 13.113-40.582-5.464-43.314-16.391 8.195-34.06 24.974-15.753 24.974 1.064z" fill="#FCDA40"/><path d="M242.376 120.576c24.225-40.096 39.729-4.691 18.34 15.327-28.095 13.113-40.582-5.464-43.314-16.391 8.195-34.06 24.974-15.753 24.974 1.064z" fill="#FCDA40"/><path d="M198.573 187.589l-6.339 9.073-1.043 6.16c-2.172 12.819 25.291 20.567 39.294 22.84l54.448-15.353-2.83-13.366c-19.187-4.209-45.719 8.639-56.587 15.589-8.854-17.084-21.651-23.747-26.943-24.943z" fill="#fff"/><path d="M227 217.805l62.476-13.762 8.769 77.861-63.712 12.598-6.56-.613a20.015 20.015 0 01-8.512-2.813l-27.596-16.74-7.302-81.588c-.081-.907.989-1.451 1.67-.847 12.209 10.842 34.795 28.893 40.767 25.904z" fill="#FF4362"/><path d="M228.016 226.498l61.84-15.336 8.31 70.173-63.732 13.591-6.418-68.428z" fill="#D80041"/><path d="M202.938 245.446c10.8-12.289-5.23-19.221-11.258-24.672-1.376-1.244-2.078-2.999-2.647-4.764l-3.078-9.537-23.768 3.962 2.477 10.433c.459 5.557 26.291 38.212 38.274 24.578zm72.695 3.314c-11.206-12.751 5.115-19.39 11.86-24.93 1.79-1.47 2.639-3.681 3.255-5.914l2.881-10.455 25.188 4.199-2.625 11.055c-.487 5.889-27.861 40.493-40.559 26.045z" fill="#FCDA40"/><path d="M39.098 140.034l9.49 5.961 16.418-30.855-9.491-5.961-16.417 30.855z" fill="#FECA38"/><path d="M62.49 113.569l-14.406 27.244 2.556 1.606 14.407-27.245-2.556-1.605zm-6.976-4.39l2.41 1.514-16.353 29.218-1.31-2.079 15.253-28.653z" fill="#FECA38"/><path d="M37.181 148.781l5.574 3.501a2.15 2.15 0 003.04-.815l3.41-6.447-9.492-5.961-3.443 6.322c-.549 1.227-.26 2.769.911 3.4z" fill="#E19178"/><path d="M37.776 146.327c-.582 1.101-.143 2.738.911 3.4l4.068 2.555-5.574-3.501c-1.055-.662-1.494-2.299-.795-3.431l3.327-6.291 1.39.978-3.327 6.29z" fill="#CB836D"/><path d="M41.52 135.411l9.714 5.96-2.495 4.718-9.642-6.055 2.423-4.623z" fill="#ECEEEE"/><path d="M55.514 109.179l9.029-5.118.462 11.079-9.49-5.961z" fill="#F9D798"/><path d="M64.657 106.73a1.84 1.84 0 01-2.254-1.302l-.03-.111.772-.481a1 1 0 011.529.864l-.017 1.03z" fill="#420964"/><defs><linearGradient id="paint0_linear_732_1222" x1="-374.602" y1="489.902" x2="-255.629" y2="622.278" gradientUnits="userSpaceOnUse"><stop stop-color="#01C070"/><stop offset="1" stop-color="#01C070"/></linearGradient></defs></svg>