<svg width="139" height="91" viewBox="0 0 139 91" fill="none" xmlns="http://www.w3.org/2000/svg">
<path d="M86.774 5.69667C82.5439 4.54635 76.8607 3.97119 69.7243 3.97119C62.5591 3.97119 56.8758 4.54635 52.6745 5.69667C48.1567 6.94558 44.6317 8.99972 42.0994 11.8591C39.5959 14.7513 37.7974 18.7774 36.7039 23.9374C35.8118 28.2757 35.3227 33.9451 35.2363 40.9456C35.2363 41.2743 35.2363 41.603 35.2363 41.9316C35.3227 48.9321 35.8118 54.6015 36.7039 58.9399C37.7974 64.1327 39.5959 68.1588 42.0994 71.0182C44.6317 73.9104 48.1567 75.9645 52.6745 77.1806C56.8758 78.3309 62.5591 78.9061 69.7243 78.9061C76.8607 78.9061 82.5439 78.3309 86.774 77.1806C91.3206 75.9645 94.8456 73.9104 97.3491 71.0182C99.8814 68.1588 101.68 64.1327 102.745 58.9399C103.637 54.6673 104.14 49.08 104.255 42.1781C104.255 42.0795 104.255 41.9974 104.255 41.9316V40.6991C104.14 33.7972 103.637 28.21 102.745 23.9374C101.68 18.7774 99.8814 14.7513 97.3491 11.8591C94.8456 8.99972 91.3206 6.94558 86.774 5.69667Z" fill="#01C070"/>
<path d="M57.1523 31.4409C54.9358 31.4409 53.0532 32.3407 51.5044 34.1401C49.9289 35.9396 49.1411 38.0898 49.1411 40.5908C49.1411 43.1222 49.9289 45.2724 51.5044 47.0414C53.0532 48.8409 54.9358 49.7406 57.1523 49.7406C59.3687 49.7406 61.2513 48.8409 62.8001 47.0414C64.3756 45.2724 65.1634 43.1222 65.1634 40.5908C65.1634 38.0898 64.3756 35.9396 62.8001 34.1401C61.2513 32.3407 59.3687 31.4409 57.1523 31.4409Z" fill="white"/>
<path d="M57.1524 38.5361C55.9859 38.5361 54.986 39.0256 54.1527 40.0044C53.2957 40.9561 52.8672 42.0981 52.8672 43.4304C52.8672 44.79 53.2957 45.9456 54.1527 46.8972C54.986 47.8489 55.9859 48.3247 57.1524 48.3247C58.3427 48.3247 59.3545 47.8489 60.1877 46.8972C61.021 45.9456 61.4376 44.79 61.4376 43.4304C61.4376 42.0981 61.021 40.9561 60.1877 40.0044C59.3545 39.0256 58.3427 38.5361 57.1524 38.5361Z" fill="#3D465D"/>
<path d="M81.1859 31.4409C78.9695 31.4409 77.0869 32.3407 75.5381 34.1401C73.9626 35.9396 73.1748 38.0898 73.1748 40.5908C73.1748 43.1222 73.9626 45.2724 75.5381 47.0414C77.0869 48.8409 78.9695 49.7406 81.1859 49.7406C83.4024 49.7406 85.285 48.8409 86.8338 47.0414C88.4093 45.2724 89.1971 43.1222 89.1971 40.5908C89.1971 38.0898 88.4093 35.9396 86.8338 34.1401C85.285 32.3407 83.4024 31.4409 81.1859 31.4409Z" fill="white"/>
<path d="M81.1677 38.3125C79.9746 38.3125 78.9518 38.8131 78.0996 39.8143C77.223 40.7877 76.7847 41.9558 76.7847 43.3186C76.7847 44.7091 77.223 45.8911 78.0996 46.8645C78.9518 47.8379 79.9746 48.3246 81.1677 48.3246C82.3852 48.3246 83.4201 47.8379 84.2724 46.8645C85.1246 45.8911 85.5508 44.7091 85.5508 43.3186C85.5508 41.9558 85.1246 40.7877 84.2724 39.8143C83.4201 38.8131 82.3852 38.3125 81.1677 38.3125Z" fill="#3D465D"/>
<path d="M47.9055 32.2606C48.1555 32.6431 48.5134 32.8486 48.9791 32.8769L64.9333 34.437C65.3727 34.4708 65.7707 34.3271 66.1272 34.0061C66.4574 33.6904 66.6349 33.2666 66.6598 32.7347L66.9426 29.0976C66.9675 28.5657 66.8441 28.1262 66.5725 27.7791C66.2652 27.3774 65.8918 27.1596 65.4524 27.1259L49.4981 25.5658C49.0324 25.5374 48.65 25.6934 48.3508 26.0337C47.9896 26.3247 47.7965 26.7362 47.7716 27.2681L47.4889 30.9052C47.464 31.4371 47.6028 31.8889 47.9055 32.2606Z" fill="#3D465D"/>
<path d="M72.6137 28.4214C72.1865 28.5739 71.866 28.8789 71.6524 29.3364C71.4121 29.7328 71.3453 30.1903 71.4521 30.7088L72.2933 34.2315C72.4001 34.75 72.6538 35.1313 73.0544 35.3753C73.4282 35.6193 73.8288 35.665 74.256 35.5125L89.7175 30.8003C90.1715 30.6783 90.5053 30.3886 90.7189 29.9311C90.9326 29.5346 90.986 29.0771 90.8791 28.5586L90.038 25.0359C89.9312 24.5174 89.6908 24.1362 89.317 23.8922C88.9431 23.6482 88.5292 23.5872 88.0752 23.7092L72.6137 28.4214Z" fill="#3D465D"/>
<path d="M76.8552 52.5593C76.3567 52.1932 75.8047 52.1119 75.1993 52.3152C74.6295 52.4779 74.1843 52.8237 73.8638 53.3524C73.5789 53.7999 73.1694 54.2269 72.6352 54.6337C71.3175 55.5692 69.7684 56.037 67.9878 56.037C67.1687 56.037 66.403 55.9556 65.6908 55.7929C65.0854 55.6709 64.5334 55.7929 64.0348 56.159C63.5362 56.4437 63.2157 56.9318 63.0733 57.6233C62.9308 58.2334 63.0376 58.8231 63.3938 59.3926C63.6787 59.8807 64.1416 60.2061 64.7827 60.3688C65.7442 60.6128 66.8126 60.7348 67.9878 60.7348C70.7299 60.7348 73.0981 60.0027 75.0924 58.5384L75.039 58.5994C76.2498 57.7453 77.1401 56.7894 77.7099 55.7319C77.9948 55.1625 78.0661 54.5727 77.9236 53.9626C77.7456 53.3118 77.3894 52.844 76.8552 52.5593Z" fill="#3D465D"/>
<path d="M86.7737 1.75282C82.5436 0.602502 76.8604 0.0273438 69.724 0.0273438C62.5588 0.0273438 56.8755 0.602502 52.6742 1.75282C48.1564 3.00173 44.6314 5.05587 42.0991 7.91523C39.5956 10.8074 37.7971 14.8336 36.7036 19.9935C35.6964 24.8249 35.1929 31.3159 35.1929 39.4668C35.1929 39.9597 35.2073 40.4527 35.236 40.9457C35.3224 33.9452 35.8116 28.2758 36.7036 23.9375C37.7971 18.7775 39.5956 14.7514 42.0991 11.8592C44.6314 8.99981 48.1564 6.94567 52.6742 5.69676C56.8755 4.54644 62.5588 3.97128 69.724 3.97128C76.8604 3.97128 82.5436 4.54644 86.7737 5.69676C91.3203 6.94567 94.8454 8.99981 97.3489 11.8592C99.8811 14.7514 101.68 18.7775 102.744 23.9375C103.636 28.2101 104.14 33.7973 104.255 40.6992C104.255 40.3048 104.255 39.894 104.255 39.4668C104.255 31.3159 103.752 24.8249 102.744 19.9935C101.68 14.8336 99.8811 10.8074 97.3489 7.91523C94.8454 5.05587 91.3203 3.00173 86.7737 1.75282Z" fill="#07E086"/>
<path d="M73.5397 88.6195H65.4783C64.3559 88.6195 63.3013 88.1347 62.4646 87.3864C57.2188 82.6944 45.9871 77.7634 34.3263 88.6195C21.9857 100.108 25.861 51.398 63.164 72.9341C65.3406 74.1907 67.7983 74.9655 70.3116 74.9655C72.6606 74.9655 74.9532 74.2834 77.0462 73.2171C110.905 55.9667 125.987 99.6998 105.451 88.6195C84.6504 77.3963 78.8122 83.0797 78.2161 84.1704L77.1305 86.382C76.4582 87.7516 75.0654 88.6195 73.5397 88.6195Z" fill="#FCDA40"/>
<path d="M2.91872 51.9863C2.69848 51.1053 2.82898 50.2944 3.3102 49.5536C3.54512 49.1543 3.83401 48.8519 4.17688 48.6466C4.50176 48.4089 4.87162 48.2521 5.28646 48.1761C6.15391 47.9798 6.96029 48.1219 7.7056 48.6023C9.78923 49.9191 11.9912 50.9818 14.3115 51.7905C12.1529 50.1523 10.1545 48.1486 8.31641 45.7796C7.79106 45.0597 7.57564 44.262 7.67015 43.3864C7.77125 42.4854 8.17784 41.7785 8.88994 41.2658C9.58404 40.7208 10.3655 40.5007 11.2342 40.6054C12.1209 40.7425 12.8425 41.1616 13.399 41.8628C15.0488 44.0429 16.8811 45.8228 18.8958 47.2024C19.9211 47.9246 21.2327 48.5076 22.8305 48.9516C22.2925 47.8729 21.6234 46.6896 20.8234 45.4015C20.3424 44.6119 20.1983 43.793 20.3911 42.9448C20.5905 42.0711 21.0643 41.4102 21.8124 40.9622C22.567 40.4886 23.3779 40.3587 24.2448 40.5722C24.8413 40.7107 25.3459 41.0012 25.7585 41.4437C25.9288 41.6004 26.0892 41.7952 26.2397 42.0284C26.6308 42.6563 26.9882 43.2611 27.3121 43.843C28.225 45.4084 28.933 46.8486 29.4363 48.1636C29.4543 48.1959 29.46 48.2248 29.4535 48.2503L29.7963 49.3704C30.6722 51.6907 31.1078 54.1346 31.103 56.7021C30.8311 60.5072 29.2092 63.0626 26.2371 64.3684C26.119 64.4176 26.0009 64.4667 25.8828 64.5159C25.5663 64.6193 25.2621 64.726 24.9702 64.8362C23.4763 65.2136 21.6835 65.3714 19.5917 65.3094C18.0804 65.2447 16.4224 65.0846 14.6178 64.8292L11.2346 64.463C10.3593 64.3838 9.48489 64.2501 8.61136 64.0621C8.38353 64.0261 8.159 63.9774 7.93777 63.9159C7.07082 63.7023 6.40584 63.217 5.94283 62.4598C5.48641 61.6771 5.35462 60.8616 5.54745 60.0133C5.74688 59.1396 6.22063 58.4787 6.96871 58.0307C7.72338 57.5572 8.53419 57.4272 9.40114 57.6408C10.5631 57.9363 11.7489 58.0882 12.9588 58.0964C9.92558 57.0896 7.06167 55.7336 4.36704 54.0284C3.79862 53.6792 3.38934 53.2239 3.13921 52.6625C3.03783 52.443 2.96434 52.2176 2.91872 51.9863Z" fill="#01C070"/>
<path d="M136.081 53.1745C136.302 52.2935 136.171 51.4826 135.69 50.7418C135.455 50.3425 135.166 50.0402 134.823 49.8348C134.498 49.5972 134.128 49.4403 133.714 49.3643C132.846 49.1681 132.04 49.3101 131.294 49.7905C129.211 51.1073 127.009 52.1701 124.688 52.9788C126.847 51.3405 128.845 49.3368 130.684 46.9678C131.209 46.2479 131.424 45.4502 131.33 44.5747C131.229 43.6736 130.822 42.9667 130.11 42.4541C129.416 41.9091 128.635 41.6889 127.766 41.7937C126.879 41.9307 126.157 42.3499 125.601 43.0511C123.951 45.2311 122.119 47.011 120.104 48.3906C119.079 49.1128 117.767 49.6959 116.169 50.1398C116.708 49.0612 117.377 47.8778 118.177 46.5897C118.658 45.8002 118.802 44.9813 118.609 44.133C118.409 43.2593 117.936 42.5984 117.188 42.1504C116.433 41.6769 115.622 41.5469 114.755 41.7605C114.159 41.8989 113.654 42.1894 113.242 42.632C113.071 42.7886 112.911 42.9835 112.76 43.2166C112.369 43.8445 112.012 44.4494 111.688 45.0313C110.775 46.5967 110.067 48.0368 109.564 49.3518C109.546 49.3841 109.54 49.413 109.547 49.4385L109.204 50.5586C108.328 52.8789 107.892 55.3228 107.897 57.8904C108.169 61.6954 109.791 64.2508 112.763 65.5566C112.881 65.6058 112.999 65.655 113.117 65.7041C113.434 65.8075 113.738 65.9143 114.03 66.0244C115.524 66.4019 117.317 66.5596 119.408 66.4976C120.92 66.4329 122.578 66.2729 124.382 66.0174L127.765 65.6513C128.641 65.572 129.515 65.4384 130.389 65.2503C130.616 65.2143 130.841 65.1656 131.062 65.1041C131.929 64.8906 132.594 64.4052 133.057 63.648C133.514 62.8653 133.645 62.0498 133.453 61.2016C133.253 60.3278 132.779 59.6669 132.031 59.2189C131.277 58.7454 130.466 58.6154 129.599 58.829C128.437 59.1245 127.251 59.2764 126.041 59.2846C129.074 58.2779 131.938 56.9219 134.633 55.2167C135.201 54.8674 135.611 54.4121 135.861 53.8507C135.962 53.6312 136.036 53.4058 136.081 53.1745Z" fill="#01C070"/>
</svg>
