<svg width="151" height="91" viewBox="0 0 151 91" fill="none" xmlns="http://www.w3.org/2000/svg">
<path d="M96.5419 20.0939C85.3526 9.26422 77.7833 3.84937 73.8341 3.84937C69.885 3.84937 62.3157 9.26422 51.1264 20.0939C41.5826 29.3947 36.1031 36.0996 34.688 40.2085C34.7538 40.3678 34.8196 40.543 34.8854 40.7341C36.5309 44.9067 41.9446 51.4045 51.1264 60.2275C62.2828 71.0573 69.8521 76.4721 73.8341 76.4721C77.7833 76.4721 85.3526 71.0573 96.5419 60.2275C105.724 51.4045 111.154 44.9067 112.832 40.7341C112.898 40.5748 112.947 40.4155 112.98 40.2563C111.631 36.1474 106.152 29.4266 96.5419 20.0939Z" fill="#FF8B78"/>
<path d="M52.8351 29.1949C50.8284 31.0078 49.7786 33.2191 49.6857 35.8286C49.5917 38.47 50.4819 40.7459 52.3561 42.6564C54.1964 44.5976 56.4811 45.6137 59.2102 45.7047C61.9392 45.7957 64.2907 44.9342 66.2646 43.1202C68.2702 41.3391 69.32 39.1279 69.414 36.4865C69.5068 33.877 68.6167 31.601 66.7435 29.6587C64.9033 27.7175 62.6186 26.7014 59.8895 26.6104C57.1604 26.5194 54.809 27.3809 52.8351 29.1949Z" fill="white"/>
<path d="M62.3499 42.6975C63.415 41.7353 63.9729 40.5423 64.0235 39.1187C64.0732 37.7235 63.6009 36.5105 62.6067 35.4796C61.6135 34.4202 60.3815 33.866 58.9106 33.817C57.4691 33.7689 56.2152 34.2402 55.1491 35.2309C54.0546 36.1921 53.4825 37.3703 53.4329 38.7655C53.3822 40.1892 53.8687 41.4169 54.8923 42.4488C55.8865 43.4797 57.1044 44.0192 58.5459 44.0673C60.0168 44.1163 61.2848 43.6597 62.3499 42.6975Z" fill="#3D465D"/>
<path d="M82.4274 30.1815C80.4206 31.9944 79.3708 34.2056 79.278 36.8152C79.184 39.4566 80.0742 41.7325 81.9484 43.6429C83.7887 45.5841 86.0734 46.6002 88.8024 46.6912C91.5315 46.7823 93.883 45.9208 95.8569 44.1067C97.8625 42.3257 98.9123 40.1144 99.0063 37.4731C99.0991 34.8635 98.209 32.5876 96.3358 30.6453C94.4956 28.7041 92.2109 27.688 89.4818 27.597C86.7527 27.506 84.4013 28.3675 82.4274 30.1815Z" fill="white"/>
<path d="M92.9654 43.7558C94.1778 42.6605 94.8128 41.3026 94.8705 39.6821C94.927 38.094 94.3894 36.7133 93.2578 35.5398C92.1272 34.334 90.7248 33.7031 89.0505 33.6473C87.4097 33.5926 85.9825 34.1291 84.7689 35.2567C83.5231 36.3509 82.8719 37.692 82.8154 39.2801C82.7577 40.9006 83.3115 42.2982 84.4766 43.4727C85.6083 44.6462 86.9945 45.2603 88.6354 45.315C90.3097 45.3708 91.753 44.8511 92.9654 43.7558Z" fill="#3D465D"/>
<path d="M81.8758 52.6254L81.8775 52.5777C82.2823 52.3044 82.6706 52.0306 83.0425 51.7563C83.4495 51.4194 83.6785 50.9969 83.7295 50.4888C83.7817 49.9489 83.6337 49.482 83.2856 49.088C82.9386 48.6623 82.5026 48.4247 81.9777 48.3753C81.4199 48.3249 80.9374 48.4681 80.5304 48.805C80.2594 49.019 79.972 49.2324 79.6682 49.4453L79.6189 49.4437C77.9998 50.5367 76.0724 51.0459 73.8365 50.9714C71.5349 50.8946 69.5989 50.2565 68.0285 49.0572C67.8369 48.8915 67.6617 48.7263 67.503 48.5617C67.156 48.1359 66.72 47.8984 66.1951 47.849C65.6372 47.7985 65.1548 47.9418 64.7478 48.2787C64.3079 48.6145 64.0619 49.0523 64.0097 49.5922C63.9587 50.1003 64.1067 50.5672 64.4537 50.993C64.7383 51.3211 65.0887 51.6514 65.5048 51.9839C65.5377 51.985 65.5535 52.0015 65.5524 52.0333C67.7623 53.7638 70.4784 54.6828 73.7006 54.7902C76.8572 54.8955 79.5822 54.1739 81.8758 52.6254Z" fill="#3D465D"/>
<path d="M96.5417 16.2719C85.3524 5.4422 77.7832 0.0273438 73.834 0.0273438C69.8848 0.0273438 62.3156 5.4422 51.1263 16.2719C39.9369 27.1653 34.3423 34.4913 34.3423 38.2498C34.3423 38.8232 34.4575 39.4761 34.6878 40.2087C36.103 36.0998 41.5824 29.395 51.1263 20.0942C62.3156 9.26445 69.8848 3.84959 73.834 3.84959C77.7832 3.84959 85.3524 9.26445 96.5417 20.0942C106.151 29.4268 111.631 36.1476 112.98 40.2565C113.211 39.4921 113.326 38.8232 113.326 38.2498C113.326 34.4913 107.731 27.1653 96.5417 16.2719Z" fill="#FFAA9D"/>
<path d="M46.2578 82.5798C47.6401 68.3738 50.519 60.0415 54.1663 57.4877C59.0785 55.7146 60.502 57.298 60.5997 58.3114L87.0758 57.9991C87.8057 55.8247 92.9653 57.0235 93.9595 57.8618C98.5783 61.7564 101.495 80.7266 101.237 80.7266C102.351 89.3922 96.7171 90.1942 93.761 89.512C88.8111 89.2125 88.0377 78.1344 86.1152 78.1344C82.6967 80.1299 79.8522 78.8489 78.8572 77.9589H68.7371C67.8665 79.5585 63.4961 79.7993 61.9327 78.4061C60.6023 77.2206 59.136 82.4117 58.456 85.2526C56.565 91.2396 46.5987 92.8724 46.2578 82.5798Z" fill="#484848"/>
<path d="M9.94722 57.0488C9.92759 56.7321 9.92628 56.4208 9.94329 56.1151C10.0217 53.2825 11.8876 51.3914 15.5409 50.4418C19.1815 49.4689 22.2232 49.5899 24.6662 50.8048C26.1266 51.5127 27.443 52.5467 28.6156 53.907L9.94722 57.0488Z" fill="#FF8B78"/>
<path d="M19.5733 77.7866C17.2228 78.4256 15.2662 77.7639 13.7032 75.8014C13.0916 75.0748 12.6378 74.3566 12.342 73.6465C10.2186 74.1396 8.41778 73.1456 6.93962 70.6644C5.59106 68.5327 5.59024 66.7062 6.93715 65.1848C5.22141 64.9641 4.3999 63.5726 4.47263 61.0103C4.52416 58.5777 6.34896 57.2572 9.94702 57.0488L28.6154 53.907C29.4258 54.8289 30.167 55.905 30.8392 57.1353C32.4877 60.1531 32.8942 63.2275 32.0586 66.3587C31.9344 66.7491 31.8038 67.1278 31.6669 67.495C29.2247 72.9638 25.1935 76.3943 19.5733 77.7866Z" fill="#FF8B78"/>
<path d="M141.067 20.1404C141.102 19.8251 141.12 19.5143 141.119 19.2081C141.186 16.3752 139.42 14.3963 135.821 13.2712C132.235 12.1236 129.191 12.0974 126.688 13.1926C125.193 13.829 123.825 14.7982 122.583 16.1001L141.067 20.1404Z" fill="#FF8B78"/>
<path d="M130.383 40.3869C132.697 41.1388 134.685 40.5725 136.348 38.688C136.996 37.9919 137.486 37.2964 137.818 36.6016C139.914 37.1967 141.763 36.291 143.368 33.8844C144.825 31.8206 144.92 29.9963 143.653 28.4117C145.378 28.2743 146.27 26.9242 146.33 24.3616C146.404 21.9295 144.649 20.5224 141.066 20.1404L122.583 16.1C121.726 16.9815 120.931 18.0205 120.196 19.2168C118.394 22.1511 117.829 25.2021 118.502 28.3697C118.606 28.7656 118.717 29.1502 118.835 29.5235C120.992 35.1035 124.841 38.7247 130.383 40.3869Z" fill="#FF8B78"/>
</svg>
