<svg width="151" height="100" fill="none" xmlns="http://www.w3.org/2000/svg"><path d="M134.015 47.376c.194-.749.079-1.438-.344-2.067a2.17 2.17 0 00-.764-.77 2.39 2.39 0 00-.977-.4 2.77 2.77 0 00-2.13.362 28.737 28.737 0 01-5.817 2.708c1.9-1.391 3.66-3.093 5.279-5.105.463-.612.652-1.29.569-2.033-.089-.765-.447-1.366-1.074-1.801a2.77 2.77 0 00-2.065-.561 2.947 2.947 0 00-1.906 1.068c-1.453 1.852-3.066 3.363-4.84 4.535-.903.614-2.058 1.109-3.466 1.486a37.178 37.178 0 011.768-3.016c.424-.67.55-1.366.381-2.086a2.546 2.546 0 00-1.252-1.684 2.757 2.757 0 00-2.142-.331c-.525.117-.97.364-1.333.74-.15.133-.291.298-.424.496a36.473 36.473 0 00-.944 1.542c-.804 1.33-1.428 2.553-1.871 3.67-.016.027-.021.052-.015.073l-.302.952a16.833 16.833 0 00-1.15 6.227c.239 3.232 1.667 5.403 4.285 6.512l.312.125c.278.088.546.179.803.272 1.316.32 2.895.455 4.737.402a46.877 46.877 0 004.38-.408l2.979-.31a20.14 20.14 0 002.31-.341 5.4 5.4 0 00.593-.125c.764-.181 1.349-.593 1.757-1.236.402-.665.518-1.358.348-2.078a2.542 2.542 0 00-1.251-1.684 2.757 2.757 0 00-2.142-.332c-1.024.251-2.068.38-3.133.387a34.887 34.887 0 007.566-3.455c.5-.297.861-.683 1.081-1.16.089-.187.154-.378.194-.574z" fill="#01C070"/><path d="M122.953 73.106V84.54m0 0l14.573 13.443M122.953 84.54l-13.081 13.444" stroke="#000" stroke-width="1.866"/><rect x="94.288" y="23.055" width="55.161" height="48.807" rx="2.488" fill="#fff" stroke="#000" stroke-width="2.488"/><g clip-path="url(#clip0_449_167)" fill="#000"><path d="M106.84 39.76a3.76 3.76 0 01-.582-.432 1.903 1.903 0 01-.378-.482 1.998 1.998 0 01-.207-.603 4.396 4.396 0 01-.062-.783v-2.626c0-.39.045-.74.135-1.046.089-.306.208-.565.356-.776.148-.21.317-.372.509-.483a1.18 1.18 0 01.599-.166h.727c.315 0 .563.11.745.329.181.218.272.572.272 1.061v4.17c0 .401.076.682.229.841.153.16.367.24.643.24h1.454c.159 0 .295-.02.407-.058a.6.6 0 00.272-.185.764.764 0 00.149-.333c.029-.136.044-.304.044-.505v-4.479c0-.21.016-.386.051-.525a.712.712 0 01.167-.331.63.63 0 01.312-.174c.131-.034.293-.05.487-.05h1.454c.237 0 .447.032.628.096.182.064.333.17.454.317.122.146.214.337.277.571.063.234.094.524.094.869v4.324c0 .165.024.283.073.355.048.072.145.108.291.108.14 0 .236-.042.287-.127a.648.648 0 00.076-.336v-5.097c0-.21.017-.386.051-.525a.721.721 0 01.167-.331.634.634 0 01.312-.174c.131-.034.293-.05.487-.05h1.454c.237 0 .447.032.628.096.182.064.333.17.455.317.121.146.213.337.276.571.063.234.094.524.094.869v5.405h-1.308v-5.405c0-.464-.074-.785-.221-.966-.148-.18-.365-.27-.651-.27h-.727c-.097 0-.174.007-.232.02a.235.235 0 00-.131.069.284.284 0 00-.058.143c-.01.062-.015.139-.015.231v5.097c0 .216-.028.395-.083.536a.88.88 0 01-.215.332.72.72 0 01-.301.166 1.32 1.32 0 01-.346.046h-.726c-.301 0-.533-.087-.698-.262-.165-.175-.247-.448-.247-.818v-4.324c0-.464-.074-.785-.222-.966-.147-.18-.364-.27-.65-.27h-.727c-.097 0-.174.007-.232.02a.232.232 0 00-.131.069.275.275 0 00-.058.143c-.01.062-.015.139-.015.231v4.479c0 .32-.026.588-.08.807a1.208 1.208 0 01-.254.525.966.966 0 01-.451.281 2.287 2.287 0 01-.668.085h-2.18c-.48 0-.842-.137-1.087-.413-.245-.275-.367-.703-.367-1.285v-4.17c0-.283-.041-.482-.123-.598a.372.372 0 00-.313-.174.71.71 0 00-.389.12 1.04 1.04 0 00-.323.355 2.155 2.155 0 00-.222.583 3.458 3.458 0 00-.083.795v2.625c0 .227.017.428.051.603.034.175.087.332.16.47.072.14.168.266.287.38.118.112.265.223.439.331l-.29.517zm17.58 0a2.422 2.422 0 01-.56-.459 1.789 1.789 0 01-.327-.552 2.781 2.781 0 01-.156-.699 8.82 8.82 0 01-.04-.9v-2.624c0-.35.042-.66.127-.93.085-.271.196-.498.334-.68.139-.183.295-.32.469-.414.174-.092.349-.139.523-.139h.727c.145 0 .28.025.403.074a.808.808 0 01.324.24c.092.11.163.254.214.432.051.177.076.392.076.644v2.162c.383 0 .744.031 1.083.093.339.062.657.147.952.255v-1.737c0-.397.048-.733.145-1.008.097-.275.23-.498.4-.668.17-.17.369-.293.6-.37.23-.078.478-.116.744-.116h1.89c.276 0 .53.042.763.127.233.085.432.224.6.417.167.193.296.446.388.76.092.315.139.703.139 1.166v3.707c0 .164.024.283.072.355.049.072.146.108.291.108.14 0 .236-.042.287-.127a.648.648 0 00.076-.336v-3.398c0-.432-.011-.796-.032-1.092a4.14 4.14 0 00-.117-.757 1.86 1.86 0 00-.221-.529 1.908 1.908 0 00-.349-.401h2.463c.31 0 .576.041.796.123.221.083.401.216.542.402.14.185.243.425.308.718.066.293.099.651.099 1.073v4.942h-1.309V34.68c0-.309-.023-.571-.069-.788a1.413 1.413 0 00-.214-.528.824.824 0 00-.363-.294 1.369 1.369 0 00-.516-.089h-.625c.058.216.104.497.138.842.034.345.051.785.051 1.32v3.398c0 .216-.028.395-.084.536a.879.879 0 01-.214.332.717.717 0 01-.302.166 1.309 1.309 0 01-.345.046h-.727c-.3 0-.533-.087-.698-.262-.164-.175-.247-.448-.247-.818v-3.707c0-.345-.034-.635-.101-.872a1.608 1.608 0 00-.28-.575.997.997 0 00-.418-.313 1.398 1.398 0 00-.509-.093h-1.162c-.199 0-.378.027-.538.081a.994.994 0 00-.411.263 1.22 1.22 0 00-.265.475 2.394 2.394 0 00-.095.726v1.992a4.1 4.1 0 01.738.486c.216.18.398.37.549.568.15.198.264.399.341.602.078.203.117.403.117.598 0 .325-.107.573-.32.745-.214.173-.494.259-.843.259-.383 0-.673-.104-.869-.313-.196-.208-.294-.567-.294-1.077V37.05a4.3 4.3 0 00-.908-.37 4.069 4.069 0 00-1.127-.147v3.089h-1.308v-5.869c0-.159-.011-.29-.033-.39a.67.67 0 00-.091-.235.291.291 0 00-.138-.116.476.476 0 00-.174-.03.576.576 0 00-.302.096.942.942 0 00-.283.29c-.085.128-.154.29-.207.482-.054.193-.08.419-.08.676v2.625c0 .283.008.531.025.745.017.214.054.403.109.568.056.164.136.308.24.432.104.123.244.24.418.347l-.29.517zm4.73-2.293v.92c0 .205.039.36.117.462a.377.377 0 00.32.155c.111 0 .187-.027.229-.081a.37.37 0 00.061-.228c0-.164-.061-.358-.185-.579a2.54 2.54 0 00-.542-.649z"/></g><path d="M106.694 62.926a2.42 2.42 0 01-.56-.46 1.829 1.829 0 01-.327-.551 2.826 2.826 0 01-.156-.7 9.092 9.092 0 01-.04-.899v-1.544c0-.602.055-1.11.164-1.521.109-.412.265-.745.469-1 .203-.255.448-.439.734-.552.285-.113.605-.17.959-.17h1.744v.618a2.74 2.74 0 00-.381.452 2.25 2.25 0 00-.273.606 4.92 4.92 0 00-.164.888c-.036.35-.054.782-.054 1.297v1.235c0 .551.104.946.312 1.186.209.239.541.359.996.359h2.398c.455 0 .787-.123.996-.367.208-.245.312-.637.312-1.178V58.31a3.57 3.57 0 00-.123-1.008 1.544 1.544 0 00-.382-.668 1.516 1.516 0 00-.654-.37 3.402 3.402 0 00-.948-.116v-.618h3.343c.339 0 .627.042.865.127.237.085.432.206.585.363.152.157.264.35.334.58.07.228.105.49.105.783v5.405h-1.308v-5.405c0-.36-.11-.656-.33-.888-.221-.231-.547-.347-.978-.347h-.581c.227.226.393.516.497.868.105.353.157.784.157 1.294v2.316c0 .736-.161 1.28-.483 1.633-.323.353-.792.53-1.407.53h-3.125c-.615 0-1.084-.175-1.406-.522-.322-.347-.483-.895-.483-1.64V59.39c0-.438.015-.827.044-1.166.029-.34.077-.641.145-.903.068-.263.156-.49.265-.68.109-.19.241-.355.396-.494h-.414c-.276 0-.522.041-.738.123a1.224 1.224 0 00-.548.425c-.151.2-.264.47-.342.807-.077.337-.116.76-.116 1.27v1.544c0 .284.008.532.025.745.017.214.053.403.109.568.056.165.136.309.24.432.104.124.244.24.418.348l-.291.517zm25.602-11.246a3.76 3.76 0 01-.582-.433 1.903 1.903 0 01-.378-.482 1.998 1.998 0 01-.207-.602 4.393 4.393 0 01-.062-.784v-2.934c0-.35.043-.66.128-.93.084-.271.196-.498.334-.68a1.43 1.43 0 01.469-.413c.174-.093.349-.14.523-.14h.727c.145 0 .279.025.403.074a.805.805 0 01.323.24c.092.11.164.254.215.432.051.177.076.392.076.645v4.169c0 .402.076.682.229.842.153.16.367.239.643.239h1.206a1.861 1.861 0 01-.57-.695c-.133-.278-.2-.612-.2-1.004v-1.698c0-.423.075-.83.225-1.22a2.98 2.98 0 01.673-1.039 3.23 3.23 0 011.112-.718c.443-.177.96-.266 1.551-.266.548 0 1.027.05 1.439.15.412.1.77.236 1.076.406.305.17.565.367.781.59.215.224.401.46.556.707-.8 0-1.546.055-2.239.166a12.27 12.27 0 00-1.885.444 8.264 8.264 0 00-1.49.64 5.346 5.346 0 00-1.065.765c.625.01 1.206.075 1.744.193.538.119 1.03.273 1.475.463.446.19.844.406 1.196.645.351.24.654.483.908.73.255.247.458.49.611.726.152.237.255.448.309.633h-1.309a1.833 1.833 0 00-.352-.648 3.956 3.956 0 00-.661-.641 6.56 6.56 0 00-.891-.58 8.23 8.23 0 00-1.032-.474 7.228 7.228 0 00-1.09-.32 5.162 5.162 0 00-1.061-.117v.464c0 .324.069.596.207.814.139.22.33.394.574.525.245.132.536.224.872.278.337.054.706.081 1.109.081v.618h-4.506c-.48 0-.842-.138-1.086-.413-.245-.276-.367-.704-.367-1.286v-4.17c0-.159-.011-.289-.033-.39a.67.67 0 00-.091-.235.302.302 0 00-.138-.116.484.484 0 00-.175-.03.573.573 0 00-.301.096.931.931 0 00-.283.29c-.085.129-.154.29-.208.482-.053.193-.08.419-.08.676v2.934c0 .227.017.427.051.602.034.175.088.332.16.471.073.14.169.265.287.379.119.113.266.223.44.332l-.29.517zm3.859-4.116c.261-.226.559-.441.893-.645a8.385 8.385 0 011.087-.552c.39-.164.803-.307 1.239-.428.436-.121.886-.218 1.352-.29a2.952 2.952 0 00-.774-.416c-.313-.119-.707-.178-1.181-.178-.374 0-.716.064-1.029.193a2.51 2.51 0 00-1.362 1.332 2.662 2.662 0 00-.225.984zm-15.369-3.041a3.99 3.99 0 01-.879-.08 2.525 2.525 0 01-.581-.202 1.763 1.763 0 01-.386-.258 7.452 7.452 0 00-.298-.26 1.492 1.492 0 00-.319-.2 1.057 1.057 0 00-.444-.08v-.618h4.215c.364 0 .674.059.931.177.256.118.466.29.628.513.162.224.282.498.36.823.077.324.116.695.116 1.112 0 1.436-.361 2.586-1.083 3.451l.938.363c.092.036.173.066.243.089a.62.62 0 00.193.035c.165 0 .278-.072.341-.217.063-.144.095-.355.095-.633v-4.324c0-.252.022-.465.065-.64a.976.976 0 01.218-.429.894.894 0 01.404-.243c.167-.052.374-.078.621-.078h2.18c.286 0 .538.044.756.132.218.087.4.212.545.374.145.162.255.358.331.587.075.229.112.483.112.76v5.405h-1.308v-5.404c0-.443-.092-.76-.276-.95-.184-.19-.48-.286-.887-.286h-1.453c-.15 0-.273.013-.367.039a.436.436 0 00-.222.131.52.52 0 00-.109.24 1.94 1.94 0 00-.029.362v4.324c0 .284-.015.523-.047.718a1.58 1.58 0 01-.145.479.617.617 0 01-.251.266.747.747 0 01-.356.081 1.6 1.6 0 01-.389-.054 4.672 4.672 0 01-.483-.154l-2.369-.911a5.463 5.463 0 001.061-1.59c.242-.567.363-1.208.363-1.923 0-.66-.118-1.159-.356-1.498-.237-.34-.603-.51-1.097-.51h-1.555c.092.124.212.232.359.324.148.093.353.14.614.14v.617zm-16.374 5.173c.242-.257.482-.478.72-.664.237-.185.477-.337.719-.455.242-.119.491-.206.745-.263a3.692 3.692 0 011.973.108c.378.13.754.27 1.13.425.375.154.756.296 1.141.425s.786.193 1.202.193c.252 0 .463-.022.633-.066a.819.819 0 00.403-.224.915.915 0 00.211-.424c.041-.178.061-.403.061-.676v-.131a30.808 30.808 0 01-1.199-.155 4.84 4.84 0 01-.995-.247 1.737 1.737 0 01-.68-.436c-.167-.183-.25-.426-.25-.73 0-.18.027-.338.083-.475a.966.966 0 01.226-.34.9.9 0 01.327-.2 1.13 1.13 0 01.381-.066c.203 0 .399.042.585.127.186.085.343.21.469.375l-.4.425a.96.96 0 00-.331-.248.784.784 0 00-.287-.061.366.366 0 00-.29.123.494.494 0 00-.109.34.5.5 0 00.192.405c.129.106.304.192.527.259.223.067.485.121.785.162.3.041.623.083.967.124V44.06c0-.402.1-.708.301-.919.201-.211.488-.316.861-.316h.727c.179 0 .349.038.509.115.16.077.299.193.418.348.118.154.212.347.279.579.068.231.102.502.102.81v3.267c.281.103.548.225.8.366.251.142.482.31.69.502.208.193.389.415.541.664.153.25.27.537.353.861l-.603.17a.688.688 0 00-.175-.313.411.411 0 00-.298-.112c-.077 0-.177.012-.298.035a2.106 2.106 0 00-.392.12l-.197-.58a4.49 4.49 0 01.429-.142 2.9 2.9 0 01.385-.081 2.75 2.75 0 00-.559-.494 4.162 4.162 0 00-.676-.363v1.505h-1.308v-1.884a14.415 14.415 0 00-.654-.108 29.24 29.24 0 00-.654-.085v.07c0 .407-.04.747-.12 1.023a1.39 1.39 0 01-.407.668c-.191.17-.446.29-.763.363a5.437 5.437 0 01-1.181.108c-.315 0-.607-.023-.876-.07a8.237 8.237 0 01-.77-.17 10.212 10.212 0 01-.716-.223 10.885 10.885 0 00-.708-.224 8.13 8.13 0 00-.749-.17 4.726 4.726 0 00-.832-.07 3.12 3.12 0 00-1.185.213 2.378 2.378 0 00-.85.56l-.363-.387zm9.52-2.3c.218.025.435.054.65.084.216.031.435.067.658.109v-2.911c0-.453-.062-.773-.185-.958a.61.61 0 00-.542-.278c-.387 0-.581.206-.581.618v3.335zm6.54 14.719c.242-.257.482-.479.719-.664.238-.185.477-.337.72-.456.242-.118.49-.205.745-.262a3.62 3.62 0 01.795-.085c.407 0 .8.064 1.178.193.377.129.754.27 1.129.425.376.154.756.296 1.141.425.385.128.786.193 1.203.193.252 0 .463-.022.632-.066a.814.814 0 00.403-.224c.1-.105.17-.247.211-.425.041-.177.062-.402.062-.675v-.132a30.56 30.56 0 01-1.199-.154 4.851 4.851 0 01-.996-.247 1.733 1.733 0 01-.679-.436c-.167-.183-.251-.426-.251-.73 0-.18.028-.339.084-.475a.917.917 0 01.552-.54 1.14 1.14 0 01.382-.066c.203 0 .398.042.585.127.186.085.342.21.468.375l-.399.424a.98.98 0 00-.331-.247.789.789 0 00-.287-.062.37.37 0 00-.291.124.494.494 0 00-.109.34.5.5 0 00.193.405c.128.105.304.192.527.259.223.067.484.12.785.162.3.041.622.082.966.123V56.48c0-.402.101-.708.302-.92.201-.21.488-.316.861-.316h.727c.179 0 .348.039.508.116.16.077.299.193.418.347.119.155.212.348.28.58.068.231.102.501.102.81v3.266c.281.103.547.226.799.367.252.142.482.309.69.502.209.193.389.414.542.664.153.25.27.537.352.86l-.603.17a.696.696 0 00-.174-.312.413.413 0 00-.298-.112c-.078 0-.177.012-.298.035a2.114 2.114 0 00-.393.12l-.196-.58a4.31 4.31 0 01.429-.142c.14-.04.269-.066.385-.081a2.782 2.782 0 00-.56-.495 4.11 4.11 0 00-.675-.362V62.5h-1.309v-1.884a14.415 14.415 0 00-.654-.108 29.24 29.24 0 00-.654-.085v.07c0 .406-.039.747-.119 1.023a1.39 1.39 0 01-.407.667c-.192.17-.446.291-.763.363a5.45 5.45 0 01-1.181.109c-.315 0-.607-.024-.876-.07a8.098 8.098 0 01-.77-.17 10.049 10.049 0 01-.716-.224 10.913 10.913 0 00-.709-.224 8.108 8.108 0 00-.748-.17 4.734 4.734 0 00-.832-.069c-.441 0-.836.07-1.185.212a2.369 2.369 0 00-.85.56l-.363-.386zm9.52-2.3c.218.025.434.053.65.084.216.03.435.067.658.108v-2.91c0-.454-.062-.773-.186-.958a.609.609 0 00-.541-.278c-.388 0-.581.206-.581.617v3.336z" fill="#000"/><path d="M11.015 70.131c5.369 4.284 7.408-3.048 9.38-5.853.438-.623 1.132-.968 1.84-1.24l4.14-1.589-2.37-10.18-4.177 1.427c-2.253.386-14.755 12.696-8.813 17.435zM100.77 52.09c-2.089-6.802-7.738-2.005-10.862-.928-.683.235-1.416.096-2.12-.108l-4.28-1.236-3.555 9.782 4.19 1.383c2.053 1.06 18.933-1.383 16.627-8.892z" fill="#7288EA"/><path d="M83.663 29.036c-.127-5.385-2.798-8.077-8.013-8.077H30.875c-5.19 0-7.848 2.692-7.975 8.077v45.192c.127 5.412 2.785 8.118 7.976 8.118H75.65c5.215 0 7.886-2.706 8.013-8.118V29.036z" fill="#779BEB"/><path d="M36.498 35.536c-1.494 1.589-2.241 3.487-2.241 5.695 0 2.234.747 4.132 2.24 5.694 1.469 1.589 3.254 2.383 5.355 2.383 2.102 0 3.886-.794 5.355-2.383 1.494-1.562 2.24-3.46 2.24-5.694 0-2.208-.746-4.106-2.24-5.695-1.469-1.588-3.254-2.383-5.355-2.383-2.101 0-3.886.795-5.354 2.383z" fill="#fff"/><path d="M45.616 43.678c.632-.672.947-1.488.947-2.447 0-.94-.315-1.747-.947-2.419-.632-.69-1.399-1.036-2.301-1.036-.884 0-1.642.345-2.274 1.036a3.355 3.355 0 00-.975 2.419c0 .96.325 1.775.975 2.447.632.671 1.39 1.007 2.274 1.007.902 0 1.67-.336 2.3-1.008z" fill="#3D465D"/><path d="M59.283 35.536c-1.494 1.589-2.24 3.487-2.24 5.695 0 2.234.746 4.132 2.24 5.694 1.468 1.589 3.253 2.383 5.355 2.383 2.101 0 3.886-.794 5.355-2.383 1.493-1.562 2.24-3.46 2.24-5.694 0-2.208-.747-4.106-2.24-5.695-1.469-1.588-3.254-2.383-5.355-2.383-2.102 0-3.887.795-5.355 2.383z" fill="#fff"/><path d="M69.029 43.654c.625-.666.938-1.473.938-2.424 0-.93-.313-1.73-.938-2.394-.626-.685-1.385-1.027-2.279-1.027-.876 0-1.626.342-2.252 1.027a3.322 3.322 0 00-.965 2.394c0 .95.322 1.759.965 2.424.626.665 1.376.997 2.252.997.894 0 1.653-.332 2.279-.997zm-9.556 10.863v-.04c.304-.242.595-.485.874-.727.303-.296.468-.66.493-1.09.026-.458-.101-.848-.38-1.172-.278-.35-.62-.538-1.025-.565a1.387 1.387 0 00-1.101.404c-.203.188-.418.377-.646.565h-.038c-1.215.97-2.683 1.454-4.405 1.454-1.772 0-3.279-.484-4.52-1.454a6.35 6.35 0 01-.417-.404c-.279-.35-.62-.538-1.025-.565a1.387 1.387 0 00-1.102.404 1.58 1.58 0 00-.531 1.13c-.026.431.1.822.38 1.172.227.27.506.538.835.808.025 0 .038.013.038.04 1.747 1.4 3.86 2.1 6.342 2.1 2.43 0 4.507-.686 6.228-2.06z" fill="#3D465D"/><path d="M75.65 20.959c5.215 0 7.886 2.692 8.013 8.077v-2.827c0-5.654-2.671-8.481-8.013-8.481H30.875c-5.316 0-7.975 2.827-7.975 8.48v2.828c.127-5.385 2.785-8.077 7.976-8.077H75.65z" fill="url(#paint0_linear_449_167)"/><ellipse cx="4.583" cy="4.24" rx="4.583" ry="4.24" transform="matrix(.99864 -.05214 .04609 .99894 29.485 51.398)" fill="#93C0F0"/><ellipse cx="4.583" cy="4.24" rx="4.583" ry="4.24" transform="matrix(.99864 -.05214 .04609 .99894 64.757 51.777)" fill="#93C0F0"/><path d="M69.062 21c-2.228 4.44-6.147 5.927-7.827 6.115L62.87 21h6.191z" fill="#668CDF"/><path d="M59.02 99.51l-1.583-12.88-7.585.614V99.75H35.26c-5.96-1.714-1.334-4.676 1.724-5.942v-6.565c-10.69-.884-13.842-7.904-14.083-11.89 21.202 11.121 49.343 4.634 60.763 0-2.542 8.083-9.477 9.96-12.626 9.887 0 0-.446 8.237 2.9 9.424 4.338 2.77 2.434 4.385.94 4.846H59.02z" fill="#4D63C8"/><path d="M54.048 22.682c9.392-15.157 15.404-1.774 7.11 5.794-10.893 4.956-15.734-2.066-16.793-6.197 3.177-12.875 9.683-5.954 9.683.403z" fill="#779BEB"/><rect width="2.732" height="32.813" rx="1.366" transform="matrix(.93265 .36079 -.3235 .94623 101.712 33.09)" fill="#000"/><path d="M11.207 31.842c3.348-1.781 3.488-7.814 3.14-10.608l-.312-1.533-1.966 1.206c.34 1.972.443 6.47-1.874 8.682-9.003.385-2.957 4.275-9.685 4.275-1.944 2.042 10.697 5.661 10.697-2.022z" fill="#FFB600"/><path d="M22.895 27.11l-4.739-8.338 14.818-10.08 5.091 9.41-6.86 3.138a17.416 17.416 0 00-3.45 2.09l-4.86 3.78z" fill="#000"/><rect width="34.563" height="5.804" rx="2.902" transform="matrix(.86543 -.50102 .45548 .89025 8.59 17.622)" fill="#000"/><defs><linearGradient id="paint0_linear_449_167" x1="53.092" y1="17.526" x2="53.092" y2="52.662" gradientUnits="userSpaceOnUse"><stop stop-color="#95C2F0"/><stop offset="1" stop-color="#6B8EE9"/></linearGradient><clipPath id="clip0_449_167"><path fill="#fff" transform="translate(105.611 31.99)" d="M0 0h32.819v8.214H0z"/></clipPath></defs></svg>