<svg width="103" height="100" fill="none" xmlns="http://www.w3.org/2000/svg"><path d="M54.602 24.28c-14.46-.537-22.993.377-25.6 2.744-2.607 2.366-4.065 10.523-4.376 24.47-.223 11.938.54 19.705 2.29 23.301.148.067.306.145.474.233 3.812 1.804 11.63 2.905 23.454 3.303 14.44.557 22.973-.358 25.6-2.744 2.608-2.367 4.066-10.523 4.377-24.47.296-11.402-.364-19.001-1.983-22.797a2.503 2.503 0 00-.214-.409c-3.575-1.939-11.582-3.15-24.022-3.632z" fill="#FF86C9"/><path d="M52.105 21.724c-14.46-.537-22.993.378-25.6 2.744-2.607 2.366-4.065 10.523-4.376 24.47-.27 13.99.824 22.24 3.28 24.754.374.384.877.751 1.507 1.103-1.75-3.596-2.513-11.363-2.29-23.301.31-13.947 1.77-22.104 4.376-24.47 2.607-2.367 11.14-3.281 25.6-2.745 12.44.483 20.447 1.693 24.022 3.632-.347-.649-.708-1.165-1.083-1.549-2.455-2.513-10.934-4.06-25.436-4.638z" fill="#FFB0DC"/><path d="M39.645 70.77c.591-5.18 1.823-8.218 3.384-9.149 2.102-.647 2.71-.07 2.753.3l11.329-.114c.312-.792 2.52-.355 2.945-.05 1.976 1.42 3.224 8.337 3.114 8.337.477 3.16-1.934 3.452-3.199 3.203-2.118-.109-2.449-4.148-3.271-4.148-1.463.728-2.68.26-3.106-.064h-4.33c-.373.583-2.243.671-2.912.163-.57-.432-1.197 1.46-1.487 2.496-.81 2.183-5.074 2.779-5.22-.974z" fill="#484848"/><path d="M56.34 92.448L54.87 82.43l-6.49.437.11 9.717-12.5-.078c-5.12-1.363-1.183-3.64 1.425-4.608l-.057-5.1c-9.163-.744-11.924-6.215-12.165-9.314 17.687 7.788 42.668 4.01 52.408.47-2.107 6.268-8.396 7.542-11.094 7.469 0 0-.31 6.397 2.565 7.337 3.74 2.176 2.124 3.42.848 3.771l-13.58-.084z" fill="#FF62B9"/><path d="M42.864 37.49c-1.796.105-3.277.738-4.445 1.9-1.188 1.162-1.722 2.499-1.6 4.01.124 1.53.867 2.793 2.23 3.787 1.343 1.014 2.913 1.468 4.709 1.363 1.796-.105 3.278-.739 4.445-1.9 1.19-1.144 1.723-2.481 1.6-4.011-.122-1.512-.866-2.774-2.23-3.787-1.343-1.014-2.913-1.468-4.709-1.363z" fill="#fff"/><path d="M43.274 41.71c-.9.054-1.65.38-2.247.982-.617.586-.895 1.263-.833 2.03.064.783.448 1.428 1.154 1.937.687.51 1.48.739 2.381.686.919-.054 1.677-.373 2.276-.959.599-.585.867-1.27.803-2.052-.062-.767-.436-1.405-1.123-1.915-.689-.526-1.493-.762-2.411-.708z" fill="#3D465D"/><path d="M61.675 36.959c-1.796.105-3.278.739-4.445 1.9-1.189 1.163-1.722 2.5-1.6 4.011.123 1.53.867 2.792 2.23 3.787 1.343 1.014 2.912 1.468 4.708 1.363 1.797-.106 3.278-.739 4.445-1.9 1.19-1.144 1.724-2.481 1.6-4.011-.122-1.512-.865-2.774-2.23-3.787-1.343-1.014-2.912-1.468-4.708-1.363z" fill="#fff"/><path d="M60.734 40.557c-1.012.059-1.854.426-2.526 1.102-.694.66-1.006 1.42-.936 2.283.071.88.503 1.605 1.297 2.178.772.573 1.664.83 2.677.77 1.032-.06 1.885-.42 2.558-1.077.674-.659.974-1.428.903-2.307-.07-.862-.49-1.58-1.263-2.154-.774-.59-1.677-.856-2.71-.795zm-25.417-.867c.172.248.445.4.819.451l12.761 2.141c.353.054.685-.003.998-.17.29-.165.467-.407.528-.725l.51-2.17c.061-.318-.005-.592-.197-.821a1.32 1.32 0 00-.854-.478l-12.761-2.14c-.374-.053-.695.012-.963.195-.314.148-.502.381-.563.7l-.51 2.169a.954.954 0 00.232.847z" fill="#3D465D"/><path d="M53.354 38.049c-.339.112-.584.312-.734.598-.176.251-.207.531-.096.84l.854 2.089c.112.308.336.526.673.655.314.13.641.138.98.026l12.3-3.584c.361-.095.617-.286.768-.573.154-.25.175-.528.063-.837l-.854-2.089a1.09 1.09 0 00-.64-.657 1.558 1.558 0 00-1.015-.051l-12.299 3.583zm5.502 12.093a1.086 1.086 0 00-1.017-.084 1.317 1.317 0 00-.763.657c-.151.273-.38.538-.685.796-.757.597-1.676.927-2.758.99-.497.03-.967.009-1.407-.061a1.24 1.24 0 00-.989.274c-.29.185-.46.483-.515.894-.057.364.036.707.28 1.028.195.277.492.452.89.524.595.11 1.25.143 1.964.101 1.666-.098 3.07-.612 4.213-1.543l-.03.037c.696-.545 1.191-1.138 1.487-1.78.146-.344.162-.693.046-1.047-.139-.375-.377-.638-.716-.786z" fill="#3D465D"/><path d="M60.284 70.87c-3.063-4.033.657-5.954 3.822-7.438 2.311-1.084 3.83-3.085 4.89-5.376l.645-1.396 9.926 2.562-1.622 3.895c-.497 2.112-13.288 13.509-17.661 7.752zm-17.4-3.156c2.956-3.81-.55-5.998-3.488-7.713-2.112-1.233-3.426-3.245-4.317-5.466l-.657-1.64-9.312 1.814 1.44 3.992c.423 2.137 12.143 14.413 16.334 9.013z" fill="#FF86C9"/></svg>